<?xml version="1.0" encoding="utf-8"?>
<!-- Generator: Adobe Illustrator 24.1.0, SVG Export Plug-In . SVG Version: 6.00 Build 0)  -->
<svg version="1.1" id="Layer_1" xmlns="http://www.w3.org/2000/svg" xmlns:xlink="http://www.w3.org/1999/xlink" x="0px" y="0px"
	 viewBox="0 0 792 612" style="enable-background:new 0 0 792 612;" xml:space="preserve">
<style type="text/css">
	.st0{clip-path:url(#SVGID_2_);}
	.st1{fill-rule:evenodd;clip-rule:evenodd;fill:#8D7049;}
	.st2{fill:#8D7049;}
	.st3{fill:#FFFFFF;}
</style>
<g>
	<g>
		<defs>
			<rect id="SVGID_1_" x="350.65" y="135.92" width="90.71" height="340.16"/>
		</defs>
		<use xlink:href="#SVGID_1_"  style="overflow:visible;"/>
		<clipPath id="SVGID_2_">
			<use xlink:href="#SVGID_1_"  style="overflow:visible;"/>
		</clipPath>
		<g class="st0">
			<g>
				<g>
					<polygon class="st1" points="398.43,232.18 398.46,232.18 398.46,232.21 407.07,232.21 407.07,232.18 407.14,232.18 
						407.14,232.14 407.21,232.14 407.21,232.1 407.25,232.1 407.25,232.07 407.29,232.07 407.29,232.03 407.32,232.03 407.32,232 
						407.36,232 407.36,231.92 407.4,231.92 407.4,231.81 407.43,231.81 407.43,231.63 407.4,231.63 407.4,231.52 407.36,231.52 
						407.36,231.45 407.32,231.45 407.32,231.41 407.29,231.41 407.29,231.38 407.25,231.38 407.25,231.34 407.18,231.34 
						407.18,231.3 407.1,231.3 407.1,231.26 398.43,231.26 					"/>
					<polygon class="st1" points="387.78,231.3 387.7,231.3 387.7,231.34 387.63,231.34 387.63,231.38 387.6,231.38 387.6,231.41 
						387.56,231.41 387.56,231.45 387.52,231.45 387.52,231.52 387.49,231.52 387.49,231.63 387.45,231.63 387.45,231.81 
						387.49,231.81 387.49,231.92 387.52,231.92 387.52,232 387.56,232 387.56,232.03 387.6,232.03 387.6,232.07 387.63,232.07 
						387.63,232.1 387.67,232.1 387.67,232.14 387.74,232.14 387.74,232.18 387.81,232.18 387.81,232.21 396.71,232.21 
						396.71,231.26 387.78,231.26 					"/>
					<polygon class="st1" points="388.8,232.8 388.69,232.8 388.69,232.83 388.62,232.83 388.62,232.87 388.58,232.87 
						388.58,232.91 388.54,232.91 388.54,232.94 388.51,232.94 388.51,232.98 388.47,232.98 388.47,233.05 388.43,233.05 
						388.43,233.16 388.4,233.16 388.4,233.34 388.43,233.34 388.43,233.45 388.47,233.45 388.47,233.53 388.51,233.53 
						388.51,233.56 388.54,233.56 388.54,233.6 388.58,233.6 388.58,233.64 388.62,233.64 388.62,233.67 388.69,233.67 
						388.69,233.71 388.83,233.71 388.83,233.74 406.05,233.74 406.05,233.71 406.19,233.71 406.19,233.67 406.26,233.67 
						406.26,233.64 406.3,233.64 406.3,233.6 406.34,233.6 406.34,233.56 406.37,233.56 406.37,233.53 406.41,233.53 406.41,233.45 
						406.45,233.45 406.45,233.34 406.48,233.34 406.48,233.16 406.45,233.16 406.45,233.05 406.41,233.05 406.41,232.98 
						406.37,232.98 406.37,232.94 406.34,232.94 406.34,232.91 406.3,232.91 406.3,232.87 406.26,232.87 406.26,232.83 
						406.19,232.83 406.19,232.8 406.08,232.8 406.08,232.76 388.8,232.76 					"/>
					<polygon class="st1" points="387.01,229.73 386.9,229.73 386.9,229.77 386.87,229.77 386.87,229.81 386.79,229.81 
						386.79,229.84 386.76,229.84 386.76,229.92 386.72,229.92 386.72,229.95 386.68,229.95 386.68,230.06 386.65,230.06 
						386.65,230.28 386.68,230.28 386.68,230.39 386.72,230.39 386.72,230.46 386.76,230.46 386.76,230.5 386.79,230.5 
						386.79,230.54 386.83,230.54 386.83,230.57 386.9,230.57 386.9,230.61 386.98,230.61 386.98,230.64 407.91,230.64 
						407.91,230.61 407.98,230.61 407.98,230.57 408.05,230.57 408.05,230.54 408.09,230.54 408.09,230.5 408.13,230.5 
						408.13,230.46 408.16,230.46 408.16,230.39 408.2,230.39 408.2,230.28 408.23,230.28 408.23,230.06 408.2,230.06 408.2,229.95 
						408.16,229.95 408.16,229.92 408.13,229.92 408.13,229.84 408.09,229.84 408.09,229.81 408.02,229.81 408.02,229.77 
						407.98,229.77 407.98,229.73 407.87,229.73 407.87,229.7 387.01,229.7 					"/>
					<polygon class="st1" points="386.35,228.24 386.25,228.24 386.25,228.28 386.21,228.28 386.21,228.31 386.17,228.31 
						386.17,228.35 386.14,228.35 386.14,228.38 386.1,228.38 386.1,228.42 386.06,228.42 386.06,228.49 386.03,228.49 
						386.03,228.64 385.99,228.64 385.99,228.71 386.03,228.71 386.03,228.86 386.06,228.86 386.06,228.93 386.1,228.93 
						386.1,228.97 386.14,228.97 386.14,229.04 386.21,229.04 386.21,229.08 386.25,229.08 386.25,229.11 386.32,229.11 
						386.32,229.15 408.56,229.15 408.56,229.11 408.63,229.11 408.63,229.08 408.67,229.08 408.67,229.04 408.74,229.04 
						408.74,228.97 408.78,228.97 408.78,228.93 408.82,228.93 408.82,228.86 408.85,228.86 408.85,228.71 408.89,228.71 
						408.89,228.64 408.85,228.64 408.85,228.49 408.82,228.49 408.82,228.42 408.78,228.42 408.78,228.38 408.74,228.38 
						408.74,228.35 408.71,228.35 408.71,228.31 408.67,228.31 408.67,228.28 408.63,228.28 408.63,228.24 408.53,228.24 
						408.53,228.2 386.35,228.2 					"/>
					<path class="st1" d="M409.62,226.96v-0.11h-0.04v-0.07h-0.04v-0.03h-0.04v-0.04h-0.04v-0.04h-0.07v-0.04h-0.07v-0.04h-7.04
						v-4.81h-0.04v-0.04h-0.04v-0.04h-0.04v-0.04h-0.07v-0.04h-0.04v-0.04h-0.04v-0.04h-0.07v-0.03h-0.04v-0.04h-0.04v-0.04h-0.07
						v-0.04h-0.04v-0.04h-0.04v-0.04h-0.07v-0.04h-0.04v-0.04h-0.04v-0.04h-0.04v-0.04h-0.07v-0.04h-0.04v-0.04h-0.04v-0.04h-0.07
						v-0.04h-0.03v-0.04h-0.04v-0.04h-0.07v-0.04h-0.04v-0.04h-0.04v-0.04h-0.07v-0.04h-0.04v-0.04h-0.04v-0.04h-0.07v-0.04h-0.04
						v-0.04h-0.04v-0.04h-0.07v-0.04h-0.04v-0.04h-0.04v-0.04h-0.07v-0.04h-0.04v-0.04h-0.04v-0.04h-0.07v-0.04h-0.04v-0.04h-0.04
						v-0.04h-0.07v-0.04h-0.04v-0.04h-0.04v-0.04h-0.04v-0.04h-0.07v-0.04h-0.04v-0.04h-0.04v-0.04h-0.07v-0.03h-0.04V220h-0.04
						v-0.04h-0.07v-0.04h-0.04v-0.04h-0.04v-0.04h-0.07v-0.04h-0.04v-0.04h-4.3v0.04h-0.04v0.04h-0.04v0.04h-0.04v0.04h-0.07v0.04
						h-0.04V220h-0.04v0.04h-0.07v0.03H395v0.04h-0.04v0.04h-0.07v0.04h-0.04v0.04h-0.04v0.04h-0.04v0.04h-0.07v0.04h-0.04v0.04
						h-0.04v0.04h-0.07v0.04h-0.04v0.04h-0.04v0.04h-0.07v0.04h-0.04v0.04h-0.04v0.04h-0.04v0.04h-0.07v0.04h-0.04v0.04h-0.04v0.04
						h-0.07v0.04h-0.04v0.04h-0.04v0.04h-0.07v0.04h-0.04v0.04h-0.04v0.04h-0.04v0.04h-0.07v0.04h-0.04v0.04h-0.04v0.04h-0.07v0.04
						h-0.04v0.04h-0.04v0.04h-0.07v0.04h-0.04v0.04h-0.04v0.04h-0.04v0.04h-0.07v0.04h-0.04v0.04h-0.04v0.04h-0.07v0.04h-0.04v0.03
						h-0.04v0.04h-0.04v0.04h-0.07v0.04h-0.04v0.04h-0.04v0.04h-0.07v4.85h-7.26v0.04h-0.07v0.04h-0.07v0.04h-0.04v0.04h-0.04v0.03
						h-0.04v0.07h-0.04v0.07h-0.04v0.29h0.04v0.07h0.04v0.07h0.04v0.04h0.04v0.04h0.04v0.04h0.07v0.04h0.11v0.04h23.7v-0.04h0.11
						v-0.04h0.07v-0.04h0.04v-0.04h0.04v-0.04h0.04v-0.07h0.04v-0.11h0.04v-0.22H409.62z M398.35,226.6h-1.57v-4.23h1.57V226.6z"/>
					<polygon class="st1" points="389.6,234.4 389.53,234.4 389.53,234.44 389.49,234.44 389.49,234.47 389.42,234.47 
						389.42,234.55 389.38,234.55 389.38,234.58 389.35,234.58 389.35,234.66 389.31,234.66 389.31,235.02 389.35,235.02 
						389.35,235.09 389.38,235.09 389.38,235.13 389.42,235.13 389.42,235.17 389.45,235.17 389.45,235.2 389.49,235.2 
						389.49,235.24 389.56,235.24 389.56,235.28 389.67,235.28 389.67,235.31 390.37,235.31 390.37,235.35 390.33,235.35 
						390.33,235.64 390.29,235.64 390.29,235.93 390.26,235.93 390.26,236.22 390.22,236.22 390.22,236.55 390.18,236.55 
						390.18,236.84 390.15,236.84 390.15,237.14 390.11,237.14 390.11,237.43 390.07,237.43 390.07,237.72 390.04,237.72 
						390.04,238.05 390,238.05 390,238.34 389.97,238.34 389.97,238.63 389.93,238.63 389.93,238.92 389.89,238.92 389.89,239.21 
						389.86,239.21 389.86,239.51 389.82,239.51 389.82,239.83 389.78,239.83 389.78,240.13 389.75,240.13 389.75,240.42 
						389.71,240.42 389.71,240.71 389.67,240.71 389.67,241 389.64,241 389.64,241.29 389.6,241.29 389.6,241.62 389.56,241.62 
						389.56,241.77 393.17,241.77 393.17,241.73 393.21,241.73 393.21,241.55 393.25,241.55 393.25,241.33 393.28,241.33 
						393.28,241.15 393.32,241.15 393.32,240.97 393.36,240.97 393.36,240.78 393.39,240.78 393.39,240.6 393.43,240.6 
						393.43,240.42 393.47,240.42 393.47,240.2 393.5,240.2 393.5,240.02 393.54,240.02 393.54,239.83 393.58,239.83 393.58,239.65 
						393.61,239.65 393.61,239.47 393.65,239.47 393.65,239.25 393.69,239.25 393.69,239.07 393.72,239.07 393.72,238.89 
						393.76,238.89 393.76,238.7 393.8,238.7 393.8,238.52 393.83,238.52 393.83,238.3 393.87,238.3 393.87,238.12 393.9,238.12 
						393.9,237.94 393.94,237.94 393.94,237.76 393.98,237.76 393.98,237.57 394.01,237.57 394.01,237.35 394.05,237.35 
						394.05,237.17 394.09,237.17 394.09,236.99 394.12,236.99 394.12,236.81 394.16,236.81 394.16,236.62 394.2,236.62 
						394.2,236.44 394.23,236.44 394.23,236.22 394.27,236.22 394.27,236.04 394.3,236.04 394.3,235.86 394.34,235.86 
						394.34,235.68 394.38,235.68 394.38,235.5 394.41,235.5 394.41,235.31 395.47,235.31 395.47,235.38 395.51,235.38 
						395.51,235.6 395.54,235.6 395.54,235.79 395.58,235.79 395.58,235.97 395.62,235.97 395.62,236.19 395.65,236.19 
						395.65,236.37 395.69,236.37 395.69,236.55 395.73,236.55 395.73,236.73 395.76,236.73 395.76,236.95 395.8,236.95 
						395.8,237.14 395.84,237.14 395.84,237.32 395.87,237.32 395.87,237.5 395.91,237.5 395.91,237.72 395.95,237.72 395.95,237.9 
						395.98,237.9 395.98,238.09 396.02,238.09 396.02,238.3 396.06,238.3 396.06,238.49 396.09,238.49 396.09,238.67 
						396.13,238.67 396.13,238.85 396.16,238.85 396.16,239.07 396.2,239.07 396.2,239.25 396.24,239.25 396.24,239.43 
						396.27,239.43 396.27,239.65 396.31,239.65 396.31,239.83 396.35,239.83 396.35,240.02 396.38,240.02 396.38,240.2 
						396.42,240.2 396.42,240.42 396.46,240.42 396.46,240.6 396.49,240.6 396.49,240.78 396.53,240.78 396.53,240.97 
						396.57,240.97 396.57,241.18 396.6,241.18 396.6,241.37 396.64,241.37 396.64,241.55 396.67,241.55 396.67,241.73 
						396.71,241.73 396.71,241.77 398.21,241.77 398.21,241.66 398.24,241.66 398.24,241.44 398.28,241.44 398.28,241.26 
						398.32,241.26 398.32,241.07 398.35,241.07 398.35,240.86 398.39,240.86 398.39,240.67 398.43,240.67 398.43,240.49 
						398.46,240.49 398.46,240.27 398.5,240.27 398.5,240.09 398.53,240.09 398.53,239.91 398.57,239.91 398.57,239.69 
						398.61,239.69 398.61,239.51 398.64,239.51 398.64,239.32 398.68,239.32 398.68,239.1 398.72,239.1 398.72,238.92 
						398.75,238.92 398.75,238.74 398.79,238.74 398.79,238.52 398.83,238.52 398.83,238.34 398.86,238.34 398.86,238.12 
						398.9,238.12 398.9,237.94 398.94,237.94 398.94,237.76 398.97,237.76 398.97,237.54 399.01,237.54 399.01,237.35 
						399.05,237.35 399.05,237.17 399.08,237.17 399.08,236.95 399.12,236.95 399.12,236.77 399.15,236.77 399.15,236.59 
						399.19,236.59 399.19,236.37 399.23,236.37 399.23,236.19 399.26,236.19 399.26,236.01 399.3,236.01 399.3,235.79 
						399.34,235.79 399.34,235.6 399.37,235.6 399.37,235.42 399.41,235.42 399.41,235.31 400.43,235.31 400.43,235.46 
						400.47,235.46 400.47,235.64 400.5,235.64 400.5,235.86 400.54,235.86 400.54,236.04 400.58,236.04 400.58,236.26 
						400.61,236.26 400.61,236.44 400.65,236.44 400.65,236.62 400.69,236.62 400.69,236.84 400.72,236.84 400.72,237.03 
						400.76,237.03 400.76,237.24 400.8,237.24 400.8,237.43 400.83,237.43 400.83,237.65 400.87,237.65 400.87,237.83 
						400.9,237.83 400.9,238.05 400.94,238.05 400.94,238.23 400.98,238.23 400.98,238.45 401.01,238.45 401.01,238.63 
						401.05,238.63 401.05,238.85 401.09,238.85 401.09,239.03 401.12,239.03 401.12,239.25 401.16,239.25 401.16,239.43 
						401.2,239.43 401.2,239.62 401.23,239.62 401.23,239.83 401.27,239.83 401.27,240.02 401.31,240.02 401.31,240.24 
						401.34,240.24 401.34,240.42 401.38,240.42 401.38,240.64 401.42,240.64 401.42,240.82 401.45,240.82 401.45,241.04 
						401.49,241.04 401.49,241.22 401.52,241.22 401.52,241.44 401.56,241.44 401.56,241.62 401.6,241.62 401.6,241.77 
						405.24,241.77 405.24,241.55 405.21,241.55 405.21,241.22 405.17,241.22 405.17,240.93 405.14,240.93 405.14,240.6 
						405.1,240.6 405.1,240.31 405.06,240.31 405.06,239.98 405.03,239.98 405.03,239.65 404.99,239.65 404.99,239.36 
						404.95,239.36 404.95,239.03 404.92,239.03 404.92,238.74 404.88,238.74 404.88,238.41 404.84,238.41 404.84,238.09 
						404.81,238.09 404.81,237.79 404.77,237.79 404.77,237.46 404.73,237.46 404.73,237.14 404.7,237.14 404.7,236.84 
						404.66,236.84 404.66,236.52 404.62,236.52 404.62,236.22 404.59,236.22 404.59,235.9 404.55,235.9 404.55,235.57 
						404.51,235.57 404.51,235.31 405.1,235.31 405.1,235.28 405.21,235.28 405.21,235.24 405.28,235.24 405.28,235.2 405.32,235.2 
						405.32,235.17 405.35,235.17 405.35,235.13 405.39,235.13 405.39,235.06 405.43,235.06 405.43,234.98 405.46,234.98 
						405.46,234.66 405.43,234.66 405.43,234.58 405.39,234.58 405.39,234.55 405.35,234.55 405.35,234.51 405.32,234.51 
						405.32,234.47 405.28,234.47 405.28,234.44 405.24,234.44 405.24,234.4 405.17,234.4 405.17,234.36 389.6,234.36 					"/>
				</g>
				<g>
					<g>
						<path class="st2" d="M358.02,229.54c7.15,0.01,14.27,0.19,21.39,0.55c0,0.05,0,0.09,0,0.14c-0.62,0.05-1.23,0.12-1.85,0.14
							c-3.94,0.16-7.89,0.32-11.83,0.46c-2.51,0.09-5.02,0.14-7.53,0.2c-0.27,0.01-0.35,0.09-0.41,0.34
							c-0.33,1.44-1.01,2.7-2.03,3.78c-0.07,0.07-0.12,0.16-0.21,0.19c-0.07,0.03-0.19,0.01-0.25-0.04
							c-0.04-0.03-0.05-0.16-0.02-0.22c0.04-0.08,0.12-0.15,0.18-0.22c0.9-0.96,1.53-2.08,1.88-3.35c0.03-0.09,0.04-0.18,0.06-0.28
							c0.01-0.04,0.01-0.09,0.02-0.18c-0.66,0.01-1.31,0.03-1.95,0.04c-0.14,0-0.28,0.01-0.43,0.01c-0.48-0.01-0.81-0.31-0.82-0.76
							c-0.01-0.43,0.33-0.77,0.8-0.77c0.76-0.01,1.52-0.01,2.28-0.01c0.08,0,0.16,0,0.33-0.01c-0.06-0.53-0.07-1.05-0.17-1.55
							c-0.83-4.22-4.71-6.95-8.97-6.31c-4.29,0.63-7.31,4.91-6.5,9.15c0.56,2.92,2.37,4.87,4.87,6.27c1.29,0.72,2.72,1.05,4.13,1.44
							c1.2,0.33,2.36,0.73,3.33,1.55c1.14,0.97,1.92,2.13,1.94,3.69c0.03,2.1-1.5,4-3.51,4.34c-2.24,0.38-4.3-0.81-4.95-2.92
							c-0.18-0.57-0.16-1.21-0.2-1.82c-0.01-0.12,0.15-0.36,0.23-0.36c0.27,0.01,0.18,0.25,0.17,0.41c-0.22,2.44,1.68,4.48,4.1,4.35
							c1.58-0.09,2.75-0.88,3.4-2.33c0.66-1.49,0.41-2.89-0.59-4.17c-0.93-1.19-2.2-1.8-3.61-2.22c-1.26-0.38-2.55-0.7-3.76-1.19
							c-2.25-0.91-4.01-2.44-5.15-4.6c-2-3.8-0.73-8.5,2.89-10.8c4.2-2.67,9.79-1.05,11.93,3.43c0.5,1.06,0.76,2.17,0.8,3.33
							C358,229.33,358.01,229.42,358.02,229.54z M357.94,230.59c1.01-0.01,2-0.02,2.98-0.05c0.09,0,0.24-0.2,0.24-0.3
							c0-0.1-0.16-0.24-0.27-0.27c-0.19-0.04-0.4-0.01-0.6-0.01c-0.76,0.01-1.51,0.02-2.28,0.04
							C357.98,230.2,357.96,230.36,357.94,230.59z M357.59,230c-0.88,0.01-1.72,0.01-2.56,0.05c-0.1,0-0.2,0.18-0.3,0.28
							c0.1,0.1,0.2,0.28,0.3,0.28c0.82,0.01,1.65-0.01,2.49-0.02C357.54,230.39,357.56,230.23,357.59,230z"/>
					</g>
					<g>
						<path class="st2" d="M434,229.24c0.04-1.17,0.29-2.28,0.8-3.33c2.13-4.49,7.73-6.1,11.93-3.43c3.62,2.3,4.89,7,2.89,10.8
							c-1.14,2.16-2.9,3.69-5.15,4.6c-1.22,0.49-2.5,0.81-3.76,1.19c-1.4,0.42-2.68,1.03-3.61,2.22c-1,1.28-1.25,2.68-0.59,4.17
							c0.64,1.45,1.82,2.24,3.4,2.33c2.43,0.13,4.33-1.91,4.1-4.35c-0.01-0.16-0.1-0.4,0.17-0.41c0.08,0,0.24,0.24,0.23,0.36
							c-0.04,0.61-0.03,1.25-0.2,1.82c-0.65,2.11-2.71,3.3-4.95,2.92c-2-0.34-3.54-2.24-3.51-4.34c0.03-1.56,0.81-2.72,1.94-3.69
							c0.96-0.82,2.13-1.22,3.33-1.55c1.41-0.39,2.84-0.72,4.13-1.44c2.5-1.4,4.31-3.35,4.87-6.27c0.82-4.24-2.21-8.52-6.5-9.15
							c-4.26-0.63-8.15,2.1-8.97,6.31c-0.1,0.5-0.11,1.02-0.17,1.55c0.16,0,0.25,0.01,0.33,0.01c0.76,0,1.52,0,2.28,0.01
							c0.47,0.01,0.81,0.35,0.8,0.77c-0.01,0.45-0.33,0.75-0.82,0.76c-0.14,0-0.28-0.01-0.43-0.01c-0.64-0.01-1.29-0.03-1.95-0.04
							c0.01,0.09,0.02,0.14,0.02,0.18c0.02,0.09,0.04,0.19,0.06,0.28c0.35,1.27,0.97,2.39,1.88,3.35c0.06,0.07,0.15,0.13,0.18,0.22
							c0.03,0.06,0.02,0.19-0.02,0.22c-0.06,0.05-0.18,0.06-0.25,0.04c-0.08-0.03-0.14-0.12-0.21-0.19
							c-1.02-1.08-1.7-2.34-2.03-3.78c-0.06-0.25-0.14-0.34-0.41-0.34c-2.51-0.05-5.02-0.11-7.53-0.2
							c-3.95-0.14-7.89-0.3-11.83-0.46c-0.62-0.02-1.24-0.09-1.85-0.14c0-0.05,0-0.09,0-0.14c7.12-0.35,14.25-0.53,21.39-0.55
							C433.99,229.42,434,229.33,434,229.24z M434,230c-0.77-0.01-1.53-0.03-2.28-0.04c-0.2,0-0.41-0.03-0.6,0.01
							c-0.11,0.03-0.27,0.17-0.27,0.27c0,0.1,0.15,0.29,0.24,0.3c0.98,0.03,1.96,0.04,2.98,0.05C434.04,230.36,434.02,230.2,434,230
							z M434.48,230.59c0.84,0.01,1.66,0.03,2.49,0.02c0.1,0,0.2-0.18,0.3-0.28c-0.1-0.1-0.19-0.28-0.3-0.28
							c-0.84-0.03-1.68-0.04-2.56-0.05C434.44,230.23,434.46,230.39,434.48,230.59z"/>
					</g>
				</g>
				<g>
					<g>
						<path class="st2" d="M363.27,240.09c-0.26,0-0.49-0.05-0.7-0.16c-0.21-0.11-0.39-0.27-0.53-0.48
							c-0.15-0.21-0.26-0.46-0.34-0.76c-0.08-0.3-0.12-0.63-0.12-1.01c0-0.37,0.04-0.7,0.12-1.01c0.08-0.3,0.2-0.56,0.35-0.78
							c0.15-0.22,0.33-0.38,0.54-0.5s0.45-0.18,0.71-0.18s0.49,0.06,0.71,0.18c0.21,0.12,0.39,0.29,0.54,0.5
							c0.15,0.21,0.26,0.47,0.34,0.77s0.12,0.62,0.12,0.98c0,0.19-0.02,0.37-0.05,0.56c-0.03,0.18-0.08,0.35-0.14,0.51
							c-0.06,0.16-0.13,0.29-0.21,0.41c-0.08,0.12-0.16,0.2-0.25,0.26v0.03l0.85-0.01v0.7H363.27z M364.18,237.68
							c0-0.24-0.02-0.46-0.06-0.66s-0.09-0.38-0.17-0.53c-0.08-0.15-0.17-0.27-0.28-0.35c-0.11-0.09-0.23-0.13-0.37-0.13
							c-0.14,0-0.27,0.04-0.38,0.13c-0.11,0.09-0.2,0.21-0.28,0.35c-0.08,0.15-0.13,0.33-0.17,0.53s-0.06,0.43-0.06,0.66
							s0.02,0.46,0.06,0.66s0.1,0.38,0.17,0.53c0.08,0.15,0.17,0.27,0.28,0.36s0.24,0.13,0.38,0.13c0.14,0,0.27-0.05,0.38-0.14
							c0.11-0.09,0.2-0.21,0.28-0.37c0.07-0.15,0.13-0.33,0.17-0.54C364.16,238.11,364.18,237.9,364.18,237.68z"/>
						<path class="st2" d="M368.64,239.11c-0.05,0.22-0.14,0.41-0.26,0.57c-0.12,0.16-0.28,0.29-0.47,0.39
							c-0.19,0.09-0.42,0.14-0.69,0.14c-0.27,0-0.5-0.05-0.69-0.14c-0.19-0.09-0.34-0.22-0.46-0.39c-0.12-0.16-0.2-0.35-0.25-0.57
							c-0.05-0.22-0.08-0.45-0.08-0.71v-3.07h0.81v3c0,0.15,0.01,0.29,0.03,0.43c0.02,0.14,0.06,0.26,0.11,0.36
							c0.05,0.1,0.12,0.19,0.21,0.25c0.09,0.06,0.2,0.09,0.34,0.09s0.25-0.03,0.34-0.09c0.09-0.06,0.16-0.14,0.21-0.25
							c0.05-0.1,0.09-0.22,0.11-0.36c0.02-0.14,0.03-0.28,0.03-0.43v-3h0.8v3.07C368.72,238.66,368.69,238.89,368.64,239.11z"/>
						<path class="st2" d="M371.59,240.09l-0.24-1.01h-1.25l-0.24,1.01h-0.81l1.18-4.76h1.03l1.16,4.76H371.59z M370.75,236.1h-0.03
							l-0.52,2.36h1.05L370.75,236.1z"/>
						<path class="st2" d="M372.93,240.09v-4.76h0.81v4.01h1.31v0.75H372.93z"/>
						<path class="st2" d="M375.58,240.09v-4.76h0.81v4.76H375.58z"/>
						<path class="st2" d="M378.54,236.02v4.07h-0.79v-4.07h-0.89v-0.69h2.58v0.69H378.54z"/>
						<path class="st2" d="M381.36,238.27v1.82h-0.79v-1.82l-1.19-2.94h0.87l0.71,2.12l0.02-0.01l0.72-2.11h0.85L381.36,238.27z"/>
					</g>
				</g>
				<g>
					<g>
						<path class="st2" d="M411.43,240.09l-0.24-1.01h-1.25l-0.24,1.01h-0.81l1.18-4.76h1.03l1.16,4.76H411.43z M410.59,236.1h-0.03
							l-0.52,2.36h1.05L410.59,236.1z"/>
						<path class="st2" d="M415.42,236.74c0,0.24-0.04,0.45-0.11,0.63c-0.07,0.18-0.17,0.33-0.29,0.45
							c-0.12,0.12-0.26,0.21-0.42,0.27c-0.16,0.06-0.32,0.09-0.48,0.09h-0.56v1.91h-0.79v-4.76h1.31c0.15,0,0.31,0.02,0.47,0.07
							c0.16,0.04,0.3,0.12,0.43,0.23c0.13,0.11,0.23,0.25,0.31,0.43S415.42,236.47,415.42,236.74z M414.66,236.75
							c0-0.25-0.06-0.44-0.18-0.56s-0.28-0.17-0.46-0.17h-0.46v1.5h0.46c0.19,0,0.34-0.07,0.46-0.2
							C414.6,237.2,414.66,237,414.66,236.75z"/>
						<path class="st2" d="M418.74,236.74c0,0.24-0.04,0.45-0.11,0.63c-0.07,0.18-0.17,0.33-0.29,0.45
							c-0.12,0.12-0.26,0.21-0.42,0.27c-0.16,0.06-0.32,0.09-0.48,0.09h-0.56v1.91h-0.79v-4.76h1.31c0.15,0,0.31,0.02,0.47,0.07
							c0.16,0.04,0.3,0.12,0.43,0.23c0.13,0.11,0.23,0.25,0.31,0.43S418.74,236.47,418.74,236.74z M417.98,236.75
							c0-0.25-0.06-0.44-0.18-0.56s-0.28-0.17-0.46-0.17h-0.46v1.5h0.46c0.19,0,0.34-0.07,0.46-0.2
							C417.92,237.2,417.98,237,417.98,236.75z"/>
						<path class="st2" d="M421.19,240.09l-0.24-1.01h-1.25l-0.24,1.01h-0.81l1.18-4.76h1.03l1.16,4.76H421.19z M420.35,236.1h-0.03
							l-0.52,2.36h1.05L420.35,236.1z"/>
						<path class="st2" d="M424.5,240.09l-0.74-2.03h-0.45v2.03h-0.78v-4.76h1.36c0.2,0,0.38,0.03,0.54,0.08
							c0.17,0.05,0.31,0.13,0.43,0.25c0.12,0.11,0.21,0.25,0.28,0.42c0.07,0.17,0.1,0.37,0.1,0.61c0,0.18-0.02,0.35-0.07,0.49
							s-0.11,0.26-0.18,0.36c-0.07,0.1-0.15,0.18-0.24,0.24c-0.09,0.06-0.17,0.1-0.26,0.12l0.85,2.19H424.5z M424.44,236.73
							c0-0.14-0.02-0.26-0.06-0.36c-0.04-0.09-0.09-0.17-0.16-0.22c-0.07-0.05-0.14-0.09-0.22-0.11c-0.08-0.02-0.16-0.03-0.24-0.03
							h-0.46v1.46h0.46c0.2,0,0.36-0.06,0.49-0.18C424.38,237.16,424.44,236.98,424.44,236.73z"/>
						<path class="st2" d="M425.98,240.09v-4.76h2.13v0.71h-1.36v1.26H428v0.66h-1.26v1.4h1.42v0.72H425.98z"/>
						<path class="st2" d="M428.9,240.09v-4.76h0.81v4.01h1.31v0.75H428.9z"/>
					</g>
				</g>
			</g>
			<g>
				<g>
					<path class="st2" d="M367.03,202.94c0,1.37-0.31,2.56-0.93,3.58c-0.62,1.02-1.36,1.58-2.23,1.65
						c-0.18,0.02-0.36,0.03-0.55,0.05c-0.87,0.08-1.61-0.36-2.23-1.33c-0.62-0.97-0.92-2.18-0.92-3.63c0-4.33,0-8.67,0-13
						c0-1.45,0.31-2.66,0.92-3.63c0.62-0.97,1.36-1.4,2.23-1.33c0.18,0.02,0.36,0.03,0.55,0.05c0.87,0.07,1.61,0.63,2.23,1.65
						c0.62,1.02,0.93,2.21,0.93,3.58C367.03,194.7,367.03,198.82,367.03,202.94z M364.93,202.12c0-3.61,0-7.22,0-10.83
						c0-0.87-0.06-1.52-0.17-1.93c-0.18-0.62-0.51-0.94-0.99-0.97c-1-0.06-1.49,0.86-1.49,2.79c0,3.68,0,7.36,0,11.04
						c0,1.92,0.46,2.85,1.37,2.79C364.5,204.97,364.93,204,364.93,202.12z"/>
					<path class="st2" d="M375.86,207.06c-0.8,0.04-1.61,0.09-2.41,0.13c-0.9-1.97-1.8-3.97-2.69-6c0,2.06,0,4.11,0,6.17
						c-0.73,0.05-1.46,0.1-2.19,0.15c0-7.12,0-14.24,0-21.37c0.73,0.05,1.46,0.1,2.19,0.15c0,2.03,0,4.07,0,6.1
						c0.89-2.01,1.78-3.99,2.67-5.94c0.8,0.05,1.59,0.09,2.39,0.13c-1.6,3.31-3.19,6.7-4.79,10.18
						C372.63,200.29,374.25,203.71,375.86,207.06z"/>
					<path class="st2" d="M392.47,206.56c-0.73,0.01-1.46,0.02-2.19,0.03c0-3.32,0-6.64,0-9.96c-0.63,3.32-1.26,6.65-1.9,10
						c-0.73,0.01-1.46,0.03-2.19,0.05c-0.58-3.4-1.15-6.82-1.73-10.26c0,3.44,0,6.87,0,10.31c-0.73,0.02-1.46,0.05-2.19,0.07
						c0-6.64,0-13.29,0-19.93c0.78,0.03,1.56,0.05,2.34,0.07c0.93,4.71,1.87,9.37,2.8,14c0.89-4.65,1.77-9.28,2.66-13.89
						c0.8,0.01,1.6,0.02,2.4,0.03C392.47,193.57,392.47,200.07,392.47,206.56z"/>
					<path class="st2" d="M401.39,206.58c-0.73-0.01-1.45-0.02-2.18-0.02c-0.17-1.48-0.34-2.96-0.51-4.44c-0.54,0-1.07,0-1.61,0
						c-0.18,1.48-0.35,2.96-0.53,4.44c-0.73,0-1.46,0-2.18,0c0.81-6.5,1.62-12.99,2.42-19.49c0.75,0.01,1.5,0.01,2.26,0.02
						C399.83,193.57,400.61,200.06,401.39,206.58z M398.35,198.99c-0.15-1.58-0.3-3.16-0.44-4.74c-0.15,1.58-0.3,3.16-0.44,4.74
						C397.76,198.99,398.05,198.99,398.35,198.99z"/>
					<path class="st2" d="M410.11,206.8c-0.7-0.03-1.4-0.05-2.11-0.07c0-1.62,0-3.24,0-4.86c0-1.18-0.28-1.95-0.84-2.3
						c-0.32-0.19-0.96-0.28-1.9-0.29c0,2.45,0,4.91,0,7.36c-0.73-0.02-1.46-0.03-2.19-0.05c0-6.56,0-13.11,0-19.67
						c1.24-0.03,2.49-0.07,3.73-0.12c0.87-0.02,1.62,0.4,2.23,1.28c0.62,0.88,0.93,1.96,0.93,3.24c0,1.15,0,2.3,0,3.45
						c0,0.62-0.13,1.27-0.39,1.97c-0.26,0.7-0.57,1.16-0.94,1.38c0.39,0.27,0.73,0.68,1.01,1.23c0.31,0.62,0.46,1.23,0.46,1.82
						C410.11,203.06,410.11,204.93,410.11,206.8z M407.86,193.99c0-0.63,0-1.27,0-1.9c0-1-0.1-1.68-0.31-2.05
						c-0.21-0.36-0.65-0.54-1.34-0.52c-0.31,0.01-0.63,0.01-0.94,0.02c0,2.33,0,4.67,0,7c0.44,0.01,0.88,0.02,1.32,0.03
						C407.43,196.56,407.86,195.7,407.86,193.99z"/>
					<path class="st2" d="M414.36,206.98c-0.73-0.03-1.46-0.07-2.19-0.1c0-6.72,0-13.43,0-20.15c0.73-0.02,1.46-0.04,2.19-0.06
						C414.36,193.44,414.36,200.21,414.36,206.98z"/>
					<path class="st2" d="M422.95,207.48c-0.74-0.05-1.49-0.1-2.23-0.15c-0.74-3.87-1.47-7.68-2.21-11.45c0,3.77,0,7.54,0,11.31
						c-0.67-0.04-1.35-0.08-2.02-0.11c-0.02-6.84-0.04-13.68-0.06-20.52c0.75-0.04,1.49-0.08,2.24-0.12
						c0.75,3.82,1.51,7.69,2.26,11.62c0-3.92,0-7.84,0-11.75c0.67-0.04,1.35-0.09,2.02-0.13
						C422.95,193.28,422.95,200.38,422.95,207.48z"/>
					<path class="st2" d="M431.82,203.26c0,1.45-0.31,2.66-0.92,3.63c-0.62,0.97-1.36,1.4-2.23,1.33c-0.18-0.02-0.36-0.03-0.55-0.05
						c-0.87-0.07-1.61-0.63-2.23-1.65c-0.62-1.02-0.93-2.21-0.93-3.58c0-4.12,0-8.24,0-12.36c0-1.37,0.31-2.56,0.93-3.58
						c0.62-1.02,1.36-1.58,2.23-1.65c0.18-0.02,0.36-0.03,0.55-0.05c0.87-0.08,1.61,0.36,2.23,1.33c0.62,0.97,0.92,2.19,0.92,3.63
						C431.82,194.59,431.82,198.93,431.82,203.26z M429.72,202.23c0-3.68,0-7.36,0-11.04c0-0.89-0.06-1.54-0.17-1.94
						c-0.18-0.61-0.51-0.89-0.99-0.86c-1,0.06-1.49,1.04-1.49,2.92c0,3.61,0,7.22,0,10.83c0,1.88,0.46,2.85,1.37,2.91
						C429.3,205.08,429.72,204.15,429.72,202.23z"/>
				</g>
				<path class="st2" d="M389.35,181.27c-5.62-0.28-19.42-0.42-25.06-0.44l-0.96,0c-0.05,0-0.09,0-0.12,0c-0.62,0-1.23,0-1.85,0.01
					c-0.38,0.01-0.66,0.28-0.65,0.63c0.01,0.36,0.27,0.61,0.66,0.62c0.12,0,0.23,0,0.35-0.01c0.25-0.01,0.51-0.01,0.76-0.02l0,0
					l1.41-0.04c0.01,0,0.02,0,0.04,0c2.04-0.04,4.08-0.09,6.12-0.16c3.2-0.11,14.59-0.24,17.79-0.37c0.5-0.02,1-0.08,1.5-0.11
					C389.35,181.35,389.35,181.31,389.35,181.27z M366.14,181.64c-0.51,0.02-1.02,0.02-1.54,0.03v0l-0.06,0
					c-0.27,0-0.54,0.01-0.81,0.01c0,0,0,0,0,0l-0.34,0c0,0,0,0,0,0.01c-0.68,0.01-1.35,0.03-2.02,0.02c-0.08,0-0.16-0.15-0.24-0.23
					c0.08-0.08,0.16-0.23,0.24-0.23c0.58-0.02,1.16-0.03,1.76-0.03l0,0l1.47-0.02v0c0.34-0.01,0.69-0.01,1.03-0.02
					c0.16,0,0.33-0.03,0.49,0.01c0.09,0.02,0.22,0.14,0.22,0.22C366.34,181.48,366.22,181.64,366.14,181.64z"/>
				<path class="st2" d="M403.18,181.38c0.5,0.04,1,0.09,1.5,0.11c3.2,0.13,14.59,0.26,17.79,0.37c2.04,0.07,4.08,0.12,6.12,0.16
					c0.02,0,0.03,0,0.04,0l1.41,0.04l0,0c0.25,0.01,0.51,0.01,0.76,0.02c0.12,0,0.23,0.01,0.35,0.01c0.39-0.01,0.65-0.25,0.66-0.62
					c0.01-0.35-0.27-0.62-0.65-0.63c-0.62-0.01-1.23-0.01-1.85-0.01c-0.04,0-0.08,0-0.12,0l-0.96,0
					c-5.64,0.02-19.44,0.16-25.06,0.44C403.19,181.31,403.18,181.35,403.18,181.38z M426.2,181.4c0-0.08,0.13-0.2,0.22-0.22
					c0.16-0.04,0.32-0.01,0.49-0.01c0.34,0.01,0.69,0.01,1.03,0.02v0l1.47,0.02l0,0c0.6,0.01,1.18,0.01,1.76,0.03
					c0.08,0,0.16,0.15,0.24,0.23c-0.08,0.08-0.16,0.23-0.24,0.23c-0.67,0.01-1.34-0.01-2.02-0.02c0,0,0,0,0-0.01l-0.34,0
					c0,0,0,0,0,0c-0.28,0-0.54-0.01-0.81-0.01l-0.06,0v0c-0.52-0.01-1.03-0.01-1.54-0.03C426.32,181.64,426.19,181.48,426.2,181.4z"
					/>
				<g>
					<path class="st2" d="M376.68,174.7c-0.23,0.04-0.33,0.13-0.31,0.27c-0.04,0.01-0.08,0.01-0.12,0.02
						c-0.07-0.38-0.13-0.75-0.2-1.13c0.04-0.01,0.08-0.01,0.12-0.02c0.03,0.19,0.17,0.27,0.4,0.23c0.71-0.12,1.41-0.24,2.12-0.35
						c0.01,0.04,0.01,0.08,0.02,0.11c-0.07,0.01-0.12,0.03-0.14,0.07c-0.02,0.03-0.02,0.1,0,0.21c0.04,0.28,0.09,0.56,0.13,0.83
						c0.02,0.11,0.04,0.18,0.07,0.2c0.03,0.03,0.08,0.04,0.15,0.05c0.01,0.04,0.01,0.08,0.02,0.11c-0.41,0.44-0.85,0.76-1.31,0.99
						c-0.46,0.22-0.89,0.37-1.3,0.44c-0.42,0.08-0.82,0.09-1.21,0.05c-0.38-0.05-0.72-0.15-1.03-0.32
						c-0.31-0.17-0.57-0.38-0.78-0.66c-0.21-0.27-0.36-0.59-0.43-0.96c-0.08-0.37-0.08-0.73,0.01-1.08
						c0.08-0.35,0.23-0.67,0.45-0.96c0.22-0.29,0.49-0.54,0.83-0.74c0.34-0.2,0.72-0.34,1.15-0.42c0.43-0.08,0.8-0.11,1.1-0.09
						c0.3,0.02,0.56,0.05,0.76,0.1c0.2,0.05,0.36,0.1,0.47,0.15c0.11,0.05,0.2,0.07,0.26,0.06c0.05-0.01,0.09-0.03,0.11-0.05
						c0.02-0.03,0.04-0.06,0.05-0.09c0.04,0.02,0.09,0.04,0.13,0.06c-0.18,0.37-0.36,0.73-0.54,1.1c-0.04-0.02-0.09-0.04-0.13-0.06
						c0.02-0.03,0.03-0.07,0.02-0.12c-0.01-0.06-0.07-0.12-0.18-0.19c-0.11-0.07-0.27-0.13-0.46-0.18c-0.19-0.05-0.41-0.09-0.66-0.1
						c-0.25-0.02-0.52,0-0.8,0.05c-0.37,0.07-0.69,0.18-0.94,0.34c-0.25,0.16-0.45,0.34-0.59,0.55c-0.14,0.21-0.23,0.43-0.27,0.68
						c-0.04,0.24-0.03,0.49,0.02,0.74c0.06,0.31,0.17,0.57,0.33,0.79c0.16,0.21,0.35,0.38,0.56,0.51c0.22,0.13,0.45,0.21,0.71,0.25
						c0.25,0.04,0.51,0.04,0.77-0.01c0.43-0.08,0.8-0.2,1.11-0.36c0.32-0.16,0.57-0.35,0.77-0.55c-0.04-0.24-0.08-0.48-0.12-0.72
						C377.44,174.57,377.06,174.63,376.68,174.7z"/>
					<path class="st2" d="M381.21,175.36c-0.02,0.06-0.04,0.13-0.06,0.2c-0.02,0.08-0.03,0.13-0.03,0.17
						c0.01,0.07,0.07,0.1,0.18,0.08c0.01,0.04,0.01,0.08,0.02,0.12c-0.4,0.05-0.79,0.11-1.19,0.17c-0.01-0.04-0.01-0.08-0.02-0.12
						c0.04-0.01,0.07-0.01,0.1-0.02s0.05-0.03,0.07-0.07c0.02-0.04,0.04-0.09,0.07-0.15c0.02-0.07,0.05-0.15,0.09-0.26
						c0.4-1.37,0.83-2.75,1.28-4.12c0.04-0.12,0.07-0.2,0.09-0.26c0.02-0.06,0.03-0.1,0.02-0.13c-0.01-0.08-0.07-0.11-0.2-0.09
						c0-0.04-0.01-0.08-0.01-0.12c0.49-0.06,0.99-0.12,1.48-0.18c0,0.04,0.01,0.08,0.01,0.12c-0.11,0.01-0.16,0.06-0.15,0.13
						c0,0.04,0.03,0.09,0.07,0.14c0.04,0.06,0.09,0.14,0.16,0.24c0.79,1.2,1.56,2.42,2.3,3.64c0.07,0.11,0.12,0.2,0.16,0.26
						c0.04,0.06,0.07,0.11,0.11,0.14c0.03,0.03,0.06,0.05,0.1,0.05c0.03,0,0.08,0,0.14,0c0,0.04,0.01,0.08,0.01,0.12
						c-0.45,0.04-0.9,0.08-1.35,0.13c0-0.04-0.01-0.08-0.01-0.12c0.08-0.01,0.13-0.02,0.15-0.05c0.02-0.03,0.03-0.06,0.03-0.11
						c0-0.03-0.01-0.06-0.03-0.1c-0.02-0.03-0.06-0.11-0.13-0.22c-0.15-0.24-0.3-0.49-0.45-0.73c-0.93,0.1-1.85,0.21-2.77,0.33
						C381.36,174.81,381.29,175.08,381.21,175.36z M383.81,173.62c-0.45-0.72-0.92-1.43-1.38-2.14c-0.26,0.8-0.51,1.6-0.75,2.4
						C382.39,173.78,383.1,173.69,383.81,173.62z"/>
					<path class="st2" d="M387.51,173.74c-0.02,0.05-0.02,0.09-0.02,0.13c0.01,0.09,0.07,0.18,0.19,0.27
						c0.12,0.09,0.28,0.17,0.47,0.23c0.19,0.07,0.41,0.12,0.64,0.15c0.24,0.04,0.48,0.05,0.72,0.03c0.62-0.04,1.06-0.15,1.33-0.34
						c0.27-0.19,0.4-0.43,0.39-0.72c-0.01-0.14-0.05-0.25-0.12-0.33c-0.07-0.09-0.17-0.15-0.3-0.2c-0.12-0.04-0.27-0.07-0.43-0.08
						c-0.16-0.01-0.34-0.01-0.52,0c-0.3,0.02-0.63,0.03-0.97,0.05c-0.34,0.02-0.66,0-0.95-0.06c-0.29-0.06-0.54-0.18-0.74-0.35
						c-0.2-0.17-0.32-0.44-0.35-0.81c-0.02-0.23,0.03-0.45,0.15-0.65c0.12-0.2,0.29-0.38,0.51-0.53c0.22-0.15,0.49-0.28,0.8-0.38
						c0.31-0.1,0.66-0.16,1.03-0.18c0.29-0.02,0.55-0.01,0.76,0.02c0.22,0.03,0.4,0.06,0.56,0.1c0.16,0.04,0.29,0.07,0.39,0.11
						c0.1,0.03,0.19,0.05,0.26,0.05c0.07,0,0.13-0.02,0.16-0.05c0.03-0.03,0.07-0.06,0.1-0.09c0.04,0.01,0.08,0.03,0.12,0.04
						c-0.17,0.38-0.34,0.76-0.51,1.14c-0.04-0.02-0.08-0.04-0.11-0.06c0.01-0.02,0.01-0.06,0-0.13c0-0.04-0.04-0.1-0.13-0.16
						c-0.08-0.06-0.2-0.12-0.35-0.17c-0.15-0.05-0.33-0.1-0.54-0.13c-0.21-0.03-0.43-0.04-0.68-0.03c-0.55,0.03-0.97,0.14-1.28,0.33
						c-0.31,0.19-0.45,0.42-0.43,0.69c0.01,0.12,0.05,0.22,0.13,0.29c0.08,0.07,0.18,0.12,0.3,0.15c0.13,0.03,0.27,0.05,0.44,0.05
						c0.16,0,0.34,0,0.53-0.01c0.31-0.02,0.64-0.03,0.98-0.04c0.34-0.01,0.66,0.03,0.95,0.1c0.29,0.08,0.53,0.21,0.73,0.41
						c0.19,0.19,0.3,0.48,0.31,0.87c0.01,0.21-0.04,0.41-0.14,0.6c-0.1,0.19-0.26,0.37-0.46,0.53c-0.21,0.16-0.47,0.29-0.78,0.38
						c-0.31,0.1-0.67,0.16-1.09,0.19c-0.35,0.02-0.65,0.01-0.91-0.02c-0.26-0.04-0.48-0.09-0.67-0.15
						c-0.19-0.06-0.34-0.12-0.46-0.17c-0.12-0.05-0.22-0.08-0.29-0.07c-0.07,0.01-0.13,0.05-0.2,0.13c-0.03-0.02-0.07-0.03-0.1-0.05
						c0.15-0.38,0.29-0.77,0.44-1.15C387.43,173.7,387.47,173.72,387.51,173.74z"/>
					<path class="st2" d="M398.19,174.83c0.09,0,0.15-0.02,0.19-0.06c0.03-0.04,0.05-0.1,0.05-0.17c0.02-1.21,0.05-2.43,0.07-3.64
						c-0.05,0-0.1,0-0.16,0.01c-0.06,0.01-0.12,0.02-0.17,0.04c-0.05,0.02-0.09,0.05-0.13,0.09c-0.03,0.04-0.05,0.09-0.05,0.14
						c-0.04,0-0.08,0-0.12,0c0-0.33,0.01-0.66,0.01-0.99c0.04,0,0.08,0,0.12,0c0,0.12,0.04,0.18,0.13,0.19
						c0.08,0,0.18-0.02,0.3-0.07c0.12-0.05,0.17-0.12,0.18-0.2c0-0.12-0.07-0.19-0.23-0.19c0-0.04,0-0.08,0-0.12
						c0.4,0.01,0.8,0.02,1.2,0.03c0,0.04,0,0.08,0,0.12c-0.08,0-0.14,0.01-0.16,0.05c-0.03,0.03-0.04,0.1-0.05,0.19
						c-0.04,1.46-0.08,2.92-0.12,4.39c0,0.07,0.01,0.13,0.04,0.17c0.03,0.04,0.09,0.07,0.18,0.07c0,0.04,0,0.08,0,0.12
						c-0.43-0.01-0.86-0.02-1.29-0.03C398.19,174.91,398.19,174.87,398.19,174.83z"/>
					<path class="st2" d="M403.05,173.83c-0.01,0.03-0.01,0.06-0.02,0.08c0,0.02-0.01,0.04-0.01,0.07c0,0.06,0.03,0.14,0.11,0.22
						c0.07,0.08,0.17,0.15,0.3,0.22c0.13,0.07,0.28,0.13,0.45,0.18c0.18,0.05,0.36,0.08,0.56,0.1c0.56,0.04,1-0.05,1.32-0.28
						c0.32-0.23,0.5-0.64,0.56-1.25c0-0.03,0-0.05,0-0.09c0-0.03,0-0.06,0-0.1c-0.01,0-0.01,0-0.02,0
						c-0.21,0.23-0.47,0.37-0.77,0.44c-0.3,0.06-0.62,0.08-0.96,0.06c-0.26-0.02-0.51-0.07-0.75-0.15c-0.25-0.08-0.46-0.2-0.64-0.35
						c-0.18-0.15-0.33-0.33-0.44-0.53c-0.11-0.21-0.16-0.45-0.14-0.72c0.03-0.58,0.26-1.01,0.68-1.28c0.42-0.27,0.98-0.39,1.67-0.34
						c0.41,0.03,0.76,0.12,1.06,0.28c0.3,0.16,0.54,0.36,0.73,0.62c0.19,0.25,0.32,0.55,0.4,0.88c0.08,0.33,0.1,0.69,0.06,1.07
						c-0.04,0.41-0.13,0.77-0.28,1.07c-0.14,0.3-0.33,0.55-0.57,0.75c-0.23,0.2-0.5,0.33-0.81,0.41c-0.31,0.08-0.64,0.1-1.01,0.08
						c-0.25-0.02-0.47-0.05-0.64-0.09c-0.18-0.04-0.36-0.09-0.54-0.16c-0.11-0.03-0.22-0.08-0.32-0.14c-0.1-0.06-0.21-0.09-0.33-0.1
						c-0.03,0-0.07,0-0.11,0.02c-0.04,0.01-0.07,0.04-0.1,0.07c-0.04-0.02-0.08-0.04-0.12-0.06c0.2-0.35,0.4-0.7,0.6-1.04
						C402.97,173.79,403.01,173.81,403.05,173.83z M406.32,171.96c0.02-0.23-0.01-0.43-0.09-0.59c-0.08-0.16-0.19-0.29-0.34-0.4
						c-0.14-0.11-0.31-0.19-0.49-0.24c-0.19-0.05-0.37-0.09-0.56-0.1c-0.4-0.03-0.75,0.05-1.03,0.23c-0.28,0.18-0.43,0.45-0.45,0.8
						c-0.01,0.2,0.02,0.37,0.09,0.53c0.07,0.15,0.18,0.27,0.31,0.37c0.13,0.1,0.28,0.17,0.46,0.23c0.18,0.05,0.36,0.09,0.55,0.1
						c0.19,0.01,0.37,0,0.55-0.04c0.18-0.04,0.34-0.1,0.48-0.18c0.14-0.08,0.26-0.18,0.36-0.3
						C406.25,172.25,406.31,172.12,406.32,171.96z"/>
					<path class="st2" d="M408.78,170.27c-0.01,0.08,0,0.14,0.03,0.18c0.03,0.04,0.1,0.06,0.2,0.07c1.36,0.15,2.72,0.32,4.08,0.52
						c0.1,0.01,0.17,0.01,0.21-0.02c0.04-0.03,0.06-0.09,0.08-0.17c0.04,0.01,0.08,0.01,0.12,0.02c-0.04,0.26-0.08,0.52-0.12,0.79
						c-0.99,1.25-1.95,2.52-2.89,3.8c-0.02,0.03-0.04,0.06-0.05,0.08c-0.02,0.02-0.03,0.05-0.04,0.09
						c-0.01,0.06,0.05,0.09,0.16,0.11c0,0.04-0.01,0.08-0.01,0.12c-0.45-0.06-0.9-0.11-1.35-0.16c0-0.04,0.01-0.08,0.01-0.12
						c0.12,0.01,0.21,0,0.27-0.05c0.05-0.05,0.13-0.13,0.21-0.25c0.87-1.21,1.76-2.42,2.67-3.61c-1.14-0.16-2.29-0.3-3.43-0.43
						c-0.1-0.01-0.17,0-0.21,0.04c-0.04,0.04-0.06,0.09-0.07,0.18c-0.04,0-0.08-0.01-0.12-0.01c0.04-0.39,0.08-0.78,0.12-1.17
						C408.7,170.27,408.74,170.27,408.78,170.27z"/>
					<path class="st2" d="M419.63,174.78c-0.07,0.36-0.2,0.68-0.39,0.97c-0.18,0.29-0.41,0.52-0.68,0.7
						c-0.27,0.18-0.57,0.31-0.92,0.37c-0.34,0.06-0.72,0.05-1.13-0.02c-0.41-0.08-0.76-0.2-1.06-0.38c-0.3-0.18-0.54-0.4-0.73-0.67
						c-0.19-0.27-0.31-0.56-0.38-0.9c-0.07-0.33-0.08-0.68-0.02-1.04c0.06-0.36,0.17-0.69,0.34-0.98c0.17-0.29,0.39-0.53,0.66-0.73
						c0.27-0.19,0.58-0.33,0.94-0.4c0.36-0.08,0.75-0.08,1.18,0c0.43,0.08,0.8,0.22,1.11,0.42c0.31,0.2,0.55,0.43,0.74,0.71
						c0.18,0.27,0.3,0.58,0.36,0.91C419.71,174.07,419.7,174.42,419.63,174.78z M418.82,174.62c0.12-0.6,0.06-1.11-0.17-1.52
						c-0.24-0.41-0.68-0.68-1.32-0.8c-0.64-0.12-1.15-0.02-1.51,0.28c-0.37,0.3-0.6,0.76-0.7,1.37c-0.1,0.61-0.03,1.11,0.21,1.52
						c0.24,0.41,0.66,0.66,1.28,0.78c0.62,0.11,1.11,0.02,1.48-0.27C418.46,175.67,418.7,175.22,418.82,174.62z"/>
				</g>
				<g>
					<polygon class="st2" points="391.67,179.9 392.08,180.73 392.99,180.86 392.33,181.51 392.49,182.42 391.67,181.99 
						390.85,182.42 391.01,181.51 390.35,180.86 391.26,180.73 					"/>
					<polygon class="st2" points="400.98,179.9 401.39,180.73 402.3,180.86 401.64,181.51 401.79,182.42 400.98,181.99 
						400.16,182.42 400.32,181.51 399.65,180.86 400.57,180.73 					"/>
					<polygon class="st2" points="396.29,177.64 396.88,178.84 398.2,179.03 397.25,179.96 397.48,181.27 396.29,180.65 
						395.11,181.27 395.34,179.96 394.38,179.03 395.7,178.84 					"/>
				</g>
			</g>
		</g>
		<use xlink:href="#SVGID_1_"  style="overflow:visible;fill:none;stroke:#000000;stroke-width:0.5;stroke-miterlimit:10;"/>
	</g>
	<g>
		<g>
			<path class="st2" d="M363.77,430.26v-0.69h0.39c0.26,0,0.43-0.03,0.5-0.09c0.06-0.06,0.1-0.22,0.1-0.47v-3.55
				c0-0.25-0.03-0.4-0.1-0.46c-0.06-0.06-0.23-0.09-0.5-0.09h-0.39v-0.68h3.26v0.68h-0.39c-0.27,0-0.44,0.03-0.5,0.1
				s-0.1,0.22-0.1,0.46v3.55c0,0.25,0.03,0.4,0.09,0.46c0.06,0.06,0.23,0.09,0.5,0.09h0.39v0.69H363.77z"/>
			<path class="st2" d="M371.91,430.26l-1.02-3.12c-0.07-0.22-0.14-0.36-0.22-0.43s-0.18-0.1-0.31-0.1h-0.19V426h2.23v0.6h-0.22
				c-0.1,0-0.18,0.02-0.22,0.05s-0.07,0.09-0.07,0.17l0.02,0.14l0.06,0.22l0.61,2.09l0.76-2.12l0.05-0.15l0.02-0.14
				c0-0.1-0.03-0.17-0.09-0.21c-0.06-0.04-0.17-0.06-0.31-0.06h-0.17V426H375v0.6h-0.27c-0.1,0-0.17,0.02-0.22,0.05
				c-0.04,0.03-0.07,0.09-0.07,0.16l0.01,0.13c0,0.02,0.01,0.04,0.01,0.06c0,0.01,0.02,0.04,0.03,0.09l0.72,2.22l0.66-2.04
				l0.07-0.24c0.02-0.08,0.03-0.15,0.03-0.2c0-0.07-0.03-0.12-0.08-0.16s-0.12-0.07-0.21-0.07h-0.22V426h1.87v0.6h-0.2
				c-0.11,0-0.21,0.04-0.28,0.12c-0.07,0.08-0.15,0.24-0.23,0.47l-1.02,3.06h-1.06l-0.76-2.38l-0.81,2.38H371.91z"/>
			<path class="st2" d="M377.76,428.14c0-0.69,0.22-1.25,0.65-1.67s1.02-0.63,1.74-0.63c0.73,0,1.31,0.21,1.75,0.63
				c0.44,0.42,0.66,0.97,0.66,1.66c0,0.68-0.22,1.23-0.66,1.65s-1.02,0.63-1.74,0.63s-1.3-0.21-1.74-0.62
				S377.76,428.83,377.76,428.14z M378.98,428.14c0,0.54,0.1,0.95,0.29,1.23s0.49,0.41,0.88,0.41c0.39,0,0.68-0.14,0.88-0.41
				c0.2-0.27,0.3-0.68,0.3-1.23c0-0.55-0.1-0.96-0.29-1.24c-0.2-0.28-0.49-0.41-0.88-0.41c-0.38,0-0.67,0.14-0.87,0.41
				C379.08,427.17,378.98,427.59,378.98,428.14z"/>
			<path class="st2" d="M383.74,428.82v-1.68c0-0.23-0.04-0.37-0.11-0.44s-0.21-0.1-0.42-0.1h-0.21V426h1.81v2.82
				c0,0.32,0.05,0.54,0.16,0.68c0.11,0.13,0.27,0.2,0.51,0.2c0.34,0,0.61-0.13,0.81-0.39c0.2-0.26,0.3-0.61,0.3-1.07v-1.1
				c0-0.23-0.04-0.37-0.11-0.44s-0.21-0.1-0.42-0.1h-0.41V426h2.02v3.11c0,0.23,0.04,0.37,0.11,0.44c0.07,0.06,0.21,0.1,0.42,0.1
				h0.23v0.6h-1.84v-0.75c-0.23,0.29-0.47,0.51-0.72,0.66c-0.25,0.15-0.51,0.22-0.77,0.22c-0.48,0-0.83-0.12-1.04-0.36
				C383.85,429.8,383.74,429.39,383.74,428.82z"/>
			<path class="st2" d="M389.62,425.36c0-0.23-0.03-0.37-0.1-0.44c-0.07-0.07-0.21-0.1-0.42-0.1h-0.27v-0.6h1.89v4.9
				c0,0.23,0.04,0.37,0.11,0.44c0.07,0.07,0.21,0.1,0.42,0.1h0.27v0.6h-2.68v-0.6h0.27c0.21,0,0.35-0.03,0.42-0.1
				c0.07-0.07,0.1-0.21,0.1-0.44V425.36z"/>
			<path class="st2" d="M395.28,425.36c0-0.23-0.04-0.37-0.11-0.44c-0.07-0.06-0.21-0.1-0.41-0.1h-0.38v-0.6h1.98v4.9
				c0,0.23,0.03,0.38,0.1,0.44c0.07,0.07,0.21,0.1,0.41,0.1h0.26v0.6h-1.86v-0.74c-0.14,0.29-0.33,0.51-0.57,0.65
				c-0.24,0.14-0.53,0.21-0.88,0.21c-0.57,0-1.02-0.2-1.34-0.59c-0.32-0.4-0.48-0.95-0.48-1.67c0-0.72,0.16-1.28,0.48-1.67
				c0.32-0.4,0.77-0.6,1.34-0.6c0.35,0,0.64,0.07,0.87,0.21c0.24,0.14,0.43,0.36,0.58,0.66V425.36z M393.23,428.14
				c0,0.51,0.08,0.89,0.25,1.14c0.17,0.25,0.43,0.38,0.78,0.38c0.32,0,0.57-0.13,0.75-0.4c0.18-0.27,0.27-0.64,0.27-1.11
				c0-0.47-0.09-0.84-0.27-1.11s-0.43-0.4-0.75-0.4c-0.35,0-0.61,0.12-0.78,0.37C393.31,427.25,393.23,427.63,393.23,428.14z"/>
			<path class="st2" d="M402.22,429.12c0,0.23,0.03,0.38,0.1,0.44c0.07,0.07,0.21,0.1,0.41,0.1h0.45v0.6h-2.86v-0.6h0.3
				c0.21,0,0.34-0.03,0.41-0.1c0.07-0.06,0.1-0.21,0.1-0.45v-1.97c0-0.23-0.04-0.38-0.1-0.44c-0.07-0.06-0.2-0.1-0.41-0.1h-0.3V426
				h1.9v0.65c0.14-0.25,0.3-0.44,0.49-0.57c0.19-0.13,0.4-0.19,0.63-0.19c0.32,0,0.58,0.09,0.79,0.27s0.3,0.41,0.3,0.7
				c0,0.23-0.07,0.41-0.2,0.55c-0.13,0.14-0.31,0.21-0.53,0.21c-0.19,0-0.34-0.05-0.45-0.16c-0.11-0.1-0.17-0.24-0.17-0.4
				c0-0.15,0.05-0.28,0.14-0.38c0.09-0.1,0.22-0.18,0.41-0.23l-0.2-0.06c-0.06-0.02-0.12-0.02-0.17-0.02c-0.3,0-0.54,0.15-0.75,0.45
				c-0.1,0.15-0.17,0.32-0.22,0.51c-0.05,0.19-0.07,0.4-0.07,0.64V429.12z"/>
			<path class="st2" d="M407.58,429.74c-0.18,0.23-0.39,0.4-0.63,0.51s-0.52,0.17-0.84,0.17c-0.19,0-0.36-0.03-0.52-0.08
				c-0.15-0.05-0.29-0.13-0.41-0.25c-0.24-0.22-0.36-0.49-0.36-0.83c0-0.32,0.1-0.59,0.3-0.79c0.2-0.2,0.56-0.38,1.06-0.53
				l0.57-0.15c0.27-0.06,0.44-0.12,0.52-0.18c0.1-0.07,0.18-0.15,0.23-0.24c0.05-0.09,0.07-0.2,0.07-0.34
				c0-0.22-0.08-0.39-0.24-0.51c-0.16-0.12-0.39-0.18-0.69-0.18c-0.19,0-0.35,0.02-0.49,0.06s-0.26,0.11-0.37,0.2h0.03
				c0.17,0,0.31,0.04,0.41,0.13c0.1,0.09,0.15,0.21,0.15,0.36c0,0.17-0.06,0.31-0.17,0.42c-0.12,0.11-0.27,0.16-0.46,0.16
				c-0.21,0-0.39-0.07-0.52-0.2c-0.13-0.13-0.2-0.3-0.2-0.51c0-0.33,0.16-0.6,0.47-0.81c0.16-0.1,0.34-0.18,0.55-0.23
				s0.45-0.08,0.72-0.08c0.3,0,0.56,0.03,0.8,0.08s0.43,0.13,0.58,0.23c0.17,0.11,0.29,0.25,0.36,0.43
				c0.07,0.18,0.11,0.47,0.11,0.88v1.89c0,0.11,0.02,0.18,0.05,0.23c0.03,0.05,0.09,0.07,0.16,0.07c0.1,0,0.18-0.06,0.22-0.17
				c0.04-0.12,0.06-0.39,0.06-0.81h0.55v0.19c0,0.55-0.09,0.94-0.26,1.19s-0.46,0.37-0.85,0.37c-0.26,0-0.47-0.05-0.63-0.16
				C407.77,430.15,407.65,429.98,407.58,429.74z M407.56,428.03l-0.51,0.22c-0.67,0.29-1,0.59-1,0.89c0,0.16,0.05,0.29,0.15,0.38
				c0.1,0.09,0.23,0.13,0.41,0.13c0.29,0,0.52-0.1,0.69-0.3c0.17-0.2,0.26-0.47,0.26-0.82V428.03z"/>
			<path class="st2" d="M410.56,428.93v-2.3h-0.7v-0.58c0.4-0.06,0.69-0.23,0.89-0.49c0.1-0.14,0.19-0.31,0.25-0.52
				c0.06-0.21,0.09-0.44,0.09-0.7h0.58V426h1.17v0.62h-1.19v2.43c0,0.21,0.02,0.35,0.07,0.42c0.04,0.07,0.13,0.11,0.26,0.11
				c0.15,0,0.25-0.07,0.31-0.22c0.06-0.14,0.09-0.44,0.09-0.88v-0.24h0.58l0,0.15l0,0.23c0,0.63-0.1,1.08-0.3,1.36
				c-0.2,0.28-0.53,0.42-0.99,0.42c-0.38,0-0.67-0.12-0.85-0.36C410.65,429.82,410.56,429.44,410.56,428.93z"/>
			<path class="st2" d="M414.31,425.36c0-0.23-0.04-0.37-0.11-0.44c-0.07-0.07-0.21-0.1-0.42-0.1h-0.23v-0.6h1.84v2.54
				c0.23-0.29,0.46-0.51,0.72-0.66c0.25-0.15,0.51-0.22,0.77-0.22c0.48,0,0.83,0.12,1.05,0.36c0.21,0.24,0.32,0.64,0.32,1.21v1.67
				c0,0.23,0.04,0.37,0.11,0.44c0.07,0.07,0.21,0.1,0.42,0.1h0.25v0.6h-2.55v-0.6h0.18c0.21,0,0.35-0.03,0.42-0.1
				c0.07-0.07,0.1-0.21,0.1-0.44v-1.67c0-0.31-0.05-0.53-0.16-0.67c-0.1-0.14-0.27-0.2-0.51-0.2c-0.34,0-0.61,0.13-0.81,0.4
				s-0.3,0.63-0.3,1.09v1.06c0,0.23,0.04,0.37,0.11,0.44c0.07,0.07,0.21,0.1,0.42,0.1h0.18v0.6h-2.54v-0.6h0.23
				c0.21,0,0.34-0.03,0.42-0.1c0.07-0.07,0.11-0.21,0.11-0.44V425.36z"/>
			<path class="st2" d="M422.91,428.74h0.76c-0.06,0.52-0.27,0.93-0.62,1.23s-0.81,0.45-1.36,0.45c-0.68,0-1.23-0.21-1.64-0.62
				c-0.41-0.41-0.61-0.97-0.61-1.66c0-0.68,0.21-1.24,0.62-1.66c0.41-0.42,0.96-0.63,1.63-0.63c0.65,0,1.15,0.2,1.49,0.61
				c0.34,0.41,0.52,1,0.52,1.77h-3.03c0,0.24,0.03,0.44,0.08,0.62c0.05,0.18,0.13,0.34,0.23,0.47c0.18,0.25,0.45,0.38,0.79,0.38
				c0.35,0,0.61-0.07,0.78-0.22C422.7,429.33,422.83,429.08,422.91,428.74z M422.5,427.59c0-0.18-0.02-0.35-0.07-0.5
				s-0.1-0.27-0.18-0.37c-0.13-0.18-0.33-0.27-0.58-0.27c-0.26,0-0.48,0.1-0.64,0.29c-0.16,0.19-0.27,0.47-0.33,0.85H422.5z"/>
			<path class="st2" d="M426.08,429.12c0,0.23,0.03,0.38,0.1,0.44c0.07,0.07,0.21,0.1,0.41,0.1h0.45v0.6h-2.86v-0.6h0.3
				c0.21,0,0.34-0.03,0.41-0.1c0.07-0.06,0.1-0.21,0.1-0.45v-1.97c0-0.23-0.03-0.38-0.1-0.44c-0.07-0.06-0.21-0.1-0.41-0.1h-0.3V426
				h1.9v0.65c0.14-0.25,0.31-0.44,0.5-0.57c0.19-0.13,0.4-0.19,0.63-0.19c0.32,0,0.58,0.09,0.79,0.27s0.3,0.41,0.3,0.7
				c0,0.23-0.07,0.41-0.2,0.55c-0.13,0.14-0.31,0.21-0.53,0.21c-0.19,0-0.34-0.05-0.45-0.16c-0.11-0.1-0.17-0.24-0.17-0.4
				c0-0.15,0.05-0.28,0.14-0.38c0.09-0.1,0.22-0.18,0.41-0.23l-0.2-0.06c-0.06-0.02-0.12-0.02-0.17-0.02c-0.3,0-0.54,0.15-0.75,0.45
				c-0.1,0.15-0.17,0.32-0.22,0.51c-0.05,0.19-0.08,0.4-0.08,0.64V429.12z"/>
			<path class="st2" d="M361.13,436.16c0-0.23-0.04-0.37-0.11-0.44s-0.21-0.1-0.42-0.1h-0.23v-0.6h1.84v2.54
				c0.23-0.29,0.46-0.51,0.72-0.66s0.51-0.22,0.77-0.22c0.48,0,0.83,0.12,1.05,0.36c0.21,0.24,0.32,0.64,0.32,1.21v1.67
				c0,0.23,0.04,0.37,0.11,0.44c0.07,0.07,0.21,0.1,0.42,0.1h0.25v0.6h-2.55v-0.6h0.18c0.21,0,0.35-0.03,0.42-0.1
				c0.07-0.07,0.1-0.21,0.1-0.44v-1.67c0-0.31-0.05-0.53-0.16-0.67c-0.1-0.14-0.27-0.2-0.51-0.2c-0.34,0-0.61,0.13-0.81,0.4
				s-0.3,0.63-0.3,1.09v1.06c0,0.23,0.04,0.37,0.11,0.44c0.07,0.07,0.21,0.1,0.42,0.1h0.18v0.6h-2.54v-0.6h0.23
				c0.21,0,0.34-0.03,0.42-0.1c0.07-0.07,0.11-0.21,0.11-0.44V436.16z"/>
			<path class="st2" d="M368.99,440.54c-0.18,0.23-0.39,0.4-0.63,0.51c-0.24,0.11-0.52,0.17-0.84,0.17c-0.19,0-0.36-0.03-0.52-0.08
				s-0.29-0.13-0.41-0.25c-0.24-0.22-0.36-0.49-0.36-0.83c0-0.32,0.1-0.59,0.3-0.79c0.2-0.2,0.56-0.38,1.06-0.53l0.57-0.15
				c0.27-0.06,0.44-0.12,0.52-0.18c0.1-0.07,0.18-0.15,0.23-0.24c0.05-0.09,0.07-0.2,0.07-0.34c0-0.22-0.08-0.39-0.24-0.51
				c-0.16-0.12-0.39-0.18-0.69-0.18c-0.19,0-0.35,0.02-0.49,0.06s-0.26,0.11-0.37,0.2h0.03c0.17,0,0.31,0.04,0.41,0.13
				c0.1,0.09,0.15,0.21,0.15,0.36c0,0.17-0.06,0.31-0.17,0.42c-0.12,0.11-0.27,0.16-0.46,0.16c-0.21,0-0.39-0.07-0.52-0.2
				c-0.13-0.13-0.2-0.3-0.2-0.51c0-0.33,0.16-0.6,0.47-0.81c0.16-0.1,0.34-0.18,0.55-0.23s0.45-0.08,0.72-0.08
				c0.3,0,0.56,0.03,0.8,0.08s0.43,0.13,0.58,0.23c0.17,0.11,0.29,0.25,0.36,0.43c0.07,0.18,0.11,0.47,0.11,0.88v1.89
				c0,0.11,0.02,0.18,0.05,0.23c0.03,0.05,0.09,0.07,0.16,0.07c0.1,0,0.18-0.06,0.22-0.17c0.04-0.12,0.06-0.39,0.06-0.81h0.55v0.19
				c0,0.55-0.09,0.94-0.26,1.19c-0.17,0.24-0.46,0.37-0.85,0.37c-0.26,0-0.47-0.05-0.63-0.16
				C369.18,440.95,369.06,440.78,368.99,440.54z M368.97,438.83l-0.51,0.22c-0.67,0.29-1,0.59-1,0.89c0,0.16,0.05,0.29,0.15,0.38
				c0.1,0.09,0.23,0.13,0.41,0.13c0.29,0,0.52-0.1,0.69-0.3s0.26-0.47,0.26-0.82V438.83z"/>
			<path class="st2" d="M373.02,441.06l-1.1-3.19c-0.06-0.17-0.12-0.28-0.2-0.36s-0.17-0.11-0.28-0.11h-0.26v-0.6h2.34v0.6h-0.15
				c-0.12,0-0.21,0.02-0.26,0.06s-0.09,0.09-0.09,0.17c0,0.03,0,0.06,0,0.09c0.01,0.03,0.01,0.06,0.02,0.07l0.07,0.23l0.67,1.96
				l0.72-2.04l0.04-0.15l0.02-0.14c0-0.09-0.03-0.15-0.1-0.19c-0.07-0.04-0.17-0.06-0.31-0.06h-0.22v-0.6h2.1v0.6h-0.22
				c-0.12,0-0.23,0.04-0.31,0.13c-0.09,0.09-0.17,0.23-0.24,0.42l-1.09,3.1H373.02z"/>
			<path class="st2" d="M379.82,439.54h0.76c-0.06,0.52-0.27,0.93-0.62,1.23s-0.81,0.45-1.36,0.45c-0.68,0-1.23-0.21-1.64-0.62
				c-0.41-0.41-0.61-0.97-0.61-1.66c0-0.68,0.21-1.24,0.62-1.66c0.41-0.42,0.96-0.63,1.63-0.63c0.65,0,1.15,0.2,1.49,0.61
				c0.34,0.41,0.52,1,0.52,1.77h-3.03c0,0.24,0.03,0.44,0.08,0.62c0.05,0.18,0.13,0.34,0.23,0.47c0.18,0.25,0.45,0.38,0.79,0.38
				c0.35,0,0.61-0.07,0.78-0.22C379.61,440.13,379.74,439.88,379.82,439.54z M379.41,438.39c0-0.18-0.02-0.35-0.07-0.5
				s-0.1-0.27-0.18-0.37c-0.13-0.18-0.33-0.27-0.58-0.27c-0.26,0-0.48,0.1-0.64,0.29c-0.16,0.19-0.27,0.47-0.33,0.85H379.41z"/>
			<path class="st2" d="M384.93,439.48c-0.21-0.18-0.37-0.37-0.47-0.57c-0.1-0.2-0.15-0.42-0.15-0.64c0-0.49,0.19-0.88,0.56-1.17
				c0.37-0.29,0.87-0.44,1.49-0.44c0.27,0,0.53,0.04,0.78,0.11c0.13,0.04,0.24,0.08,0.35,0.13c0.11,0.05,0.22,0.11,0.32,0.19
				c0.13-0.13,0.26-0.24,0.4-0.31c0.14-0.07,0.3-0.11,0.47-0.11c0.31,0,0.55,0.08,0.73,0.24s0.27,0.38,0.27,0.66
				c0,0.19-0.06,0.34-0.17,0.46s-0.25,0.18-0.43,0.18c-0.17,0-0.31-0.05-0.42-0.15c-0.11-0.1-0.17-0.23-0.17-0.39
				c0-0.12,0.04-0.23,0.11-0.31c0.07-0.08,0.18-0.15,0.32-0.18c-0.06-0.04-0.1-0.07-0.14-0.09c-0.04-0.02-0.07-0.03-0.09-0.03
				c-0.02-0.01-0.05-0.01-0.08-0.01c-0.1,0-0.2,0.03-0.3,0.09c-0.1,0.06-0.19,0.16-0.28,0.29c0.07,0.14,0.13,0.28,0.18,0.43
				c0.04,0.15,0.07,0.31,0.07,0.46c0,0.47-0.18,0.85-0.53,1.14c-0.35,0.28-0.84,0.42-1.45,0.42c-0.16,0-0.32-0.01-0.49-0.04
				c-0.09-0.01-0.17-0.03-0.24-0.05s-0.16-0.04-0.26-0.07c-0.02,0.01-0.04,0.03-0.08,0.06c-0.03,0.03-0.07,0.06-0.09,0.09
				c-0.03,0.05-0.05,0.1-0.06,0.15c0,0.11,0.04,0.19,0.13,0.25c0.05,0.02,0.11,0.04,0.18,0.05s0.16,0.02,0.28,0.02h1.23
				c0.35,0,0.65,0.02,0.89,0.07s0.44,0.12,0.61,0.23c0.32,0.19,0.47,0.5,0.47,0.93c0,0.47-0.22,0.82-0.66,1.07
				c-0.44,0.25-1.07,0.37-1.89,0.37c-0.38,0-0.71-0.02-0.99-0.07s-0.52-0.11-0.73-0.21c-0.4-0.18-0.59-0.44-0.59-0.78
				c0-0.18,0.07-0.34,0.2-0.46c0.13-0.12,0.34-0.22,0.63-0.3c-0.24-0.06-0.42-0.16-0.54-0.3c-0.12-0.14-0.19-0.31-0.19-0.51
				c0-0.2,0.07-0.38,0.2-0.52S384.66,439.57,384.93,439.48z M386.27,441.28c-0.55,0-0.94,0.04-1.14,0.13
				c-0.21,0.09-0.31,0.24-0.31,0.45c0,0.2,0.11,0.36,0.34,0.46c0.23,0.1,0.58,0.15,1.05,0.15c0.25,0,0.47-0.01,0.66-0.04
				s0.34-0.07,0.47-0.13c0.25-0.11,0.37-0.28,0.37-0.5c0-0.2-0.1-0.33-0.29-0.41C387.21,441.32,386.83,441.28,386.27,441.28z
				 M385.51,438.22c0,0.37,0.06,0.63,0.18,0.81c0.12,0.17,0.33,0.26,0.61,0.26c0.28,0,0.48-0.08,0.61-0.25s0.19-0.43,0.19-0.78
				c0-0.37-0.06-0.65-0.19-0.82c-0.13-0.17-0.33-0.26-0.61-0.26c-0.27,0-0.47,0.09-0.6,0.26S385.51,437.87,385.51,438.22z"/>
			<path class="st2" d="M389.92,438.94c0-0.69,0.22-1.25,0.65-1.67s1.02-0.63,1.74-0.63c0.73,0,1.31,0.21,1.75,0.63
				c0.44,0.42,0.66,0.97,0.66,1.66c0,0.68-0.22,1.23-0.66,1.65s-1.02,0.63-1.74,0.63s-1.3-0.21-1.74-0.62
				S389.92,439.63,389.92,438.94z M391.14,438.94c0,0.54,0.1,0.95,0.29,1.23s0.49,0.41,0.88,0.41c0.39,0,0.68-0.14,0.88-0.41
				c0.2-0.27,0.3-0.68,0.3-1.23c0-0.55-0.1-0.96-0.29-1.24c-0.2-0.28-0.49-0.41-0.88-0.41c-0.38,0-0.67,0.14-0.87,0.41
				C391.24,437.97,391.14,438.39,391.14,438.94z"/>
			<path class="st2" d="M395.22,438.94c0-0.69,0.22-1.25,0.65-1.67s1.02-0.63,1.74-0.63c0.73,0,1.31,0.21,1.75,0.63
				c0.44,0.42,0.66,0.97,0.66,1.66c0,0.68-0.22,1.23-0.66,1.65s-1.02,0.63-1.74,0.63s-1.3-0.21-1.74-0.62
				S395.22,439.63,395.22,438.94z M396.44,438.94c0,0.54,0.1,0.95,0.29,1.23s0.49,0.41,0.88,0.41c0.39,0,0.68-0.14,0.88-0.41
				c0.2-0.27,0.3-0.68,0.3-1.23c0-0.55-0.1-0.96-0.29-1.24c-0.2-0.28-0.49-0.41-0.88-0.41c-0.38,0-0.67,0.14-0.87,0.41
				C396.54,437.97,396.44,438.39,396.44,438.94z"/>
			<path class="st2" d="M403.85,436.16c0-0.23-0.04-0.37-0.11-0.44c-0.07-0.06-0.21-0.1-0.41-0.1h-0.38v-0.6h1.98v4.9
				c0,0.23,0.03,0.38,0.1,0.44c0.07,0.07,0.21,0.1,0.41,0.1h0.26v0.6h-1.86v-0.74c-0.14,0.29-0.33,0.51-0.57,0.65
				c-0.24,0.14-0.53,0.21-0.88,0.21c-0.57,0-1.02-0.2-1.34-0.59c-0.32-0.4-0.48-0.95-0.48-1.67c0-0.72,0.16-1.28,0.48-1.67
				c0.32-0.4,0.77-0.6,1.34-0.6c0.35,0,0.64,0.07,0.87,0.21c0.24,0.14,0.43,0.36,0.58,0.66V436.16z M401.8,438.94
				c0,0.51,0.08,0.89,0.25,1.14c0.17,0.25,0.43,0.38,0.78,0.38c0.32,0,0.57-0.13,0.75-0.4c0.18-0.27,0.27-0.64,0.27-1.11
				c0-0.47-0.09-0.84-0.27-1.11c-0.18-0.27-0.43-0.4-0.75-0.4c-0.35,0-0.61,0.12-0.78,0.37C401.88,438.05,401.8,438.43,401.8,438.94
				z"/>
			<path class="st2" d="M409.7,437.94c0-0.23-0.04-0.38-0.1-0.44c-0.07-0.06-0.2-0.1-0.41-0.1h-0.36v-0.6h1.97v4.48
				c0,0.6-0.12,1.03-0.35,1.3s-0.61,0.4-1.12,0.4c-0.36,0-0.66-0.09-0.89-0.26c-0.23-0.17-0.34-0.39-0.34-0.67
				c0-0.18,0.06-0.32,0.18-0.44c0.06-0.06,0.13-0.1,0.2-0.13s0.16-0.04,0.25-0.04c0.16,0,0.29,0.05,0.39,0.14
				c0.1,0.1,0.15,0.22,0.15,0.37c0,0.07-0.01,0.14-0.03,0.19s-0.05,0.1-0.09,0.14c-0.07,0.08-0.19,0.13-0.36,0.15
				c0.04,0.02,0.07,0.03,0.1,0.04s0.07,0.02,0.12,0.04c0.06,0.02,0.11,0.02,0.16,0.02c0.19,0,0.32-0.07,0.4-0.21
				c0.04-0.07,0.07-0.17,0.09-0.29c0.02-0.12,0.03-0.27,0.03-0.46V437.94z M409.5,435.61c0-0.19,0.06-0.34,0.19-0.47
				c0.13-0.13,0.29-0.19,0.47-0.19c0.19,0,0.35,0.07,0.48,0.19c0.13,0.13,0.2,0.29,0.2,0.47c0,0.18-0.07,0.34-0.2,0.47
				c-0.13,0.14-0.29,0.2-0.48,0.2c-0.18,0-0.34-0.07-0.47-0.2C409.57,435.96,409.5,435.8,409.5,435.61z"/>
			<path class="st2" d="M415.28,439.54h0.76c-0.06,0.52-0.27,0.93-0.62,1.23s-0.81,0.45-1.36,0.45c-0.68,0-1.23-0.21-1.64-0.62
				c-0.41-0.41-0.61-0.97-0.61-1.66c0-0.68,0.21-1.24,0.62-1.66c0.41-0.42,0.96-0.63,1.63-0.63c0.65,0,1.15,0.2,1.49,0.61
				c0.34,0.41,0.52,1,0.52,1.77h-3.03c0,0.24,0.03,0.44,0.08,0.62c0.05,0.18,0.13,0.34,0.23,0.47c0.18,0.25,0.45,0.38,0.79,0.38
				c0.35,0,0.61-0.07,0.78-0.22C415.07,440.13,415.2,439.88,415.28,439.54z M414.87,438.39c0-0.18-0.02-0.35-0.07-0.5
				s-0.1-0.27-0.18-0.37c-0.13-0.18-0.33-0.27-0.58-0.27c-0.26,0-0.48,0.1-0.64,0.29c-0.16,0.19-0.27,0.47-0.33,0.85H414.87z"/>
			<path class="st2" d="M419.35,440.54c-0.18,0.23-0.39,0.4-0.63,0.51c-0.24,0.11-0.52,0.17-0.83,0.17c-0.19,0-0.36-0.03-0.52-0.08
				c-0.15-0.05-0.29-0.13-0.42-0.25c-0.24-0.22-0.36-0.49-0.36-0.83c0-0.32,0.1-0.59,0.3-0.79c0.2-0.2,0.55-0.38,1.06-0.53
				l0.57-0.15c0.27-0.06,0.44-0.12,0.52-0.18c0.1-0.07,0.18-0.15,0.23-0.24c0.05-0.09,0.07-0.2,0.07-0.34
				c0-0.22-0.08-0.39-0.24-0.51c-0.16-0.12-0.39-0.18-0.69-0.18c-0.19,0-0.35,0.02-0.49,0.06s-0.26,0.11-0.37,0.2h0.03
				c0.17,0,0.31,0.04,0.41,0.13c0.1,0.09,0.15,0.21,0.15,0.36c0,0.17-0.06,0.31-0.17,0.42c-0.12,0.11-0.27,0.16-0.46,0.16
				c-0.21,0-0.39-0.07-0.52-0.2c-0.13-0.13-0.2-0.3-0.2-0.51c0-0.33,0.16-0.6,0.47-0.81c0.16-0.1,0.34-0.18,0.55-0.23
				s0.45-0.08,0.72-0.08c0.3,0,0.56,0.03,0.79,0.08s0.43,0.13,0.58,0.23c0.17,0.11,0.29,0.25,0.36,0.43
				c0.07,0.18,0.11,0.47,0.11,0.88v1.89c0,0.11,0.02,0.18,0.05,0.23c0.03,0.05,0.08,0.07,0.16,0.07c0.1,0,0.18-0.06,0.22-0.17
				c0.04-0.12,0.06-0.39,0.06-0.81h0.55v0.19c0,0.55-0.09,0.94-0.26,1.19c-0.17,0.24-0.46,0.37-0.85,0.37
				c-0.26,0-0.47-0.05-0.63-0.16C419.53,440.95,419.42,440.78,419.35,440.54z M419.32,438.83l-0.51,0.22c-0.67,0.29-1,0.59-1,0.89
				c0,0.16,0.05,0.29,0.14,0.38c0.1,0.09,0.23,0.13,0.41,0.13c0.29,0,0.52-0.1,0.69-0.3c0.17-0.2,0.26-0.47,0.26-0.82V438.83z"/>
			<path class="st2" d="M421.68,441.06v-0.6h0.3c0.21,0,0.34-0.03,0.41-0.1c0.07-0.06,0.1-0.21,0.1-0.45v-1.97
				c0-0.23-0.04-0.38-0.1-0.44c-0.07-0.06-0.2-0.1-0.41-0.1h-0.3v-0.6h1.9v0.75c0.23-0.29,0.47-0.51,0.72-0.66
				c0.25-0.15,0.5-0.22,0.75-0.22c0.49,0,0.84,0.12,1.05,0.36c0.21,0.24,0.32,0.64,0.32,1.21v1.67c0,0.23,0.03,0.38,0.1,0.44
				c0.07,0.07,0.21,0.1,0.41,0.1h0.26v0.6h-2.56v-0.6h0.18c0.21,0,0.34-0.03,0.41-0.09c0.07-0.06,0.1-0.21,0.1-0.45v-1.67
				c0-0.31-0.05-0.53-0.16-0.67c-0.1-0.14-0.27-0.2-0.51-0.2c-0.34,0-0.61,0.13-0.8,0.39s-0.29,0.61-0.29,1.06v1.1
				c0,0.23,0.03,0.38,0.1,0.44c0.07,0.07,0.21,0.1,0.41,0.1h0.18v0.6H421.68z"/>
			<path class="st2" d="M427.64,441.11v-1.74h0.66c0.08,0.39,0.25,0.69,0.5,0.89c0.25,0.21,0.56,0.31,0.93,0.31
				c0.23,0,0.41-0.05,0.55-0.15c0.14-0.1,0.21-0.24,0.21-0.41c0-0.13-0.05-0.24-0.16-0.32s-0.31-0.16-0.59-0.24l-0.67-0.16
				c-0.46-0.12-0.81-0.28-1.03-0.5c-0.23-0.22-0.34-0.49-0.34-0.82c0-0.4,0.15-0.72,0.45-0.97c0.3-0.25,0.7-0.37,1.2-0.37
				c0.23,0,0.46,0.04,0.67,0.11c0.21,0.07,0.42,0.18,0.61,0.33l0.2-0.33h0.51v1.57h-0.61c-0.09-0.32-0.25-0.58-0.48-0.76
				c-0.23-0.18-0.51-0.27-0.83-0.27c-0.21,0-0.38,0.04-0.5,0.13c-0.12,0.09-0.18,0.21-0.18,0.37c0,0.11,0.04,0.21,0.12,0.29
				c0.08,0.07,0.21,0.13,0.38,0.17l0.82,0.19c0.53,0.12,0.91,0.3,1.15,0.52c0.24,0.22,0.36,0.52,0.36,0.87
				c0,0.43-0.15,0.76-0.46,1.01c-0.3,0.25-0.73,0.37-1.26,0.37c-0.27,0-0.52-0.04-0.75-0.11s-0.46-0.2-0.69-0.37l-0.16,0.38H427.64z
				"/>
			<path class="st2" d="M369.12,451.86v-0.6h0.33c0.21,0,0.34-0.03,0.41-0.1c0.07-0.06,0.1-0.21,0.1-0.45v-1.97
				c0-0.23-0.04-0.37-0.11-0.44s-0.21-0.1-0.41-0.1h-0.33v-0.6h1.95v3.11c0,0.23,0.03,0.38,0.1,0.44c0.07,0.06,0.21,0.1,0.42,0.1
				h0.27v0.6H369.12z M369.77,446.41c0-0.19,0.06-0.34,0.19-0.47c0.13-0.13,0.29-0.19,0.47-0.19c0.19,0,0.35,0.07,0.48,0.19
				c0.13,0.13,0.2,0.29,0.2,0.47c0,0.18-0.07,0.34-0.2,0.47c-0.13,0.14-0.29,0.2-0.48,0.2c-0.18,0-0.34-0.07-0.47-0.2
				C369.83,446.76,369.77,446.6,369.77,446.41z"/>
			<path class="st2" d="M372.27,451.86v-0.6h0.3c0.21,0,0.34-0.03,0.41-0.1c0.07-0.06,0.1-0.21,0.1-0.45v-1.97
				c0-0.23-0.03-0.38-0.1-0.44c-0.07-0.06-0.2-0.1-0.41-0.1h-0.3v-0.6h1.9v0.75c0.23-0.29,0.48-0.51,0.72-0.66
				c0.25-0.15,0.5-0.22,0.75-0.22c0.49,0,0.84,0.12,1.05,0.36c0.21,0.24,0.32,0.64,0.32,1.21v1.67c0,0.23,0.03,0.38,0.1,0.44
				c0.07,0.07,0.21,0.1,0.41,0.1h0.26v0.6h-2.56v-0.6h0.18c0.21,0,0.34-0.03,0.41-0.09c0.07-0.06,0.1-0.21,0.1-0.45v-1.67
				c0-0.31-0.05-0.53-0.16-0.67c-0.1-0.14-0.27-0.2-0.51-0.2c-0.34,0-0.61,0.13-0.8,0.39s-0.29,0.61-0.29,1.06v1.1
				c0,0.23,0.03,0.38,0.1,0.44c0.07,0.07,0.21,0.1,0.41,0.1h0.18v0.6H372.27z"/>
			<path class="st2" d="M385.49,448.34c0.27-0.3,0.52-0.52,0.76-0.66c0.24-0.13,0.48-0.2,0.74-0.2c0.19,0,0.37,0.03,0.53,0.09
				c0.17,0.06,0.3,0.14,0.4,0.25c0.1,0.11,0.18,0.25,0.23,0.41c0.02,0.08,0.04,0.19,0.05,0.32s0.02,0.29,0.02,0.49v1.67
				c0,0.23,0.03,0.38,0.1,0.44c0.07,0.07,0.2,0.1,0.41,0.1h0.25v0.6h-2.46v-0.6h0.1c0.21,0,0.34-0.03,0.42-0.1
				c0.07-0.07,0.11-0.21,0.11-0.44v-1.67c0-0.34-0.04-0.57-0.13-0.7c-0.09-0.12-0.25-0.18-0.48-0.18c-0.27,0-0.51,0.11-0.71,0.34
				c-0.2,0.23-0.3,0.51-0.3,0.84v1.37c0,0.23,0.03,0.38,0.1,0.44c0.07,0.07,0.21,0.1,0.41,0.1h0.11v0.6h-2.32v-0.6h0.1
				c0.21,0,0.34-0.03,0.42-0.1c0.07-0.07,0.11-0.21,0.11-0.44v-1.67c0-0.34-0.04-0.57-0.13-0.7c-0.09-0.12-0.25-0.18-0.48-0.18
				c-0.27,0-0.51,0.11-0.7,0.34c-0.2,0.23-0.29,0.51-0.29,0.84v1.37c0,0.23,0.03,0.38,0.1,0.44c0.07,0.07,0.21,0.1,0.41,0.1h0.11
				v0.6h-2.5v-0.6h0.3c0.21,0,0.34-0.03,0.41-0.1c0.07-0.06,0.1-0.21,0.1-0.45v-1.97c0-0.23-0.03-0.38-0.1-0.44
				c-0.07-0.06-0.2-0.1-0.41-0.1h-0.3v-0.6h1.88v0.72c0.23-0.3,0.46-0.51,0.7-0.65c0.24-0.13,0.49-0.2,0.77-0.2
				c0.29,0,0.53,0.07,0.73,0.21S385.38,448.04,385.49,448.34z"/>
			<path class="st2" d="M391.45,451.86l-1.38-3.1c-0.09-0.2-0.18-0.35-0.29-0.43c-0.05-0.04-0.11-0.07-0.17-0.09
				c-0.06-0.02-0.13-0.03-0.22-0.03h-0.27v-0.6h2.61v0.6h-0.32c-0.1,0-0.17,0.02-0.23,0.05c-0.05,0.04-0.07,0.09-0.07,0.17l0.01,0.1
				l0.04,0.1l0.83,1.96l0.74-1.88l0.05-0.15l0.01-0.11c0-0.09-0.03-0.15-0.09-0.18c-0.05-0.04-0.16-0.05-0.31-0.05h-0.24v-0.6h2.17
				v0.6h-0.2c-0.14,0-0.27,0.05-0.38,0.16c-0.11,0.1-0.21,0.27-0.29,0.49l-1,2.5c-0.2,0.5-0.39,0.92-0.56,1.24
				c-0.17,0.32-0.33,0.56-0.48,0.72c-0.29,0.32-0.64,0.47-1.06,0.47c-0.36,0-0.66-0.11-0.9-0.32c-0.24-0.21-0.36-0.48-0.36-0.81
				c0-0.23,0.07-0.42,0.2-0.57c0.14-0.15,0.31-0.23,0.53-0.23c0.18,0,0.33,0.06,0.45,0.17c0.12,0.11,0.17,0.25,0.17,0.43
				c0,0.17-0.05,0.3-0.16,0.39c-0.11,0.1-0.25,0.15-0.44,0.15h-0.05c0.06,0.07,0.12,0.12,0.19,0.16c0.07,0.04,0.16,0.06,0.25,0.06
				c0.24,0,0.45-0.1,0.63-0.31S391.26,452.34,391.45,451.86z"/>
			<path class="st2" d="M400.84,450.1h0.69c0,0.31-0.04,0.59-0.14,0.83s-0.22,0.44-0.39,0.61c-0.32,0.32-0.78,0.48-1.38,0.48
				c-0.67,0-1.2-0.21-1.59-0.62c-0.39-0.41-0.59-0.97-0.59-1.66c0-0.68,0.22-1.23,0.66-1.65c0.44-0.42,1-0.64,1.7-0.64
				c0.52,0,0.94,0.12,1.27,0.37c0.33,0.25,0.5,0.56,0.5,0.94c0,0.23-0.07,0.41-0.2,0.56c-0.13,0.14-0.31,0.21-0.53,0.21
				c-0.19,0-0.35-0.06-0.47-0.17c-0.06-0.06-0.1-0.12-0.13-0.2c-0.03-0.07-0.04-0.16-0.04-0.26c0-0.14,0.05-0.26,0.14-0.36
				c0.09-0.1,0.22-0.16,0.38-0.18c-0.13-0.11-0.26-0.19-0.41-0.24s-0.3-0.08-0.47-0.08c-0.37,0-0.65,0.15-0.86,0.45
				c-0.21,0.3-0.31,0.71-0.31,1.24c0,0.5,0.09,0.86,0.28,1.11c0.19,0.24,0.47,0.37,0.85,0.37c0.3,0,0.54-0.09,0.71-0.27
				S400.79,450.47,400.84,450.1z"/>
			<path class="st2" d="M402.81,446.96c0-0.23-0.04-0.37-0.1-0.44c-0.07-0.07-0.21-0.1-0.42-0.1h-0.27v-0.6h1.89v4.9
				c0,0.23,0.04,0.37,0.11,0.44c0.07,0.07,0.21,0.1,0.42,0.1h0.27v0.6h-2.68v-0.6h0.27c0.21,0,0.35-0.03,0.42-0.1
				c0.07-0.07,0.1-0.21,0.1-0.44V446.96z"/>
			<path class="st2" d="M405.14,449.74c0-0.69,0.22-1.25,0.65-1.67s1.02-0.63,1.74-0.63c0.73,0,1.31,0.21,1.75,0.63
				c0.44,0.42,0.66,0.97,0.66,1.66c0,0.68-0.22,1.23-0.66,1.65s-1.02,0.63-1.75,0.63s-1.3-0.21-1.74-0.62
				S405.14,450.43,405.14,449.74z M406.37,449.74c0,0.54,0.1,0.95,0.29,1.23s0.49,0.41,0.88,0.41c0.39,0,0.68-0.14,0.88-0.41
				c0.2-0.27,0.3-0.68,0.3-1.23c0-0.55-0.1-0.96-0.29-1.24c-0.2-0.28-0.49-0.41-0.88-0.41c-0.38,0-0.67,0.14-0.87,0.41
				C406.47,448.77,406.37,449.19,406.37,449.74z"/>
			<path class="st2" d="M410.47,451.91v-1.74h0.66c0.08,0.39,0.25,0.69,0.5,0.89c0.25,0.21,0.56,0.31,0.93,0.31
				c0.23,0,0.41-0.05,0.55-0.15c0.14-0.1,0.21-0.24,0.21-0.41c0-0.13-0.05-0.24-0.16-0.32s-0.31-0.16-0.59-0.24l-0.67-0.16
				c-0.46-0.12-0.81-0.28-1.04-0.5c-0.23-0.22-0.34-0.49-0.34-0.82c0-0.4,0.15-0.72,0.45-0.97c0.3-0.25,0.7-0.37,1.2-0.37
				c0.23,0,0.46,0.04,0.67,0.11c0.21,0.07,0.42,0.18,0.61,0.33l0.2-0.33h0.51v1.57h-0.61c-0.09-0.32-0.25-0.58-0.48-0.76
				c-0.23-0.18-0.51-0.27-0.83-0.27c-0.21,0-0.38,0.04-0.5,0.13c-0.12,0.09-0.18,0.21-0.18,0.37c0,0.11,0.04,0.21,0.12,0.29
				c0.08,0.07,0.21,0.13,0.38,0.17l0.82,0.19c0.53,0.12,0.92,0.3,1.15,0.52c0.24,0.22,0.36,0.52,0.36,0.87
				c0,0.43-0.15,0.76-0.46,1.01c-0.3,0.25-0.72,0.37-1.26,0.37c-0.27,0-0.52-0.04-0.75-0.11s-0.46-0.2-0.69-0.37l-0.16,0.38H410.47z
				"/>
			<path class="st2" d="M418.39,450.34h0.76c-0.06,0.52-0.27,0.93-0.62,1.23s-0.81,0.45-1.36,0.45c-0.68,0-1.23-0.21-1.64-0.62
				c-0.41-0.41-0.61-0.97-0.61-1.66c0-0.68,0.21-1.24,0.62-1.66c0.41-0.42,0.96-0.63,1.63-0.63c0.65,0,1.15,0.2,1.49,0.61
				c0.34,0.41,0.52,1,0.52,1.77h-3.03c0,0.24,0.03,0.44,0.08,0.62c0.05,0.18,0.13,0.34,0.23,0.47c0.18,0.25,0.45,0.38,0.79,0.38
				c0.35,0,0.61-0.07,0.78-0.22C418.19,450.93,418.31,450.68,418.39,450.34z M417.98,449.19c0-0.18-0.02-0.35-0.07-0.5
				s-0.1-0.27-0.18-0.37c-0.13-0.18-0.33-0.27-0.58-0.27c-0.26,0-0.48,0.1-0.64,0.29c-0.16,0.19-0.27,0.47-0.33,0.85H417.98z"/>
			<path class="st2" d="M420.32,450.53v-2.3h-0.7v-0.58c0.4-0.06,0.69-0.23,0.89-0.49c0.1-0.14,0.18-0.31,0.25-0.52
				c0.06-0.21,0.09-0.44,0.09-0.7h0.58v1.67h1.17v0.62h-1.19v2.43c0,0.21,0.02,0.35,0.07,0.42c0.04,0.07,0.13,0.11,0.26,0.11
				c0.15,0,0.25-0.07,0.31-0.22c0.06-0.14,0.09-0.44,0.09-0.88v-0.24h0.58l0,0.15l0,0.23c0,0.63-0.1,1.08-0.31,1.36
				c-0.2,0.28-0.53,0.42-0.99,0.42c-0.38,0-0.67-0.12-0.85-0.36C420.41,451.42,420.32,451.04,420.32,450.53z"/>
		</g>
	</g>
	<g>
		<path class="st3" d="M395.84,267.38c0,0.58-0.07,1.13-0.22,1.64c-0.15,0.51-0.35,1-0.61,1.47s-0.55,0.94-0.89,1.39
			c-0.34,0.46-0.68,0.92-1.04,1.41l-3.76,4.82h6.29v2.71h-9.85V278l5.29-6.68c0.52-0.69,0.93-1.34,1.24-1.97
			c0.31-0.63,0.46-1.25,0.46-1.87c0-0.72-0.16-1.33-0.49-1.83c-0.33-0.5-0.82-0.75-1.5-0.75c-0.6,0-1.1,0.22-1.5,0.67
			c-0.4,0.45-0.65,1.09-0.77,1.93l-2.91-0.28c0.22-1.67,0.81-2.92,1.75-3.76s2.13-1.26,3.56-1.26c0.79,0,1.49,0.13,2.1,0.39
			s1.13,0.62,1.55,1.08c0.42,0.46,0.74,1.01,0.97,1.65C395.73,265.95,395.84,266.64,395.84,267.38z"/>
		<path class="st3" d="M409.35,275.76c0,0.79-0.13,1.52-0.39,2.18c-0.26,0.66-0.62,1.23-1.1,1.71s-1.05,0.85-1.73,1.12
			c-0.68,0.27-1.44,0.4-2.28,0.4c-0.84,0-1.6-0.13-2.27-0.4c-0.67-0.27-1.24-0.64-1.7-1.12s-0.82-1.05-1.07-1.71
			c-0.25-0.66-0.37-1.39-0.37-2.18c0-1.24,0.28-2.24,0.84-3c0.56-0.76,1.25-1.29,2.08-1.56v-0.05c-0.83-0.34-1.45-0.87-1.87-1.57
			c-0.42-0.7-0.63-1.55-0.63-2.53c0-0.64,0.1-1.25,0.31-1.83s0.52-1.1,0.93-1.55c0.41-0.45,0.93-0.8,1.56-1.07
			c0.63-0.27,1.36-0.4,2.2-0.4c0.84,0,1.58,0.13,2.22,0.4s1.17,0.62,1.6,1.07c0.43,0.45,0.75,0.96,0.97,1.55s0.32,1.19,0.32,1.83
			c0,0.98-0.21,1.82-0.63,2.53c-0.42,0.71-1.04,1.23-1.84,1.57v0.05c0.83,0.29,1.51,0.82,2.05,1.57
			C409.08,273.53,409.35,274.52,409.35,275.76z M406.2,275.61c0-0.95-0.21-1.71-0.64-2.31c-0.43-0.59-1-0.89-1.7-0.89
			c-0.69,0-1.25,0.3-1.68,0.89c-0.43,0.59-0.64,1.36-0.64,2.31c0,0.91,0.2,1.67,0.61,2.27c0.4,0.6,0.98,0.9,1.71,0.9
			c0.76,0,1.34-0.3,1.74-0.9C406,277.27,406.2,276.52,406.2,275.61z M405.95,267.25c0-0.81-0.19-1.47-0.56-1.99
			c-0.37-0.52-0.89-0.77-1.54-0.77c-0.67,0-1.19,0.26-1.54,0.77s-0.53,1.18-0.53,1.99c0,0.38,0.05,0.74,0.14,1.08
			c0.09,0.34,0.23,0.65,0.42,0.9s0.4,0.46,0.66,0.62c0.26,0.15,0.54,0.23,0.86,0.23c0.33,0,0.62-0.08,0.88-0.23s0.48-0.36,0.66-0.62
			s0.32-0.56,0.42-0.9C405.9,267.99,405.95,267.63,405.95,267.25z"/>
		<path class="st3" d="M396.04,306.6c0,0.81-0.13,1.55-0.39,2.23c-0.26,0.68-0.62,1.26-1.08,1.75c-0.46,0.49-1.03,0.87-1.69,1.13
			c-0.66,0.27-1.39,0.4-2.18,0.4c-1.38,0-2.54-0.35-3.48-1.04s-1.59-1.73-1.93-3.11l2.73-0.72c0.19,0.65,0.49,1.18,0.92,1.59
			c0.42,0.4,0.97,0.61,1.64,0.61c0.43,0,0.8-0.08,1.11-0.26c0.31-0.17,0.57-0.4,0.77-0.68c0.21-0.28,0.36-0.6,0.45-0.95
			c0.09-0.35,0.14-0.71,0.14-1.07c0-0.98-0.28-1.72-0.83-2.22c-0.55-0.5-1.26-0.75-2.14-0.75h-0.77v-2.4h0.85
			c0.77,0,1.39-0.25,1.84-0.74c0.46-0.49,0.68-1.18,0.68-2.06c0-0.29-0.04-0.59-0.12-0.89c-0.08-0.3-0.2-0.57-0.37-0.82
			c-0.17-0.24-0.4-0.44-0.67-0.6c-0.28-0.16-0.6-0.23-0.98-0.23c-0.5,0-0.92,0.16-1.26,0.49c-0.34,0.33-0.61,0.74-0.8,1.24
			l-2.68-0.75c0.21-0.64,0.49-1.18,0.85-1.64c0.36-0.46,0.76-0.83,1.21-1.12c0.45-0.29,0.92-0.5,1.42-0.64c0.5-0.14,1-0.2,1.5-0.2
			c0.67,0,1.3,0.11,1.88,0.32c0.58,0.22,1.1,0.53,1.55,0.94s0.8,0.92,1.06,1.51s0.39,1.27,0.39,2.02c0,1.03-0.23,1.93-0.7,2.71
			s-1.12,1.27-1.96,1.5v0.08c0.93,0.24,1.67,0.76,2.22,1.56C395.77,304.58,396.04,305.52,396.04,306.6z"/>
		<path class="st3" d="M409.35,302.63c0,1.05-0.07,2.13-0.22,3.25c-0.15,1.12-0.42,2.14-0.83,3.07c-0.4,0.93-0.97,1.69-1.69,2.28
			c-0.72,0.59-1.65,0.89-2.78,0.89s-2.06-0.3-2.77-0.89c-0.71-0.59-1.28-1.35-1.69-2.28c-0.41-0.93-0.69-1.95-0.84-3.07
			c-0.15-1.12-0.22-2.2-0.22-3.25c0-1.05,0.07-2.13,0.22-3.25c0.15-1.12,0.43-2.14,0.84-3.07c0.41-0.93,0.98-1.69,1.69-2.28
			c0.71-0.59,1.64-0.89,2.77-0.89s2.06,0.3,2.78,0.89c0.72,0.59,1.29,1.35,1.69,2.28c0.4,0.93,0.68,1.95,0.83,3.07
			C409.28,300.5,409.35,301.58,409.35,302.63z M406.23,302.63c0-0.62-0.03-1.32-0.08-2.1s-0.16-1.51-0.32-2.19
			c-0.16-0.68-0.4-1.25-0.72-1.73c-0.32-0.47-0.74-0.71-1.28-0.71c-0.53,0-0.96,0.24-1.28,0.71c-0.32,0.47-0.56,1.05-0.72,1.73
			c-0.16,0.68-0.27,1.41-0.32,2.19c-0.05,0.78-0.08,1.48-0.08,2.1c0,0.62,0.03,1.32,0.08,2.1c0.05,0.78,0.16,1.52,0.32,2.2
			c0.16,0.69,0.4,1.26,0.72,1.73c0.32,0.46,0.74,0.7,1.28,0.7c0.53,0,0.96-0.23,1.28-0.7c0.32-0.46,0.56-1.04,0.72-1.73
			c0.16-0.69,0.27-1.42,0.32-2.2C406.2,303.95,406.23,303.25,406.23,302.63z"/>
		<path class="st3" d="M396.04,337.54c0,0.81-0.13,1.55-0.39,2.23c-0.26,0.68-0.62,1.26-1.08,1.75c-0.46,0.49-1.03,0.87-1.69,1.13
			c-0.66,0.27-1.39,0.4-2.18,0.4c-1.38,0-2.54-0.35-3.48-1.04s-1.59-1.73-1.93-3.11l2.73-0.72c0.19,0.65,0.49,1.18,0.92,1.59
			c0.42,0.4,0.97,0.61,1.64,0.61c0.43,0,0.8-0.08,1.11-0.26c0.31-0.17,0.57-0.4,0.77-0.68c0.21-0.28,0.36-0.6,0.45-0.95
			c0.09-0.35,0.14-0.71,0.14-1.07c0-0.98-0.28-1.72-0.83-2.22c-0.55-0.5-1.26-0.75-2.14-0.75h-0.77v-2.4h0.85
			c0.77,0,1.39-0.25,1.84-0.74c0.46-0.49,0.68-1.18,0.68-2.06c0-0.29-0.04-0.59-0.12-0.89c-0.08-0.3-0.2-0.57-0.37-0.82
			c-0.17-0.24-0.4-0.44-0.67-0.6c-0.28-0.16-0.6-0.23-0.98-0.23c-0.5,0-0.92,0.16-1.26,0.49c-0.34,0.33-0.61,0.74-0.8,1.24
			l-2.68-0.75c0.21-0.64,0.49-1.18,0.85-1.64s0.76-0.83,1.21-1.12c0.45-0.29,0.92-0.5,1.42-0.64c0.5-0.14,1-0.21,1.5-0.21
			c0.67,0,1.3,0.11,1.88,0.32c0.58,0.22,1.1,0.53,1.55,0.94c0.45,0.41,0.8,0.92,1.06,1.51c0.26,0.59,0.39,1.27,0.39,2.02
			c0,1.03-0.23,1.93-0.7,2.71s-1.12,1.27-1.96,1.5v0.08c0.93,0.24,1.67,0.76,2.22,1.56C395.77,335.52,396.04,336.46,396.04,337.54z"
			/>
		<path class="st3" d="M408.94,337.54c0,0.81-0.13,1.55-0.39,2.23c-0.26,0.68-0.62,1.26-1.08,1.75c-0.46,0.49-1.03,0.87-1.69,1.13
			c-0.66,0.27-1.39,0.4-2.18,0.4c-1.38,0-2.54-0.35-3.48-1.04s-1.59-1.73-1.93-3.11l2.73-0.72c0.19,0.65,0.49,1.18,0.92,1.59
			c0.42,0.4,0.97,0.61,1.64,0.61c0.43,0,0.8-0.08,1.11-0.26c0.31-0.17,0.57-0.4,0.77-0.68c0.21-0.28,0.36-0.6,0.45-0.95
			c0.09-0.35,0.14-0.71,0.14-1.07c0-0.98-0.28-1.72-0.83-2.22c-0.55-0.5-1.26-0.75-2.14-0.75h-0.77v-2.4h0.85
			c0.77,0,1.39-0.25,1.84-0.74c0.46-0.49,0.68-1.18,0.68-2.06c0-0.29-0.04-0.59-0.12-0.89c-0.08-0.3-0.2-0.57-0.37-0.82
			c-0.17-0.24-0.4-0.44-0.67-0.6c-0.28-0.16-0.6-0.23-0.98-0.23c-0.5,0-0.92,0.16-1.26,0.49c-0.34,0.33-0.61,0.74-0.8,1.24
			l-2.68-0.75c0.21-0.64,0.49-1.18,0.85-1.64s0.76-0.83,1.21-1.12c0.45-0.29,0.92-0.5,1.42-0.64c0.5-0.14,1-0.21,1.5-0.21
			c0.67,0,1.3,0.11,1.88,0.32c0.58,0.22,1.1,0.53,1.55,0.94c0.45,0.41,0.8,0.92,1.06,1.51c0.26,0.59,0.39,1.27,0.39,2.02
			c0,1.03-0.23,1.93-0.7,2.71s-1.12,1.27-1.96,1.5v0.08c0.93,0.24,1.67,0.76,2.22,1.56C408.66,335.52,408.94,336.46,408.94,337.54z"
			/>
		<path class="st3" d="M396.04,368.48c0,0.81-0.13,1.55-0.39,2.23c-0.26,0.68-0.62,1.26-1.08,1.75s-1.03,0.87-1.69,1.13
			c-0.66,0.27-1.39,0.4-2.18,0.4c-1.38,0-2.54-0.35-3.48-1.04c-0.95-0.7-1.59-1.73-1.93-3.11l2.73-0.72
			c0.19,0.65,0.49,1.18,0.92,1.58c0.42,0.4,0.97,0.61,1.64,0.61c0.43,0,0.8-0.09,1.11-0.26c0.31-0.17,0.57-0.4,0.77-0.68
			c0.21-0.28,0.36-0.6,0.45-0.95c0.09-0.35,0.14-0.71,0.14-1.07c0-0.98-0.28-1.72-0.83-2.22s-1.26-0.75-2.14-0.75h-0.77v-2.4h0.85
			c0.77,0,1.39-0.25,1.84-0.74c0.46-0.49,0.68-1.18,0.68-2.06c0-0.29-0.04-0.59-0.12-0.89c-0.08-0.3-0.2-0.57-0.37-0.82
			c-0.17-0.24-0.4-0.44-0.67-0.6s-0.6-0.23-0.98-0.23c-0.5,0-0.92,0.16-1.26,0.49s-0.61,0.74-0.8,1.24l-2.68-0.75
			c0.21-0.64,0.49-1.18,0.85-1.64c0.36-0.46,0.76-0.83,1.21-1.12c0.45-0.29,0.92-0.5,1.42-0.64c0.5-0.14,1-0.2,1.5-0.2
			c0.67,0,1.3,0.11,1.88,0.32c0.58,0.21,1.1,0.53,1.55,0.94c0.45,0.41,0.8,0.92,1.06,1.51c0.26,0.59,0.39,1.27,0.39,2.02
			c0,1.03-0.23,1.93-0.7,2.71s-1.12,1.27-1.96,1.5v0.08c0.93,0.24,1.67,0.76,2.22,1.56C395.77,366.46,396.04,367.4,396.04,368.48z"
			/>
		<path class="st3" d="M407.47,369.67v3.97h-2.79v-3.97h-6.6v-2.71l5.52-11.58h3.87v11.71h2.01v2.58H407.47z M404.76,358.4h-0.05
			l-3.89,8.69h3.94V358.4z"/>
		<path class="st3" d="M396.04,399.42c0,0.81-0.13,1.55-0.39,2.23c-0.26,0.68-0.62,1.26-1.08,1.75s-1.03,0.87-1.69,1.13
			c-0.66,0.27-1.39,0.4-2.18,0.4c-1.38,0-2.54-0.35-3.48-1.04c-0.95-0.7-1.59-1.73-1.93-3.11l2.73-0.72
			c0.19,0.65,0.49,1.18,0.92,1.58c0.42,0.4,0.97,0.61,1.64,0.61c0.43,0,0.8-0.09,1.11-0.26c0.31-0.17,0.57-0.4,0.77-0.68
			c0.21-0.28,0.36-0.6,0.45-0.95c0.09-0.35,0.14-0.71,0.14-1.07c0-0.98-0.28-1.72-0.83-2.22s-1.26-0.75-2.14-0.75h-0.77v-2.4h0.85
			c0.77,0,1.39-0.25,1.84-0.74c0.46-0.49,0.68-1.18,0.68-2.06c0-0.29-0.04-0.59-0.12-0.89c-0.08-0.3-0.2-0.57-0.37-0.82
			c-0.17-0.24-0.4-0.44-0.67-0.6s-0.6-0.23-0.98-0.23c-0.5,0-0.92,0.16-1.26,0.49s-0.61,0.74-0.8,1.24l-2.68-0.75
			c0.21-0.64,0.49-1.18,0.85-1.64c0.36-0.46,0.76-0.83,1.21-1.12c0.45-0.29,0.92-0.5,1.42-0.64c0.5-0.14,1-0.2,1.5-0.2
			c0.67,0,1.3,0.11,1.88,0.32c0.58,0.21,1.1,0.53,1.55,0.94c0.45,0.41,0.8,0.92,1.06,1.51c0.26,0.59,0.39,1.27,0.39,2.02
			c0,1.03-0.23,1.93-0.7,2.71s-1.12,1.27-1.96,1.5v0.08c0.93,0.24,1.67,0.76,2.22,1.56C395.77,397.4,396.04,398.34,396.04,399.42z"
			/>
		<path class="st3" d="M409.27,398.65c0,0.98-0.14,1.86-0.41,2.64s-0.65,1.44-1.13,1.99c-0.48,0.54-1.06,0.95-1.72,1.24
			c-0.67,0.28-1.4,0.43-2.19,0.43c-0.81,0-1.54-0.14-2.21-0.43c-0.67-0.28-1.24-0.69-1.72-1.22c-0.48-0.53-0.85-1.19-1.12-1.96
			c-0.27-0.77-0.4-1.64-0.4-2.6c0-1,0.13-1.93,0.4-2.8s0.61-1.71,1.04-2.54l3.61-7.06h3.38l-3.72,6.96l0.03,0.03
			c0.19-0.17,0.43-0.3,0.73-0.39c0.3-0.09,0.59-0.13,0.86-0.13c0.6,0,1.18,0.12,1.74,0.35c0.56,0.23,1.05,0.58,1.47,1.06
			c0.42,0.47,0.75,1.08,1,1.82C409.15,396.76,409.27,397.64,409.27,398.65z M406.36,398.63c0-1.07-0.21-1.94-0.62-2.63
			c-0.41-0.69-1.03-1.03-1.86-1.03c-0.4,0-0.75,0.09-1.06,0.28c-0.31,0.19-0.58,0.45-0.8,0.79c-0.22,0.34-0.4,0.73-0.52,1.17
			c-0.12,0.45-0.18,0.94-0.18,1.47c0,1.12,0.22,2.02,0.67,2.69c0.45,0.68,1.07,1.02,1.86,1.02s1.41-0.35,1.84-1.04
			C406.14,400.65,406.36,399.74,406.36,398.63z"/>
	</g>
</g>
</svg>
