<?xml version="1.0" encoding="utf-8"?>
<!-- Generator: Adobe Illustrator 24.1.0, SVG Export Plug-In . SVG Version: 6.00 Build 0)  -->
<svg version="1.1" id="Layer_1" xmlns="http://www.w3.org/2000/svg" xmlns:xlink="http://www.w3.org/1999/xlink" x="0px" y="0px"
	 viewBox="0 0 792 612" style="enable-background:new 0 0 792 612;" xml:space="preserve">
<style type="text/css">
	.st0{fill-rule:evenodd;clip-rule:evenodd;stroke:#000000;stroke-width:0.5;stroke-miterlimit:10;}
	.st1{fill:none;stroke:#FFFFFF;stroke-width:0.5669;stroke-miterlimit:22.9256;}
	.st2{fill:#8D7049;}
	.st3{fill-rule:evenodd;clip-rule:evenodd;fill:#8D7049;}
</style>
<g>
	<polygon class="st0" points="289.7,426.47 289.7,271.37 289.7,185.53 502.3,185.53 502.3,271.37 502.3,426.47 	"/>
	<line class="st1" x1="289.7" y1="271.19" x2="502.3" y2="271.19"/>
	<g>
		<g>
			<path class="st2" d="M342.35,344.76c0,2.52-0.57,4.69-1.7,6.57c-1.13,1.87-2.49,2.9-4.09,3.03c-0.33,0.03-0.67,0.06-1,0.09
				c-1.59,0.14-2.95-0.66-4.08-2.44c-1.13-1.77-1.69-4.01-1.69-6.66c0-7.95,0-15.89,0-23.84c0-2.65,0.56-4.88,1.69-6.66
				c1.13-1.78,2.49-2.57,4.08-2.44c0.33,0.03,0.67,0.06,1,0.09c1.59,0.14,2.95,1.16,4.09,3.03c1.13,1.88,1.7,4.05,1.7,6.57
				C342.35,329.66,342.35,337.21,342.35,344.76z M338.49,343.27c0-6.62,0-13.23,0-19.85c0-1.6-0.1-2.78-0.31-3.53
				c-0.33-1.13-0.94-1.72-1.81-1.78c-1.82-0.12-2.74,1.58-2.74,5.11c0,6.75,0,13.5,0,20.24c0,3.53,0.83,5.23,2.5,5.12
				C337.71,348.49,338.49,346.72,338.49,343.27z"/>
			<path class="st2" d="M358.53,352.33c-1.47,0.08-2.95,0.16-4.42,0.24c-1.65-3.62-3.29-7.28-4.94-11.01c0,3.77,0,7.54,0,11.31
				c-1.34,0.09-2.67,0.18-4.01,0.27c0-13.06,0-26.12,0-39.17c1.34,0.09,2.67,0.18,4.01,0.27c0,3.73,0,7.46,0,11.19
				c1.63-3.69,3.27-7.32,4.9-10.9c1.46,0.08,2.92,0.16,4.38,0.24c-2.93,6.07-5.85,12.28-8.78,18.66
				C352.62,339.9,355.58,346.18,358.53,352.33z"/>
			<path class="st2" d="M388.99,351.41c-1.34,0.01-2.68,0.03-4.02,0.05c0-6.09,0-12.18,0-18.27c-1.16,6.09-2.32,12.19-3.48,18.33
				c-1.34,0.03-2.68,0.06-4.02,0.09c-1.06-6.24-2.11-12.51-3.17-18.81c0,6.3,0,12.6,0,18.9c-1.34,0.04-2.68,0.08-4.02,0.13
				c0-12.18,0-24.36,0-36.54c1.43,0.05,2.86,0.09,4.28,0.14c1.71,8.63,3.42,17.18,5.14,25.68c1.63-8.53,3.25-17.01,4.88-25.46
				c1.47,0.02,2.93,0.04,4.4,0.05C388.99,327.59,388.99,339.5,388.99,351.41z"/>
			<path class="st2" d="M405.33,351.45c-1.33-0.02-2.67-0.03-4-0.04c-0.31-2.72-0.63-5.43-0.94-8.15c-0.98,0-1.97-0.01-2.95-0.01
				c-0.32,2.71-0.65,5.42-0.97,8.13c-1.33,0-2.67,0-4,0.01c1.48-11.92,2.96-23.81,4.44-35.72c1.38,0.02,2.76,0.03,4.14,0.03
				C402.47,327.58,403.9,339.49,405.33,351.45z M399.77,337.53c-0.27-2.9-0.54-5.79-0.81-8.69c-0.27,2.9-0.54,5.79-0.81,8.69
				C398.69,337.53,399.23,337.53,399.77,337.53z"/>
			<path class="st2" d="M421.33,351.84c-1.29-0.05-2.57-0.09-3.86-0.13c0-2.97,0-5.93,0-8.9c0-2.16-0.51-3.57-1.53-4.21
				c-0.59-0.34-1.75-0.52-3.49-0.53c0,4.5,0,9,0,13.5c-1.34-0.03-2.68-0.06-4.02-0.08c0-12.02,0-24.04,0-36.06
				c2.28-0.06,4.56-0.13,6.84-0.21c1.6-0.04,2.96,0.73,4.09,2.35c1.13,1.62,1.7,3.6,1.7,5.93c0,2.11,0,4.21,0,6.32
				c0,1.13-0.24,2.33-0.71,3.61c-0.48,1.28-1.05,2.12-1.72,2.53c0.72,0.49,1.34,1.24,1.85,2.26c0.57,1.13,0.85,2.25,0.85,3.34
				C421.33,344.99,421.33,348.42,421.33,351.84z M417.19,328.35c0-1.16,0-2.32,0-3.48c0-1.84-0.19-3.09-0.58-3.75
				c-0.38-0.67-1.2-0.99-2.45-0.96c-0.57,0.01-1.15,0.02-1.72,0.03c0,4.28,0,8.56,0,12.84c0.8,0.02,1.61,0.04,2.41,0.05
				C416.41,333.07,417.19,331.5,417.19,328.35z"/>
			<path class="st2" d="M429.13,352.17c-1.34-0.06-2.68-0.12-4.02-0.18c0-12.31,0-24.63,0-36.94c1.34-0.04,2.68-0.08,4.02-0.12
				C429.13,327.35,429.13,339.76,429.13,352.17z"/>
			<path class="st2" d="M444.87,353.08c-1.36-0.09-2.73-0.18-4.09-0.27c-1.35-7.09-2.7-14.08-4.05-20.99c0,6.91,0,13.83,0,20.74
				c-1.23-0.07-2.47-0.14-3.71-0.2c-0.04-12.54-0.08-25.08-0.12-37.61c1.37-0.07,2.74-0.15,4.11-0.22
				c1.38,7.01,2.77,14.11,4.15,21.3c0-7.18,0-14.37,0-21.55c1.23-0.08,2.47-0.16,3.7-0.24
				C444.87,327.05,444.87,340.07,444.87,353.08z"/>
			<path class="st2" d="M461.14,345.36c0,2.65-0.57,4.88-1.69,6.66c-1.13,1.78-2.49,2.57-4.08,2.44c-0.33-0.03-0.67-0.06-1-0.09
				c-1.59-0.14-2.96-1.16-4.09-3.03c-1.13-1.87-1.7-4.05-1.7-6.57c0-7.55,0-15.1,0-22.65c0-2.52,0.56-4.69,1.7-6.57
				c1.13-1.87,2.49-2.9,4.09-3.03c0.33-0.03,0.67-0.06,1-0.09c1.59-0.14,2.95,0.66,4.08,2.44c1.13,1.78,1.69,4.01,1.69,6.66
				C461.14,329.46,461.14,337.41,461.14,345.36z M457.28,343.46c0-6.75,0-13.5,0-20.24c0-1.63-0.1-2.82-0.31-3.57
				c-0.33-1.11-0.94-1.64-1.81-1.58c-1.82,0.12-2.74,1.9-2.74,5.35c0,6.62,0,13.23,0,19.85c0,3.45,0.83,5.22,2.51,5.33
				C456.5,348.7,457.28,346.99,457.28,343.46z"/>
		</g>
		<g>
			<polygon class="st3" points="399.61,376.78 399.67,376.78 399.67,376.83 412.48,376.83 412.48,376.78 412.59,376.78 
				412.59,376.72 412.69,376.72 412.69,376.67 412.75,376.67 412.75,376.62 412.8,376.62 412.8,376.56 412.86,376.56 412.86,376.51 
				412.91,376.51 412.91,376.4 412.97,376.4 412.97,376.24 413.02,376.24 413.02,375.97 412.97,375.97 412.97,375.8 412.91,375.8 
				412.91,375.69 412.86,375.69 412.86,375.64 412.8,375.64 412.8,375.59 412.75,375.59 412.75,375.53 412.64,375.53 412.64,375.48 
				412.53,375.48 412.53,375.42 399.61,375.42 			"/>
			<polygon class="st3" points="383.76,375.48 383.65,375.48 383.65,375.53 383.54,375.53 383.54,375.59 383.49,375.59 
				383.49,375.64 383.43,375.64 383.43,375.69 383.38,375.69 383.38,375.8 383.32,375.8 383.32,375.97 383.27,375.97 383.27,376.24 
				383.32,376.24 383.32,376.4 383.38,376.4 383.38,376.51 383.43,376.51 383.43,376.56 383.49,376.56 383.49,376.62 383.54,376.62 
				383.54,376.67 383.6,376.67 383.6,376.72 383.7,376.72 383.7,376.78 383.81,376.78 383.81,376.83 397.06,376.83 397.06,375.42 
				383.76,375.42 			"/>
			<polygon class="st3" points="385.28,377.7 385.12,377.7 385.12,377.76 385.01,377.76 385.01,377.81 384.95,377.81 384.95,377.86 
				384.9,377.86 384.9,377.92 384.84,377.92 384.84,377.97 384.79,377.97 384.79,378.08 384.74,378.08 384.74,378.25 384.68,378.25 
				384.68,378.51 384.74,378.51 384.74,378.68 384.79,378.68 384.79,378.79 384.84,378.79 384.84,378.84 384.9,378.84 384.9,378.9 
				384.95,378.9 384.95,378.95 385.01,378.95 385.01,379.01 385.12,379.01 385.12,379.06 385.33,379.06 385.33,379.11 
				410.96,379.11 410.96,379.06 411.17,379.06 411.17,379.01 411.28,379.01 411.28,378.95 411.34,378.95 411.34,378.9 411.39,378.9 
				411.39,378.84 411.45,378.84 411.45,378.79 411.5,378.79 411.5,378.68 411.55,378.68 411.55,378.51 411.61,378.51 411.61,378.25 
				411.55,378.25 411.55,378.08 411.5,378.08 411.5,377.97 411.45,377.97 411.45,377.92 411.39,377.92 411.39,377.86 411.34,377.86 
				411.34,377.81 411.28,377.81 411.28,377.76 411.17,377.76 411.17,377.7 411.01,377.7 411.01,377.65 385.28,377.65 			"/>
			<polygon class="st3" points="382.62,373.14 382.46,373.14 382.46,373.2 382.4,373.2 382.4,373.25 382.29,373.25 382.29,373.31 
				382.24,373.31 382.24,373.41 382.18,373.41 382.18,373.47 382.13,373.47 382.13,373.63 382.08,373.63 382.08,373.96 
				382.13,373.96 382.13,374.12 382.18,374.12 382.18,374.23 382.24,374.23 382.24,374.28 382.29,374.28 382.29,374.34 
				382.35,374.34 382.35,374.39 382.46,374.39 382.46,374.44 382.56,374.44 382.56,374.5 413.73,374.5 413.73,374.44 413.83,374.44 
				413.83,374.39 413.94,374.39 413.94,374.34 414,374.34 414,374.28 414.05,374.28 414.05,374.23 414.11,374.23 414.11,374.12 
				414.16,374.12 414.16,373.96 414.22,373.96 414.22,373.63 414.16,373.63 414.16,373.47 414.11,373.47 414.11,373.41 
				414.05,373.41 414.05,373.31 414,373.31 414,373.25 413.89,373.25 413.89,373.2 413.83,373.2 413.83,373.14 413.67,373.14 
				413.67,373.09 382.62,373.09 			"/>
			<polygon class="st3" points="381.64,370.92 381.48,370.92 381.48,370.97 381.42,370.97 381.42,371.02 381.37,371.02 
				381.37,371.08 381.32,371.08 381.32,371.13 381.26,371.13 381.26,371.19 381.21,371.19 381.21,371.3 381.15,371.3 381.15,371.51 
				381.1,371.51 381.1,371.62 381.15,371.62 381.15,371.84 381.21,371.84 381.21,371.95 381.26,371.95 381.26,372 381.32,372 
				381.32,372.11 381.42,372.11 381.42,372.16 381.48,372.16 381.48,372.22 381.59,372.22 381.59,372.27 414.7,372.27 414.7,372.22 
				414.81,372.22 414.81,372.16 414.87,372.16 414.87,372.11 414.97,372.11 414.97,372 415.03,372 415.03,371.95 415.08,371.95 
				415.08,371.84 415.14,371.84 415.14,371.62 415.19,371.62 415.19,371.51 415.14,371.51 415.14,371.3 415.08,371.3 415.08,371.19 
				415.03,371.19 415.03,371.13 414.97,371.13 414.97,371.08 414.92,371.08 414.92,371.02 414.87,371.02 414.87,370.97 
				414.81,370.97 414.81,370.92 414.65,370.92 414.65,370.86 381.64,370.86 			"/>
			<path class="st3" d="M416.28,369.02v-0.16h-0.05v-0.11h-0.05v-0.05h-0.05v-0.06h-0.05v-0.05h-0.11v-0.05h-0.11v-0.05h-10.48
				v-7.17h-0.05v-0.05h-0.06v-0.05h-0.05v-0.05h-0.11v-0.05h-0.05v-0.05h-0.05v-0.05h-0.11v-0.05h-0.05v-0.06h-0.06v-0.05h-0.11
				v-0.05h-0.05v-0.05h-0.05v-0.05h-0.11v-0.05h-0.05v-0.05h-0.05v-0.05h-0.06v-0.05h-0.11v-0.05h-0.05v-0.05h-0.05v-0.05h-0.11
				v-0.05h-0.05v-0.05h-0.06v-0.05h-0.11v-0.05h-0.05V360h-0.05v-0.05h-0.11v-0.05h-0.05v-0.05h-0.06v-0.05h-0.11v-0.05h-0.05v-0.05
				h-0.05v-0.05h-0.11v-0.05h-0.05v-0.05h-0.05v-0.05h-0.11v-0.05h-0.05v-0.05h-0.05v-0.06h-0.11v-0.05h-0.06v-0.05h-0.05v-0.05
				h-0.11v-0.05h-0.05v-0.05h-0.05v-0.05h-0.05v-0.05h-0.11v-0.05h-0.05v-0.05h-0.05v-0.06h-0.11v-0.05h-0.05v-0.06h-0.05v-0.05
				h-0.11v-0.05h-0.05v-0.05h-0.05v-0.05h-0.11v-0.05h-0.05v-0.05h-6.41v0.05H395v0.05h-0.05v0.05h-0.05v0.05h-0.11v0.05h-0.05v0.05
				h-0.05v0.06h-0.11v0.05h-0.05v0.06h-0.05v0.05h-0.11v0.05h-0.06v0.05h-0.05v0.05h-0.05v0.05h-0.11v0.05h-0.05v0.05h-0.06v0.05
				h-0.11v0.05h-0.05v0.06h-0.06v0.05h-0.11v0.05h-0.05v0.05h-0.05v0.05h-0.05v0.05h-0.11v0.05h-0.05v0.05h-0.06v0.05h-0.11v0.05
				h-0.05v0.05h-0.05v0.05h-0.11V360h-0.05v0.05h-0.05v0.05h-0.05v0.05h-0.11v0.05h-0.05v0.05h-0.05v0.05h-0.11v0.05h-0.05v0.05
				h-0.05v0.05h-0.11v0.05h-0.05v0.05h-0.05v0.05h-0.06v0.05h-0.11v0.05h-0.05v0.05h-0.05v0.05h-0.11v0.06h-0.05v0.05h-0.05v0.05
				h-0.05v0.05h-0.11v0.05h-0.05v0.05h-0.05v0.05h-0.11v7.22h-10.8v0.05h-0.11v0.05h-0.11v0.05h-0.05v0.06h-0.05v0.05h-0.06v0.11
				h-0.05v0.11h-0.05v0.44h0.05v0.11h0.05v0.11h0.06v0.05h0.05v0.05h0.05v0.05h0.11v0.05h0.16v0.05h35.29v-0.05h0.16v-0.05h0.11
				v-0.05h0.05v-0.05h0.05v-0.05h0.05v-0.11h0.05v-0.16h0.05v-0.33H416.28z M399.5,368.47h-2.33v-6.3h2.33V368.47z"/>
			<polygon class="st3" points="386.47,380.09 386.36,380.09 386.36,380.14 386.31,380.14 386.31,380.2 386.2,380.2 386.2,380.31 
				386.15,380.31 386.15,380.36 386.09,380.36 386.09,380.47 386.04,380.47 386.04,381.01 386.09,381.01 386.09,381.12 
				386.15,381.12 386.15,381.18 386.2,381.18 386.2,381.23 386.26,381.23 386.26,381.28 386.31,381.28 386.31,381.34 386.42,381.34 
				386.42,381.39 386.58,381.39 386.58,381.45 387.61,381.45 387.61,381.5 387.56,381.5 387.56,381.94 387.5,381.94 387.5,382.37 
				387.45,382.37 387.45,382.8 387.4,382.8 387.4,383.29 387.34,383.29 387.34,383.73 387.29,383.73 387.29,384.16 387.23,384.16 
				387.23,384.6 387.18,384.6 387.18,385.03 387.12,385.03 387.12,385.52 387.07,385.52 387.07,385.95 387.02,385.95 387.02,386.39 
				386.96,386.39 386.96,386.82 386.91,386.82 386.91,387.26 386.85,387.26 386.85,387.69 386.8,387.69 386.8,388.18 386.74,388.18 
				386.74,388.61 386.69,388.61 386.69,389.05 386.64,389.05 386.64,389.48 386.58,389.48 386.58,389.92 386.53,389.92 
				386.53,390.35 386.47,390.35 386.47,390.84 386.42,390.84 386.42,391.06 391.79,391.06 391.79,391 391.85,391 391.85,390.73 
				391.9,390.73 391.9,390.41 391.96,390.41 391.96,390.13 392.01,390.13 392.01,389.86 392.06,389.86 392.06,389.59 392.12,389.59 
				392.12,389.32 392.17,389.32 392.17,389.05 392.23,389.05 392.23,388.72 392.28,388.72 392.28,388.45 392.34,388.45 
				392.34,388.18 392.39,388.18 392.39,387.91 392.44,387.91 392.44,387.64 392.5,387.64 392.5,387.31 392.55,387.31 392.55,387.04 
				392.61,387.04 392.61,386.77 392.66,386.77 392.66,386.5 392.72,386.5 392.72,386.23 392.77,386.23 392.77,385.9 392.83,385.9 
				392.83,385.63 392.88,385.63 392.88,385.36 392.93,385.36 392.93,385.08 392.99,385.08 392.99,384.82 393.04,384.82 
				393.04,384.49 393.1,384.49 393.1,384.21 393.15,384.21 393.15,383.95 393.2,383.95 393.2,383.67 393.26,383.67 393.26,383.4 
				393.31,383.4 393.31,383.13 393.37,383.13 393.37,382.8 393.42,382.8 393.42,382.53 393.48,382.53 393.48,382.26 393.53,382.26 
				393.53,381.99 393.58,381.99 393.58,381.72 393.64,381.72 393.64,381.45 395.21,381.45 395.21,381.56 395.27,381.56 
				395.27,381.88 395.32,381.88 395.32,382.15 395.38,382.15 395.38,382.43 395.43,382.43 395.43,382.75 395.48,382.75 
				395.48,383.02 395.54,383.02 395.54,383.29 395.59,383.29 395.59,383.56 395.65,383.56 395.65,383.89 395.7,383.89 395.7,384.16 
				395.76,384.16 395.76,384.43 395.81,384.43 395.81,384.71 395.87,384.71 395.87,385.03 395.92,385.03 395.92,385.3 395.97,385.3 
				395.97,385.58 396.03,385.58 396.03,385.9 396.08,385.9 396.08,386.17 396.14,386.17 396.14,386.44 396.19,386.44 396.19,386.71 
				396.25,386.71 396.25,387.04 396.3,387.04 396.3,387.31 396.35,387.31 396.35,387.58 396.41,387.58 396.41,387.91 396.46,387.91 
				396.46,388.18 396.52,388.18 396.52,388.45 396.57,388.45 396.57,388.72 396.63,388.72 396.63,389.05 396.68,389.05 
				396.68,389.32 396.73,389.32 396.73,389.59 396.79,389.59 396.79,389.86 396.84,389.86 396.84,390.19 396.9,390.19 396.9,390.46 
				396.95,390.46 396.95,390.73 397,390.73 397,391 397.06,391 397.06,391.06 399.28,391.06 399.28,390.89 399.34,390.89 
				399.34,390.57 399.39,390.57 399.39,390.3 399.45,390.3 399.45,390.03 399.5,390.03 399.5,389.7 399.56,389.7 399.56,389.43 
				399.61,389.43 399.61,389.16 399.67,389.16 399.67,388.83 399.72,388.83 399.72,388.56 399.77,388.56 399.77,388.29 
				399.83,388.29 399.83,387.96 399.88,387.96 399.88,387.69 399.94,387.69 399.94,387.42 399.99,387.42 399.99,387.09 
				400.04,387.09 400.04,386.82 400.1,386.82 400.1,386.55 400.15,386.55 400.15,386.23 400.21,386.23 400.21,385.95 400.26,385.95 
				400.26,385.63 400.32,385.63 400.32,385.36 400.37,385.36 400.37,385.08 400.43,385.08 400.43,384.76 400.48,384.76 
				400.48,384.49 400.53,384.49 400.53,384.21 400.59,384.21 400.59,383.89 400.64,383.89 400.64,383.62 400.7,383.62 400.7,383.35 
				400.75,383.35 400.75,383.02 400.81,383.02 400.81,382.75 400.86,382.75 400.86,382.48 400.91,382.48 400.91,382.15 
				400.97,382.15 400.97,381.88 401.02,381.88 401.02,381.61 401.08,381.61 401.08,381.45 402.6,381.45 402.6,381.67 402.65,381.67 
				402.65,381.94 402.71,381.94 402.71,382.26 402.76,382.26 402.76,382.53 402.81,382.53 402.81,382.86 402.87,382.86 
				402.87,383.13 402.92,383.13 402.92,383.4 402.98,383.4 402.98,383.73 403.03,383.73 403.03,384 403.08,384 403.08,384.32 
				403.14,384.32 403.14,384.6 403.19,384.6 403.19,384.92 403.25,384.92 403.25,385.19 403.3,385.19 403.3,385.52 403.36,385.52 
				403.36,385.79 403.41,385.79 403.41,386.12 403.47,386.12 403.47,386.39 403.52,386.39 403.52,386.71 403.57,386.71 
				403.57,386.99 403.63,386.99 403.63,387.31 403.68,387.31 403.68,387.58 403.74,387.58 403.74,387.86 403.79,387.86 
				403.79,388.18 403.84,388.18 403.84,388.45 403.9,388.45 403.9,388.78 403.95,388.78 403.95,389.05 404.01,389.05 404.01,389.37 
				404.06,389.37 404.06,389.65 404.12,389.65 404.12,389.97 404.17,389.97 404.17,390.24 404.23,390.24 404.23,390.57 
				404.28,390.57 404.28,390.84 404.33,390.84 404.33,391.06 409.76,391.06 409.76,390.73 409.71,390.73 409.71,390.24 
				409.65,390.24 409.65,389.81 409.6,389.81 409.6,389.32 409.55,389.32 409.55,388.89 409.49,388.89 409.49,388.4 409.44,388.4 
				409.44,387.91 409.38,387.91 409.38,387.47 409.33,387.47 409.33,386.99 409.27,386.99 409.27,386.55 409.22,386.55 
				409.22,386.06 409.17,386.06 409.17,385.58 409.11,385.58 409.11,385.14 409.06,385.14 409.06,384.65 409,384.65 409,384.16 
				408.95,384.16 408.95,383.73 408.89,383.73 408.89,383.24 408.84,383.24 408.84,382.8 408.79,382.8 408.79,382.32 408.73,382.32 
				408.73,381.83 408.68,381.83 408.68,381.45 409.55,381.45 409.55,381.39 409.71,381.39 409.71,381.34 409.82,381.34 
				409.82,381.28 409.87,381.28 409.87,381.23 409.93,381.23 409.93,381.18 409.98,381.18 409.98,381.07 410.03,381.07 
				410.03,380.96 410.09,380.96 410.09,380.47 410.03,380.47 410.03,380.36 409.98,380.36 409.98,380.31 409.93,380.31 
				409.93,380.25 409.87,380.25 409.87,380.2 409.82,380.2 409.82,380.14 409.76,380.14 409.76,380.09 409.65,380.09 409.65,380.04 
				386.47,380.04 			"/>
		</g>
		<g>
			<g>
				<path class="st2" d="M339.46,372.86c10.64,0.02,21.25,0.29,31.85,0.81c0,0.07,0,0.13,0,0.2c-0.92,0.07-1.84,0.17-2.76,0.21
					c-5.87,0.24-11.74,0.48-17.62,0.68c-3.74,0.13-7.48,0.21-11.22,0.29c-0.41,0.01-0.53,0.14-0.61,0.51
					c-0.49,2.15-1.51,4.02-3.03,5.63c-0.1,0.1-0.18,0.24-0.31,0.29c-0.11,0.04-0.28,0.01-0.37-0.06c-0.06-0.05-0.07-0.23-0.03-0.33
					c0.05-0.12,0.17-0.22,0.27-0.32c1.35-1.43,2.27-3.1,2.8-4.99c0.04-0.14,0.06-0.27,0.09-0.41c0.01-0.07,0.02-0.14,0.04-0.27
					c-0.99,0.02-1.95,0.04-2.91,0.06c-0.21,0-0.42,0.02-0.63,0.01c-0.72-0.01-1.2-0.46-1.22-1.13c-0.02-0.64,0.49-1.14,1.19-1.15
					c1.13-0.02,2.26-0.01,3.39-0.02c0.12,0,0.24-0.01,0.49-0.01c-0.08-0.79-0.11-1.56-0.25-2.31c-1.23-6.28-7.02-10.34-13.36-9.4
					c-6.38,0.94-10.89,7.31-9.67,13.63c0.84,4.35,3.53,7.25,7.25,9.34c1.91,1.08,4.05,1.56,6.14,2.14c1.78,0.49,3.52,1.09,4.96,2.31
					c1.69,1.44,2.85,3.17,2.89,5.49c0.05,3.13-2.24,5.95-5.22,6.46c-3.34,0.56-6.41-1.2-7.37-4.35c-0.26-0.86-0.24-1.8-0.3-2.71
					c-0.01-0.18,0.23-0.53,0.34-0.53c0.41,0.01,0.27,0.37,0.25,0.61c-0.33,3.64,2.5,6.68,6.11,6.48c2.35-0.13,4.1-1.31,5.06-3.46
					c0.99-2.22,0.61-4.31-0.87-6.21c-1.38-1.77-3.28-2.68-5.37-3.31c-1.88-0.56-3.79-1.04-5.6-1.77c-3.34-1.36-5.97-3.63-7.67-6.85
					c-2.98-5.66-1.09-12.65,4.3-16.08c6.25-3.97,14.58-1.57,17.75,5.11c0.75,1.57,1.13,3.23,1.18,4.96
					C339.43,372.54,339.44,372.68,339.46,372.86z M339.33,374.41c1.51-0.02,2.97-0.02,4.43-0.07c0.13,0,0.36-0.29,0.36-0.44
					c-0.01-0.14-0.24-0.36-0.4-0.4c-0.28-0.07-0.6-0.02-0.9-0.01c-1.12,0.02-2.25,0.04-3.4,0.05
					C339.39,373.83,339.37,374.07,339.33,374.41z M338.81,373.54c-1.31,0.02-2.56,0.02-3.81,0.07c-0.15,0.01-0.3,0.27-0.44,0.42
					c0.15,0.15,0.3,0.42,0.45,0.42c1.23,0.02,2.45-0.02,3.7-0.03C338.74,374.12,338.77,373.87,338.81,373.54z"/>
			</g>
			<g>
				<path class="st2" d="M452.57,372.41c0.05-1.74,0.44-3.39,1.18-4.96c3.17-6.68,11.51-9.08,17.75-5.11
					c5.39,3.42,7.28,10.42,4.3,16.08c-1.7,3.22-4.32,5.49-7.67,6.85c-1.81,0.73-3.73,1.21-5.6,1.77c-2.09,0.63-3.99,1.53-5.37,3.31
					c-1.49,1.91-1.86,3.99-0.87,6.21c0.96,2.16,2.7,3.33,5.06,3.46c3.61,0.2,6.44-2.84,6.11-6.48c-0.02-0.24-0.15-0.6,0.25-0.61
					c0.11,0,0.35,0.35,0.34,0.53c-0.06,0.91-0.04,1.85-0.3,2.71c-0.96,3.15-4.03,4.92-7.37,4.35c-2.98-0.5-5.27-3.33-5.22-6.46
					c0.04-2.32,1.2-4.05,2.89-5.49c1.44-1.22,3.18-1.82,4.96-2.31c2.1-0.58,4.23-1.07,6.14-2.14c3.72-2.09,6.42-4.99,7.25-9.34
					c1.22-6.31-3.29-12.68-9.67-13.63c-6.34-0.94-12.13,3.12-13.36,9.4c-0.15,0.75-0.17,1.52-0.25,2.31
					c0.24,0.01,0.37,0.01,0.49,0.01c1.13,0,2.26,0,3.39,0.02c0.7,0.01,1.21,0.51,1.19,1.15c-0.02,0.67-0.5,1.11-1.22,1.13
					c-0.21,0-0.42-0.01-0.63-0.01c-0.96-0.02-1.92-0.04-2.91-0.06c0.02,0.14,0.02,0.21,0.04,0.27c0.03,0.14,0.06,0.28,0.09,0.41
					c0.52,1.89,1.45,3.56,2.8,4.99c0.1,0.1,0.22,0.2,0.27,0.32c0.04,0.09,0.03,0.28-0.03,0.33c-0.09,0.07-0.27,0.1-0.37,0.06
					c-0.12-0.05-0.21-0.18-0.31-0.29c-1.52-1.6-2.53-3.48-3.03-5.63c-0.09-0.37-0.21-0.5-0.61-0.51c-3.74-0.08-7.48-0.16-11.22-0.29
					c-5.87-0.21-11.75-0.45-17.62-0.68c-0.92-0.04-1.84-0.14-2.76-0.21c0-0.07,0-0.13,0-0.2c10.6-0.53,21.21-0.79,31.85-0.81
					C452.56,372.68,452.57,372.54,452.57,372.41z M452.58,373.54c-1.15-0.02-2.27-0.04-3.4-0.05c-0.3,0-0.61-0.05-0.9,0.01
					c-0.17,0.04-0.4,0.26-0.4,0.4c-0.01,0.15,0.22,0.44,0.36,0.44c1.46,0.05,2.92,0.06,4.43,0.07
					C452.63,374.07,452.61,373.83,452.58,373.54z M453.29,374.42c1.25,0.02,2.48,0.05,3.7,0.03c0.15,0,0.3-0.27,0.45-0.42
					c-0.15-0.15-0.29-0.41-0.44-0.42c-1.25-0.05-2.5-0.05-3.81-0.07C453.23,373.87,453.26,374.12,453.29,374.42z"/>
			</g>
		</g>
		<path class="st2" d="M383.26,305.05c-10.3-0.51-35.6-0.77-45.94-0.8l-1.76,0.01c-0.09,0-0.16,0-0.23,0c-1.13,0-2.26,0-3.39,0.02
			c-0.7,0.01-1.21,0.51-1.19,1.15c0.02,0.67,0.5,1.11,1.22,1.13c0.21,0,0.42-0.01,0.63-0.01c0.46-0.01,0.93-0.02,1.4-0.03l0,0
			l2.59-0.06c0.03,0,0.04-0.01,0.07-0.01c3.74-0.08,7.48-0.16,11.22-0.29c5.87-0.21,26.75-0.45,32.62-0.68
			c0.92-0.04,1.84-0.14,2.76-0.21C383.27,305.18,383.27,305.11,383.26,305.05z M340.72,305.72c-0.94,0.03-1.88,0.05-2.83,0.06v0
			l-0.11,0c-0.5,0.01-0.99,0.01-1.49,0.02c0,0,0-0.01,0-0.01l-0.62,0c0,0,0,0.01,0,0.01c-1.25,0.02-2.48,0.05-3.7,0.03
			c-0.15,0-0.3-0.27-0.45-0.42c0.15-0.15,0.29-0.41,0.44-0.42c1.06-0.04,2.13-0.05,3.23-0.06l0-0.01l2.7-0.03v0
			c0.63-0.01,1.26-0.02,1.89-0.03c0.3,0,0.61-0.05,0.9,0.01c0.17,0.04,0.4,0.26,0.4,0.4C341.09,305.42,340.86,305.71,340.72,305.72z
			"/>
		<path class="st2" d="M408.63,305.25c0.92,0.07,1.84,0.17,2.76,0.21c5.87,0.24,26.75,0.48,32.62,0.68
			c3.74,0.13,7.48,0.21,11.22,0.29c0.03,0,0.05,0.01,0.07,0.01l2.59,0.06l0,0c0.46,0.01,0.93,0.02,1.4,0.03
			c0.21,0,0.42,0.02,0.63,0.01c0.72-0.01,1.2-0.46,1.22-1.13c0.02-0.64-0.49-1.14-1.19-1.15c-1.13-0.02-2.26-0.01-3.39-0.02
			c-0.07,0-0.14,0-0.23,0l-1.76-0.01c-10.33,0.03-35.64,0.29-45.94,0.8C408.63,305.11,408.63,305.18,408.63,305.25z M450.82,305.27
			c0.01-0.14,0.24-0.36,0.4-0.4c0.28-0.07,0.6-0.02,0.9-0.01c0.62,0.01,1.26,0.02,1.89,0.03v0l2.7,0.03l0,0.01
			c1.1,0.01,2.17,0.02,3.23,0.06c0.15,0.01,0.3,0.27,0.44,0.42c-0.15,0.15-0.3,0.42-0.45,0.42c-1.23,0.02-2.45-0.02-3.7-0.03
			c0,0,0-0.01,0-0.01l-0.62,0c0,0,0,0.01,0,0.01c-0.5-0.01-1-0.01-1.49-0.02l-0.11,0v0c-0.95-0.01-1.89-0.02-2.83-0.06
			C451.04,305.71,450.81,305.42,450.82,305.27z"/>
		<g>
			<g>
				<path class="st2" d="M364.33,411.33c0,0.01-0.04,0.02-0.11,0.02c-0.07,0.01-0.15,0.02-0.25,0.03c-0.09,0.01-0.18,0.02-0.25,0.02
					s-0.12,0-0.13-0.01c-0.09-0.18-0.17-0.38-0.24-0.6c-0.07-0.22-0.1-0.5-0.1-0.86c0-0.36,0.05-0.73,0.16-1.1
					c0.1-0.38,0.24-0.75,0.42-1.13s0.38-0.76,0.61-1.13c0.23-0.37,0.48-0.74,0.74-1.1c-0.27,0.03-0.54,0.06-0.8,0.08
					c-0.26,0.02-0.52,0.05-0.78,0.07c-0.16-0.11-0.32-0.22-0.48-0.31c-0.16-0.1-0.3-0.18-0.42-0.24c0.48-0.04,0.97-0.09,1.48-0.14
					c0.51-0.05,1.03-0.11,1.55-0.17c0.27-0.34,0.54-0.66,0.82-0.97c0.27-0.31,0.54-0.6,0.79-0.87c0.48-0.5,0.95-0.98,1.42-1.42
					c0.46-0.44,0.93-0.87,1.4-1.29c0.47-0.42,0.94-0.83,1.43-1.23s0.99-0.82,1.51-1.25c-0.65,0.04-1.35,0.1-2.09,0.17
					s-1.61,0.18-2.57,0.31c-0.69,0.09-1.38,0.19-2.07,0.32c-0.69,0.12-1.36,0.27-1.99,0.44c-0.64,0.17-1.23,0.36-1.78,0.58
					c-0.55,0.22-1.03,0.47-1.44,0.75c-0.41,0.28-0.73,0.59-0.98,0.93s-0.37,0.72-0.38,1.13c0,0.14,0.03,0.28,0.08,0.44
					c0.05,0.16,0.14,0.33,0.25,0.5c0.12,0.17,0.27,0.34,0.45,0.52c0.18,0.17,0.4,0.33,0.66,0.49l-0.97-0.02
					c-0.31-0.21-0.57-0.46-0.76-0.76c-0.2-0.3-0.31-0.65-0.33-1.04c-0.02-0.49,0.08-0.93,0.31-1.34c0.23-0.4,0.56-0.77,0.98-1.1
					c0.42-0.33,0.93-0.62,1.52-0.88c0.59-0.26,1.23-0.48,1.92-0.68c0.69-0.2,1.42-0.37,2.18-0.52c0.76-0.14,1.52-0.27,2.29-0.37
					c1.04-0.14,1.97-0.24,2.78-0.32c0.81-0.08,1.55-0.13,2.23-0.16s1.3-0.05,1.88-0.05s1.16,0,1.74,0.01
					c0.58,0.01,1.18,0.02,1.81,0.02c0.63,0.01,1.33,0,2.09-0.01l-0.67,0.61c-0.65,0-1.25,0-1.79-0.01s-1.07-0.02-1.57-0.02
					c-0.5-0.01-0.98-0.01-1.45-0.01s-0.95,0.02-1.45,0.04c-1.08,0.9-2.14,1.82-3.18,2.74s-2.04,1.9-3.01,2.92
					c-0.14,0.15-0.31,0.34-0.52,0.56c-0.21,0.22-0.44,0.48-0.68,0.76c1.24-0.14,2.48-0.27,3.72-0.41c1.24-0.14,2.42-0.27,3.54-0.38
					l1.01,0.56c-0.67,0.06-1.37,0.14-2.1,0.22c-0.73,0.08-1.47,0.16-2.23,0.24c-0.76,0.08-1.52,0.16-2.28,0.25
					c-0.76,0.08-1.51,0.16-2.24,0.23c-0.26,0.33-0.51,0.67-0.75,1.04c-0.24,0.36-0.46,0.74-0.66,1.13c-0.2,0.39-0.36,0.78-0.48,1.19
					c-0.12,0.4-0.19,0.8-0.21,1.19c-0.01,0.28,0.03,0.55,0.12,0.8S364.22,411.19,364.33,411.33z"/>
				<path class="st2" d="M378.47,403.87c0.2,0.06,0.32,0.15,0.37,0.29c0.05,0.14,0.05,0.3-0.01,0.49c-0.05,0.19-0.14,0.39-0.27,0.61
					c-0.13,0.22-0.27,0.43-0.42,0.63c-0.24,0.33-0.47,0.58-0.68,0.77c-0.01,0.09-0.01,0.17-0.01,0.23c0,0.07,0.02,0.12,0.05,0.16
					c0.03,0.04,0.07,0.05,0.13,0.05c0.06,0,0.14-0.03,0.23-0.08c0.23-0.14,0.46-0.28,0.67-0.44c0.22-0.16,0.38-0.27,0.49-0.35
					l0.06,0.53c-0.15,0.1-0.34,0.24-0.56,0.4s-0.48,0.32-0.76,0.46c-0.23,0.12-0.42,0.14-0.57,0.05c-0.15-0.09-0.27-0.24-0.38-0.47
					c-0.2,0.16-0.42,0.33-0.67,0.5s-0.49,0.32-0.73,0.44c-0.24,0.12-0.46,0.18-0.67,0.2c-0.21,0.02-0.37-0.05-0.48-0.21
					c-0.1-0.14-0.14-0.33-0.11-0.56c0.03-0.23,0.12-0.48,0.25-0.76c0.14-0.27,0.31-0.55,0.53-0.84s0.46-0.56,0.73-0.82
					c0.22-0.22,0.46-0.41,0.71-0.59c0.25-0.18,0.5-0.33,0.75-0.45s0.49-0.2,0.71-0.25C378.08,403.82,378.28,403.82,378.47,403.87z
					 M377.47,405.37c0.06,0.11,0.08,0.25,0.08,0.42c0.13-0.16,0.24-0.31,0.33-0.44c0.09-0.14,0.17-0.25,0.22-0.35
					c0.1-0.19,0.16-0.34,0.16-0.44c0-0.1-0.03-0.17-0.1-0.2c-0.07-0.03-0.16-0.03-0.28-0.01c-0.12,0.03-0.25,0.08-0.4,0.15
					c-0.48,0.23-0.91,0.53-1.28,0.9c-0.38,0.37-0.74,0.8-1.09,1.31c-0.17,0.25-0.29,0.48-0.37,0.69c-0.08,0.21-0.06,0.34,0.05,0.38
					c0.09,0.02,0.2,0.01,0.34-0.03c0.14-0.04,0.29-0.12,0.45-0.22c0.16-0.1,0.34-0.22,0.52-0.36c0.18-0.14,0.37-0.29,0.55-0.46
					c-0.06-0.26-0.06-0.5-0.02-0.73c0.04-0.23,0.11-0.42,0.2-0.56c0.09-0.14,0.2-0.23,0.31-0.25
					C377.27,405.13,377.38,405.2,377.47,405.37z"/>
				<path class="st2" d="M378.84,406.37c0.38-0.29,0.71-0.56,1.01-0.81s0.57-0.53,0.83-0.82c-0.02-0.11,0.01-0.24,0.07-0.38
					c0.06-0.14,0.14-0.28,0.24-0.4s0.19-0.23,0.29-0.31s0.18-0.12,0.23-0.11c0.06,0.02,0.09,0.05,0.11,0.11
					c0.02,0.06,0.02,0.12,0.01,0.2c-0.01,0.08-0.03,0.16-0.07,0.26c-0.03,0.1-0.07,0.18-0.11,0.26c-0.06,0.1-0.11,0.18-0.17,0.25
					c-0.06,0.07-0.1,0.11-0.14,0.13c-0.02,0.09,0,0.18,0.05,0.27c0.05,0.09,0.13,0.13,0.24,0.11c0.14,0,0.25-0.01,0.35-0.04
					c0.1-0.03,0.2-0.07,0.29-0.14c0.06-0.03,0.11-0.07,0.17-0.13c0.06-0.05,0.11-0.1,0.16-0.13c0.05-0.04,0.09-0.05,0.13-0.05
					c0.04,0,0.06,0.04,0.07,0.12c0.01,0.06,0.01,0.12,0.02,0.17s0,0.12-0.02,0.2c-0.14,0.18-0.3,0.37-0.48,0.55
					c-0.18,0.18-0.36,0.36-0.54,0.55c-0.18,0.19-0.36,0.38-0.53,0.57c-0.17,0.19-0.32,0.39-0.45,0.59
					c-0.06,0.09-0.11,0.17-0.13,0.25c-0.02,0.08-0.03,0.13-0.01,0.17c0.02,0.04,0.07,0.05,0.14,0.05c0.07,0,0.17-0.04,0.3-0.1
					c0.17-0.09,0.36-0.21,0.58-0.36c0.22-0.15,0.43-0.31,0.64-0.46s0.39-0.3,0.56-0.43c0.16-0.13,0.28-0.22,0.34-0.26l0.05,0.53
					c-0.06,0.05-0.17,0.14-0.33,0.27s-0.35,0.28-0.56,0.43s-0.43,0.31-0.67,0.46c-0.23,0.15-0.44,0.27-0.64,0.36
					c-0.15,0.06-0.29,0.1-0.43,0.1s-0.24-0.02-0.34-0.08c-0.09-0.06-0.16-0.15-0.2-0.27s-0.04-0.28,0-0.46
					c0.06-0.2,0.16-0.4,0.29-0.6c0.13-0.2,0.28-0.39,0.44-0.56s0.32-0.34,0.49-0.49c0.16-0.15,0.31-0.28,0.45-0.4
					c-0.21,0.13-0.38,0.17-0.53,0.14c-0.14-0.04-0.24-0.13-0.28-0.29c-0.16,0.14-0.31,0.28-0.44,0.4s-0.28,0.25-0.43,0.37
					s-0.3,0.24-0.47,0.37s-0.35,0.27-0.55,0.42L378.84,406.37z"/>
				<path class="st2" d="M387.08,404.08c0.31,0,0.61,0.05,0.9,0.14l0.88-1.31l0.7-0.06l-1.07,1.61c0.26,0.16,0.46,0.36,0.62,0.6
					c0.16,0.24,0.24,0.52,0.25,0.85c0.01,0.22-0.03,0.43-0.12,0.64s-0.21,0.41-0.37,0.61c0.23-0.14,0.46-0.3,0.7-0.46
					c0.23-0.16,0.45-0.34,0.66-0.52l0.31,0.35c-0.46,0.36-0.86,0.65-1.2,0.86c-0.34,0.22-0.64,0.39-0.92,0.53
					c-0.28,0.14-0.54,0.25-0.78,0.35c-0.24,0.1-0.51,0.22-0.79,0.35c-0.02-0.07-0.04-0.16-0.08-0.25s-0.08-0.19-0.12-0.29
					c0.18-0.06,0.38-0.16,0.6-0.29c0.22-0.13,0.42-0.28,0.61-0.45c0.19-0.17,0.36-0.36,0.5-0.56c0.15-0.2,0.25-0.41,0.3-0.62
					c0.05-0.21,0.04-0.42-0.03-0.63s-0.22-0.4-0.46-0.59c-0.92,1.39-1.85,2.8-2.78,4.22c-0.93,1.42-1.84,2.8-2.72,4.12h-0.71
					l5.69-8.58c-0.22-0.06-0.44-0.1-0.65-0.11c-0.21-0.01-0.36,0-0.45,0.01L387.08,404.08z"/>
				<path class="st2" d="M390.42,406.79c-0.09,0.19-0.14,0.37-0.16,0.53c-0.02,0.16,0.01,0.29,0.09,0.39
					c0.06,0.07,0.17,0.1,0.34,0.09c0.17-0.01,0.33-0.04,0.49-0.09c0.19-0.07,0.39-0.16,0.6-0.27c0.21-0.11,0.42-0.23,0.62-0.36
					s0.42-0.27,0.62-0.41c0.21-0.14,0.4-0.28,0.59-0.42l0.11,0.48c-0.2,0.14-0.45,0.32-0.74,0.54s-0.61,0.42-0.94,0.61
					c-0.33,0.19-0.66,0.33-0.99,0.43c-0.33,0.1-0.63,0.1-0.89,0.01c-0.26-0.09-0.4-0.28-0.44-0.56s0-0.62,0.11-0.98
					c0.07-0.22,0.19-0.49,0.37-0.8c0.17-0.31,0.38-0.61,0.61-0.91s0.5-0.55,0.79-0.77s0.59-0.37,0.91-0.43
					c0.19-0.03,0.35-0.01,0.47,0.05s0.21,0.16,0.26,0.28s0.06,0.25,0.04,0.4c-0.02,0.15-0.08,0.28-0.18,0.4
					c-0.12,0.14-0.29,0.3-0.5,0.47s-0.44,0.33-0.69,0.5s-0.5,0.32-0.76,0.46C390.87,406.57,390.64,406.69,390.42,406.79z
					 M391.08,405.64c-0.04,0.06-0.08,0.12-0.12,0.18s-0.08,0.12-0.12,0.18c0.18-0.09,0.38-0.19,0.58-0.31s0.41-0.25,0.62-0.41
					c0.19-0.15,0.35-0.3,0.48-0.44c0.13-0.14,0.2-0.28,0.2-0.42c0.01-0.06-0.03-0.1-0.11-0.1s-0.2,0.04-0.35,0.13
					c-0.1,0.06-0.2,0.13-0.31,0.23c-0.23,0.22-0.41,0.39-0.53,0.53S391.18,405.49,391.08,405.64z"/>
				<path class="st2" d="M393.42,406.37c0.38-0.29,0.71-0.56,1.01-0.81s0.57-0.53,0.83-0.82c-0.02-0.11,0.01-0.24,0.07-0.38
					c0.06-0.14,0.14-0.28,0.24-0.4c0.1-0.12,0.19-0.23,0.29-0.31c0.1-0.08,0.18-0.12,0.23-0.11c0.06,0.02,0.09,0.05,0.11,0.11
					c0.02,0.06,0.02,0.12,0.01,0.2c-0.01,0.08-0.03,0.16-0.07,0.26c-0.03,0.1-0.07,0.18-0.11,0.26c-0.06,0.1-0.11,0.18-0.17,0.25
					s-0.1,0.11-0.14,0.13c-0.02,0.09,0,0.18,0.05,0.27c0.05,0.09,0.13,0.13,0.24,0.11c0.14,0,0.25-0.01,0.35-0.04
					c0.1-0.03,0.2-0.07,0.29-0.14c0.06-0.03,0.11-0.07,0.17-0.13s0.11-0.1,0.16-0.13c0.05-0.04,0.09-0.05,0.13-0.05
					s0.06,0.04,0.07,0.12c0.01,0.06,0.01,0.12,0.02,0.17s0,0.12-0.02,0.2c-0.14,0.18-0.3,0.37-0.48,0.55
					c-0.18,0.18-0.36,0.36-0.54,0.55c-0.18,0.19-0.36,0.38-0.53,0.57c-0.17,0.19-0.32,0.39-0.45,0.59
					c-0.06,0.09-0.11,0.17-0.13,0.25c-0.02,0.08-0.03,0.13-0.01,0.17s0.07,0.05,0.14,0.05c0.07,0,0.17-0.04,0.3-0.1
					c0.17-0.09,0.36-0.21,0.58-0.36c0.22-0.15,0.43-0.31,0.64-0.46s0.39-0.3,0.56-0.43s0.28-0.22,0.34-0.26l0.05,0.53
					c-0.06,0.05-0.17,0.14-0.33,0.27s-0.35,0.28-0.56,0.43s-0.43,0.31-0.67,0.46c-0.23,0.15-0.44,0.27-0.64,0.36
					c-0.15,0.06-0.29,0.1-0.43,0.1c-0.13,0-0.24-0.02-0.34-0.08c-0.09-0.06-0.16-0.15-0.2-0.27s-0.04-0.28,0-0.46
					c0.06-0.2,0.16-0.4,0.29-0.6c0.13-0.2,0.28-0.39,0.44-0.56s0.32-0.34,0.49-0.49c0.16-0.15,0.31-0.28,0.45-0.4
					c-0.21,0.13-0.38,0.17-0.53,0.14s-0.24-0.13-0.28-0.29c-0.16,0.14-0.31,0.28-0.44,0.4c-0.14,0.12-0.28,0.25-0.43,0.37
					c-0.15,0.12-0.3,0.24-0.47,0.37s-0.35,0.27-0.55,0.42L393.42,406.37z"/>
				<path class="st2" d="M396.78,407.75c0.2-0.43,0.42-0.86,0.67-1.27c0.24-0.42,0.49-0.82,0.74-1.22c0.25-0.4,0.5-0.79,0.74-1.17
					c0.24-0.38,0.47-0.76,0.68-1.13c0.36-0.64,0.74-1.26,1.14-1.87c0.4-0.61,0.84-1.2,1.32-1.79c0.03-0.04,0.07-0.09,0.13-0.15
					c0.05-0.06,0.1-0.11,0.14-0.14c0.15-0.14,0.3-0.22,0.45-0.26c0.15-0.04,0.22-0.01,0.22,0.08c-0.02,0.06-0.07,0.17-0.17,0.34
					c-0.1,0.17-0.2,0.35-0.31,0.55c-0.11,0.19-0.22,0.37-0.32,0.53c-0.1,0.16-0.17,0.26-0.19,0.29c-0.38,0.57-0.77,1.14-1.16,1.71
					c-0.39,0.57-0.78,1.15-1.16,1.73c-0.38,0.58-0.76,1.17-1.12,1.78c-0.36,0.6-0.71,1.23-1.05,1.87c0.22-0.07,0.43-0.16,0.64-0.27
					c0.21-0.11,0.41-0.23,0.61-0.35s0.39-0.26,0.58-0.4s0.38-0.26,0.55-0.38l0.05,0.53c-0.16,0.11-0.34,0.24-0.54,0.4
					c-0.2,0.15-0.41,0.3-0.64,0.44c-0.23,0.14-0.46,0.27-0.71,0.37c-0.24,0.1-0.49,0.16-0.73,0.18c0.2,0.2,0.3,0.44,0.31,0.71
					c0,0.27-0.04,0.55-0.14,0.84c-0.1,0.29-0.23,0.58-0.39,0.86s-0.3,0.55-0.43,0.79c-0.13,0.22-0.29,0.48-0.49,0.78
					c-0.2,0.3-0.42,0.58-0.66,0.84c-0.24,0.26-0.49,0.46-0.75,0.61s-0.51,0.18-0.76,0.09c-0.19-0.07-0.26-0.23-0.21-0.48
					s0.2-0.59,0.43-1.03c0.24-0.44,0.55-0.98,0.94-1.62c0.39-0.64,0.83-1.38,1.31-2.23c-0.07-0.03-0.12-0.08-0.14-0.15
					c-0.02-0.07-0.03-0.13-0.01-0.2c0.02-0.06,0.05-0.12,0.1-0.16s0.1-0.06,0.17-0.05c0.04,0.01,0.07,0.01,0.1,0.01
					C396.71,407.75,396.74,407.75,396.78,407.75z M396.19,411.16c0.15-0.26,0.29-0.52,0.43-0.79c0.13-0.27,0.24-0.53,0.31-0.76
					c0.08-0.24,0.12-0.45,0.13-0.63c0.01-0.18-0.03-0.32-0.12-0.4c-0.38,0.7-0.79,1.4-1.21,2.08c-0.42,0.68-0.82,1.38-1.18,2.1
					c-0.07,0.14-0.11,0.23-0.11,0.29c0,0.06,0.02,0.09,0.06,0.1c0.04,0,0.1-0.02,0.17-0.07s0.15-0.11,0.22-0.18
					c0.1-0.11,0.28-0.32,0.53-0.63C395.68,411.96,395.94,411.59,396.19,411.16z"/>
				<path class="st2" d="M400.12,406.79c-0.09,0.19-0.14,0.37-0.16,0.53c-0.02,0.16,0.01,0.29,0.09,0.39
					c0.06,0.07,0.17,0.1,0.34,0.09c0.17-0.01,0.33-0.04,0.49-0.09c0.19-0.07,0.39-0.16,0.6-0.27c0.21-0.11,0.42-0.23,0.62-0.36
					s0.42-0.27,0.62-0.41c0.21-0.14,0.4-0.28,0.59-0.42l0.11,0.48c-0.2,0.14-0.45,0.32-0.74,0.54s-0.61,0.42-0.94,0.61
					c-0.33,0.19-0.66,0.33-0.99,0.43c-0.33,0.1-0.63,0.1-0.89,0.01c-0.26-0.09-0.4-0.28-0.44-0.56s0-0.62,0.11-0.98
					c0.07-0.22,0.19-0.49,0.37-0.8c0.17-0.31,0.38-0.61,0.61-0.91c0.24-0.29,0.5-0.55,0.79-0.77s0.59-0.37,0.91-0.43
					c0.19-0.03,0.35-0.01,0.47,0.05c0.12,0.07,0.21,0.16,0.26,0.28s0.06,0.25,0.04,0.4c-0.02,0.15-0.08,0.28-0.18,0.4
					c-0.12,0.14-0.29,0.3-0.5,0.47s-0.44,0.33-0.69,0.5s-0.5,0.32-0.76,0.46C400.57,406.57,400.33,406.69,400.12,406.79z
					 M400.78,405.64c-0.04,0.06-0.08,0.12-0.12,0.18s-0.08,0.12-0.12,0.18c0.18-0.09,0.38-0.19,0.58-0.31
					c0.2-0.12,0.41-0.25,0.62-0.41c0.19-0.15,0.35-0.3,0.48-0.44c0.13-0.14,0.2-0.28,0.2-0.42c0.01-0.06-0.03-0.1-0.11-0.1
					s-0.2,0.04-0.35,0.13c-0.1,0.06-0.2,0.13-0.31,0.23c-0.23,0.22-0.41,0.39-0.53,0.53S400.88,405.49,400.78,405.64z"/>
				<path class="st2" d="M405.85,405.08c-0.09,0.04-0.16,0.06-0.22,0.05c-0.06,0-0.13-0.01-0.23-0.01c0.03-0.05,0.08-0.12,0.14-0.2
					c0.06-0.09,0.11-0.17,0.15-0.23c0.04-0.07,0.04-0.11,0.02-0.14c-0.02-0.02-0.1,0.01-0.25,0.1c-0.14,0.06-0.32,0.19-0.55,0.4
					c-0.23,0.21-0.45,0.45-0.68,0.73c-0.22,0.28-0.42,0.58-0.58,0.89c-0.16,0.32-0.25,0.61-0.26,0.89c-0.02,0.26,0.33,0.26,1.04,0
					c0.43-0.18,0.86-0.4,1.28-0.65c0.42-0.25,0.82-0.51,1.21-0.78c0.04,0.06,0.08,0.13,0.12,0.19s0.08,0.13,0.13,0.19
					c-0.4,0.29-0.8,0.55-1.2,0.8c-0.4,0.24-0.84,0.47-1.31,0.69c-0.46,0.22-0.83,0.33-1.11,0.35c-0.28,0.02-0.48-0.04-0.61-0.17
					s-0.19-0.31-0.19-0.54c0-0.23,0.06-0.49,0.16-0.78c0.06-0.19,0.17-0.42,0.33-0.69c0.16-0.27,0.35-0.53,0.57-0.79
					c0.21-0.24,0.43-0.47,0.68-0.68s0.48-0.39,0.72-0.54c0.24-0.15,0.46-0.25,0.66-0.31c0.2-0.06,0.37-0.05,0.51,0.02
					c0.08,0.05,0.11,0.14,0.09,0.26c-0.02,0.13-0.07,0.26-0.14,0.4s-0.16,0.26-0.26,0.37C406.01,405.01,405.92,405.07,405.85,405.08
					z"/>
				<path class="st2" d="M407.77,407.96c-0.22,0.14-0.45,0.25-0.67,0.34c-0.22,0.09-0.42,0.09-0.61,0.01
					c-0.14-0.06-0.21-0.16-0.23-0.32c-0.02-0.16,0-0.35,0.06-0.56s0.14-0.44,0.25-0.68c0.11-0.24,0.22-0.47,0.34-0.68
					c0.12-0.22,0.22-0.41,0.32-0.57c0.1-0.16,0.17-0.28,0.2-0.34c0.22-0.38,0.45-0.74,0.67-1.1c0.22-0.36,0.44-0.71,0.67-1.07
					c0.4-0.62,0.79-1.23,1.17-1.85s0.81-1.22,1.29-1.81c0.03-0.04,0.07-0.09,0.13-0.15c0.05-0.06,0.1-0.11,0.14-0.14
					c0.15-0.14,0.3-0.22,0.45-0.26c0.15-0.04,0.22-0.01,0.22,0.08c-0.02,0.06-0.08,0.17-0.19,0.35c-0.11,0.18-0.23,0.36-0.37,0.56
					s-0.26,0.38-0.37,0.55s-0.19,0.27-0.21,0.31c-0.45,0.63-0.86,1.24-1.24,1.81s-0.76,1.17-1.16,1.78
					c-0.29,0.45-0.56,0.89-0.82,1.33c-0.26,0.44-0.5,0.91-0.72,1.4c-0.18,0.46-0.24,0.73-0.18,0.82s0.25,0.03,0.56-0.17
					c0.12-0.06,0.27-0.16,0.46-0.28c0.18-0.12,0.37-0.25,0.56-0.38s0.37-0.27,0.55-0.39s0.31-0.22,0.4-0.29l0.05,0.53
					c-0.08,0.06-0.19,0.14-0.32,0.23c-0.13,0.09-0.28,0.19-0.43,0.3c-0.16,0.11-0.32,0.22-0.49,0.34
					C408.08,407.74,407.92,407.85,407.77,407.96z M409.15,400.9h3.14l-0.28,0.52h-3.16L409.15,400.9z"/>
				<path class="st2" d="M415.43,403.82c-0.09,0.06-0.22,0.21-0.39,0.43c-0.17,0.22-0.37,0.49-0.58,0.8
					c-0.22,0.31-0.44,0.64-0.67,0.99c-0.23,0.35-0.45,0.68-0.66,1c-0.21,0.31-0.39,0.58-0.56,0.82c-0.16,0.23-0.28,0.38-0.34,0.44
					c0.58-0.36,1.15-0.71,1.7-1.06c0.55-0.35,1.02-0.67,1.42-0.98l0.1,0.48c-0.19,0.14-0.45,0.32-0.77,0.53s-0.66,0.43-1.03,0.67
					c-0.36,0.23-0.72,0.46-1.08,0.7c-0.36,0.23-0.67,0.44-0.93,0.62c-0.19,0.33-0.38,0.65-0.58,0.97c-0.19,0.32-0.4,0.63-0.61,0.94
					s-0.45,0.6-0.71,0.88s-0.55,0.54-0.87,0.78c-0.15,0.11-0.3,0.2-0.43,0.27c-0.14,0.07-0.26,0.1-0.37,0.1
					c-0.11,0-0.19-0.05-0.26-0.15c-0.06-0.1-0.1-0.25-0.1-0.47c0-0.18,0.05-0.38,0.16-0.58s0.21-0.38,0.29-0.53
					c0.12-0.19,0.28-0.39,0.49-0.61s0.45-0.43,0.72-0.64c0.27-0.22,0.57-0.43,0.89-0.65c0.32-0.22,0.66-0.44,1.01-0.67l0.6-0.92
					c0.06-0.09,0.15-0.24,0.29-0.46c0.14-0.22,0.3-0.47,0.49-0.75c0.19-0.28,0.39-0.58,0.59-0.9c0.21-0.32,0.41-0.61,0.6-0.89
					c0.19-0.28,0.37-0.52,0.52-0.73c0.16-0.2,0.27-0.34,0.34-0.41H415.43z M409.84,411.09c0.14-0.19,0.27-0.38,0.4-0.58
					c0.13-0.19,0.26-0.38,0.38-0.58c-0.35,0.24-0.68,0.49-0.99,0.76c-0.31,0.26-0.61,0.58-0.92,0.94c-0.07,0.09-0.15,0.21-0.23,0.36
					c-0.08,0.15-0.14,0.28-0.17,0.4c-0.02,0.11,0.01,0.16,0.07,0.14c0.06-0.02,0.15-0.07,0.26-0.16c0.11-0.09,0.23-0.2,0.36-0.34
					c0.13-0.14,0.26-0.28,0.38-0.41s0.23-0.25,0.31-0.35C409.77,411.17,409.82,411.11,409.84,411.09z M415.45,402.14
					c0-0.18,0.07-0.34,0.2-0.48c0.13-0.14,0.29-0.2,0.47-0.2c0.18,0,0.34,0.07,0.48,0.2c0.14,0.14,0.2,0.3,0.2,0.48
					c0,0.18-0.07,0.34-0.2,0.47c-0.14,0.13-0.3,0.2-0.48,0.2c-0.18,0-0.34-0.07-0.47-0.2C415.52,402.48,415.45,402.32,415.45,402.14
					z"/>
				<path class="st2" d="M415.57,406.79c-0.09,0.19-0.14,0.37-0.16,0.53c-0.02,0.16,0.01,0.29,0.09,0.39
					c0.06,0.07,0.17,0.1,0.34,0.09c0.17-0.01,0.33-0.04,0.49-0.09c0.19-0.07,0.39-0.16,0.6-0.27c0.21-0.11,0.42-0.23,0.62-0.36
					s0.42-0.27,0.62-0.41c0.21-0.14,0.4-0.28,0.59-0.42l0.11,0.48c-0.2,0.14-0.45,0.32-0.74,0.54s-0.61,0.42-0.94,0.61
					c-0.33,0.19-0.66,0.33-0.99,0.43c-0.33,0.1-0.63,0.1-0.89,0.01c-0.26-0.09-0.4-0.28-0.44-0.56s0-0.62,0.11-0.98
					c0.07-0.22,0.19-0.49,0.37-0.8c0.17-0.31,0.38-0.61,0.61-0.91s0.5-0.55,0.79-0.77s0.59-0.37,0.91-0.43
					c0.19-0.03,0.35-0.01,0.47,0.05s0.21,0.16,0.26,0.28s0.06,0.25,0.04,0.4c-0.02,0.15-0.08,0.28-0.18,0.4
					c-0.12,0.14-0.29,0.3-0.5,0.47s-0.44,0.33-0.69,0.5s-0.5,0.32-0.76,0.46C416.03,406.57,415.79,406.69,415.57,406.79z
					 M416.23,405.64c-0.04,0.06-0.08,0.12-0.12,0.18s-0.08,0.12-0.12,0.18c0.18-0.09,0.38-0.19,0.58-0.31s0.41-0.25,0.62-0.41
					c0.19-0.15,0.35-0.3,0.48-0.44c0.13-0.14,0.2-0.28,0.2-0.42c0.01-0.06-0.03-0.1-0.11-0.1s-0.2,0.04-0.35,0.13
					c-0.1,0.06-0.2,0.13-0.31,0.23c-0.23,0.22-0.41,0.39-0.53,0.53S416.34,405.49,416.23,405.64z"/>
				<path class="st2" d="M422.77,403.99c0.06,0.04,0.11,0.1,0.13,0.18c0.02,0.08,0.02,0.17,0,0.26c-0.02,0.1-0.06,0.2-0.13,0.3
					c-0.06,0.1-0.14,0.2-0.24,0.3c-0.09,0.02-0.18,0.03-0.28,0.03c-0.1,0-0.2,0.01-0.29,0.01c0.12-0.13,0.2-0.25,0.24-0.36
					c0.04-0.11,0.04-0.2,0-0.26c-0.04-0.06-0.12-0.1-0.23-0.1s-0.27,0.05-0.46,0.14c-0.13,0.06-0.25,0.13-0.36,0.19
					c-0.11,0.06-0.22,0.14-0.34,0.22c-0.17,0.12-0.33,0.24-0.47,0.37c-0.15,0.13-0.3,0.26-0.46,0.41c-0.06,0.06-0.16,0.17-0.31,0.35
					c-0.15,0.18-0.29,0.37-0.43,0.58c-0.14,0.21-0.25,0.41-0.33,0.6s-0.08,0.33,0,0.42c0.05,0.06,0.12,0.07,0.23,0.04
					c0.1-0.03,0.22-0.09,0.35-0.17s0.27-0.19,0.42-0.31c0.15-0.12,0.3-0.24,0.44-0.37c0.14-0.13,0.29-0.26,0.43-0.41
					c0.14-0.14,0.28-0.28,0.41-0.42c0.13-0.14,0.25-0.26,0.35-0.38c0.11-0.12,0.2-0.22,0.27-0.31l0.62,0.04
					c-0.11,0.11-0.23,0.24-0.34,0.37c-0.12,0.14-0.24,0.28-0.38,0.42c-0.11,0.14-0.23,0.32-0.36,0.53s-0.23,0.4-0.31,0.57
					s-0.11,0.29-0.1,0.37s0.11,0.06,0.28-0.05c0.1-0.07,0.24-0.17,0.42-0.29s0.36-0.24,0.55-0.37c0.19-0.13,0.38-0.25,0.55-0.37
					c0.18-0.12,0.31-0.21,0.41-0.28l0.06,0.53c-0.12,0.09-0.28,0.21-0.49,0.35c-0.21,0.15-0.43,0.3-0.65,0.44
					c-0.23,0.15-0.45,0.29-0.67,0.42c-0.22,0.13-0.4,0.22-0.55,0.27c-0.17,0.06-0.29,0.08-0.38,0.05c-0.08-0.03-0.14-0.09-0.16-0.19
					s-0.02-0.2,0.01-0.34c0.03-0.13,0.07-0.27,0.11-0.4c-0.09,0.07-0.17,0.14-0.25,0.21c-0.08,0.07-0.15,0.13-0.23,0.19
					c-0.06,0.05-0.17,0.12-0.31,0.2c-0.14,0.09-0.29,0.16-0.45,0.23c-0.16,0.06-0.31,0.1-0.46,0.1c-0.15,0-0.27-0.05-0.35-0.16
					c-0.1-0.14-0.14-0.33-0.11-0.56c0.03-0.23,0.12-0.48,0.25-0.76c0.14-0.27,0.31-0.55,0.53-0.84s0.46-0.56,0.73-0.82
					c0.26-0.24,0.53-0.46,0.81-0.65c0.28-0.2,0.56-0.35,0.83-0.47c0.27-0.12,0.53-0.18,0.78-0.2
					C422.37,403.83,422.59,403.87,422.77,403.99z"/>
				<path class="st2" d="M426.07,408.02c-0.03-0.22,0.01-0.46,0.13-0.74s0.27-0.56,0.45-0.84c0.18-0.28,0.37-0.54,0.56-0.79
					s0.35-0.46,0.47-0.62c0.08-0.11,0.12-0.19,0.12-0.23s-0.04-0.04-0.11,0.02c-0.28,0.22-0.59,0.49-0.93,0.81s-0.69,0.65-1.04,0.99
					c-0.36,0.34-0.71,0.68-1.07,1.01c-0.36,0.33-0.69,0.62-1.01,0.86c-0.08,0.04-0.16,0.04-0.24-0.01s-0.12-0.12-0.12-0.22
					c0.1-0.22,0.21-0.45,0.34-0.69c0.13-0.24,0.27-0.49,0.41-0.74c0.14-0.25,0.28-0.5,0.41-0.74s0.25-0.47,0.37-0.68
					c-0.09,0.08-0.17,0.15-0.23,0.22c-0.07,0.07-0.16,0.15-0.28,0.26c-0.12,0.1-0.28,0.24-0.49,0.4s-0.5,0.38-0.88,0.65l-0.12-0.52
					c0.7-0.5,1.25-0.96,1.66-1.39c0.41-0.43,0.74-0.79,0.98-1.07c0.09-0.11,0.18-0.19,0.28-0.25s0.18-0.08,0.26-0.07
					c0.08,0,0.13,0.03,0.17,0.08c0.04,0.05,0.04,0.12,0.01,0.21c-0.02,0.07-0.06,0.15-0.1,0.23s-0.08,0.16-0.12,0.24
					c-0.14,0.24-0.26,0.46-0.36,0.66c-0.1,0.2-0.2,0.39-0.3,0.58c-0.1,0.18-0.19,0.38-0.29,0.58c-0.1,0.2-0.21,0.42-0.34,0.66
					c0.18-0.18,0.4-0.39,0.67-0.65c0.27-0.26,0.55-0.52,0.83-0.78c0.29-0.26,0.57-0.51,0.83-0.74c0.27-0.23,0.49-0.4,0.68-0.51
					c0.14-0.08,0.27-0.13,0.4-0.16s0.24-0.02,0.33,0.01s0.15,0.11,0.17,0.23c0.03,0.12,0.01,0.27-0.07,0.47
					c-0.12,0.23-0.27,0.48-0.46,0.74c-0.19,0.26-0.37,0.51-0.55,0.76c-0.18,0.25-0.34,0.49-0.48,0.71
					c-0.14,0.23-0.23,0.43-0.26,0.61c0,0.09,0.06,0.11,0.18,0.06c0.02,0,0.13-0.06,0.31-0.17c0.18-0.12,0.39-0.25,0.63-0.41
					c0.24-0.16,0.47-0.32,0.7-0.47c0.23-0.15,0.39-0.26,0.49-0.34l0.06,0.53c-0.12,0.09-0.28,0.21-0.49,0.36s-0.42,0.31-0.65,0.46
					s-0.44,0.3-0.66,0.44c-0.22,0.14-0.4,0.23-0.54,0.28c-0.11,0.02-0.24,0.02-0.4-0.02C426.22,408.24,426.12,408.15,426.07,408.02z
					"/>
				<path class="st2" d="M428.61,406.53c0.19-0.15,0.35-0.28,0.49-0.38c0.13-0.1,0.25-0.2,0.36-0.3c0.11-0.1,0.21-0.2,0.32-0.3
					c0.1-0.1,0.23-0.23,0.38-0.37c0.15-0.16,0.3-0.35,0.46-0.56c0.15-0.21,0.32-0.41,0.52-0.61c0.07-0.07,0.15-0.15,0.24-0.23
					c0.09-0.08,0.18-0.15,0.26-0.21c0.09-0.06,0.17-0.1,0.26-0.13c0.08-0.02,0.15-0.01,0.21,0.04c0.06,0.04,0.08,0.15,0.05,0.33
					c-0.03,0.18-0.17,0.4-0.42,0.67c-0.22,0.25-0.4,0.43-0.52,0.55s-0.22,0.21-0.28,0.28c-0.06,0.06-0.1,0.11-0.11,0.15
					c-0.01,0.04-0.02,0.09-0.02,0.17c0.01,0.06,0.04,0.13,0.09,0.21c0.05,0.08,0.1,0.15,0.15,0.21c0.11,0.18,0.23,0.35,0.34,0.5
					c0.12,0.15,0.17,0.32,0.17,0.52c0.25-0.18,0.49-0.35,0.74-0.52c0.24-0.17,0.43-0.3,0.56-0.39l0.06,0.53
					c-0.09,0.06-0.2,0.14-0.34,0.23c-0.14,0.09-0.28,0.19-0.44,0.31c-0.16,0.11-0.33,0.23-0.5,0.34s-0.34,0.22-0.5,0.32
					c-0.12,0.1-0.26,0.19-0.41,0.27s-0.32,0.13-0.48,0.16c-0.16,0.03-0.33,0.03-0.5,0c-0.17-0.03-0.32-0.09-0.47-0.19
					c-0.02-0.02-0.06-0.05-0.11-0.1s-0.09-0.11-0.12-0.17c-0.03-0.07-0.05-0.14-0.05-0.21c0-0.07,0.02-0.14,0.08-0.22
					c0.05-0.06,0.15-0.08,0.3-0.08c0.15,0,0.29,0.08,0.42,0.23c0.1,0.14,0.25,0.2,0.44,0.18c0.19-0.02,0.36-0.08,0.49-0.19
					c0.09-0.08,0.14-0.17,0.16-0.26c0.02-0.1,0.03-0.2,0.03-0.31c0-0.08-0.02-0.17-0.07-0.26c-0.04-0.1-0.1-0.19-0.16-0.28
					c-0.06-0.09-0.12-0.18-0.17-0.25s-0.1-0.14-0.13-0.19c-0.02-0.02-0.03-0.04-0.04-0.07s-0.03-0.05-0.04-0.07
					c-0.02-0.02-0.04-0.03-0.07-0.02s-0.07,0.03-0.12,0.07c-0.22,0.18-0.42,0.35-0.6,0.51c-0.18,0.16-0.41,0.34-0.67,0.52
					L428.61,406.53z"/>
			</g>
		</g>
		<g>
			<path class="st2" d="M364.72,292.67c-0.36,0.06-0.53,0.21-0.49,0.43c-0.06,0.01-0.12,0.02-0.19,0.03c-0.11-0.6-0.21-1.2-0.32-1.8
				c0.06-0.01,0.13-0.02,0.19-0.03c0.05,0.3,0.26,0.42,0.63,0.36c1.13-0.19,2.25-0.38,3.38-0.55c0.01,0.06,0.02,0.12,0.03,0.18
				c-0.12,0.02-0.19,0.05-0.22,0.1c-0.03,0.05-0.03,0.16,0,0.34c0.07,0.44,0.14,0.89,0.21,1.33c0.03,0.17,0.07,0.28,0.11,0.33
				c0.05,0.04,0.13,0.07,0.23,0.07c0.01,0.06,0.02,0.12,0.03,0.18c-0.66,0.7-1.35,1.22-2.09,1.57c-0.74,0.35-1.43,0.59-2.07,0.7
				c-0.68,0.12-1.32,0.15-1.92,0.07c-0.61-0.07-1.16-0.24-1.65-0.51c-0.49-0.26-0.9-0.61-1.24-1.05c-0.34-0.44-0.57-0.94-0.69-1.53
				c-0.12-0.6-0.12-1.17,0.01-1.72c0.13-0.55,0.37-1.06,0.71-1.52c0.34-0.46,0.78-0.86,1.32-1.18c0.54-0.32,1.15-0.55,1.83-0.67
				c0.68-0.12,1.27-0.17,1.75-0.14c0.48,0.03,0.89,0.08,1.21,0.17c0.32,0.08,0.57,0.16,0.76,0.25c0.18,0.08,0.32,0.11,0.42,0.1
				c0.08-0.01,0.14-0.04,0.18-0.08c0.03-0.04,0.06-0.09,0.08-0.15c0.07,0.03,0.14,0.06,0.21,0.09c-0.29,0.58-0.58,1.17-0.87,1.75
				c-0.07-0.03-0.14-0.06-0.21-0.09c0.04-0.05,0.05-0.11,0.03-0.19c-0.01-0.09-0.11-0.19-0.29-0.3c-0.18-0.11-0.42-0.2-0.73-0.29
				c-0.3-0.08-0.66-0.14-1.05-0.16c-0.4-0.03-0.82,0-1.27,0.08c-0.6,0.11-1.1,0.29-1.5,0.54c-0.4,0.25-0.72,0.54-0.94,0.87
				c-0.23,0.33-0.37,0.69-0.43,1.08c-0.06,0.39-0.05,0.78,0.03,1.19c0.1,0.49,0.28,0.91,0.53,1.25c0.26,0.34,0.56,0.61,0.9,0.81
				c0.34,0.2,0.72,0.33,1.12,0.4c0.41,0.06,0.81,0.06,1.23-0.01c0.68-0.12,1.27-0.31,1.78-0.58c0.51-0.26,0.92-0.55,1.23-0.87
				c-0.06-0.38-0.12-0.77-0.19-1.15C365.91,292.47,365.32,292.57,364.72,292.67z"/>
			<path class="st2" d="M371.94,293.72c-0.03,0.1-0.06,0.21-0.1,0.32c-0.04,0.12-0.05,0.21-0.04,0.27c0.02,0.11,0.11,0.16,0.29,0.13
				c0.01,0.06,0.02,0.12,0.02,0.18c-0.63,0.08-1.27,0.17-1.9,0.26c-0.01-0.06-0.02-0.12-0.03-0.18c0.06-0.01,0.11-0.02,0.16-0.04
				c0.04-0.02,0.08-0.05,0.12-0.11c0.03-0.06,0.07-0.14,0.11-0.24c0.04-0.1,0.09-0.24,0.15-0.42c0.64-2.19,1.32-4.38,2.03-6.57
				c0.06-0.18,0.11-0.32,0.14-0.41c0.03-0.09,0.04-0.16,0.04-0.21c-0.02-0.12-0.12-0.17-0.31-0.15c-0.01-0.06-0.02-0.12-0.02-0.18
				c0.79-0.1,1.57-0.19,2.36-0.28c0.01,0.06,0.01,0.12,0.02,0.18c-0.17,0.02-0.25,0.09-0.24,0.21c0.01,0.06,0.04,0.14,0.11,0.23
				c0.06,0.09,0.15,0.22,0.25,0.38c1.26,1.92,2.48,3.86,3.67,5.8c0.11,0.18,0.2,0.31,0.26,0.41c0.06,0.1,0.12,0.17,0.17,0.22
				c0.05,0.05,0.1,0.07,0.16,0.08c0.05,0.01,0.13,0,0.22,0c0.01,0.06,0.01,0.12,0.02,0.18c-0.72,0.07-1.43,0.14-2.15,0.21
				c-0.01-0.06-0.01-0.12-0.02-0.18c0.12-0.01,0.2-0.04,0.24-0.08c0.04-0.04,0.05-0.1,0.05-0.17c-0.01-0.05-0.02-0.1-0.06-0.16
				c-0.03-0.05-0.1-0.17-0.2-0.34c-0.24-0.39-0.48-0.78-0.72-1.17c-1.48,0.16-2.95,0.33-4.43,0.52
				C372.18,292.86,372.06,293.29,371.94,293.72z M376.09,290.94c-0.72-1.14-1.46-2.28-2.21-3.42c-0.41,1.27-0.81,2.55-1.2,3.82
				C373.81,291.2,374.95,291.07,376.09,290.94z"/>
			<path class="st2" d="M381.99,291.14c-0.03,0.07-0.04,0.14-0.03,0.2c0.01,0.14,0.11,0.29,0.31,0.43c0.19,0.14,0.44,0.26,0.75,0.37
				c0.31,0.11,0.65,0.19,1.03,0.25c0.38,0.06,0.76,0.07,1.15,0.05c0.99-0.06,1.69-0.24,2.12-0.55c0.43-0.31,0.64-0.69,0.62-1.14
				c-0.01-0.22-0.07-0.39-0.19-0.53c-0.12-0.14-0.28-0.24-0.47-0.31c-0.2-0.07-0.43-0.11-0.69-0.13c-0.26-0.02-0.54-0.02-0.83,0
				c-0.49,0.03-1,0.06-1.54,0.08c-0.54,0.03-1.05,0-1.51-0.1c-0.46-0.1-0.85-0.28-1.17-0.55c-0.32-0.27-0.5-0.7-0.55-1.29
				c-0.03-0.37,0.05-0.71,0.24-1.03c0.19-0.32,0.46-0.6,0.82-0.85c0.36-0.24,0.78-0.44,1.28-0.6c0.5-0.16,1.05-0.25,1.64-0.29
				c0.47-0.03,0.87-0.02,1.21,0.03c0.34,0.04,0.64,0.1,0.89,0.16c0.25,0.06,0.46,0.12,0.62,0.17c0.16,0.05,0.3,0.08,0.41,0.08
				c0.12-0.01,0.2-0.03,0.26-0.07c0.05-0.04,0.1-0.09,0.16-0.15c0.07,0.02,0.13,0.05,0.2,0.07c-0.27,0.6-0.55,1.21-0.81,1.81
				c-0.06-0.03-0.12-0.07-0.18-0.1c0.01-0.03,0.01-0.1,0.01-0.2c0-0.07-0.07-0.16-0.2-0.25c-0.13-0.1-0.32-0.19-0.56-0.28
				c-0.24-0.09-0.53-0.15-0.86-0.2c-0.33-0.05-0.69-0.06-1.08-0.04c-0.87,0.05-1.55,0.23-2.04,0.53c-0.49,0.3-0.72,0.67-0.69,1.1
				c0.01,0.19,0.08,0.35,0.2,0.46c0.12,0.11,0.28,0.19,0.48,0.24c0.2,0.05,0.43,0.08,0.69,0.08c0.26,0,0.54,0,0.84-0.02
				c0.5-0.03,1.02-0.05,1.56-0.07c0.54-0.01,1.05,0.04,1.51,0.17c0.46,0.12,0.85,0.34,1.16,0.65c0.31,0.31,0.47,0.77,0.5,1.39
				c0.01,0.33-0.06,0.65-0.22,0.96c-0.16,0.31-0.41,0.59-0.74,0.84c-0.33,0.25-0.75,0.46-1.24,0.61c-0.5,0.16-1.07,0.26-1.74,0.3
				c-0.56,0.03-1.04,0.02-1.46-0.04c-0.41-0.06-0.77-0.14-1.07-0.23c-0.3-0.1-0.54-0.19-0.74-0.27c-0.19-0.08-0.35-0.12-0.46-0.11
				c-0.1,0.01-0.21,0.08-0.31,0.21c-0.05-0.03-0.11-0.05-0.16-0.08c0.23-0.61,0.47-1.23,0.7-1.84
				C381.85,291.08,381.92,291.11,381.99,291.14z"/>
			<path class="st2" d="M399.02,292.89c0.14,0,0.24-0.03,0.3-0.09c0.05-0.07,0.08-0.16,0.08-0.27c0.04-1.94,0.07-3.87,0.11-5.81
				c-0.08,0-0.16,0-0.26,0.01c-0.1,0.01-0.19,0.03-0.27,0.06c-0.08,0.03-0.15,0.07-0.2,0.14c-0.05,0.06-0.08,0.14-0.08,0.23
				c-0.06,0-0.13,0-0.19,0c0.01-0.53,0.01-1.05,0.02-1.58c0.06,0,0.13,0,0.19,0c0,0.2,0.07,0.29,0.21,0.3
				c0.13,0,0.29-0.04,0.47-0.12c0.18-0.08,0.28-0.19,0.28-0.32c0-0.2-0.12-0.3-0.37-0.3c0-0.06,0-0.12,0-0.19
				c0.64,0.01,1.28,0.03,1.92,0.04c0,0.06,0,0.12-0.01,0.19c-0.13,0-0.22,0.02-0.26,0.08c-0.04,0.06-0.07,0.16-0.07,0.3
				c-0.06,2.33-0.12,4.66-0.19,7c0,0.11,0.02,0.2,0.07,0.27c0.05,0.07,0.15,0.1,0.29,0.11c0,0.06,0,0.12-0.01,0.19
				c-0.68-0.02-1.37-0.04-2.05-0.05C399.02,293.01,399.02,292.95,399.02,292.89z"/>
			<path class="st2" d="M406.76,291.29c-0.01,0.05-0.02,0.09-0.03,0.12c-0.01,0.03-0.01,0.07-0.01,0.11
				c-0.01,0.1,0.05,0.22,0.17,0.34c0.12,0.13,0.28,0.24,0.48,0.35c0.2,0.11,0.44,0.21,0.73,0.29c0.28,0.08,0.58,0.13,0.89,0.16
				c0.89,0.06,1.59-0.08,2.1-0.44c0.51-0.36,0.81-1.02,0.89-1.99c0-0.04,0.01-0.09,0-0.14c0-0.05,0-0.1,0.01-0.15
				c-0.01,0-0.02,0-0.03,0c-0.34,0.36-0.75,0.59-1.23,0.7c-0.48,0.1-0.99,0.13-1.54,0.09c-0.41-0.03-0.81-0.11-1.2-0.25
				c-0.39-0.13-0.73-0.32-1.03-0.55c-0.29-0.23-0.53-0.52-0.7-0.85c-0.17-0.33-0.25-0.72-0.22-1.15c0.05-0.93,0.41-1.61,1.08-2.04
				c0.67-0.43,1.56-0.62,2.66-0.53c0.65,0.05,1.21,0.2,1.68,0.45c0.47,0.25,0.86,0.58,1.16,0.98c0.3,0.4,0.51,0.87,0.63,1.41
				c0.12,0.53,0.15,1.1,0.1,1.71c-0.06,0.66-0.21,1.23-0.44,1.71c-0.23,0.49-0.53,0.88-0.91,1.2c-0.37,0.31-0.8,0.53-1.29,0.66
				c-0.49,0.12-1.03,0.17-1.62,0.12c-0.4-0.03-0.74-0.08-1.03-0.14c-0.28-0.07-0.57-0.15-0.86-0.25c-0.17-0.05-0.34-0.12-0.51-0.22
				c-0.17-0.09-0.34-0.14-0.53-0.15c-0.05,0-0.11,0.01-0.17,0.03c-0.06,0.02-0.12,0.06-0.16,0.11c-0.07-0.03-0.13-0.06-0.2-0.09
				c0.32-0.56,0.63-1.11,0.96-1.66C406.64,291.23,406.7,291.26,406.76,291.29z M411.98,288.31c0.03-0.37-0.02-0.68-0.14-0.93
				c-0.13-0.25-0.31-0.47-0.54-0.63s-0.49-0.3-0.79-0.38c-0.3-0.09-0.59-0.14-0.9-0.16c-0.65-0.05-1.19,0.08-1.64,0.37
				c-0.45,0.29-0.68,0.72-0.72,1.27c-0.02,0.32,0.03,0.6,0.15,0.84c0.12,0.24,0.28,0.44,0.49,0.59c0.21,0.15,0.45,0.27,0.73,0.36
				c0.28,0.09,0.57,0.14,0.88,0.16c0.3,0.02,0.59,0,0.87-0.06c0.29-0.06,0.54-0.16,0.77-0.29c0.23-0.13,0.42-0.29,0.57-0.48
				C411.87,288.77,411.96,288.55,411.98,288.31z"/>
			<path class="st2" d="M415.91,285.62c-0.01,0.13,0,0.23,0.05,0.29c0.05,0.06,0.15,0.1,0.31,0.12c2.17,0.24,4.34,0.51,6.5,0.82
				c0.16,0.02,0.27,0.01,0.33-0.04c0.06-0.05,0.1-0.14,0.12-0.27c0.06,0.01,0.13,0.02,0.19,0.03c-0.06,0.42-0.12,0.84-0.19,1.25
				c-1.58,2-3.11,4.02-4.61,6.06c-0.03,0.05-0.06,0.09-0.09,0.12c-0.03,0.03-0.05,0.08-0.06,0.14c-0.01,0.09,0.08,0.15,0.26,0.17
				c-0.01,0.06-0.02,0.12-0.02,0.18c-0.72-0.09-1.43-0.18-2.15-0.26c0.01-0.06,0.01-0.12,0.02-0.18c0.2,0.02,0.34,0,0.43-0.08
				c0.09-0.08,0.2-0.21,0.34-0.4c1.38-1.94,2.8-3.86,4.26-5.76c-1.82-0.25-3.65-0.48-5.47-0.68c-0.16-0.02-0.27,0-0.33,0.06
				c-0.06,0.06-0.1,0.15-0.11,0.28c-0.06-0.01-0.13-0.01-0.19-0.02c0.07-0.62,0.13-1.24,0.2-1.86
				C415.78,285.6,415.84,285.61,415.91,285.62z"/>
			<path class="st2" d="M433.2,292.81c-0.12,0.57-0.33,1.09-0.62,1.54c-0.29,0.45-0.65,0.83-1.08,1.12
				c-0.43,0.29-0.92,0.49-1.46,0.59c-0.55,0.1-1.15,0.09-1.8-0.03c-0.65-0.12-1.22-0.32-1.7-0.61c-0.48-0.29-0.87-0.64-1.16-1.07
				c-0.3-0.42-0.5-0.9-0.61-1.43c-0.11-0.53-0.12-1.08-0.03-1.66c0.09-0.58,0.27-1.1,0.55-1.57c0.28-0.47,0.63-0.85,1.05-1.16
				c0.43-0.31,0.93-0.52,1.5-0.64c0.57-0.12,1.2-0.12,1.89,0.01c0.68,0.13,1.27,0.35,1.77,0.66c0.49,0.32,0.88,0.69,1.18,1.13
				c0.29,0.44,0.48,0.92,0.58,1.46C433.34,291.68,433.32,292.23,433.2,292.81z M431.92,292.54c0.19-0.96,0.1-1.77-0.27-2.43
				c-0.38-0.66-1.08-1.09-2.1-1.28c-1.02-0.19-1.83-0.03-2.41,0.45c-0.59,0.49-0.95,1.21-1.11,2.18c-0.16,0.97-0.05,1.77,0.33,2.42
				c0.38,0.65,1.06,1.06,2.05,1.24c0.99,0.18,1.77,0.04,2.35-0.43C431.34,294.22,431.73,293.5,431.92,292.54z"/>
		</g>
		<g>
			<polygon class="st2" points="387.52,302.53 388.27,304.05 389.94,304.29 388.73,305.48 389.02,307.15 387.52,306.36 
				386.02,307.15 386.3,305.48 385.09,304.29 386.77,304.05 			"/>
			<polygon class="st2" points="404.58,302.53 405.33,304.05 407.01,304.29 405.8,305.48 406.08,307.15 404.58,306.36 
				403.08,307.15 403.37,305.48 402.16,304.29 403.83,304.05 			"/>
			<polygon class="st2" points="396,298.39 397.08,300.58 399.5,300.93 397.75,302.64 398.16,305.05 396,303.91 393.84,305.05 
				394.25,302.64 392.5,300.93 394.92,300.58 			"/>
		</g>
		<g>
			<g>
				<path class="st2" d="M347.28,388.56c-0.39,0-0.74-0.08-1.05-0.25c-0.31-0.16-0.57-0.4-0.79-0.71c-0.22-0.31-0.39-0.69-0.5-1.13
					c-0.12-0.44-0.17-0.95-0.17-1.5c0-0.55,0.06-1.05,0.18-1.5c0.12-0.45,0.29-0.84,0.52-1.16c0.22-0.32,0.49-0.57,0.81-0.75
					s0.67-0.26,1.06-0.26c0.39,0,0.74,0.09,1.05,0.26c0.31,0.18,0.58,0.42,0.8,0.74s0.39,0.7,0.51,1.14s0.18,0.93,0.18,1.46
					c0,0.28-0.02,0.56-0.07,0.83c-0.05,0.27-0.12,0.53-0.21,0.76c-0.09,0.23-0.19,0.44-0.31,0.61c-0.12,0.17-0.24,0.3-0.37,0.39
					v0.04l1.26-0.02v1.04H347.28z M348.63,384.97c0-0.35-0.03-0.68-0.08-0.99c-0.06-0.31-0.14-0.57-0.25-0.79s-0.25-0.4-0.42-0.53
					c-0.16-0.13-0.35-0.2-0.55-0.2c-0.21,0-0.4,0.07-0.57,0.2s-0.3,0.31-0.42,0.53s-0.2,0.49-0.25,0.79
					c-0.06,0.31-0.08,0.64-0.08,0.99c0,0.35,0.03,0.68,0.09,0.99c0.06,0.31,0.15,0.57,0.26,0.79s0.25,0.4,0.42,0.53
					c0.16,0.13,0.35,0.2,0.57,0.2c0.21,0,0.4-0.07,0.56-0.21c0.16-0.14,0.3-0.32,0.41-0.55c0.11-0.23,0.19-0.5,0.25-0.8
					C348.6,385.62,348.63,385.3,348.63,384.97z"/>
				<path class="st2" d="M355.27,387.1c-0.08,0.33-0.21,0.61-0.39,0.85c-0.18,0.24-0.41,0.44-0.7,0.58s-0.63,0.21-1.04,0.21
					c-0.41,0-0.75-0.07-1.03-0.21c-0.28-0.14-0.51-0.33-0.69-0.58c-0.18-0.24-0.3-0.53-0.38-0.85c-0.08-0.33-0.12-0.68-0.12-1.05
					v-4.57h1.2v4.46c0,0.22,0.02,0.43,0.04,0.63c0.03,0.2,0.08,0.38,0.16,0.54c0.08,0.15,0.18,0.28,0.32,0.37
					c0.13,0.09,0.3,0.13,0.51,0.13c0.21,0,0.38-0.04,0.51-0.13c0.13-0.09,0.24-0.21,0.32-0.37c0.08-0.15,0.13-0.33,0.16-0.54
					c0.03-0.2,0.04-0.42,0.04-0.63v-4.46h1.19v4.57C355.39,386.43,355.35,386.78,355.27,387.1z"/>
				<path class="st2" d="M359.67,388.56l-0.35-1.5h-1.86l-0.36,1.5h-1.2l1.76-7.08h1.53l1.73,7.08H359.67z M358.42,382.61h-0.04
					l-0.77,3.51h1.56L358.42,382.61z"/>
				<path class="st2" d="M361.66,388.56v-7.08h1.21v5.97h1.95v1.11H361.66z"/>
				<path class="st2" d="M365.6,388.56v-7.08h1.2v7.08H365.6z"/>
				<path class="st2" d="M370.01,382.5v6.06h-1.18v-6.06h-1.33v-1.02h3.84v1.02H370.01z"/>
				<path class="st2" d="M374.21,385.85v2.71h-1.18v-2.71l-1.77-4.37h1.3l1.06,3.16l0.03-0.02l1.08-3.14H376L374.21,385.85z"/>
			</g>
		</g>
		<g>
			<g>
				<path class="st2" d="M418.97,388.56l-0.35-1.5h-1.86l-0.36,1.5h-1.2l1.76-7.08h1.53l1.73,7.08H418.97z M417.72,382.61h-0.04
					l-0.77,3.51h1.56L417.72,382.61z"/>
				<path class="st2" d="M424.91,383.57c0,0.36-0.05,0.67-0.16,0.95c-0.11,0.27-0.25,0.5-0.43,0.67s-0.38,0.31-0.62,0.4
					c-0.23,0.09-0.47,0.13-0.72,0.13h-0.84v2.84h-1.18v-7.08h1.95c0.23,0,0.46,0.03,0.7,0.1c0.24,0.07,0.45,0.18,0.64,0.35
					c0.19,0.16,0.35,0.38,0.47,0.64S424.91,383.17,424.91,383.57z M423.78,383.59c0-0.38-0.09-0.65-0.27-0.83
					c-0.18-0.17-0.41-0.26-0.69-0.26h-0.68v2.24h0.68c0.28,0,0.51-0.1,0.69-0.29C423.69,384.26,423.78,383.97,423.78,383.59z"/>
				<path class="st2" d="M429.86,383.57c0,0.36-0.05,0.67-0.16,0.95c-0.11,0.27-0.25,0.5-0.43,0.67c-0.18,0.18-0.39,0.31-0.62,0.4
					c-0.23,0.09-0.47,0.13-0.72,0.13h-0.84v2.84h-1.18v-7.08h1.96c0.23,0,0.46,0.03,0.7,0.1c0.24,0.07,0.45,0.18,0.64,0.35
					c0.19,0.16,0.35,0.38,0.47,0.64S429.86,383.17,429.86,383.57z M428.73,383.59c0-0.38-0.09-0.65-0.27-0.83
					c-0.18-0.17-0.41-0.26-0.69-0.26h-0.68v2.24h0.68c0.28,0,0.51-0.1,0.69-0.29C428.64,384.26,428.73,383.97,428.73,383.59z"/>
				<path class="st2" d="M433.51,388.56l-0.35-1.5h-1.86l-0.36,1.5h-1.2l1.76-7.08h1.53l1.73,7.08H433.51z M432.26,382.61h-0.04
					l-0.77,3.51h1.56L432.26,382.61z"/>
				<path class="st2" d="M438.43,388.56l-1.1-3.02h-0.67v3.02h-1.16v-7.08h2.02c0.29,0,0.56,0.04,0.81,0.12
					c0.25,0.08,0.46,0.2,0.64,0.36c0.18,0.17,0.31,0.38,0.42,0.63c0.1,0.25,0.15,0.56,0.15,0.91c0,0.27-0.04,0.52-0.1,0.73
					c-0.07,0.21-0.16,0.39-0.27,0.54c-0.11,0.15-0.22,0.26-0.35,0.35s-0.26,0.15-0.38,0.19l1.27,3.26H438.43z M438.35,383.56
					c0-0.21-0.03-0.39-0.09-0.53c-0.06-0.14-0.14-0.25-0.24-0.33s-0.21-0.14-0.33-0.17s-0.24-0.05-0.36-0.05h-0.68v2.18h0.68
					c0.29,0,0.54-0.09,0.72-0.27C438.25,384.21,438.35,383.93,438.35,383.56z"/>
				<path class="st2" d="M440.63,388.56v-7.08h3.17v1.06h-2.02v1.88h1.87v0.98h-1.87v2.09h2.12v1.07H440.63z"/>
				<path class="st2" d="M444.99,388.56v-7.08h1.21v5.97h1.95v1.11H444.99z"/>
			</g>
		</g>
	</g>
	<g>
		<g>
			<path class="st2" d="M465.47,228.76v0.69h-0.39c-0.26,0-0.43,0.03-0.5,0.09c-0.06,0.06-0.1,0.22-0.1,0.47v3.55
				c0,0.25,0.03,0.4,0.1,0.46c0.06,0.06,0.23,0.09,0.5,0.09h0.39v0.68h-3.26v-0.68h0.39c0.27,0,0.44-0.03,0.5-0.1s0.1-0.22,0.1-0.46
				v-3.55c0-0.25-0.03-0.4-0.09-0.46c-0.06-0.06-0.23-0.09-0.5-0.09h-0.39v-0.69H465.47z"/>
			<path class="st2" d="M457.33,228.76l1.02,3.12c0.07,0.22,0.14,0.36,0.21,0.43s0.18,0.1,0.31,0.1h0.19v0.6h-2.23v-0.6h0.21
				c0.1,0,0.18-0.02,0.22-0.05s0.07-0.09,0.07-0.17l-0.02-0.14l-0.06-0.22l-0.61-2.09l-0.76,2.12l-0.05,0.15l-0.02,0.14
				c0,0.1,0.03,0.17,0.09,0.21s0.16,0.06,0.31,0.06h0.17v0.6h-2.17v-0.6h0.27c0.1,0,0.17-0.02,0.21-0.05
				c0.04-0.03,0.07-0.09,0.07-0.16l-0.01-0.13c0-0.02-0.01-0.04-0.01-0.06c0-0.01-0.02-0.04-0.03-0.09l-0.72-2.22l-0.66,2.04
				l-0.07,0.24c-0.02,0.08-0.03,0.15-0.03,0.2c0,0.07,0.03,0.12,0.08,0.16s0.12,0.07,0.21,0.07h0.22v0.6h-1.87v-0.6h0.2
				c0.11,0,0.21-0.04,0.28-0.12c0.07-0.08,0.15-0.24,0.23-0.47l1.01-3.06h1.06l0.76,2.38l0.81-2.38H457.33z"/>
			<path class="st2" d="M451.48,230.88c0,0.69-0.22,1.25-0.65,1.67c-0.44,0.42-1.02,0.63-1.74,0.63c-0.73,0-1.31-0.21-1.75-0.63
				c-0.44-0.42-0.66-0.97-0.66-1.66c0-0.68,0.22-1.23,0.66-1.65s1.02-0.63,1.75-0.63c0.72,0,1.3,0.21,1.74,0.62
				C451.26,229.64,451.48,230.19,451.48,230.88z M450.26,230.88c0-0.54-0.1-0.95-0.29-1.23s-0.49-0.41-0.88-0.41
				c-0.39,0-0.68,0.14-0.88,0.41c-0.2,0.27-0.3,0.68-0.3,1.23c0,0.55,0.1,0.96,0.29,1.24c0.2,0.28,0.49,0.41,0.88,0.41
				c0.38,0,0.67-0.14,0.87-0.41C450.16,231.85,450.26,231.43,450.26,230.88z"/>
			<path class="st2" d="M445.5,230.2v1.68c0,0.23,0.04,0.37,0.11,0.44c0.07,0.07,0.21,0.1,0.41,0.1h0.21v0.6h-1.81v-2.82
				c0-0.32-0.05-0.54-0.16-0.68c-0.11-0.13-0.27-0.2-0.51-0.2c-0.34,0-0.61,0.13-0.81,0.39c-0.2,0.26-0.3,0.61-0.3,1.07v1.1
				c0,0.23,0.04,0.37,0.11,0.44s0.21,0.1,0.42,0.1h0.41v0.6h-2.02v-3.11c0-0.23-0.04-0.37-0.11-0.44c-0.07-0.06-0.21-0.1-0.42-0.1
				h-0.23v-0.6h1.84v0.75c0.23-0.29,0.47-0.51,0.72-0.66s0.51-0.22,0.77-0.22c0.48,0,0.83,0.12,1.04,0.36S445.5,229.63,445.5,230.2z
				"/>
			<path class="st2" d="M439.62,233.66c0,0.23,0.04,0.37,0.1,0.44c0.07,0.07,0.21,0.1,0.42,0.1h0.27v0.6h-1.89v-4.9
				c0-0.23-0.04-0.37-0.11-0.44c-0.07-0.07-0.21-0.1-0.42-0.1h-0.27v-0.6h2.68v0.6h-0.27c-0.21,0-0.35,0.03-0.42,0.1
				c-0.07,0.07-0.1,0.21-0.1,0.44V233.66z"/>
			<path class="st2" d="M433.96,233.66c0,0.23,0.04,0.37,0.11,0.44c0.07,0.06,0.21,0.1,0.41,0.1h0.38v0.6h-1.98v-4.9
				c0-0.23-0.03-0.38-0.1-0.44c-0.07-0.07-0.21-0.1-0.41-0.1h-0.26v-0.6h1.86v0.74c0.14-0.29,0.33-0.51,0.57-0.65
				c0.24-0.14,0.53-0.21,0.88-0.21c0.57,0,1.02,0.2,1.34,0.59c0.32,0.4,0.48,0.95,0.48,1.67c0,0.72-0.16,1.28-0.48,1.67
				c-0.32,0.4-0.77,0.6-1.34,0.6c-0.35,0-0.64-0.07-0.87-0.21c-0.24-0.14-0.43-0.36-0.58-0.66V233.66z M436.01,230.88
				c0-0.51-0.08-0.89-0.25-1.14c-0.17-0.25-0.43-0.38-0.78-0.38c-0.32,0-0.57,0.13-0.75,0.4c-0.18,0.27-0.28,0.64-0.28,1.11
				c0,0.47,0.09,0.84,0.28,1.11s0.43,0.4,0.75,0.4c0.35,0,0.61-0.12,0.78-0.37C435.93,231.77,436.01,231.39,436.01,230.88z"/>
			<path class="st2" d="M427.02,229.91c0-0.23-0.03-0.38-0.1-0.44c-0.07-0.07-0.21-0.1-0.41-0.1h-0.45v-0.6h2.86v0.6h-0.3
				c-0.21,0-0.34,0.03-0.41,0.1c-0.07,0.06-0.1,0.21-0.1,0.45v1.97c0,0.23,0.03,0.38,0.1,0.44c0.07,0.06,0.21,0.1,0.41,0.1h0.3v0.6
				h-1.9v-0.65c-0.14,0.25-0.31,0.44-0.5,0.57c-0.19,0.13-0.4,0.19-0.63,0.19c-0.32,0-0.58-0.09-0.79-0.27
				c-0.2-0.18-0.3-0.41-0.3-0.7c0-0.23,0.07-0.41,0.2-0.55c0.13-0.14,0.31-0.21,0.53-0.21c0.19,0,0.34,0.05,0.45,0.16
				c0.11,0.1,0.17,0.24,0.17,0.4c0,0.15-0.05,0.28-0.14,0.38c-0.09,0.1-0.22,0.18-0.41,0.23l0.2,0.06c0.06,0.02,0.12,0.02,0.17,0.02
				c0.3,0,0.54-0.15,0.75-0.45c0.1-0.15,0.17-0.32,0.22-0.51c0.05-0.19,0.08-0.4,0.08-0.64V229.91z"/>
			<path class="st2" d="M421.66,229.28c0.18-0.23,0.39-0.4,0.63-0.51s0.52-0.17,0.84-0.17c0.19,0,0.36,0.03,0.52,0.08
				c0.15,0.05,0.29,0.13,0.41,0.25c0.24,0.22,0.36,0.49,0.36,0.83c0,0.32-0.1,0.59-0.3,0.79c-0.2,0.2-0.56,0.38-1.06,0.53
				l-0.57,0.15c-0.27,0.06-0.44,0.12-0.52,0.18c-0.1,0.07-0.18,0.15-0.23,0.24c-0.05,0.09-0.07,0.2-0.07,0.34
				c0,0.22,0.08,0.39,0.24,0.51c0.16,0.12,0.39,0.18,0.69,0.18c0.19,0,0.35-0.02,0.49-0.06s0.26-0.11,0.37-0.2h-0.03
				c-0.17,0-0.31-0.04-0.41-0.13c-0.1-0.09-0.15-0.21-0.15-0.36c0-0.17,0.06-0.31,0.17-0.42c0.12-0.11,0.27-0.16,0.46-0.16
				c0.21,0,0.39,0.07,0.52,0.2c0.13,0.13,0.2,0.3,0.2,0.51c0,0.33-0.16,0.6-0.47,0.81c-0.16,0.1-0.34,0.18-0.55,0.23
				s-0.45,0.08-0.72,0.08c-0.29,0-0.56-0.03-0.79-0.08s-0.43-0.13-0.58-0.23c-0.17-0.11-0.29-0.25-0.36-0.43
				c-0.07-0.18-0.11-0.47-0.11-0.88v-1.89c0-0.11-0.02-0.18-0.05-0.23c-0.03-0.05-0.08-0.07-0.16-0.07c-0.1,0-0.18,0.06-0.22,0.17
				c-0.04,0.12-0.06,0.39-0.06,0.81h-0.55v-0.19c0-0.55,0.09-0.94,0.26-1.19s0.46-0.37,0.85-0.37c0.26,0,0.47,0.05,0.63,0.16
				C421.47,228.87,421.59,229.04,421.66,229.28z M421.68,230.99l0.51-0.22c0.67-0.29,1-0.59,1-0.89c0-0.16-0.05-0.29-0.15-0.38
				c-0.1-0.09-0.23-0.13-0.41-0.13c-0.29,0-0.52,0.1-0.69,0.3c-0.17,0.2-0.26,0.47-0.26,0.82V230.99z"/>
			<path class="st2" d="M418.68,230.09v2.3h0.7v0.58c-0.4,0.06-0.7,0.23-0.89,0.49c-0.1,0.14-0.18,0.31-0.25,0.52
				c-0.06,0.21-0.09,0.44-0.09,0.7h-0.58v-1.67h-1.17v-0.62h1.19v-2.43c0-0.21-0.02-0.35-0.07-0.42c-0.04-0.07-0.13-0.11-0.26-0.11
				c-0.15,0-0.25,0.07-0.31,0.22c-0.06,0.14-0.09,0.44-0.09,0.88v0.24h-0.58l0-0.15l0-0.23c0-0.63,0.1-1.08,0.3-1.36
				c0.2-0.28,0.53-0.42,0.99-0.42c0.38,0,0.67,0.12,0.85,0.36C418.59,229.2,418.68,229.58,418.68,230.09z"/>
			<path class="st2" d="M414.93,233.66c0,0.23,0.04,0.37,0.11,0.44c0.07,0.07,0.21,0.1,0.41,0.1h0.23v0.6h-1.84v-2.54
				c-0.23,0.29-0.46,0.51-0.72,0.66c-0.25,0.15-0.51,0.22-0.77,0.22c-0.48,0-0.83-0.12-1.05-0.36c-0.21-0.24-0.32-0.64-0.32-1.21
				v-1.67c0-0.23-0.04-0.37-0.11-0.44c-0.07-0.07-0.21-0.1-0.42-0.1h-0.25v-0.6h2.55v0.6h-0.18c-0.21,0-0.35,0.03-0.42,0.1
				c-0.07,0.07-0.1,0.21-0.1,0.44v1.67c0,0.31,0.05,0.53,0.16,0.67c0.1,0.14,0.27,0.2,0.51,0.2c0.34,0,0.61-0.13,0.81-0.4
				s0.3-0.63,0.3-1.09v-1.06c0-0.23-0.04-0.37-0.11-0.44c-0.07-0.07-0.21-0.1-0.42-0.1h-0.18v-0.6h2.54v0.6h-0.23
				c-0.21,0-0.34,0.03-0.41,0.1c-0.07,0.07-0.11,0.21-0.11,0.44V233.66z"/>
			<path class="st2" d="M406.33,230.28h-0.76c0.06-0.52,0.27-0.93,0.62-1.23s0.81-0.45,1.36-0.45c0.68,0,1.23,0.21,1.64,0.62
				c0.41,0.41,0.61,0.97,0.61,1.66c0,0.68-0.21,1.24-0.62,1.66c-0.41,0.42-0.96,0.63-1.63,0.63c-0.65,0-1.15-0.2-1.49-0.61
				c-0.34-0.41-0.52-1-0.52-1.77h3.03c0-0.24-0.03-0.44-0.08-0.62c-0.05-0.18-0.13-0.34-0.23-0.47c-0.18-0.25-0.45-0.38-0.79-0.38
				c-0.35,0-0.61,0.07-0.78,0.22C406.54,229.69,406.41,229.94,406.33,230.28z M406.74,231.43c0,0.18,0.02,0.35,0.07,0.5
				s0.1,0.27,0.18,0.37c0.13,0.18,0.33,0.27,0.58,0.27c0.26,0,0.48-0.1,0.64-0.29c0.16-0.19,0.27-0.47,0.33-0.85H406.74z"/>
			<path class="st2" d="M403.16,229.91c0-0.23-0.03-0.38-0.1-0.44c-0.07-0.07-0.21-0.1-0.41-0.1h-0.45v-0.6h2.86v0.6h-0.3
				c-0.21,0-0.34,0.03-0.41,0.1c-0.07,0.06-0.1,0.21-0.1,0.45v1.97c0,0.23,0.03,0.38,0.1,0.44c0.07,0.06,0.2,0.1,0.41,0.1h0.3v0.6
				h-1.9v-0.65c-0.14,0.25-0.31,0.44-0.5,0.57c-0.19,0.13-0.4,0.19-0.63,0.19c-0.32,0-0.58-0.09-0.79-0.27s-0.3-0.41-0.3-0.7
				c0-0.23,0.07-0.41,0.2-0.55c0.13-0.14,0.31-0.21,0.53-0.21c0.19,0,0.34,0.05,0.45,0.16s0.17,0.24,0.17,0.4
				c0,0.15-0.05,0.28-0.14,0.38c-0.09,0.1-0.22,0.18-0.41,0.23l0.2,0.06c0.06,0.02,0.12,0.02,0.17,0.02c0.3,0,0.54-0.15,0.75-0.45
				c0.1-0.15,0.17-0.32,0.22-0.51c0.05-0.19,0.08-0.4,0.08-0.64V229.91z"/>
			<path class="st2" d="M397.02,233.66c0,0.23,0.04,0.37,0.11,0.44c0.07,0.07,0.21,0.1,0.41,0.1h0.23v0.6h-1.84v-2.54
				c-0.23,0.29-0.46,0.51-0.72,0.66c-0.25,0.15-0.51,0.22-0.77,0.22c-0.48,0-0.83-0.12-1.05-0.36c-0.21-0.24-0.32-0.64-0.32-1.21
				v-1.67c0-0.23-0.04-0.37-0.11-0.44c-0.07-0.07-0.21-0.1-0.42-0.1h-0.25v-0.6h2.55v0.6h-0.18c-0.21,0-0.35,0.03-0.42,0.1
				c-0.07,0.07-0.1,0.21-0.1,0.44v1.67c0,0.31,0.05,0.53,0.16,0.67c0.1,0.14,0.27,0.2,0.51,0.2c0.34,0,0.61-0.13,0.81-0.4
				s0.3-0.63,0.3-1.09v-1.06c0-0.23-0.04-0.37-0.11-0.44c-0.07-0.07-0.21-0.1-0.42-0.1h-0.18v-0.6h2.54v0.6h-0.23
				c-0.21,0-0.34,0.03-0.41,0.1c-0.07,0.07-0.11,0.21-0.11,0.44V233.66z"/>
			<path class="st2" d="M389.15,229.28c0.18-0.23,0.39-0.4,0.63-0.51c0.24-0.11,0.52-0.17,0.83-0.17c0.19,0,0.36,0.03,0.52,0.08
				s0.29,0.13,0.42,0.25c0.24,0.22,0.36,0.49,0.36,0.83c0,0.32-0.1,0.59-0.3,0.79c-0.2,0.2-0.56,0.38-1.06,0.53l-0.57,0.15
				c-0.27,0.06-0.44,0.12-0.52,0.18c-0.1,0.07-0.18,0.15-0.23,0.24c-0.05,0.09-0.07,0.2-0.07,0.34c0,0.22,0.08,0.39,0.24,0.51
				c0.16,0.12,0.39,0.18,0.69,0.18c0.19,0,0.35-0.02,0.49-0.06s0.26-0.11,0.37-0.2h-0.03c-0.17,0-0.31-0.04-0.41-0.13
				c-0.1-0.09-0.15-0.21-0.15-0.36c0-0.17,0.06-0.31,0.17-0.42c0.12-0.11,0.27-0.16,0.46-0.16c0.21,0,0.39,0.07,0.52,0.2
				c0.13,0.13,0.2,0.3,0.2,0.51c0,0.33-0.16,0.6-0.47,0.81c-0.16,0.1-0.34,0.18-0.55,0.23s-0.45,0.08-0.72,0.08
				c-0.3,0-0.56-0.03-0.79-0.08s-0.43-0.13-0.58-0.23c-0.17-0.11-0.29-0.25-0.36-0.43c-0.07-0.18-0.11-0.47-0.11-0.88v-1.89
				c0-0.11-0.02-0.18-0.05-0.23c-0.03-0.05-0.09-0.07-0.16-0.07c-0.1,0-0.18,0.06-0.22,0.17c-0.04,0.12-0.06,0.39-0.06,0.81h-0.55
				v-0.19c0-0.55,0.09-0.94,0.26-1.19c0.17-0.24,0.46-0.37,0.85-0.37c0.26,0,0.47,0.05,0.63,0.16
				C388.97,228.87,389.08,229.04,389.15,229.28z M389.18,230.99l0.51-0.22c0.67-0.29,1-0.59,1-0.89c0-0.16-0.05-0.29-0.15-0.38
				c-0.1-0.09-0.23-0.13-0.41-0.13c-0.29,0-0.52,0.1-0.69,0.3s-0.26,0.47-0.26,0.82V230.99z"/>
			<path class="st2" d="M385.12,228.76l1.1,3.19c0.06,0.17,0.12,0.28,0.2,0.36c0.08,0.07,0.17,0.11,0.28,0.11h0.26v0.6h-2.34v-0.6
				h0.15c0.12,0,0.21-0.02,0.26-0.06s0.09-0.09,0.09-0.17c0-0.03,0-0.06,0-0.09c-0.01-0.03-0.02-0.06-0.02-0.07l-0.07-0.23
				l-0.67-1.96l-0.72,2.04l-0.04,0.15l-0.02,0.14c0,0.09,0.03,0.15,0.1,0.19c0.07,0.04,0.17,0.06,0.31,0.06h0.21v0.6h-2.1v-0.6h0.22
				c0.12,0,0.23-0.04,0.31-0.13c0.09-0.09,0.17-0.23,0.24-0.42l1.09-3.1H385.12z"/>
			<path class="st2" d="M378.32,230.28h-0.76c0.06-0.52,0.27-0.93,0.62-1.23s0.81-0.45,1.36-0.45c0.68,0,1.23,0.21,1.64,0.62
				c0.41,0.41,0.61,0.97,0.61,1.66c0,0.68-0.21,1.24-0.62,1.66c-0.41,0.42-0.96,0.63-1.63,0.63c-0.65,0-1.15-0.2-1.49-0.61
				c-0.34-0.41-0.52-1-0.52-1.77h3.03c0-0.24-0.03-0.44-0.08-0.62c-0.05-0.18-0.13-0.34-0.23-0.47c-0.19-0.25-0.45-0.38-0.79-0.38
				c-0.35,0-0.61,0.07-0.78,0.22C378.53,229.69,378.4,229.94,378.32,230.28z M378.73,231.43c0,0.18,0.02,0.35,0.07,0.5
				s0.1,0.27,0.18,0.37c0.13,0.18,0.33,0.27,0.58,0.27c0.26,0,0.48-0.1,0.64-0.29c0.16-0.19,0.27-0.47,0.33-0.85H378.73z"/>
			<path class="st2" d="M373.21,230.34c0.21,0.18,0.37,0.37,0.47,0.57c0.1,0.2,0.15,0.42,0.15,0.64c0,0.49-0.19,0.88-0.56,1.17
				c-0.37,0.29-0.87,0.44-1.49,0.44c-0.27,0-0.53-0.04-0.78-0.11c-0.13-0.04-0.24-0.08-0.35-0.13c-0.11-0.05-0.22-0.11-0.32-0.19
				c-0.12,0.13-0.26,0.24-0.4,0.31c-0.14,0.07-0.3,0.11-0.47,0.11c-0.31,0-0.55-0.08-0.73-0.24s-0.27-0.38-0.27-0.66
				c0-0.19,0.05-0.34,0.17-0.46s0.25-0.18,0.43-0.18c0.17,0,0.31,0.05,0.42,0.15c0.11,0.1,0.17,0.23,0.17,0.39
				c0,0.12-0.04,0.23-0.11,0.31c-0.07,0.08-0.18,0.15-0.32,0.18c0.06,0.04,0.1,0.07,0.14,0.09c0.04,0.02,0.07,0.03,0.09,0.03
				s0.05,0.01,0.08,0.01c0.1,0,0.2-0.03,0.3-0.09c0.1-0.06,0.19-0.16,0.28-0.29c-0.07-0.14-0.13-0.28-0.18-0.43
				c-0.04-0.15-0.07-0.31-0.07-0.46c0-0.47,0.18-0.85,0.53-1.14c0.35-0.28,0.84-0.42,1.45-0.42c0.16,0,0.32,0.01,0.49,0.04
				c0.09,0.01,0.17,0.03,0.24,0.05c0.07,0.02,0.16,0.04,0.26,0.07c0.02-0.01,0.04-0.03,0.08-0.06c0.04-0.03,0.07-0.06,0.1-0.09
				c0.03-0.05,0.05-0.1,0.06-0.15c0-0.11-0.04-0.19-0.13-0.25c-0.05-0.02-0.11-0.04-0.18-0.05s-0.16-0.02-0.28-0.02h-1.23
				c-0.35,0-0.65-0.02-0.89-0.07s-0.44-0.12-0.61-0.23c-0.32-0.19-0.47-0.5-0.47-0.93c0-0.47,0.22-0.82,0.66-1.07
				c0.44-0.25,1.07-0.37,1.89-0.37c0.38,0,0.71,0.02,0.99,0.07c0.28,0.04,0.52,0.11,0.73,0.21c0.4,0.18,0.59,0.44,0.59,0.78
				c0,0.18-0.07,0.34-0.2,0.46c-0.13,0.12-0.34,0.22-0.63,0.3c0.24,0.06,0.42,0.16,0.54,0.3c0.12,0.14,0.19,0.31,0.19,0.51
				c0,0.2-0.07,0.38-0.2,0.52S373.48,230.25,373.21,230.34z M371.88,228.54c0.55,0,0.94-0.04,1.14-0.13
				c0.21-0.09,0.31-0.24,0.31-0.45c0-0.2-0.11-0.36-0.34-0.46c-0.23-0.1-0.58-0.15-1.05-0.15c-0.25,0-0.47,0.01-0.66,0.04
				s-0.34,0.07-0.47,0.13c-0.25,0.11-0.37,0.28-0.37,0.5c0,0.2,0.1,0.33,0.29,0.41C370.93,228.5,371.31,228.54,371.88,228.54z
				 M372.63,231.6c0-0.37-0.06-0.63-0.18-0.81c-0.12-0.17-0.33-0.26-0.61-0.26c-0.28,0-0.48,0.08-0.61,0.25s-0.19,0.43-0.19,0.78
				c0,0.37,0.06,0.65,0.19,0.82c0.13,0.17,0.33,0.26,0.61,0.26c0.27,0,0.47-0.09,0.6-0.26S372.63,231.95,372.63,231.6z"/>
			<path class="st2" d="M368.22,230.88c0,0.69-0.22,1.25-0.66,1.67c-0.44,0.42-1.02,0.63-1.74,0.63c-0.73,0-1.31-0.21-1.75-0.63
				c-0.44-0.42-0.66-0.97-0.66-1.66c0-0.68,0.22-1.23,0.66-1.65s1.02-0.63,1.74-0.63c0.72,0,1.3,0.21,1.74,0.62
				C368.01,229.64,368.22,230.19,368.22,230.88z M367,230.88c0-0.54-0.1-0.95-0.29-1.23s-0.49-0.41-0.88-0.41
				c-0.39,0-0.68,0.14-0.88,0.41s-0.3,0.68-0.3,1.23c0,0.55,0.1,0.96,0.29,1.24c0.2,0.28,0.49,0.41,0.88,0.41
				c0.38,0,0.68-0.14,0.87-0.41S367,231.43,367,230.88z"/>
			<path class="st2" d="M362.92,230.88c0,0.69-0.22,1.25-0.65,1.67c-0.44,0.42-1.02,0.63-1.74,0.63c-0.73,0-1.31-0.21-1.75-0.63
				c-0.44-0.42-0.66-0.97-0.66-1.66c0-0.68,0.22-1.23,0.66-1.65s1.02-0.63,1.75-0.63c0.72,0,1.3,0.21,1.74,0.62
				C362.71,229.64,362.92,230.19,362.92,230.88z M361.7,230.88c0-0.54-0.1-0.95-0.29-1.23s-0.49-0.41-0.88-0.41
				c-0.39,0-0.68,0.14-0.88,0.41c-0.2,0.27-0.3,0.68-0.3,1.23c0,0.55,0.1,0.96,0.29,1.24c0.2,0.28,0.49,0.41,0.88,0.41
				c0.38,0,0.67-0.14,0.87-0.41C361.6,231.85,361.7,231.43,361.7,230.88z"/>
			<path class="st2" d="M354.29,233.66c0,0.23,0.04,0.37,0.11,0.44c0.07,0.06,0.21,0.1,0.41,0.1h0.38v0.6h-1.98v-4.9
				c0-0.23-0.03-0.38-0.1-0.44c-0.07-0.07-0.21-0.1-0.41-0.1h-0.26v-0.6h1.86v0.74c0.14-0.29,0.33-0.51,0.57-0.65
				c0.24-0.14,0.53-0.21,0.88-0.21c0.57,0,1.02,0.2,1.34,0.59c0.32,0.4,0.48,0.95,0.48,1.67c0,0.72-0.16,1.28-0.48,1.67
				s-0.77,0.6-1.34,0.6c-0.35,0-0.64-0.07-0.87-0.21c-0.24-0.14-0.43-0.36-0.58-0.66V233.66z M356.35,230.88
				c0-0.51-0.08-0.89-0.25-1.14c-0.17-0.25-0.43-0.38-0.78-0.38c-0.32,0-0.57,0.13-0.75,0.4c-0.18,0.27-0.28,0.64-0.28,1.11
				c0,0.47,0.09,0.84,0.28,1.11c0.18,0.27,0.43,0.4,0.75,0.4c0.35,0,0.61-0.12,0.78-0.37C356.26,231.77,356.35,231.39,356.35,230.88
				z"/>
			<path class="st2" d="M348.64,234.21c0,0.19-0.06,0.34-0.19,0.47c-0.13,0.13-0.29,0.19-0.47,0.19c-0.19,0-0.35-0.07-0.48-0.19
				c-0.13-0.13-0.2-0.29-0.2-0.47c0-0.18,0.07-0.34,0.2-0.47c0.13-0.14,0.29-0.2,0.48-0.2c0.18,0,0.34,0.07,0.47,0.2
				C348.58,233.86,348.64,234.02,348.64,234.21z M348.44,231.88c0,0.23,0.04,0.38,0.1,0.44c0.07,0.06,0.21,0.1,0.41,0.1h0.36v0.6
				h-1.97v-4.48c0-0.6,0.12-1.03,0.35-1.3s0.61-0.4,1.12-0.4c0.36,0,0.66,0.09,0.89,0.26c0.23,0.17,0.34,0.39,0.34,0.67
				c0,0.18-0.06,0.32-0.18,0.44c-0.06,0.06-0.13,0.1-0.2,0.13s-0.16,0.04-0.25,0.04c-0.16,0-0.29-0.05-0.39-0.14
				c-0.1-0.1-0.15-0.22-0.15-0.37c0-0.07,0.01-0.14,0.03-0.19s0.05-0.1,0.09-0.14c0.07-0.08,0.19-0.13,0.36-0.15
				c-0.04-0.02-0.07-0.03-0.1-0.04c-0.03-0.01-0.07-0.02-0.12-0.04c-0.05-0.02-0.11-0.02-0.16-0.02c-0.19,0-0.32,0.07-0.4,0.21
				c-0.04,0.07-0.07,0.17-0.09,0.29c-0.02,0.12-0.03,0.27-0.03,0.46V231.88z"/>
			<path class="st2" d="M342.86,230.28h-0.76c0.06-0.52,0.27-0.93,0.62-1.23c0.36-0.3,0.81-0.45,1.36-0.45
				c0.68,0,1.23,0.21,1.64,0.62c0.41,0.41,0.61,0.97,0.61,1.66c0,0.68-0.21,1.24-0.62,1.66c-0.41,0.42-0.96,0.63-1.63,0.63
				c-0.65,0-1.15-0.2-1.49-0.61c-0.34-0.41-0.52-1-0.52-1.77h3.03c0-0.24-0.03-0.44-0.08-0.62c-0.05-0.18-0.13-0.34-0.23-0.47
				c-0.18-0.25-0.45-0.38-0.79-0.38c-0.35,0-0.61,0.07-0.78,0.22C343.07,229.69,342.94,229.94,342.86,230.28z M343.27,231.43
				c0,0.18,0.02,0.35,0.07,0.5c0.04,0.15,0.1,0.27,0.18,0.37c0.13,0.18,0.33,0.27,0.58,0.27c0.26,0,0.48-0.1,0.64-0.29
				c0.16-0.19,0.27-0.47,0.33-0.85H343.27z"/>
			<path class="st2" d="M338.79,229.28c0.18-0.23,0.39-0.4,0.63-0.51s0.52-0.17,0.84-0.17c0.19,0,0.36,0.03,0.52,0.08
				c0.15,0.05,0.29,0.13,0.41,0.25c0.24,0.22,0.36,0.49,0.36,0.83c0,0.32-0.1,0.59-0.3,0.79c-0.2,0.2-0.56,0.38-1.06,0.53
				l-0.57,0.15c-0.27,0.06-0.44,0.12-0.52,0.18c-0.1,0.07-0.18,0.15-0.23,0.24c-0.05,0.09-0.07,0.2-0.07,0.34
				c0,0.22,0.08,0.39,0.24,0.51c0.16,0.12,0.39,0.18,0.69,0.18c0.19,0,0.35-0.02,0.49-0.06s0.26-0.11,0.37-0.2h-0.03
				c-0.17,0-0.31-0.04-0.41-0.13c-0.1-0.09-0.15-0.21-0.15-0.36c0-0.17,0.06-0.31,0.17-0.42c0.12-0.11,0.27-0.16,0.46-0.16
				c0.21,0,0.39,0.07,0.52,0.2c0.13,0.13,0.2,0.3,0.2,0.51c0,0.33-0.16,0.6-0.47,0.81c-0.16,0.1-0.34,0.18-0.55,0.23
				s-0.45,0.08-0.72,0.08c-0.29,0-0.56-0.03-0.79-0.08s-0.43-0.13-0.58-0.23c-0.17-0.11-0.29-0.25-0.36-0.43
				c-0.07-0.18-0.11-0.47-0.11-0.88v-1.89c0-0.11-0.02-0.18-0.05-0.23c-0.03-0.05-0.08-0.07-0.16-0.07c-0.1,0-0.18,0.06-0.22,0.17
				c-0.04,0.12-0.06,0.39-0.06,0.81h-0.55v-0.19c0-0.55,0.09-0.94,0.26-1.19s0.46-0.37,0.85-0.37c0.26,0,0.47,0.05,0.63,0.16
				C338.61,228.87,338.72,229.04,338.79,229.28z M338.82,230.99l0.51-0.22c0.67-0.29,1-0.59,1-0.89c0-0.16-0.05-0.29-0.15-0.38
				c-0.1-0.09-0.23-0.13-0.41-0.13c-0.29,0-0.52,0.1-0.69,0.3c-0.17,0.2-0.26,0.47-0.26,0.82V230.99z"/>
			<path class="st2" d="M336.47,228.76v0.6h-0.3c-0.21,0-0.34,0.03-0.41,0.1c-0.07,0.06-0.1,0.21-0.1,0.45v1.97
				c0,0.23,0.03,0.38,0.1,0.44c0.07,0.06,0.2,0.1,0.41,0.1h0.3v0.6h-1.9v-0.75c-0.23,0.29-0.48,0.51-0.72,0.66
				c-0.25,0.15-0.5,0.22-0.75,0.22c-0.49,0-0.84-0.12-1.05-0.36c-0.21-0.24-0.32-0.64-0.32-1.21v-1.67c0-0.23-0.03-0.38-0.1-0.44
				c-0.07-0.07-0.21-0.1-0.41-0.1h-0.26v-0.6h2.56v0.6h-0.18c-0.21,0-0.34,0.03-0.41,0.09c-0.07,0.06-0.1,0.21-0.1,0.45v1.67
				c0,0.31,0.05,0.53,0.16,0.67c0.1,0.14,0.28,0.2,0.51,0.2c0.34,0,0.61-0.13,0.8-0.39s0.29-0.61,0.29-1.06v-1.1
				c0-0.23-0.03-0.38-0.1-0.44c-0.07-0.07-0.21-0.1-0.41-0.1h-0.18v-0.6H336.47z"/>
			<path class="st2" d="M330.5,228.71v1.74h-0.66c-0.08-0.39-0.25-0.69-0.5-0.89c-0.25-0.21-0.56-0.31-0.93-0.31
				c-0.23,0-0.41,0.05-0.55,0.15c-0.14,0.1-0.21,0.24-0.21,0.41c0,0.13,0.05,0.24,0.16,0.32c0.11,0.08,0.31,0.16,0.59,0.24
				l0.67,0.16c0.46,0.12,0.81,0.28,1.03,0.5c0.23,0.22,0.34,0.49,0.34,0.82c0,0.4-0.15,0.72-0.45,0.97c-0.3,0.25-0.7,0.37-1.2,0.37
				c-0.23,0-0.46-0.04-0.67-0.11c-0.21-0.07-0.42-0.18-0.61-0.33l-0.2,0.33h-0.51v-1.57h0.61c0.09,0.32,0.25,0.58,0.48,0.76
				c0.23,0.18,0.51,0.27,0.83,0.27c0.21,0,0.38-0.04,0.5-0.13c0.12-0.09,0.18-0.21,0.18-0.37c0-0.11-0.04-0.21-0.12-0.29
				c-0.08-0.07-0.21-0.13-0.38-0.17l-0.82-0.19c-0.53-0.12-0.92-0.3-1.15-0.52c-0.24-0.22-0.36-0.52-0.36-0.87
				c0-0.43,0.15-0.76,0.46-1.01c0.3-0.25,0.72-0.37,1.26-0.37c0.27,0,0.52,0.04,0.75,0.11s0.46,0.2,0.69,0.37l0.16-0.38H330.5z"/>
			<path class="st2" d="M422.88,217.96v0.6h-0.33c-0.21,0-0.34,0.03-0.41,0.1c-0.07,0.06-0.1,0.21-0.1,0.45v1.97
				c0,0.23,0.04,0.37,0.11,0.44s0.21,0.1,0.41,0.1h0.33v0.6h-1.95v-3.11c0-0.23-0.03-0.38-0.1-0.44c-0.07-0.06-0.21-0.1-0.42-0.1
				h-0.27v-0.6H422.88z M422.23,223.41c0,0.19-0.06,0.34-0.19,0.47c-0.13,0.13-0.29,0.19-0.47,0.19c-0.19,0-0.35-0.07-0.48-0.19
				c-0.13-0.13-0.2-0.29-0.2-0.47c0-0.18,0.07-0.34,0.2-0.47c0.13-0.14,0.29-0.2,0.48-0.2c0.18,0,0.34,0.07,0.47,0.2
				C422.17,223.06,422.23,223.22,422.23,223.41z"/>
			<path class="st2" d="M419.73,217.96v0.6h-0.3c-0.21,0-0.34,0.03-0.41,0.1c-0.07,0.06-0.1,0.21-0.1,0.45v1.97
				c0,0.23,0.03,0.38,0.1,0.44c0.07,0.06,0.21,0.1,0.41,0.1h0.3v0.6h-1.9v-0.75c-0.23,0.29-0.48,0.51-0.72,0.66
				c-0.25,0.15-0.5,0.22-0.75,0.22c-0.49,0-0.84-0.12-1.05-0.36c-0.21-0.24-0.32-0.64-0.32-1.21v-1.67c0-0.23-0.03-0.38-0.1-0.44
				c-0.07-0.07-0.21-0.1-0.41-0.1h-0.26v-0.6h2.56v0.6h-0.18c-0.21,0-0.34,0.03-0.41,0.09c-0.07,0.06-0.1,0.21-0.1,0.45v1.67
				c0,0.31,0.05,0.53,0.16,0.67c0.1,0.14,0.27,0.2,0.51,0.2c0.34,0,0.61-0.13,0.8-0.39c0.2-0.26,0.29-0.61,0.29-1.06v-1.1
				c0-0.23-0.03-0.38-0.1-0.44c-0.07-0.07-0.21-0.1-0.41-0.1h-0.18v-0.6H419.73z"/>
			<path class="st2" d="M406.51,221.48c-0.27,0.3-0.52,0.52-0.76,0.66c-0.23,0.13-0.48,0.2-0.74,0.2c-0.19,0-0.37-0.03-0.53-0.09
				c-0.17-0.06-0.3-0.14-0.4-0.25c-0.1-0.11-0.18-0.25-0.23-0.41c-0.02-0.08-0.04-0.19-0.05-0.32s-0.02-0.29-0.02-0.49v-1.67
				c0-0.23-0.03-0.38-0.1-0.44c-0.07-0.07-0.2-0.1-0.41-0.1h-0.25v-0.6h2.46v0.6h-0.1c-0.21,0-0.34,0.03-0.42,0.1
				c-0.07,0.07-0.11,0.21-0.11,0.44v1.67c0,0.34,0.04,0.57,0.13,0.7c0.09,0.12,0.25,0.18,0.48,0.18c0.27,0,0.51-0.11,0.71-0.34
				c0.2-0.23,0.3-0.51,0.3-0.84v-1.37c0-0.23-0.03-0.38-0.1-0.44c-0.07-0.07-0.21-0.1-0.41-0.1h-0.11v-0.6h2.32v0.6h-0.1
				c-0.21,0-0.34,0.03-0.42,0.1c-0.07,0.07-0.11,0.21-0.11,0.44v1.67c0,0.34,0.04,0.57,0.13,0.7c0.09,0.12,0.25,0.18,0.48,0.18
				c0.27,0,0.51-0.11,0.7-0.34c0.2-0.23,0.29-0.51,0.29-0.84v-1.37c0-0.23-0.03-0.38-0.1-0.44c-0.07-0.07-0.21-0.1-0.41-0.1h-0.11
				v-0.6h2.5v0.6h-0.3c-0.21,0-0.34,0.03-0.41,0.1c-0.07,0.06-0.1,0.21-0.1,0.45v1.97c0,0.23,0.03,0.38,0.1,0.44
				c0.07,0.06,0.21,0.1,0.41,0.1h0.3v0.6h-1.88v-0.72c-0.23,0.3-0.46,0.51-0.7,0.65c-0.24,0.13-0.49,0.2-0.77,0.2
				c-0.29,0-0.54-0.07-0.72-0.21C406.77,221.99,406.62,221.78,406.51,221.48z"/>
			<path class="st2" d="M400.55,217.96l1.38,3.1c0.09,0.2,0.19,0.35,0.29,0.43c0.05,0.04,0.11,0.07,0.17,0.09
				c0.06,0.02,0.13,0.03,0.22,0.03h0.27v0.6h-2.61v-0.6h0.32c0.1,0,0.17-0.02,0.23-0.05c0.05-0.04,0.07-0.09,0.07-0.17l-0.01-0.1
				l-0.04-0.1l-0.83-1.96l-0.74,1.88l-0.05,0.15l-0.01,0.11c0,0.09,0.03,0.15,0.09,0.18c0.05,0.04,0.16,0.05,0.31,0.05h0.24v0.6
				h-2.17v-0.6h0.2c0.14,0,0.27-0.05,0.38-0.16c0.11-0.1,0.21-0.27,0.29-0.49l1-2.5c0.2-0.5,0.39-0.92,0.56-1.24
				c0.17-0.32,0.33-0.56,0.48-0.72c0.29-0.32,0.64-0.47,1.06-0.47c0.36,0,0.66,0.11,0.9,0.32c0.24,0.21,0.36,0.48,0.36,0.81
				c0,0.23-0.07,0.42-0.2,0.57c-0.14,0.15-0.31,0.23-0.53,0.23c-0.18,0-0.33-0.06-0.45-0.17c-0.12-0.11-0.17-0.25-0.17-0.43
				c0-0.17,0.05-0.3,0.16-0.39c0.11-0.1,0.25-0.15,0.44-0.15h0.05c-0.06-0.07-0.12-0.12-0.19-0.16c-0.07-0.04-0.16-0.06-0.25-0.06
				c-0.24,0-0.45,0.1-0.63,0.31S400.74,217.48,400.55,217.96z"/>
			<path class="st2" d="M391.16,219.72h-0.69c0-0.31,0.05-0.59,0.14-0.83c0.09-0.24,0.22-0.44,0.39-0.61
				c0.32-0.32,0.78-0.48,1.38-0.48c0.67,0,1.2,0.21,1.59,0.62s0.59,0.97,0.59,1.66c0,0.68-0.22,1.23-0.66,1.65
				c-0.44,0.42-1,0.64-1.7,0.64c-0.52,0-0.94-0.12-1.28-0.37c-0.33-0.25-0.5-0.56-0.5-0.94c0-0.23,0.07-0.41,0.2-0.56
				c0.13-0.14,0.31-0.21,0.53-0.21c0.19,0,0.35,0.06,0.47,0.17c0.06,0.06,0.1,0.12,0.13,0.2c0.03,0.07,0.04,0.16,0.04,0.26
				c0,0.14-0.05,0.26-0.14,0.36c-0.1,0.1-0.22,0.16-0.38,0.18c0.13,0.11,0.27,0.19,0.41,0.24c0.14,0.05,0.3,0.08,0.47,0.08
				c0.37,0,0.65-0.15,0.86-0.45c0.21-0.3,0.31-0.71,0.31-1.24c0-0.5-0.09-0.86-0.28-1.11s-0.47-0.37-0.85-0.37
				c-0.3,0-0.54,0.09-0.71,0.27S391.21,219.35,391.16,219.72z"/>
			<path class="st2" d="M389.19,222.86c0,0.23,0.03,0.37,0.1,0.44c0.07,0.07,0.21,0.1,0.42,0.1h0.27v0.6h-1.89v-4.9
				c0-0.23-0.04-0.37-0.11-0.44c-0.07-0.07-0.21-0.1-0.42-0.1h-0.27v-0.6h2.68v0.6h-0.27c-0.21,0-0.35,0.03-0.42,0.1
				c-0.07,0.07-0.1,0.21-0.1,0.44V222.86z"/>
			<path class="st2" d="M386.86,220.08c0,0.69-0.22,1.25-0.65,1.67s-1.02,0.63-1.74,0.63c-0.73,0-1.31-0.21-1.75-0.63
				c-0.44-0.42-0.66-0.97-0.66-1.66c0-0.68,0.22-1.23,0.66-1.65s1.02-0.63,1.74-0.63s1.3,0.21,1.74,0.62
				S386.86,219.39,386.86,220.08z M385.63,220.08c0-0.54-0.1-0.95-0.29-1.23s-0.49-0.41-0.88-0.41c-0.39,0-0.68,0.14-0.88,0.41
				c-0.2,0.27-0.3,0.68-0.3,1.23c0,0.55,0.1,0.96,0.29,1.24c0.2,0.28,0.49,0.41,0.88,0.41c0.38,0,0.67-0.14,0.87-0.41
				C385.53,221.05,385.63,220.63,385.63,220.08z"/>
			<path class="st2" d="M381.53,217.91v1.74h-0.66c-0.09-0.39-0.25-0.69-0.5-0.89s-0.56-0.31-0.93-0.31c-0.23,0-0.41,0.05-0.55,0.15
				c-0.14,0.1-0.21,0.24-0.21,0.41c0,0.13,0.05,0.24,0.16,0.32s0.31,0.16,0.59,0.24l0.67,0.16c0.46,0.12,0.81,0.28,1.04,0.5
				c0.23,0.22,0.34,0.49,0.34,0.82c0,0.4-0.15,0.72-0.45,0.97c-0.3,0.25-0.7,0.37-1.2,0.37c-0.23,0-0.46-0.04-0.67-0.11
				c-0.21-0.07-0.42-0.18-0.61-0.33l-0.2,0.33h-0.51v-1.57h0.61c0.09,0.32,0.25,0.58,0.48,0.76c0.23,0.18,0.51,0.27,0.83,0.27
				c0.21,0,0.38-0.04,0.5-0.13c0.12-0.09,0.19-0.21,0.19-0.37c0-0.11-0.04-0.21-0.12-0.29c-0.08-0.07-0.21-0.13-0.38-0.17
				l-0.82-0.19c-0.53-0.12-0.92-0.3-1.15-0.52s-0.36-0.52-0.36-0.87c0-0.43,0.15-0.76,0.46-1.01c0.3-0.25,0.73-0.37,1.26-0.37
				c0.27,0,0.52,0.04,0.75,0.11c0.22,0.08,0.46,0.2,0.69,0.37l0.16-0.38H381.53z"/>
			<path class="st2" d="M373.61,219.48h-0.76c0.06-0.52,0.27-0.93,0.62-1.23s0.81-0.45,1.36-0.45c0.68,0,1.23,0.21,1.64,0.62
				c0.41,0.41,0.61,0.97,0.61,1.66c0,0.68-0.21,1.24-0.62,1.66c-0.41,0.42-0.96,0.63-1.63,0.63c-0.65,0-1.15-0.2-1.49-0.61
				c-0.34-0.41-0.52-1-0.52-1.77h3.03c0-0.24-0.03-0.44-0.08-0.62c-0.05-0.18-0.13-0.34-0.23-0.47c-0.18-0.25-0.45-0.38-0.79-0.38
				c-0.35,0-0.61,0.07-0.78,0.22C373.81,218.89,373.69,219.14,373.61,219.48z M374.02,220.63c0,0.18,0.02,0.35,0.07,0.5
				s0.1,0.27,0.18,0.37c0.13,0.18,0.33,0.27,0.58,0.27c0.26,0,0.48-0.1,0.64-0.29c0.16-0.19,0.27-0.47,0.33-0.85H374.02z"/>
			<path class="st2" d="M371.68,219.29v2.3h0.7v0.58c-0.4,0.06-0.7,0.23-0.89,0.49c-0.1,0.14-0.18,0.31-0.25,0.52
				c-0.06,0.21-0.09,0.44-0.09,0.7h-0.58v-1.67h-1.17v-0.62h1.19v-2.43c0-0.21-0.02-0.35-0.07-0.42c-0.04-0.07-0.13-0.11-0.26-0.11
				c-0.15,0-0.25,0.07-0.31,0.22c-0.06,0.14-0.09,0.44-0.09,0.88v0.24h-0.58l0-0.15l0-0.23c0-0.63,0.1-1.08,0.3-1.36
				c0.2-0.28,0.53-0.42,0.99-0.42c0.38,0,0.67,0.12,0.85,0.36C371.59,218.4,371.68,218.78,371.68,219.29z"/>
		</g>
	</g>
</g>
</svg>
