<?xml version="1.0" encoding="utf-8"?>
<!-- Generator: Adobe Illustrator 24.1.0, SVG Export Plug-In . SVG Version: 6.00 Build 0)  -->
<svg version="1.1" id="Layer_1" xmlns="http://www.w3.org/2000/svg" xmlns:xlink="http://www.w3.org/1999/xlink" x="0px" y="0px"
	 viewBox="0 0 792 612" style="enable-background:new 0 0 792 612;" xml:space="preserve">
<style type="text/css">
	.st0{fill-rule:evenodd;clip-rule:evenodd;fill:#FFFFFF;stroke:#000000;stroke-width:0.5669;stroke-miterlimit:22.9256;}
	.st1{fill:#8D7049;}
	.st2{fill-rule:evenodd;clip-rule:evenodd;fill:#8D7049;}
	.st3{font-family:'GreatDayPersonalUse';}
	.st4{font-size:12px;}
	.st5{font-family:'AvenirNextCondensed-DemiBold';}
	.st6{font-size:10px;}
</style>
<g>
	<rect x="216" y="263.48" class="st0" width="360" height="85.04"/>
	<g>
		<defs>
			<rect id="SVGID_1_" x="233.01" y="263.48" width="325.98" height="85.04"/>
		</defs>
		<use xlink:href="#SVGID_1_"  style="overflow:visible;fill-rule:evenodd;clip-rule:evenodd;"/>
		<clipPath id="SVGID_2_">
			<use xlink:href="#SVGID_1_"  style="overflow:visible;"/>
		</clipPath>
		
			<use xlink:href="#SVGID_1_"  style="overflow:visible;fill-rule:evenodd;clip-rule:evenodd;fill:none;stroke:#000000;stroke-width:0.5;stroke-miterlimit:10;"/>
	</g>
	<g>
		<g>
			<path class="st1" d="M436.72,327.48c0,2.22-0.5,4.14-1.5,5.8c-1,1.65-2.2,2.55-3.61,2.67c-0.29,0.02-0.59,0.05-0.88,0.08
				c-1.41,0.12-2.61-0.58-3.6-2.15c-1-1.57-1.5-3.53-1.5-5.87c0-7.01,0-14.02,0-21.04c0-2.34,0.5-4.31,1.5-5.87
				c1-1.57,2.2-2.27,3.6-2.15c0.29,0.03,0.59,0.05,0.88,0.08c1.41,0.12,2.61,1.02,3.61,2.67c1,1.66,1.5,3.58,1.5,5.8
				C436.72,314.15,436.72,320.81,436.72,327.48z M433.32,326.16c0-5.84,0-11.68,0-17.52c0-1.41-0.09-2.45-0.27-3.11
				c-0.29-1-0.83-1.52-1.6-1.57c-1.61-0.1-2.41,1.4-2.41,4.51c0,5.96,0,11.91,0,17.87c0,3.11,0.74,4.62,2.21,4.52
				C432.63,330.76,433.32,329.2,433.32,326.16z"/>
			<path class="st1" d="M451,334.15c-1.3,0.07-2.6,0.14-3.9,0.21c-1.45-3.19-2.91-6.43-4.36-9.71c0,3.33,0,6.65,0,9.98
				c-1.18,0.08-2.36,0.16-3.54,0.24c0-11.52,0-23.05,0-34.57c1.18,0.08,2.36,0.16,3.54,0.24c0,3.29,0,6.58,0,9.88
				c1.44-3.25,2.88-6.46,4.32-9.61c1.29,0.07,2.58,0.14,3.86,0.21c-2.58,5.36-5.17,10.83-7.75,16.47
				C445.79,323.19,448.4,328.73,451,334.15z"/>
			<path class="st1" d="M477.88,333.34c-1.18,0.01-2.36,0.02-3.55,0.04c0-5.37,0-10.75,0-16.12c-1.02,5.37-2.05,10.76-3.07,16.17
				c-1.18,0.02-2.36,0.05-3.55,0.08c-0.93-5.51-1.86-11.04-2.8-16.6c0,5.56,0,11.12,0,16.67c-1.18,0.03-2.36,0.07-3.55,0.11
				c0-10.75,0-21.5,0-32.25c1.26,0.04,2.52,0.08,3.78,0.12c1.51,7.61,3.02,15.16,4.53,22.66c1.43-7.53,2.87-15.01,4.3-22.46
				c1.29,0.02,2.59,0.03,3.88,0.05C477.88,312.33,477.88,322.83,477.88,333.34z"/>
			<path class="st1" d="M492.3,333.37c-1.18-0.02-2.35-0.03-3.53-0.04c-0.28-2.4-0.55-4.79-0.83-7.19c-0.87,0-1.74-0.01-2.61-0.01
				c-0.29,2.39-0.57,4.78-0.86,7.18c-1.18,0-2.36,0-3.53,0c1.31-10.52,2.61-21.02,3.92-31.53c1.22,0.01,2.43,0.02,3.65,0.03
				C489.78,312.32,491.04,322.83,492.3,333.37z M487.39,321.1c-0.24-2.56-0.48-5.11-0.72-7.67c-0.24,2.56-0.48,5.11-0.72,7.66
				C486.44,321.1,486.92,321.1,487.39,321.1z"/>
			<path class="st1" d="M506.42,333.73c-1.14-0.04-2.27-0.08-3.41-0.11c0-2.62,0-5.24,0-7.86c0-1.91-0.45-3.15-1.35-3.72
				c-0.52-0.3-1.55-0.45-3.08-0.46c0,3.97,0,7.94,0,11.92c-1.18-0.03-2.36-0.05-3.55-0.07c0-10.61,0-21.22,0-31.82
				c2.01-0.05,4.02-0.11,6.03-0.19c1.41-0.04,2.61,0.65,3.61,2.07c1,1.43,1.5,3.18,1.5,5.23c0,1.86,0,3.72,0,5.58
				c0,1-0.21,2.06-0.63,3.19c-0.42,1.13-0.93,1.87-1.52,2.23c0.64,0.43,1.18,1.1,1.64,2c0.5,1,0.75,1.98,0.75,2.95
				C506.42,327.68,506.42,330.7,506.42,333.73z M502.77,312.99c0-1.02,0-2.05,0-3.07c0-1.62-0.17-2.72-0.51-3.31
				c-0.34-0.59-1.06-0.87-2.16-0.85c-0.51,0.01-1.01,0.02-1.52,0.03c0,3.78,0,7.55,0,11.33c0.71,0.02,1.42,0.03,2.13,0.05
				C502.08,317.16,502.77,315.77,502.77,312.99z"/>
			<path class="st1" d="M513.3,334.01c-1.18-0.06-2.36-0.11-3.54-0.16c0-10.87,0-21.73,0-32.6c1.18-0.03,2.36-0.07,3.54-0.1
				C513.3,312.11,513.3,323.06,513.3,334.01z"/>
			<path class="st1" d="M527.2,334.82c-1.2-0.08-2.41-0.16-3.61-0.24c-1.19-6.25-2.38-12.42-3.58-18.52c0,6.1,0,12.2,0,18.3
				c-1.09-0.06-2.18-0.12-3.27-0.18c-0.03-11.07-0.07-22.13-0.1-33.19c1.21-0.06,2.42-0.13,3.62-0.2c1.22,6.19,2.44,12.45,3.66,18.8
				c0-6.34,0-12.68,0-19.02c1.09-0.07,2.18-0.14,3.27-0.21C527.2,311.84,527.2,323.33,527.2,334.82z"/>
			<path class="st1" d="M541.55,328c0,2.34-0.5,4.31-1.5,5.87c-1,1.57-2.2,2.27-3.6,2.15c-0.29-0.03-0.59-0.05-0.88-0.08
				c-1.41-0.12-2.61-1.02-3.61-2.67c-1-1.65-1.5-3.58-1.5-5.8c0-6.66,0-13.33,0-19.99c0-2.22,0.5-4.14,1.5-5.8
				c1-1.65,2.2-2.56,3.61-2.67c0.29-0.02,0.59-0.05,0.88-0.08c1.41-0.12,2.61,0.58,3.6,2.15c1,1.57,1.5,3.54,1.5,5.87
				C541.55,313.98,541.55,320.99,541.55,328z M538.15,326.33c0-5.96,0-11.91,0-17.87c0-1.44-0.09-2.49-0.27-3.15
				c-0.29-0.98-0.83-1.44-1.6-1.39c-1.61,0.1-2.41,1.68-2.41,4.72c0,5.84,0,11.68,0,17.52c0,3.04,0.74,4.61,2.21,4.7
				C537.46,330.95,538.15,329.44,538.15,326.33z"/>
		</g>
		<g>
			<polygon class="st2" points="335.28,297.56 335.34,297.56 335.34,297.61 348.15,297.61 348.15,297.56 348.26,297.56 
				348.26,297.5 348.37,297.5 348.37,297.45 348.42,297.45 348.42,297.4 348.47,297.4 348.47,297.34 348.53,297.34 348.53,297.29 
				348.58,297.29 348.58,297.18 348.64,297.18 348.64,297.01 348.69,297.01 348.69,296.74 348.64,296.74 348.64,296.58 
				348.58,296.58 348.58,296.47 348.53,296.47 348.53,296.42 348.47,296.42 348.47,296.36 348.42,296.36 348.42,296.31 
				348.31,296.31 348.31,296.26 348.2,296.26 348.2,296.2 335.28,296.2 			"/>
			<polygon class="st2" points="319.43,296.26 319.32,296.26 319.32,296.31 319.21,296.31 319.21,296.36 319.16,296.36 
				319.16,296.42 319.1,296.42 319.1,296.47 319.05,296.47 319.05,296.58 319,296.58 319,296.74 318.94,296.74 318.94,297.01 
				319,297.01 319,297.18 319.05,297.18 319.05,297.29 319.1,297.29 319.1,297.34 319.16,297.34 319.16,297.4 319.21,297.4 
				319.21,297.45 319.27,297.45 319.27,297.5 319.38,297.5 319.38,297.56 319.48,297.56 319.48,297.61 332.73,297.61 332.73,296.2 
				319.43,296.2 			"/>
			<polygon class="st2" points="320.95,298.48 320.79,298.48 320.79,298.53 320.68,298.53 320.68,298.59 320.62,298.59 
				320.62,298.64 320.57,298.64 320.57,298.7 320.52,298.7 320.52,298.75 320.46,298.75 320.46,298.86 320.41,298.86 320.41,299.02 
				320.35,299.02 320.35,299.29 320.41,299.29 320.41,299.46 320.46,299.46 320.46,299.57 320.52,299.57 320.52,299.62 
				320.57,299.62 320.57,299.67 320.62,299.67 320.62,299.73 320.68,299.73 320.68,299.78 320.79,299.78 320.79,299.84 321,299.84 
				321,299.89 346.63,299.89 346.63,299.84 346.85,299.84 346.85,299.78 346.95,299.78 346.95,299.73 347.01,299.73 347.01,299.67 
				347.06,299.67 347.06,299.62 347.12,299.62 347.12,299.57 347.17,299.57 347.17,299.46 347.23,299.46 347.23,299.29 
				347.28,299.29 347.28,299.02 347.23,299.02 347.23,298.86 347.17,298.86 347.17,298.75 347.12,298.75 347.12,298.7 347.06,298.7 
				347.06,298.64 347.01,298.64 347.01,298.59 346.95,298.59 346.95,298.53 346.85,298.53 346.85,298.48 346.68,298.48 
				346.68,298.43 320.95,298.43 			"/>
			<polygon class="st2" points="318.29,293.92 318.13,293.92 318.13,293.97 318.07,293.97 318.07,294.03 317.96,294.03 
				317.96,294.08 317.91,294.08 317.91,294.19 317.86,294.19 317.86,294.25 317.8,294.25 317.8,294.41 317.75,294.41 317.75,294.73 
				317.8,294.73 317.8,294.9 317.86,294.9 317.86,295.01 317.91,295.01 317.91,295.06 317.96,295.06 317.96,295.11 318.02,295.11 
				318.02,295.17 318.13,295.17 318.13,295.22 318.24,295.22 318.24,295.28 349.4,295.28 349.4,295.22 349.5,295.22 349.5,295.17 
				349.61,295.17 349.61,295.11 349.67,295.11 349.67,295.06 349.72,295.06 349.72,295.01 349.78,295.01 349.78,294.9 349.83,294.9 
				349.83,294.73 349.89,294.73 349.89,294.41 349.83,294.41 349.83,294.25 349.78,294.25 349.78,294.19 349.72,294.19 
				349.72,294.08 349.67,294.08 349.67,294.03 349.56,294.03 349.56,293.97 349.5,293.97 349.5,293.92 349.34,293.92 349.34,293.86 
				318.29,293.86 			"/>
			<polygon class="st2" points="317.31,291.7 317.15,291.7 317.15,291.75 317.1,291.75 317.1,291.8 317.04,291.8 317.04,291.86 
				316.99,291.86 316.99,291.91 316.93,291.91 316.93,291.97 316.88,291.97 316.88,292.07 316.82,292.07 316.82,292.29 
				316.77,292.29 316.77,292.4 316.82,292.4 316.82,292.62 316.88,292.62 316.88,292.73 316.93,292.73 316.93,292.78 316.99,292.78 
				316.99,292.89 317.1,292.89 317.1,292.94 317.15,292.94 317.15,293 317.26,293 317.26,293.05 350.37,293.05 350.37,293 
				350.48,293 350.48,292.94 350.54,292.94 350.54,292.89 350.65,292.89 350.65,292.78 350.7,292.78 350.7,292.73 350.75,292.73 
				350.75,292.62 350.81,292.62 350.81,292.4 350.86,292.4 350.86,292.29 350.81,292.29 350.81,292.07 350.75,292.07 350.75,291.97 
				350.7,291.97 350.7,291.91 350.65,291.91 350.65,291.86 350.59,291.86 350.59,291.8 350.54,291.8 350.54,291.75 350.48,291.75 
				350.48,291.7 350.32,291.7 350.32,291.64 317.31,291.64 			"/>
			<path class="st2" d="M351.95,289.79v-0.16h-0.05v-0.11h-0.05v-0.05h-0.05v-0.06h-0.05v-0.05h-0.11v-0.05h-0.11v-0.05h-10.48
				v-7.17h-0.05v-0.05h-0.06v-0.05h-0.05v-0.05h-0.11v-0.05h-0.05v-0.05h-0.05v-0.05h-0.11v-0.05h-0.05v-0.06h-0.06v-0.05h-0.11
				v-0.05h-0.05v-0.05h-0.05v-0.05h-0.11v-0.05h-0.05v-0.05h-0.05v-0.05h-0.06v-0.05h-0.11v-0.05h-0.05v-0.05h-0.05v-0.05h-0.11V281
				h-0.05v-0.05h-0.06v-0.05h-0.11v-0.05h-0.05v-0.05h-0.05v-0.05h-0.11v-0.05h-0.05v-0.05h-0.06v-0.05h-0.11v-0.05h-0.05v-0.05
				h-0.05v-0.05h-0.11v-0.05h-0.05v-0.05h-0.05v-0.05h-0.11v-0.05h-0.05v-0.05h-0.05v-0.06h-0.11v-0.05h-0.06v-0.05h-0.05v-0.05
				h-0.11v-0.05h-0.05v-0.05H338v-0.05h-0.05v-0.05h-0.11v-0.05h-0.05v-0.05h-0.05v-0.06h-0.11v-0.05h-0.05v-0.06h-0.05v-0.05h-0.11
				v-0.05h-0.05v-0.05h-0.05v-0.05h-0.11v-0.05h-0.05v-0.05h-6.41v0.05h-0.05v0.05h-0.05v0.05h-0.05v0.05h-0.11v0.05h-0.05v0.05
				h-0.05v0.06h-0.11v0.05h-0.05v0.06h-0.05v0.05h-0.11v0.05h-0.06v0.05h-0.05v0.05h-0.05v0.05h-0.11v0.05h-0.05v0.05h-0.06v0.05
				h-0.11v0.05h-0.05v0.06h-0.06v0.05h-0.11v0.05h-0.05v0.05h-0.05v0.05h-0.05v0.05h-0.11v0.05h-0.05v0.05h-0.06v0.05h-0.11v0.05
				h-0.05v0.05h-0.05v0.05h-0.11v0.05h-0.05v0.05h-0.05v0.05h-0.05v0.05h-0.11V281h-0.05v0.05h-0.05v0.05h-0.11v0.05h-0.05v0.05
				h-0.05v0.05h-0.11v0.05h-0.05v0.05h-0.05v0.05h-0.06v0.05h-0.11v0.05h-0.05v0.05h-0.05v0.05h-0.11v0.06h-0.05v0.05h-0.05v0.05
				h-0.05v0.05h-0.11v0.05h-0.05v0.05h-0.05v0.05h-0.11v7.22h-10.8v0.05h-0.11v0.05h-0.11v0.05h-0.05v0.06h-0.05v0.05h-0.06v0.11
				h-0.05v0.11h-0.05v0.44h0.05v0.11h0.05v0.11h0.06v0.05h0.05v0.05h0.05v0.05h0.11v0.05h0.16v0.05h35.29v-0.05h0.16v-0.05h0.11
				v-0.05h0.05v-0.05h0.05v-0.05h0.05v-0.11h0.05v-0.16H352v-0.33H351.95z M335.17,289.25h-2.33v-6.3h2.33V289.25z"/>
			<polygon class="st2" points="322.14,300.87 322.04,300.87 322.04,300.92 321.98,300.92 321.98,300.98 321.87,300.98 
				321.87,301.09 321.82,301.09 321.82,301.14 321.76,301.14 321.76,301.25 321.71,301.25 321.71,301.79 321.76,301.79 
				321.76,301.9 321.82,301.9 321.82,301.95 321.87,301.95 321.87,302.01 321.93,302.01 321.93,302.06 321.98,302.06 321.98,302.12 
				322.09,302.12 322.09,302.17 322.25,302.17 322.25,302.23 323.28,302.23 323.28,302.28 323.23,302.28 323.23,302.72 
				323.18,302.72 323.18,303.15 323.12,303.15 323.12,303.58 323.07,303.58 323.07,304.07 323.01,304.07 323.01,304.51 
				322.96,304.51 322.96,304.94 322.9,304.94 322.9,305.37 322.85,305.37 322.85,305.81 322.8,305.81 322.8,306.3 322.74,306.3 
				322.74,306.73 322.69,306.73 322.69,307.17 322.63,307.17 322.63,307.6 322.58,307.6 322.58,308.03 322.52,308.03 322.52,308.47 
				322.47,308.47 322.47,308.96 322.41,308.96 322.41,309.39 322.36,309.39 322.36,309.83 322.31,309.83 322.31,310.26 
				322.25,310.26 322.25,310.7 322.2,310.7 322.2,311.13 322.14,311.13 322.14,311.62 322.09,311.62 322.09,311.83 327.46,311.83 
				327.46,311.78 327.52,311.78 327.52,311.51 327.57,311.51 327.57,311.18 327.63,311.18 327.63,310.91 327.68,310.91 
				327.68,310.64 327.73,310.64 327.73,310.37 327.79,310.37 327.79,310.1 327.84,310.1 327.84,309.83 327.9,309.83 327.9,309.5 
				327.95,309.5 327.95,309.23 328.01,309.23 328.01,308.96 328.06,308.96 328.06,308.69 328.12,308.69 328.12,308.41 
				328.17,308.41 328.17,308.09 328.22,308.09 328.22,307.82 328.28,307.82 328.28,307.55 328.33,307.55 328.33,307.27 
				328.39,307.27 328.39,307 328.44,307 328.44,306.68 328.5,306.68 328.5,306.41 328.55,306.41 328.55,306.13 328.6,306.13 
				328.6,305.86 328.66,305.86 328.66,305.59 328.71,305.59 328.71,305.27 328.77,305.27 328.77,304.99 328.82,304.99 
				328.82,304.72 328.88,304.72 328.88,304.45 328.93,304.45 328.93,304.18 328.98,304.18 328.98,303.91 329.04,303.91 
				329.04,303.58 329.09,303.58 329.09,303.31 329.15,303.31 329.15,303.04 329.2,303.04 329.2,302.77 329.26,302.77 329.26,302.5 
				329.31,302.5 329.31,302.23 330.88,302.23 330.88,302.33 330.94,302.33 330.94,302.66 330.99,302.66 330.99,302.93 
				331.05,302.93 331.05,303.21 331.1,303.21 331.1,303.53 331.16,303.53 331.16,303.8 331.21,303.8 331.21,304.07 331.26,304.07 
				331.26,304.34 331.32,304.34 331.32,304.67 331.37,304.67 331.37,304.94 331.43,304.94 331.43,305.21 331.48,305.21 
				331.48,305.48 331.54,305.48 331.54,305.81 331.59,305.81 331.59,306.08 331.64,306.08 331.64,306.35 331.7,306.35 331.7,306.68 
				331.75,306.68 331.75,306.95 331.81,306.95 331.81,307.22 331.86,307.22 331.86,307.49 331.92,307.49 331.92,307.82 
				331.97,307.82 331.97,308.09 332.02,308.09 332.02,308.36 332.08,308.36 332.08,308.69 332.13,308.69 332.13,308.96 
				332.19,308.96 332.19,309.23 332.24,309.23 332.24,309.5 332.3,309.5 332.3,309.83 332.35,309.83 332.35,310.1 332.41,310.1 
				332.41,310.37 332.46,310.37 332.46,310.64 332.51,310.64 332.51,310.97 332.57,310.97 332.57,311.24 332.62,311.24 
				332.62,311.51 332.68,311.51 332.68,311.78 332.73,311.78 332.73,311.83 334.96,311.83 334.96,311.67 335.01,311.67 
				335.01,311.35 335.06,311.35 335.06,311.07 335.12,311.07 335.12,310.8 335.17,310.8 335.17,310.48 335.23,310.48 335.23,310.21 
				335.28,310.21 335.28,309.93 335.34,309.93 335.34,309.61 335.39,309.61 335.39,309.34 335.44,309.34 335.44,309.07 
				335.5,309.07 335.5,308.74 335.55,308.74 335.55,308.47 335.61,308.47 335.61,308.2 335.66,308.2 335.66,307.87 335.72,307.87 
				335.72,307.6 335.77,307.6 335.77,307.33 335.83,307.33 335.83,307 335.88,307 335.88,306.73 335.93,306.73 335.93,306.41 
				335.99,306.41 335.99,306.13 336.04,306.13 336.04,305.86 336.1,305.86 336.1,305.54 336.15,305.54 336.15,305.27 336.21,305.27 
				336.21,304.99 336.26,304.99 336.26,304.67 336.31,304.67 336.31,304.4 336.37,304.4 336.37,304.13 336.42,304.13 336.42,303.8 
				336.48,303.8 336.48,303.53 336.53,303.53 336.53,303.26 336.59,303.26 336.59,302.93 336.64,302.93 336.64,302.66 
				336.69,302.66 336.69,302.39 336.75,302.39 336.75,302.23 338.27,302.23 338.27,302.44 338.32,302.44 338.32,302.72 
				338.38,302.72 338.38,303.04 338.43,303.04 338.43,303.31 338.48,303.31 338.48,303.64 338.54,303.64 338.54,303.91 
				338.59,303.91 338.59,304.18 338.65,304.18 338.65,304.51 338.7,304.51 338.7,304.78 338.76,304.78 338.76,305.1 338.81,305.1 
				338.81,305.37 338.86,305.37 338.86,305.7 338.92,305.7 338.92,305.97 338.97,305.97 338.97,306.3 339.03,306.3 339.03,306.57 
				339.08,306.57 339.08,306.89 339.14,306.89 339.14,307.17 339.19,307.17 339.19,307.49 339.24,307.49 339.24,307.76 
				339.3,307.76 339.3,308.09 339.35,308.09 339.35,308.36 339.41,308.36 339.41,308.63 339.46,308.63 339.46,308.96 339.52,308.96 
				339.52,309.23 339.57,309.23 339.57,309.56 339.62,309.56 339.62,309.83 339.68,309.83 339.68,310.15 339.73,310.15 
				339.73,310.42 339.79,310.42 339.79,310.75 339.84,310.75 339.84,311.02 339.9,311.02 339.9,311.35 339.95,311.35 339.95,311.62 
				340.01,311.62 340.01,311.83 345.43,311.83 345.43,311.51 345.38,311.51 345.38,311.02 345.32,311.02 345.32,310.59 
				345.27,310.59 345.27,310.1 345.22,310.1 345.22,309.66 345.16,309.66 345.16,309.17 345.11,309.17 345.11,308.69 345.05,308.69 
				345.05,308.25 345,308.25 345,307.76 344.95,307.76 344.95,307.33 344.89,307.33 344.89,306.84 344.84,306.84 344.84,306.35 
				344.78,306.35 344.78,305.92 344.73,305.92 344.73,305.43 344.67,305.43 344.67,304.94 344.62,304.94 344.62,304.51 
				344.56,304.51 344.56,304.02 344.51,304.02 344.51,303.58 344.46,303.58 344.46,303.09 344.4,303.09 344.4,302.61 344.35,302.61 
				344.35,302.23 345.22,302.23 345.22,302.17 345.38,302.17 345.38,302.12 345.49,302.12 345.49,302.06 345.54,302.06 
				345.54,302.01 345.6,302.01 345.6,301.95 345.65,301.95 345.65,301.85 345.71,301.85 345.71,301.74 345.76,301.74 345.76,301.25 
				345.71,301.25 345.71,301.14 345.65,301.14 345.65,301.09 345.6,301.09 345.6,301.03 345.54,301.03 345.54,300.98 345.49,300.98 
				345.49,300.92 345.43,300.92 345.43,300.87 345.32,300.87 345.32,300.82 322.14,300.82 			"/>
		</g>
		<g>
			<g>
				<path class="st1" d="M275.13,293.63c10.64,0.02,21.25,0.29,31.85,0.81c0,0.07,0,0.13,0,0.2c-0.92,0.07-1.84,0.17-2.76,0.21
					c-5.87,0.24-11.74,0.48-17.62,0.68c-3.74,0.13-7.48,0.21-11.22,0.29c-0.41,0.01-0.53,0.14-0.61,0.51
					c-0.49,2.15-1.51,4.02-3.03,5.63c-0.1,0.1-0.18,0.24-0.31,0.29c-0.11,0.04-0.28,0.01-0.37-0.06c-0.06-0.05-0.07-0.23-0.03-0.33
					c0.05-0.12,0.17-0.22,0.27-0.32c1.35-1.43,2.27-3.1,2.8-4.99c0.04-0.14,0.06-0.27,0.09-0.41c0.01-0.07,0.02-0.14,0.04-0.27
					c-0.99,0.02-1.95,0.04-2.91,0.06c-0.21,0-0.42,0.02-0.63,0.01c-0.72-0.01-1.2-0.46-1.22-1.13c-0.02-0.64,0.49-1.14,1.19-1.15
					c1.13-0.02,2.26-0.01,3.39-0.02c0.12,0,0.24-0.01,0.49-0.01c-0.08-0.79-0.11-1.56-0.25-2.31c-1.23-6.28-7.02-10.34-13.36-9.4
					c-6.38,0.94-10.89,7.31-9.67,13.63c0.84,4.35,3.53,7.25,7.25,9.34c1.91,1.08,4.05,1.56,6.14,2.14c1.78,0.49,3.52,1.09,4.96,2.31
					c1.69,1.44,2.85,3.17,2.89,5.49c0.05,3.13-2.24,5.95-5.22,6.46c-3.34,0.56-6.41-1.2-7.37-4.35c-0.26-0.86-0.24-1.8-0.3-2.71
					c-0.01-0.18,0.23-0.53,0.34-0.53c0.41,0.01,0.27,0.37,0.25,0.61c-0.33,3.64,2.5,6.68,6.11,6.48c2.35-0.13,4.1-1.31,5.06-3.46
					c0.99-2.22,0.61-4.31-0.87-6.21c-1.38-1.77-3.28-2.68-5.37-3.31c-1.88-0.56-3.79-1.04-5.6-1.77c-3.34-1.36-5.97-3.63-7.67-6.85
					c-2.98-5.66-1.09-12.65,4.3-16.08c6.25-3.97,14.58-1.57,17.75,5.11c0.75,1.57,1.13,3.23,1.18,4.96
					C275.1,293.32,275.12,293.46,275.13,293.63z M275,295.19c1.51-0.02,2.97-0.02,4.43-0.07c0.13,0,0.36-0.29,0.36-0.44
					c-0.01-0.14-0.24-0.36-0.4-0.4c-0.28-0.07-0.6-0.02-0.9-0.01c-1.12,0.02-2.25,0.04-3.4,0.05
					C275.06,294.61,275.04,294.85,275,295.19z M274.48,294.32c-1.31,0.02-2.56,0.02-3.81,0.07c-0.15,0.01-0.3,0.27-0.44,0.42
					c0.15,0.15,0.3,0.42,0.45,0.42c1.23,0.02,2.45-0.02,3.7-0.03C274.41,294.89,274.44,294.65,274.48,294.32z"/>
			</g>
			<g>
				<path class="st1" d="M388.24,293.18c0.05-1.74,0.44-3.39,1.18-4.96c3.17-6.68,11.51-9.08,17.75-5.11
					c5.39,3.42,7.28,10.42,4.3,16.08c-1.7,3.22-4.32,5.49-7.67,6.85c-1.81,0.73-3.73,1.21-5.6,1.77c-2.09,0.63-3.99,1.53-5.37,3.31
					c-1.49,1.91-1.86,3.99-0.87,6.21c0.96,2.16,2.7,3.33,5.06,3.46c3.61,0.2,6.44-2.84,6.11-6.48c-0.02-0.24-0.15-0.6,0.25-0.61
					c0.11,0,0.35,0.35,0.34,0.53c-0.06,0.91-0.04,1.85-0.3,2.71c-0.96,3.15-4.03,4.92-7.37,4.35c-2.98-0.5-5.27-3.33-5.22-6.46
					c0.04-2.32,1.2-4.05,2.89-5.49c1.44-1.22,3.18-1.82,4.96-2.31c2.1-0.58,4.23-1.07,6.14-2.14c3.72-2.09,6.42-4.99,7.25-9.34
					c1.22-6.31-3.29-12.68-9.67-13.63c-6.34-0.94-12.13,3.12-13.36,9.4c-0.15,0.75-0.17,1.52-0.25,2.31
					c0.24,0.01,0.37,0.01,0.49,0.01c1.13,0,2.26,0,3.39,0.02c0.7,0.01,1.21,0.51,1.19,1.15c-0.02,0.67-0.5,1.11-1.22,1.13
					c-0.21,0-0.42-0.01-0.63-0.01c-0.96-0.02-1.92-0.04-2.91-0.06c0.02,0.14,0.02,0.21,0.04,0.27c0.03,0.14,0.06,0.28,0.09,0.41
					c0.52,1.89,1.45,3.56,2.8,4.99c0.1,0.1,0.22,0.2,0.27,0.32c0.04,0.09,0.03,0.28-0.03,0.33c-0.09,0.07-0.27,0.1-0.37,0.06
					c-0.12-0.05-0.21-0.18-0.31-0.29c-1.52-1.6-2.53-3.48-3.03-5.63c-0.09-0.37-0.21-0.5-0.61-0.51c-3.74-0.08-7.48-0.16-11.22-0.29
					c-5.87-0.21-11.75-0.45-17.62-0.68c-0.92-0.04-1.84-0.14-2.76-0.21c0-0.07,0-0.13,0-0.2c10.6-0.53,21.21-0.79,31.85-0.81
					C388.23,293.46,388.24,293.32,388.24,293.18z M388.25,294.31c-1.15-0.02-2.27-0.04-3.4-0.05c-0.3,0-0.61-0.05-0.9,0.01
					c-0.17,0.04-0.4,0.26-0.4,0.4c-0.01,0.15,0.22,0.44,0.36,0.44c1.46,0.05,2.92,0.06,4.43,0.07
					C388.3,294.85,388.28,294.61,388.25,294.31z M388.96,295.2c1.25,0.02,2.48,0.05,3.7,0.03c0.15,0,0.3-0.27,0.45-0.42
					c-0.15-0.15-0.29-0.41-0.44-0.42c-1.25-0.05-2.5-0.05-3.81-0.07C388.9,294.65,388.93,294.89,388.96,295.2z"/>
			</g>
		</g>
		<path class="st1" d="M472.83,292.43c-9.09-0.45-31.42-0.68-40.54-0.71l-1.55,0.01c-0.08,0-0.14,0-0.2,0c-1,0-1.99,0-2.99,0.01
			c-0.62,0.01-1.06,0.45-1.05,1.02c0.01,0.59,0.44,0.98,1.07,1c0.19,0,0.37-0.01,0.56-0.01c0.41-0.01,0.82-0.02,1.23-0.02l0,0
			l2.29-0.06c0.02,0,0.04-0.01,0.07-0.01c3.3-0.07,6.6-0.14,9.9-0.26c5.18-0.18,23.6-0.39,28.79-0.6c0.81-0.03,1.62-0.12,2.43-0.18
			C472.83,292.55,472.83,292.49,472.83,292.43z M435.29,293.02c-0.83,0.03-1.66,0.04-2.49,0.05v0l-0.1,0
			c-0.44,0-0.87,0.01-1.32,0.02c0,0,0,0,0-0.01l-0.55,0c0,0,0,0.01,0,0.01c-1.1,0.02-2.18,0.04-3.27,0.03
			c-0.13,0-0.26-0.24-0.39-0.37c0.13-0.13,0.26-0.37,0.39-0.37c0.94-0.04,1.88-0.05,2.85-0.06l0-0.01l2.38-0.03v0
			c0.55-0.01,1.11-0.02,1.66-0.03c0.26,0,0.54-0.05,0.79,0.01c0.15,0.03,0.35,0.23,0.36,0.35
			C435.61,292.76,435.41,293.01,435.29,293.02z"/>
		<path class="st1" d="M495.21,292.61c0.81,0.06,1.62,0.15,2.43,0.18c5.18,0.21,23.6,0.42,28.79,0.6c3.3,0.12,6.6,0.19,9.9,0.26
			c0.03,0,0.04,0.01,0.07,0.01l2.29,0.06l0,0c0.41,0.01,0.82,0.02,1.23,0.02c0.19,0,0.37,0.02,0.56,0.01c0.63-0.01,1.06-0.41,1.07-1
			c0.01-0.56-0.43-1.01-1.05-1.02c-1-0.02-1.99-0.01-2.99-0.01c-0.06,0-0.12,0-0.2,0l-1.55-0.01c-9.12,0.03-31.45,0.26-40.54,0.71
			C495.22,292.49,495.22,292.55,495.21,292.61z M532.45,292.63c0-0.13,0.21-0.32,0.36-0.35c0.25-0.06,0.53-0.02,0.79-0.01
			c0.55,0.01,1.11,0.02,1.66,0.03v0l2.38,0.03l0,0.01c0.97,0.01,1.92,0.02,2.85,0.06c0.14,0.01,0.26,0.24,0.39,0.37
			c-0.13,0.13-0.26,0.37-0.39,0.37c-1.08,0.02-2.17-0.01-3.27-0.03c0,0,0-0.01,0-0.01l-0.55,0c0,0,0,0,0,0.01
			c-0.45-0.01-0.88-0.01-1.32-0.02l-0.1,0v0c-0.84-0.01-1.67-0.02-2.49-0.05C532.64,293.01,532.44,292.76,532.45,292.63z"/>
		<g>
			<text transform="matrix(1 0 0 1 294.7601 329.0956)" class="st1 st3 st4">For perfect jeans</text>
		</g>
		<g>
			<path class="st1" d="M456.46,281.51c-0.32,0.06-0.47,0.18-0.43,0.38c-0.05,0.01-0.11,0.02-0.16,0.03
				c-0.09-0.53-0.19-1.06-0.28-1.58c0.06-0.01,0.11-0.02,0.17-0.03c0.05,0.27,0.23,0.37,0.56,0.32c0.99-0.17,1.99-0.33,2.98-0.49
				c0.01,0.05,0.02,0.11,0.02,0.16c-0.1,0.02-0.17,0.05-0.19,0.09c-0.03,0.05-0.03,0.14,0,0.3c0.06,0.39,0.12,0.78,0.18,1.17
				c0.02,0.15,0.06,0.25,0.1,0.29c0.04,0.04,0.11,0.06,0.21,0.06c0.01,0.05,0.02,0.11,0.02,0.16c-0.58,0.61-1.19,1.08-1.84,1.39
				c-0.65,0.31-1.26,0.52-1.83,0.62c-0.6,0.11-1.16,0.13-1.7,0.06c-0.54-0.06-1.02-0.21-1.45-0.45c-0.43-0.23-0.8-0.54-1.1-0.93
				c-0.3-0.38-0.5-0.83-0.61-1.35c-0.11-0.53-0.11-1.03,0.01-1.52c0.12-0.49,0.33-0.94,0.63-1.34c0.3-0.41,0.69-0.76,1.16-1.04
				c0.47-0.28,1.01-0.48,1.62-0.59c0.6-0.11,1.12-0.15,1.55-0.13c0.43,0.02,0.78,0.07,1.07,0.15c0.28,0.07,0.51,0.15,0.67,0.22
				c0.16,0.07,0.28,0.1,0.37,0.09c0.07-0.01,0.13-0.04,0.16-0.07c0.03-0.04,0.05-0.08,0.07-0.13c0.06,0.03,0.12,0.05,0.19,0.08
				c-0.26,0.51-0.51,1.03-0.76,1.54c-0.06-0.03-0.12-0.05-0.19-0.08c0.03-0.04,0.04-0.1,0.03-0.17c-0.01-0.08-0.1-0.17-0.26-0.26
				c-0.16-0.09-0.37-0.18-0.64-0.25c-0.27-0.07-0.58-0.12-0.93-0.15c-0.35-0.02-0.73,0-1.12,0.07c-0.53,0.09-0.97,0.25-1.32,0.47
				c-0.36,0.22-0.63,0.48-0.83,0.77c-0.2,0.29-0.32,0.61-0.38,0.95c-0.05,0.34-0.04,0.69,0.03,1.05c0.09,0.44,0.24,0.8,0.47,1.11
				c0.23,0.3,0.49,0.54,0.79,0.72c0.3,0.18,0.63,0.29,0.99,0.35c0.36,0.06,0.72,0.05,1.08-0.01c0.6-0.11,1.12-0.28,1.57-0.51
				c0.45-0.23,0.81-0.49,1.08-0.77c-0.06-0.34-0.11-0.68-0.17-1.01C457.52,281.33,456.99,281.42,456.46,281.51z"/>
			<path class="st1" d="M462.83,282.43c-0.03,0.09-0.05,0.18-0.09,0.29c-0.03,0.11-0.04,0.19-0.04,0.24c0.01,0.1,0.1,0.14,0.25,0.12
				c0.01,0.05,0.01,0.11,0.02,0.16c-0.56,0.07-1.12,0.15-1.67,0.23c-0.01-0.05-0.02-0.11-0.02-0.16c0.05-0.01,0.1-0.02,0.14-0.03
				c0.04-0.01,0.07-0.05,0.1-0.1c0.03-0.05,0.06-0.12,0.09-0.21c0.03-0.09,0.08-0.21,0.13-0.37c0.57-1.93,1.17-3.87,1.79-5.79
				c0.06-0.16,0.1-0.28,0.13-0.37c0.03-0.08,0.04-0.14,0.03-0.19c-0.01-0.11-0.11-0.15-0.28-0.13c-0.01-0.05-0.01-0.11-0.02-0.16
				c0.69-0.09,1.39-0.17,2.08-0.25c0.01,0.05,0.01,0.11,0.02,0.16c-0.15,0.02-0.22,0.08-0.21,0.19c0.01,0.05,0.04,0.12,0.09,0.2
				c0.06,0.08,0.13,0.19,0.22,0.34c1.11,1.7,2.19,3.4,3.24,5.12c0.1,0.16,0.17,0.28,0.23,0.36c0.05,0.09,0.1,0.15,0.15,0.19
				c0.05,0.04,0.09,0.06,0.14,0.07c0.05,0,0.11,0,0.19,0c0,0.05,0.01,0.11,0.01,0.16c-0.63,0.06-1.27,0.12-1.9,0.18
				c-0.01-0.05-0.01-0.11-0.02-0.16c0.11-0.01,0.18-0.03,0.21-0.07c0.03-0.04,0.05-0.08,0.04-0.15c0-0.04-0.02-0.09-0.05-0.14
				c-0.03-0.05-0.09-0.15-0.18-0.3c-0.21-0.34-0.42-0.69-0.64-1.03c-1.3,0.14-2.61,0.29-3.91,0.46
				C463.05,281.67,462.94,282.05,462.83,282.43z M466.5,279.98c-0.64-1.01-1.29-2.01-1.95-3.02c-0.36,1.12-0.72,2.25-1.06,3.37
				C464.49,280.21,465.49,280.09,466.5,279.98z"/>
			<path class="st1" d="M471.7,280.16c-0.02,0.07-0.03,0.13-0.03,0.18c0.01,0.13,0.1,0.25,0.27,0.38c0.17,0.12,0.39,0.23,0.66,0.33
				c0.27,0.09,0.57,0.17,0.91,0.22c0.34,0.05,0.67,0.07,1.01,0.05c0.87-0.05,1.49-0.21,1.87-0.48c0.38-0.27,0.56-0.61,0.54-1.01
				c-0.01-0.19-0.06-0.35-0.17-0.47c-0.1-0.12-0.24-0.21-0.42-0.27c-0.18-0.06-0.38-0.1-0.61-0.11c-0.23-0.02-0.47-0.02-0.74,0
				c-0.43,0.02-0.88,0.05-1.36,0.07c-0.48,0.03-0.92,0-1.33-0.09c-0.41-0.08-0.75-0.25-1.04-0.49c-0.28-0.24-0.45-0.62-0.49-1.14
				c-0.03-0.33,0.04-0.63,0.21-0.91c0.17-0.28,0.41-0.53,0.72-0.75c0.31-0.21,0.69-0.39,1.13-0.53c0.44-0.14,0.92-0.22,1.45-0.26
				c0.41-0.02,0.77-0.02,1.07,0.02c0.3,0.04,0.57,0.09,0.79,0.14c0.22,0.05,0.41,0.1,0.55,0.15c0.15,0.05,0.27,0.07,0.36,0.07
				c0.1,0,0.18-0.03,0.23-0.06c0.05-0.04,0.09-0.08,0.14-0.13c0.06,0.02,0.12,0.04,0.17,0.06c-0.24,0.53-0.48,1.07-0.72,1.6
				c-0.05-0.03-0.11-0.06-0.16-0.09c0.01-0.03,0.01-0.09,0.01-0.18c0-0.06-0.06-0.14-0.18-0.22c-0.12-0.09-0.28-0.17-0.5-0.24
				c-0.21-0.08-0.47-0.14-0.76-0.18c-0.29-0.04-0.61-0.06-0.95-0.04c-0.77,0.05-1.37,0.2-1.8,0.47c-0.43,0.27-0.63,0.59-0.61,0.97
				c0.01,0.17,0.07,0.31,0.18,0.4c0.11,0.1,0.25,0.17,0.43,0.22c0.18,0.05,0.38,0.07,0.61,0.07c0.23,0,0.48,0,0.74-0.02
				c0.44-0.03,0.9-0.05,1.38-0.06c0.48-0.01,0.92,0.04,1.33,0.15c0.41,0.11,0.75,0.3,1.02,0.57c0.27,0.27,0.42,0.68,0.44,1.22
				c0.01,0.29-0.06,0.57-0.2,0.85c-0.14,0.27-0.36,0.52-0.65,0.74c-0.29,0.22-0.66,0.4-1.1,0.54c-0.44,0.14-0.95,0.23-1.53,0.26
				c-0.49,0.03-0.92,0.02-1.29-0.03c-0.37-0.05-0.68-0.12-0.94-0.21c-0.26-0.09-0.48-0.16-0.65-0.24c-0.17-0.07-0.31-0.11-0.41-0.1
				c-0.09,0.01-0.18,0.07-0.28,0.19c-0.05-0.02-0.1-0.05-0.14-0.07c0.2-0.54,0.41-1.08,0.62-1.62
				C471.58,280.1,471.64,280.13,471.7,280.16z"/>
			<path class="st1" d="M486.74,281.7c0.13,0,0.22-0.03,0.26-0.08c0.05-0.06,0.07-0.14,0.07-0.24c0.03-1.71,0.07-3.42,0.1-5.12
				c-0.07,0-0.14,0-0.23,0.01c-0.09,0.01-0.16,0.02-0.24,0.05c-0.07,0.03-0.13,0.07-0.18,0.12c-0.05,0.05-0.07,0.12-0.07,0.2
				c-0.06,0-0.11,0-0.17,0c0.01-0.46,0.01-0.93,0.02-1.39c0.06,0,0.11,0,0.17,0c0,0.17,0.06,0.26,0.18,0.26
				c0.11,0,0.25-0.03,0.42-0.1c0.16-0.07,0.25-0.16,0.25-0.28c0-0.17-0.1-0.26-0.32-0.27c0-0.05,0-0.11,0-0.16
				c0.56,0.01,1.13,0.02,1.69,0.04c0,0.05,0,0.11,0,0.16c-0.11,0-0.19,0.02-0.23,0.07c-0.04,0.05-0.06,0.14-0.06,0.26
				c-0.05,2.06-0.11,4.12-0.16,6.17c0,0.1,0.02,0.18,0.06,0.24c0.04,0.06,0.13,0.09,0.26,0.1c0,0.05,0,0.11,0,0.16
				c-0.6-0.02-1.21-0.03-1.81-0.04C486.73,281.81,486.73,281.75,486.74,281.7z"/>
			<path class="st1" d="M493.57,280.29c-0.01,0.04-0.02,0.08-0.03,0.11c-0.01,0.03-0.01,0.06-0.01,0.09
				c-0.01,0.09,0.04,0.19,0.15,0.3c0.1,0.11,0.25,0.22,0.42,0.31c0.18,0.1,0.39,0.18,0.64,0.25c0.25,0.07,0.51,0.12,0.78,0.14
				c0.79,0.06,1.4-0.07,1.85-0.39c0.45-0.32,0.71-0.9,0.79-1.75c0-0.04,0-0.08,0-0.12c0-0.05,0-0.09,0.01-0.14
				c-0.01,0-0.02,0-0.03,0c-0.3,0.32-0.66,0.52-1.08,0.61c-0.42,0.09-0.87,0.12-1.36,0.08c-0.36-0.03-0.71-0.1-1.06-0.22
				c-0.35-0.12-0.65-0.28-0.91-0.49c-0.26-0.21-0.46-0.46-0.62-0.75c-0.15-0.3-0.22-0.63-0.2-1.01c0.04-0.82,0.36-1.42,0.95-1.8
				c0.59-0.38,1.38-0.54,2.35-0.47c0.57,0.04,1.07,0.18,1.49,0.4c0.42,0.22,0.76,0.51,1.02,0.87c0.26,0.36,0.45,0.77,0.56,1.24
				c0.11,0.47,0.13,0.97,0.08,1.51c-0.06,0.58-0.19,1.08-0.39,1.51c-0.2,0.43-0.47,0.78-0.8,1.06c-0.33,0.28-0.71,0.47-1.14,0.58
				c-0.43,0.11-0.91,0.15-1.43,0.11c-0.36-0.03-0.66-0.07-0.91-0.13c-0.25-0.06-0.5-0.13-0.76-0.22c-0.15-0.05-0.3-0.11-0.45-0.19
				c-0.15-0.08-0.3-0.13-0.47-0.14c-0.05,0-0.1,0.01-0.15,0.03c-0.06,0.02-0.1,0.05-0.14,0.09c-0.06-0.03-0.12-0.05-0.17-0.08
				c0.28-0.49,0.56-0.98,0.84-1.47C493.46,280.23,493.51,280.26,493.57,280.29z M498.17,277.66c0.03-0.33-0.01-0.6-0.13-0.83
				c-0.11-0.22-0.27-0.41-0.47-0.56s-0.43-0.26-0.7-0.34c-0.26-0.08-0.53-0.12-0.79-0.14c-0.57-0.04-1.05,0.07-1.44,0.32
				c-0.39,0.26-0.6,0.63-0.63,1.12c-0.02,0.28,0.03,0.53,0.13,0.74c0.1,0.21,0.25,0.38,0.43,0.52c0.18,0.14,0.4,0.24,0.65,0.32
				c0.25,0.08,0.51,0.12,0.78,0.14c0.26,0.02,0.52,0,0.77-0.05c0.25-0.05,0.48-0.14,0.68-0.25c0.2-0.12,0.37-0.26,0.5-0.42
				C498.08,278.07,498.15,277.87,498.17,277.66z"/>
			<path class="st1" d="M501.64,275.28c-0.01,0.12,0,0.2,0.04,0.26c0.04,0.05,0.13,0.09,0.28,0.11c1.92,0.21,3.83,0.45,5.74,0.73
				c0.14,0.02,0.24,0.01,0.3-0.03c0.05-0.04,0.09-0.12,0.11-0.24c0.06,0.01,0.11,0.02,0.17,0.03c-0.05,0.37-0.11,0.74-0.16,1.11
				c-1.39,1.76-2.75,3.55-4.06,5.35c-0.02,0.04-0.05,0.08-0.08,0.11c-0.03,0.03-0.04,0.07-0.05,0.12c-0.01,0.08,0.07,0.13,0.23,0.15
				c-0.01,0.05-0.01,0.11-0.02,0.16c-0.63-0.08-1.26-0.16-1.89-0.23c0.01-0.05,0.01-0.11,0.02-0.16c0.17,0.02,0.3,0,0.38-0.07
				c0.08-0.07,0.18-0.19,0.3-0.36c1.22-1.71,2.47-3.4,3.76-5.08c-1.61-0.22-3.22-0.42-4.83-0.6c-0.14-0.02-0.24,0-0.29,0.05
				c-0.05,0.05-0.09,0.13-0.1,0.25c-0.06-0.01-0.11-0.01-0.17-0.02c0.06-0.55,0.12-1.09,0.17-1.64
				C501.52,275.27,501.58,275.27,501.64,275.28z"/>
			<path class="st1" d="M516.9,281.63c-0.11,0.51-0.29,0.96-0.55,1.36c-0.26,0.4-0.58,0.73-0.95,0.99
				c-0.38,0.26-0.81,0.43-1.29,0.52c-0.49,0.09-1.01,0.08-1.59-0.03c-0.58-0.11-1.08-0.28-1.5-0.54c-0.42-0.25-0.76-0.57-1.02-0.94
				c-0.26-0.37-0.44-0.79-0.54-1.26c-0.1-0.47-0.11-0.96-0.03-1.47c0.08-0.51,0.24-0.97,0.49-1.39c0.24-0.41,0.55-0.75,0.93-1.02
				c0.38-0.27,0.82-0.46,1.32-0.56c0.5-0.11,1.06-0.11,1.66,0c0.6,0.11,1.12,0.31,1.56,0.58c0.43,0.28,0.78,0.61,1.04,1
				c0.26,0.39,0.43,0.81,0.51,1.29C517.02,280.63,517.01,281.12,516.9,281.63z M515.77,281.4c0.17-0.85,0.09-1.56-0.24-2.15
				c-0.33-0.58-0.95-0.96-1.85-1.13c-0.9-0.16-1.61-0.03-2.13,0.4c-0.52,0.43-0.84,1.07-0.98,1.92c-0.14,0.85-0.04,1.56,0.29,2.14
				c0.33,0.57,0.93,0.93,1.81,1.09c0.87,0.16,1.56,0.03,2.08-0.38C515.25,282.87,515.6,282.24,515.77,281.4z"/>
		</g>
		<g>
			<polygon class="st1" points="476.58,290.21 477.24,291.55 478.72,291.77 477.65,292.81 477.91,294.28 476.58,293.59 
				475.26,294.28 475.51,292.81 474.44,291.77 475.92,291.55 			"/>
			<polygon class="st1" points="491.64,290.21 492.3,291.55 493.78,291.77 492.71,292.81 492.97,294.28 491.64,293.59 
				490.32,294.28 490.57,292.81 489.5,291.77 490.98,291.55 			"/>
			<polygon class="st1" points="484.07,286.55 485.02,288.49 487.16,288.8 485.61,290.3 485.98,292.43 484.07,291.43 482.16,292.43 
				482.52,290.3 480.98,288.8 483.11,288.49 			"/>
		</g>
		<g>
			<text transform="matrix(1 0 0 1 280.0165 309.3427)" class="st1 st5 st6">QUALITY</text>
		</g>
		<g>
			<text transform="matrix(1 0 0 1 350.8502 309.3427)" class="st1 st5 st6">APPAREL</text>
		</g>
	</g>
</g>
</svg>
