<?xml version="1.0" encoding="utf-8"?>
<!-- Generator: Adobe Illustrator 24.1.0, SVG Export Plug-In . SVG Version: 6.00 Build 0)  -->
<svg version="1.1" id="Layer_1" xmlns="http://www.w3.org/2000/svg" xmlns:xlink="http://www.w3.org/1999/xlink" x="0px" y="0px"
	 viewBox="0 0 200 200" style="enable-background:new 0 0 200 200;" xml:space="preserve">
<style type="text/css">
	.st0{fill-rule:evenodd;clip-rule:evenodd;fill:#FFFFFF;}
</style>
<g>
	<path class="st0" d="M102.18,10.69c1.06,0.09,2.12,0.19,3.19,0.26c10.91,0.79,21.36,3.42,31.2,8.18
		c23.05,11.14,38.71,28.88,46.98,53.11c0.75,2.21,1.33,4.48,2.01,6.79c-1.15-0.28-1.39-0.51-1.65-1.51
		c-3.96-14.84-11.28-27.79-21.97-38.81c-11.4-11.75-25.03-19.75-40.86-23.97c-5.61-1.49-11.31-2.4-17.11-2.73
		c-15.74-0.89-30.68,2.14-44.78,9.2c-8.17,4.09-15.51,9.37-22.04,15.76C30.14,43.82,24.43,51.61,20,60.34
		c-2.84,5.6-5.04,11.45-6.62,17.53c-0.24,0.94-0.42,1.13-1.56,1.49c0.28-1.09,0.51-2.12,0.8-3.14C17,60.6,24.97,47.09,36.63,35.82
		c12.41-12,27.12-19.76,44.03-23.3c4.58-0.96,9.21-1.52,13.89-1.72c0.22-0.01,0.44-0.07,0.67-0.1h6.96V10.69z"/>
	<path class="st0" d="M183.35,105.12c-1.05-0.3-2.07-0.59-3.09-0.88c0.26-1.06,0.52-2.11,0.78-3.18c1.02,0.29,2.05,0.57,3.09,0.87
		C183.87,103,183.61,104.06,183.35,105.12 M171.17,101.65c-1-0.29-1.97-0.56-2.97-0.84c0.28-1.03,0.53-2.08,0.79-3.13
		c0.97,0.27,1.95,0.55,2.97,0.83C171.7,99.57,171.42,100.6,171.17,101.65z M159.43,98.3c-0.97-0.28-1.94-0.55-2.89-0.82
		c0.25-1.02,0.51-2.05,0.76-3.08c0.95,0.27,1.92,0.54,2.89,0.81C159.94,96.25,159.68,97.28,159.43,98.3z M168.99,97.68
		c-1.02-0.29-1.99-0.56-2.97-0.83c0.25-1.03,0.5-2.06,0.76-3.11c0.97,0.27,1.97,0.54,2.97,0.82
		C169.5,95.61,169.25,96.65,168.99,97.68z M177.25,103.38c-1.05-0.3-2.04-0.58-3.04-0.86c0.26-1.05,0.51-2.1,0.77-3.16
		c1,0.28,2.02,0.57,3.04,0.85C177.76,101.27,177.51,102.33,177.25,103.38z M165.26,99.97c-1-0.28-1.97-0.56-2.92-0.83
		c0.25-1.03,0.51-2.06,0.76-3.1c0.95,0.27,1.94,0.54,2.92,0.82C165.77,97.89,165.52,98.93,165.26,99.97z M174.98,99.36
		c-1.02-0.29-2.02-0.57-3.02-0.85c0.25-1.03,0.51-2.08,0.77-3.13c1,0.28,2,0.55,3.02,0.83C175.49,97.27,175.23,98.32,174.98,99.36z
		 M155.76,97.26l0.2,2.51c0.19-0.76,0.38-1.52,0.59-2.29L155.76,97.26z M157.89,92.02c-0.87-0.09-1.72-0.16-2.56-0.24l0.17,2.12
		c0.6,0.17,1.2,0.34,1.81,0.51C157.49,93.61,157.69,92.82,157.89,92.02z M163.55,92.84c-0.88-0.16-1.76-0.31-2.64-0.45
		c-0.25,0.94-0.48,1.88-0.71,2.81c0.97,0.27,1.92,0.54,2.92,0.82c0.25-1.02,0.5-2.05,0.76-3.1L163.55,92.84z M181.66,98.55
		c-0.97-0.43-1.95-0.85-2.93-1.24c-0.24,0.98-0.48,1.94-0.71,2.9c1,0.28,1.99,0.56,3.02,0.85
		C181.24,100.22,181.45,99.39,181.66,98.55z M187.56,101.42c-0.97-0.51-1.95-1.01-2.94-1.49c-0.16,0.67-0.32,1.33-0.49,2
		c1.02,0.29,2.05,0.57,3.09,0.87L187.56,101.42z M188.67,106.63c0.08-1.12,0.16-2.25,0.24-3.37l-1.69-0.47
		c-0.26,1.08-0.52,2.14-0.78,3.21C187.17,106.21,187.91,106.42,188.67,106.63z M176.9,104.7c1,0.36,1.98,0.75,2.97,1.15
		c0.13-0.53,0.26-1.07,0.39-1.61c-1.02-0.29-2.02-0.58-3.02-0.86C177.13,103.82,177.02,104.26,176.9,104.7z M170.88,102.81
		c1.02,0.26,2.03,0.56,3.04,0.87l0.29-1.17c-1.02-0.29-2.02-0.58-3.04-0.86L170.88,102.81z M164.85,101.61
		c1.01,0.14,2.02,0.31,3.03,0.52l0.32-1.32c-1-0.29-1.97-0.56-2.94-0.84C165.13,100.52,164.99,101.06,164.85,101.61z M158.69,101.32
		c1.04-0.06,2.07-0.05,3.1,0c0.19-0.72,0.38-1.45,0.56-2.18c-1-0.28-1.94-0.55-2.91-0.83C159.18,99.32,158.94,100.32,158.69,101.32z
		 M182.86,107.14l0.49-2.02c1.02,0.29,2.04,0.58,3.09,0.88c-0.21,0.85-0.41,1.7-0.62,2.54l-0.43-0.21
		C184.55,107.92,183.71,107.53,182.86,107.14z"/>
	<path class="st0" d="M19.13,126.56c1.68-0.56,3.34-1.15,5.04-1.66c4.99-1.5,10.07-2.32,15.29-2.1c2.84,0.12,5.6,0.67,8.34,1.37
		c0.24,0.06,0.49,0.32,0.6,0.56c2.89,5.78,6.62,10.95,11.28,15.44c7.91,7.63,17.24,12.57,28.02,14.77
		c5.08,1.03,10.21,1.37,15.37,0.92c13.21-1.13,24.65-6.27,34.28-15.38c4.43-4.19,8.03-9.01,10.9-14.38c0.11-0.21,0.35-0.44,0.57-0.5
		c3.12-0.75,6.2-1.68,9.42-1.92c3.87-0.29,7.7-0.01,11.48,0.81c2.84,0.62,5.64,1.42,8.46,2.15c-8.56,27.39-36.24,55.5-75.75,57.21
		C60.42,185.66,28.94,157.32,19.13,126.56 M158.97,143.01c-0.12-0.09-0.24-0.18-0.32-0.23c-0.18,0.32-0.34,0.6-0.5,0.88
		c-0.29-0.19-0.6-0.36-0.87-0.57c-0.14-0.11-0.25-0.27-0.35-0.42c-1.03-1.48-2.06-2.95-3.07-4.44c-1.35-2-2.67-4.02-4.04-6
		c-0.36-0.52-0.85-0.96-1.38-1.55c-0.26,1.27-0.48,2.34-0.69,3.41c0.06,0.03,0.12,0.05,0.18,0.08c0.08-0.1,0.19-0.19,0.25-0.3
		c0.39-0.84,0.55-0.87,1.11-0.09c0.69,0.96,1.34,1.95,2,2.93c1.64,2.41,3.25,4.83,4.92,7.22c0.37,0.53,0.89,0.98,1.42,1.36
		c0.54,0.39,1.05,0.19,1.19-0.47c0.13-0.59,0.1-1.21,0.14-1.82c0.93,0.49,1.69,0.18,2.04-0.9c0.37-1.13,0.17-2.26-0.22-3.35
		c-0.49-1.38-1.5-2.07-2.93-2.17c-0.52-0.04-1.05-0.05-1.56-0.14c-1.25-0.23-1.86-1.72-1.15-2.77c0.34-0.5,0.6-0.52,1.03-0.08
		c0.14,0.15,0.32,0.28,0.48,0.41c0.06-0.05,0.12-0.11,0.18-0.16c-0.46-0.8-0.92-1.61-1.4-2.45c-1.37,1.71-1.43,3.65-0.25,5.48
		c0.5,0.77,1.2,1.16,2.1,1.22c0.59,0.04,1.18,0.07,1.77,0.14c0.87,0.11,1.43,0.68,1.57,1.56c0.19,1.23-0.19,1.84-1.63,2.62v0.6
		H158.97z M57.63,157.2c-0.24,0.07-0.48,0.15-0.71,0.22c-1.64,0.54-3.31,0.82-5.04,0.49c-2.53-0.49-4.63-2.3-5.07-4.5
		c-0.48-2.36,0.35-4.51,1.11-6.63c3.01,1.58,5.96,3.11,8.89,4.67c0.27,0.15,0.47,0.44,0.7,0.67c-0.26,0.2-0.5,0.46-0.79,0.58
		c-1.18,0.48-2.38,0.91-3.56,1.38c-0.49,0.2-0.95,0.46-1.54,0.74c0.89,0.55,1.64,1.03,2.4,1.48c0.09,0.05,0.24,0.02,0.36,0.02
		c-0.01-0.12,0.02-0.26-0.03-0.35c-0.56-0.83-0.57-0.85,0.37-1.22c1.35-0.54,2.72-1.04,4.07-1.59c0.38-0.15,0.71-0.42,1.1-0.66
		c-4.01-2.09-7.89-4.12-11.81-6.17c0.14-0.38,0.23-0.61,0.31-0.84c0.41-1.26,0.86-2.5,1.19-3.77c0.17-0.64,0.26-1.37,0.14-2.01
		c-0.47-2.47-3.78-4.07-6.13-3.02c-2.22,1-2.91,3.31-1.56,5.33c0.31,0.47,0.69,0.92,1.12,1.28c0.99,0.8,2.02,1.55,3.07,2.28
		c0.33,0.23,0.43,0.41,0.29,0.82c-0.39,1.14-0.74,2.29-1.04,3.46c-0.74,2.88,0.24,5.15,2.54,6.9c1.91,1.45,4.14,1.81,6.47,1.73
		c0.25-0.01,0.51,0,0.88,0c-0.51,0.5-0.96,0.86-1.31,1.3c-0.87,1.08-0.65,2.04,0.67,2.51c2.06,0.74,4.12,0.56,6.12-0.3
		c0.36-0.16,0.62-0.56,0.93-0.85c-0.05-0.06-0.1-0.12-0.15-0.17c-0.3,0.15-0.59,0.3-0.9,0.44c-1.19,0.55-2.43,0.93-3.76,0.83
		c-0.72-0.06-1.47-0.23-1.74-0.99c-0.24-0.68,0.29-1.16,0.73-1.58c1.32-1.28,2.89-2.16,4.71-2.47c0.83-0.14,1.72-0.08,2.55,0.06
		c0.34,0.06,0.84,0.57,0.84,0.88c0.01,0.55-0.57,0.77-1.09,0.83c-1.08,0.13-2.09-0.08-2.96-0.78c-0.15-0.12-0.31-0.24-0.51-0.39
		c-0.16,0.58,0.12,0.85,0.51,1.03c1.16,0.53,2.37,0.81,3.65,0.67c0.34-0.04,0.71-0.08,0.99-0.24c0.42-0.25,0.78-0.62,1.16-0.94
		c-0.32-0.36-0.57-0.84-0.97-1.04c-0.62-0.31-1.32-0.49-2-0.62c-0.69-0.13-1.41-0.12-2.35-0.19c0.24-0.14,0.33-0.18,0.4-0.23
		c2.46-2.13,2.92-4.4,1.47-7.31c-0.87-1.73-2.17-3.14-3.47-4.55c-1.51-1.62-3.02-3.22-4.47-4.89c-0.69-0.79-0.61-0.96,0.23-1.61
		c0.1-0.08,0.14-0.24,0.21-0.36c-0.13-0.02-0.3-0.09-0.4-0.05c-0.8,0.38-1.59,0.78-2.49,1.24c0.44,0.67,0.77,1.36,1.27,1.9
		c1.52,1.66,3.11,3.27,4.67,4.9c1.29,1.35,2.57,2.72,3.29,4.49c0.96,2.38,0.44,4.39-1.59,5.95c-0.61,0.47-1.29,0.83-1.94,1.24H57.63
		z M140.58,153.03c0.04,0.11,0.07,0.22,0.11,0.31c0.82,1.82,1.17,3.74,1.05,5.72c-0.05,0.83-0.18,1.68-0.41,2.48
		c-0.27,0.92-0.96,1.01-1.55,0.25c-0.19-0.25-0.36-0.53-0.51-0.81c-0.69-1.39-0.68-2.87-0.49-4.35c0.34-2.64,1.67-4.68,3.92-6.12
		c0.17-0.11,0.35-0.38,0.33-0.55c-0.02-0.24-0.18-0.54-0.38-0.65c-0.11-0.06-0.44,0.15-0.62,0.31c-1.92,1.75-3.03,3.96-3.62,6.45
		c-0.47,2-0.56,4.01,0.14,5.99c0.1,0.27,0.35,0.48,0.52,0.73c0.08,0.1,0.15,0.21,0.23,0.31c-0.14-0.01-0.29-0.02-0.47-0.03
		c-0.26,0.81-0.88,1.14-1.74,1.2c-2.86,0.19-5.72,0.41-8.59,0.61c-2.17,0.15-4.26,0.52-5.94,2.27c0.27-1.13,0.53-2.14,0.74-3.16
		c0.09-0.44,0.32-0.62,0.73-0.75c1.96-0.6,3.93-1.16,5.84-1.88c2.89-1.08,4.53-3.27,5.08-6.27c0.13-0.71,0.13-1.47,0.03-2.18
		c-0.35-2.35-2.28-3.44-4.56-2.6c-2.19,0.81-3.67,2.4-4.73,4.42c-1.08,2.08-1.72,4.3-2.22,6.58c-0.08,0.38-0.2,0.66-0.63,0.85
		c-3.24,1.42-4.36,4.72-2.74,7.9c1.24,2.43,3.59,3.15,5.98,1.84c1.25-0.69,2.14-1.7,2.76-3c-0.22,0.01-0.4,0.08-0.52,0.21
		c-0.48,0.49-0.88,1.06-1.41,1.47c-2.16,1.66-5.96,1.31-6.87-2c-0.59-2.16,0.71-4.49,2.8-4.83c-0.03,0.19-0.03,0.37-0.08,0.54
		c-0.46,1.74-0.93,3.47-1.38,5.21c-0.06,0.21-0.01,0.45-0.01,0.68c0.08,0,0.15,0,0.23,0c0.15-0.43,0.32-0.85,0.45-1.28
		c0.36-1.17,1.13-1.84,2.35-1.99c1.45-0.17,2.89-0.38,4.34-0.49c3.02-0.22,6.05-0.39,9.07-0.56c0.45-0.03,0.69-0.15,0.8-0.64
		c0.13-0.61,0.37-1.19,0.57-1.81c0.95,0.72,1.48,0.67,1.94-0.34c0.44-0.96,0.75-2,0.99-3.03c0.22-0.91,0.26-1.87,0.38-2.8
		c0.45,1.21,0.9,2.41,1.38,3.67c1.07-1.07,1.88-2.82,1.59-3.54c-0.15,0.29-0.23,0.51-0.36,0.7c-0.14,0.19-0.33,0.34-0.49,0.51
		c-0.15-0.18-0.33-0.35-0.43-0.56c-0.15-0.31-0.24-0.64-0.34-0.97c-0.18-0.57-0.34-1.13-0.53-1.77c-0.31,0.37-0.55,0.66-0.83,0.99
		C142.09,153.85,141.64,153.09,140.58,153.03z M102.23,167.46c0.03,0.06,0.05,0.12,0.08,0.17c-0.39,0.13-0.78,0.31-1.18,0.37
		c-0.83,0.13-1.67,0.18-2.51,0.3c-1.93,0.27-3.76,0.81-5.17,2.24c-2.21,2.23-1.36,5.56,1.65,6.41c2.3,0.66,4.51,0.19,6.64-0.77
		c1.91-0.86,3.56-2.11,5.06-3.63c1.63,1.39,3.23,2.76,4.87,4.16c0.78-0.94,1.54-1.84,2.3-2.75c-0.07-0.08-0.15-0.15-0.22-0.22
		c-0.21,0.2-0.44,0.4-0.64,0.61c-0.4,0.41-0.83,0.69-1.37,0.27c-1.33-1.02-2.65-2.06-3.96-3.08c0.41-0.76,0.87-1.41,1.11-2.13
		c0.3-0.9,0.81-1.24,1.75-1.41c2.05-0.38,3.46-1.75,4.5-3.49c0.41-0.69,0.19-1.22-0.51-1.51c0.05,2.17-0.58,2.95-2.74,3.41
		c-0.2,0.04-0.4,0.1-0.6,0.11c-2.7,0.15-5.41,0.35-8.11,0.42c-1.14,0.03-2.32-0.14-3.44-0.4c-0.97-0.22-1.61-0.91-1.69-1.99
		c-0.08-1.05,0.45-1.74,1.29-2.22c1.1-0.63,2.31-0.8,3.56-0.72c0.43,0.03,0.67,0.27,0.67,0.7c0,0.4-0.04,0.8-0.07,1.21
		c0.36-0.11,0.96-1.67,1.24-3.17c-2.83-0.1-5.27,0.81-7.15,2.92c-1.49,1.68-0.76,3.59,1.47,3.93
		C100.1,167.39,101.17,167.39,102.23,167.46z M81.38,166.5c-1.76,2.35-3.47,4.65-5.19,6.95c1.04,0.14,1.72-0.29,2.37-1.09
		c1.75-2.15,3.93-3.79,6.48-4.91c0.46-0.2,0.96-0.3,1.44-0.44c0.06,0.08,0.13,0.16,0.19,0.24c-0.2,0.32-0.38,0.66-0.62,0.95
		c-1.44,1.79-2.89,3.57-4.32,5.38c-0.27,0.34-0.42,0.77-0.64,1.19c1.43,0.25,3.43-0.21,3.52-0.81c-0.1,0.02-0.18,0.06-0.26,0.05
		c-0.34-0.03-0.69-0.07-1.03-0.1c0.13-0.3,0.2-0.65,0.4-0.89c0.99-1.2,2.02-2.35,3.01-3.55c0.6-0.72,1.19-1.44,1.71-2.22
		c0.4-0.59,0.17-1-0.53-1.09c-0.2-0.03-0.42-0.03-0.61,0.04c-1.07,0.38-2.16,0.72-3.18,1.21c-1.07,0.52-2.06,1.19-3.23,1.87
		c1.01-1.45,2.17-2.62,2.75-4.29c-0.72,0.08-1.28,0.15-1.8,0.21c-0.1,0.31-0.19,0.59-0.26,0.83c-0.29-0.15-0.48-0.27-0.69-0.34
		c-0.22-0.07-0.46-0.08-0.7-0.11c0-0.07,0.01-0.13,0.01-0.2c0.38-0.06,0.76-0.13,1.2-0.2c-0.11-0.09-0.15-0.14-0.21-0.17
		c-0.21-0.09-0.42-0.18-0.63-0.25c-4.26-1.29-8.05-0.26-11.46,2.43c-0.55,0.43-0.98,1.08-1.31,1.72c-0.49,0.95-0.07,1.65,0.99,1.69
		c0.74,0.02,1.51-0.08,2.22-0.28c1.17-0.32,2.31-0.77,3.56-1.2c-0.53,0.65-0.99,1.27-1.49,1.84c-1.29,1.48-2.64,2.9-4.33,3.93
		c-1.95,1.19-4.26,1.28-5.7-0.93c-0.02-0.03-0.08-0.04-0.12-0.06c-0.51,0.62-0.53,1.2,0.11,1.62c0.48,0.31,1.07,0.55,1.63,0.61
		c2.5,0.27,4.8-0.4,6.68-2.02c1.7-1.46,3.2-3.16,4.79-4.76c0.05-0.05,0.06-0.15,0.1-0.26c-0.37-0.11-0.7-0.21-1.09-0.32
		c2.15-1.79,2.4-2.2,1.91-3.04c-1.38,1.81-3.18,3.06-5.27,3.88c-0.52,0.2-1.09,0.33-1.65,0.37c-0.79,0.06-1.13-0.39-0.85-1.12
		c0.21-0.52,0.5-1.04,0.89-1.43C73.26,164.31,77.09,163.92,81.38,166.5z M147.09,158.75c0.45-0.62,0.85-1.06,1.14-1.57
		c1.64-2.83,2.1-5.88,1.64-9.08c-0.17-1.16-0.47-2.28-1.26-3.2c-0.63-0.74-1.32-0.78-1.86,0.01c-0.46,0.66-0.77,1.43-1.06,2.19
		c-0.2,0.55-0.28,1.15-0.35,1.73c-0.08,0.58-0.08,1.16-0.13,1.88c-1.4-3.18-2.51-6.33-4.34-9.22c-0.87,1.79-1.33,3.25-1.14,3.54
		c0.92-1.1,0.96-1.1,1.63,0.25c0.04,0.08,0.08,0.16,0.12,0.25c1.31,3.03,2.62,6.05,3.92,9.08
		C145.96,155.93,146.48,157.26,147.09,158.75z M67.1,168.24c0.01-0.06,0.02-0.11,0.04-0.17c-0.15-0.05-0.3-0.1-0.45-0.17
		c-0.2-0.08-0.55-0.17-0.56-0.27c-0.02-0.21,0.13-0.45,0.26-0.64c0.11-0.17,0.29-0.29,0.44-0.43c1.6-1.42,3.22-2.83,4.8-4.27
		c0.39-0.35,0.68-0.81,1.09-1.32c-1.01-0.07-1.85-0.13-2.76-0.19c0.13-0.17,0.22-0.28,0.3-0.38c-1.86-1.6-3.9-1.38-5.71-0.21
		c-0.61,0.39-0.89,1.01-0.98,1.73c-0.08,0.63-0.13,1.27-0.26,1.89c-0.18,0.91-0.8,1.41-1.72,1.48c-1.42,0.11-2.13-0.55-2.53-2.29
		c-0.32,0.38-0.71,0.78-0.78,1.23c-0.09,0.59,0.38,0.98,0.89,1.25c1.32,0.68,3.95,0.3,4.92-0.81c0.41-0.47,0.66-1.13,0.84-1.74
		c0.18-0.6,0.15-1.27,0.29-1.88c0.3-1.24,1.94-1.73,2.91-0.89c0.35,0.3,0.39,0.59,0.01,0.9c-0.19,0.15-0.35,0.33-0.52,0.49
		c0.06,0.08,0.12,0.16,0.18,0.24c0.4-0.27,0.8-0.54,1.2-0.82c0.09-0.07,0.17-0.16,0.27-0.2c0.04-0.02,0.19,0.1,0.19,0.11
		c-0.25,0.45,0.19,0.25,0.32,0.32c0.17,0.1,0.49,0.15,0.5,0.25c0.02,0.19-0.11,0.42-0.23,0.58c-0.15,0.2-0.35,0.36-0.54,0.52
		c-1.35,1.16-2.73,2.28-4.03,3.49c-0.64,0.59-1.14,1.32-1.71,1.98c0.04,0.07,0.09,0.14,0.13,0.21h3.2V168.24z M150.77,145.41
		c0.58,0.18,0.87-0.1,1.05-0.49c0.54-1.18,0.85-2.41,0.66-3.71c-0.08-0.53-0.25-1.07-0.49-1.55c-0.36-0.69-0.94-0.73-1.39-0.11
		c-0.28,0.38-0.51,0.82-0.66,1.26c-0.44,1.34-0.52,2.72-0.29,4.12c0.38,2.29,1.24,4.34,3.05,5.87c1.13,0.95,2.12,0.74,2.6-0.65
		c0.71-2.03,0.55-4.08-0.3-6.06c-0.16-0.37-0.55-0.63-0.83-0.95c-0.06,0.05-0.13,0.1-0.19,0.15c0.12,0.26,0.25,0.51,0.37,0.77
		c0.59,1.23,0.98,2.51,0.89,3.88c-0.05,0.7-0.22,1.41-0.93,1.71c-0.68,0.28-1.17-0.22-1.6-0.66c-1.43-1.46-2.33-3.21-2.61-5.22
		c-0.1-0.72,0.02-1.49,0.2-2.2c0.07-0.3,0.58-0.73,0.83-0.69c0.29,0.04,0.55,0.51,0.78,0.82c0.08,0.11,0.05,0.31,0.07,0.47
		C152.1,143.42,151.65,144.48,150.77,145.41z M74.15,159.91c0.35-0.41,0.63-0.66,0.79-0.98c0.03-0.07-0.46-0.56-0.58-0.52
		c-0.33,0.12-0.59,0.43-0.88,0.67C73.65,159.31,73.83,159.53,74.15,159.91z"/>
	<path class="st0" d="M18.33,76.04c7.53-27.63,34.31-56.46,73.22-59.69c43.52-3.6,77.67,25.54,87.49,59.51
		c-0.22-0.08-0.41-0.13-0.58-0.21c-6.95-3.13-14.16-5.4-21.68-6.65c-3.83-0.64-7.69-0.89-11.57-0.99c-0.4-0.01-0.65-0.12-0.89-0.45
		c-8.99-12.33-20.93-20.17-35.97-22.72c-17.8-3.03-33.56,1.68-47.16,13.57c-2.86,2.5-5.35,5.35-7.63,8.38
		c-0.2,0.26-0.61,0.5-0.93,0.51c-11.07,0.27-21.55,3.02-31.62,7.5C20.13,75.2,19.24,75.62,18.33,76.04 M114.74,35.35
		c-0.41-0.21-1.02-0.21-0.9-0.96c0.32-1.93,0.62-3.87,0.9-5.8c0.07-0.45,0.26-0.67,0.71-0.63c0.5,0.04,0.57-0.23,0.5-0.68
		c-0.95-0.15-1.88-0.32-2.83-0.42c-0.21-0.02-0.54,0.18-0.66,0.37c-0.41,0.68-0.75,1.41-1.11,2.11c-0.64,1.24-1.29,2.48-2.01,3.86
		c-0.08-0.39-0.13-0.61-0.17-0.83c-0.33-1.88-0.65-3.77-1.01-5.65c-0.05-0.26-0.27-0.63-0.47-0.68c-0.89-0.2-1.79-0.32-2.7-0.43
		c-0.15-0.02-0.32,0.14-0.48,0.21c0.1,0.16,0.17,0.42,0.31,0.47c0.52,0.18,0.62,0.48,0.53,1c-0.31,1.84-0.59,3.69-0.84,5.54
		c-0.07,0.49-0.22,0.77-0.75,0.74c-0.45-0.03-0.54,0.22-0.45,0.67c0.97,0.15,1.95,0.29,2.93,0.44c0.05-0.06,0.11-0.12,0.16-0.18
		c-0.13-0.19-0.22-0.49-0.4-0.55c-0.51-0.17-0.59-0.5-0.52-0.95c0.28-1.81,0.56-3.62,0.83-5.44c0.13,0.21,0.19,0.42,0.23,0.64
		c0.39,2.08,0.8,4.16,1.16,6.24c0.09,0.51,0.4,0.56,0.76,0.58c0.39,0.02,0.82,0.3,1.11-0.3c0.5-1.07,1.09-2.1,1.64-3.15
		c0.55-1.03,1.1-2.06,1.65-3.09c-0.17,1.7-0.42,3.37-0.68,5.03c-0.17,1.12-0.18,1.12-1.42,1.34c0.22,0.25,0.35,0.53,0.52,0.57
		c0.96,0.19,1.93,0.3,2.9,0.46C114.65,35.98,114.82,35.83,114.74,35.35z M143.43,51.7c0.45,0.49,0.82,0.92,1.21,1.32
		c1.14,1.18,2.23,2.41,3.45,3.5c0.97,0.86,1.97,0.74,2.97-0.08c0.91-0.76,1.05-1.53,0.5-2.74c-0.03-0.07-0.06-0.15-0.09-0.23
		c0.48,0.06,0.94,0.21,1.36,0.14c1.49-0.24,2.2-1.94,1.23-3.15c-1.28-1.6-2.73-3.06-4.11-4.57c-0.02-0.03-0.08-0.02-0.17-0.04
		c-0.12,0.12-0.25,0.26-0.37,0.39c0.52,0.91,0.52,0.91-0.25,1.63c-1.24,1.15-2.49,2.28-3.7,3.45c-0.5,0.49-0.94,0.6-1.45,0.07
		c-0.02-0.03-0.08-0.02-0.16-0.03C143.73,51.45,143.6,51.56,143.43,51.7z M51.95,48.62c0.05-0.21,0.07-0.3,0.09-0.38
		c0.27-1.04-0.01-1.82-0.9-2.44c-0.74-0.52-1.52-0.48-2.4,0.15c-0.24,0.17-0.48,0.36-0.69,0.56c-1.23,1.22-2.45,2.45-3.67,3.68
		c-0.04,0.04-0.06,0.11-0.1,0.2c0.16,0.13,0.31,0.26,0.45,0.38c0.83-0.57,0.83-0.56,1.52,0.12c1.28,1.27,2.55,2.54,3.84,3.79
		c0.39,0.37,0.45,0.71,0.1,1.12c-0.07,0.08-0.11,0.18-0.19,0.3c0.19,0.14,0.34,0.26,0.43,0.33c1-0.96,1.96-1.88,2.99-2.87
		c-0.17-0.18-0.3-0.31-0.44-0.46c-0.31,0.22-0.49,0.43-0.71,0.48c-0.24,0.06-0.61,0.06-0.77-0.09c-0.7-0.6-1.36-1.27-2.1-1.98
		c0.52-0.48,0.96-0.88,1.38-1.29c0.51-0.49,1.05-0.54,1.6-0.11c0.45,0.35,0.85,0.75,1.27,1.14c0.82,0.76,1.65,0.66,2.46-0.3
		c0.62-0.74,0.48-1.44-0.57-2.21c-0.03,0.27-0.15,0.52-0.07,0.65c0.17,0.28,0.57,0.53,0.18,0.84c-0.11,0.09-0.55-0.2-0.81-0.36
		c-0.17-0.1-0.29-0.28-0.44-0.43C53.75,48.8,53.04,48.31,51.95,48.62z M128.89,31.68c-0.09,0.04-0.18,0.08-0.28,0.12
		c0.06,0.22,0.04,0.54,0.19,0.65c0.43,0.34,0.44,0.66,0.19,1.12c-0.88,1.67-1.75,3.34-2.6,5.03c-0.2,0.4-0.45,0.63-0.91,0.44
		c-0.46-0.19-0.61,0.02-0.65,0.53c1.74,0.84,3.46,1.77,5.26,2.52c1.53,0.63,2.81,0.2,3.79-1.13c0.54-0.75,1.02-1.57,1.38-2.42
		c0.77-1.82,0.4-3.05-1.29-4.08C132.32,33.45,130.59,32.6,128.89,31.68z M73.67,39.5c1.46-0.51,2.91-0.99,4.33-1.54
		c0.67-0.26,1.32-0.61,1.92-1.01c0.65-0.44,1.02-1.11,1.07-1.9c0.12-1.82-0.44-3.46-1.53-4.91c-0.56-0.74-1.4-1.15-2.29-0.92
		c-2.17,0.56-4.3,1.26-6.42,1.9c0.05,0.51,0.12,0.79,0.59,0.67c0.49-0.12,0.73,0.12,0.89,0.59c0.57,1.7,1.14,3.41,1.79,5.08
		c0.27,0.69,0.21,1.12-0.5,1.41c-0.03,0.01-0.05,0.07-0.09,0.14C73.5,39.15,73.58,39.3,73.67,39.5z M136.17,44.82
		c0.64-0.9,1.26-1.76,1.87-2.61c1.3,0.85,1.3,0.85,0.89,2.4c0.16,0.1,0.32,0.21,0.52,0.34c0.75-0.96,1.49-1.88,2.25-2.85
		c-0.21-0.15-0.38-0.29-0.55-0.41c-1.18,1.01-1.44,0.99-2.58-0.21c0.52-0.73,1.05-1.46,1.61-2.26c0.82,0.59,1.61,1.12,2.35,1.71
		c0.43,0.34,0.49,0.86,0.34,1.38c-0.08,0.26-0.18,0.51-0.29,0.8c0.22,0.13,0.42,0.25,0.66,0.4c0.52-0.73,1.01-1.41,1.53-2.14
		c-2.14-1.53-4.25-3.03-6.39-4.56c-0.15,0.22-0.25,0.38-0.35,0.53c0.7,0.77,0.7,0.78,0.12,1.59c-0.97,1.35-1.93,2.71-2.9,4.06
		c-0.62,0.87-0.62,0.87-1.63,0.49c-0.09,0.15-0.19,0.32-0.31,0.5c2.14,1.52,4.23,3.01,6.35,4.53c0.74-0.88,1.45-1.71,2.18-2.57
		c-0.23-0.2-0.41-0.36-0.59-0.52C139.16,47.37,138.48,46.63,136.17,44.82z M53.59,43.25c0,2.4,2.41,5.1,4.55,5.1
		c2.26,0,4.83-2.41,4.87-4.55c0.04-2.3-2.46-5.07-4.58-5.08C56.11,38.72,53.58,41.08,53.59,43.25z M44.2,59.12
		c0.6-0.9,1.23-1.69,1.71-2.57c0.72-1.3,0.38-2.42-0.88-3.32c-1.17-0.83-2.22-0.79-3.21,0.36c-1.26,1.46-2.4,3.03-3.61,4.58
		c0.22,0.18,0.37,0.31,0.51,0.43c0.84-0.68,0.84-0.68,1.68-0.05c1.42,1.06,2.84,2.13,4.28,3.18c0.37,0.27,0.54,0.56,0.27,0.97
		c-0.29,0.45-0.05,0.59,0.36,0.71c0.81-1.09,1.61-2.16,2.44-3.27c-0.2-0.13-0.36-0.24-0.51-0.35c-0.94,0.9-0.94,0.9-1.94,0.15
		C44.95,59.67,44.58,59.4,44.2,59.12z M124.2,39.22c0.19-0.36,0.31-0.58-0.12-0.83c-0.21-0.12-0.39-0.49-0.41-0.76
		c-0.1-2.46-0.19-4.92-0.23-7.38c-0.01-0.57-0.29-0.71-0.7-0.8c-0.44-0.1-0.84-0.51-1.31,0.1c-1.43,1.83-2.95,3.59-4.41,5.4
		c-0.41,0.51-0.8,0.96-1.56,0.58c-0.08,0.25-0.14,0.43-0.22,0.67c1.03,0.35,2.02,0.67,3.02,1.01c0.09-0.25,0.15-0.41,0.21-0.6
		c-0.14-0.07-0.27-0.12-0.39-0.18c-0.27-0.14-0.76-0.09-0.63-0.6c0.15-0.58,0.85-1.04,1.27-0.9c0.99,0.33,1.98,0.67,2.95,1v1.64
		c-0.48-0.12-0.88-0.23-1.51-0.38c0.13,0.35,0.15,0.69,0.28,0.74C121.69,38.38,122.94,38.79,124.2,39.22z M66.36,34.08
		c0.04-0.06,0.08-0.12,0.12-0.18c0.44,0.07,1.14-0.02,1.28,0.22c0.84,1.4,1.6,2.86,2.25,4.36c0.2,0.47,0.15,1.23-0.11,1.67
		c-0.95,1.64-3,1.63-3.97,0.02c-0.73-1.23-1.36-2.52-2.06-3.77c-0.22-0.4-0.14-0.69,0.2-0.94c0.16-0.12,0.32-0.24,0.53-0.39
		c-0.12-0.2-0.23-0.37-0.34-0.56c-1.24,0.67-2.42,1.3-3.59,1.94c0,0.07-0.01,0.14-0.01,0.21c0.2,0.09,0.44,0.3,0.6,0.25
		c0.58-0.18,0.86,0.05,1.12,0.54c0.73,1.36,1.44,2.74,2.29,4.03c0.75,1.14,1.93,1.53,3.25,1.1c2.55-0.83,4.25-2.49,2.53-5.58
		c-0.53-0.95-0.99-1.95-1.56-2.88c-0.38-0.63-0.37-1.08,0.29-1.46c0.03-0.02,0.04-0.08,0.07-0.14c-0.08-0.14-0.16-0.3-0.28-0.51
		c-0.99,0.53-1.94,1.04-2.91,1.56C66.19,33.78,66.28,33.93,66.36,34.08z M91.95,34.2c0.19,0.21,0.34,0.51,0.48,0.5
		c1.16-0.05,2.32-0.15,3.47-0.26c0.13-0.01,0.25-0.19,0.37-0.3c-0.12-0.13-0.24-0.36-0.37-0.36c-0.77-0.01-0.96-0.45-0.96-1.11
		c0-0.36,0.01-0.74-0.07-1.09c-0.13-0.6,0.03-1.1,0.34-1.61c0.59-0.97,1.16-1.96,1.7-2.97c0.24-0.46,0.55-0.77,1.06-0.86
		c0.04-0.01,0.07-0.05,0.14-0.12c-0.02-0.16-0.05-0.35-0.08-0.58c-1.02,0.08-1.98,0.17-3,0.25c0.03,0.27,0.06,0.46,0.08,0.64
		c0.26,0,0.5-0.07,0.66,0.02c0.15,0.08,0.33,0.39,0.28,0.49c-0.5,1-1.05,1.98-1.63,3.04c-0.81-1.09-1.54-2.08-2.38-3.21
		c0.48-0.06,0.76-0.1,1.05-0.13c0.56-0.06,0.32-0.4,0.28-0.74c-1.44,0.12-2.84,0.23-4.27,0.34c0.03,0.27,0.06,0.46,0.08,0.66
		c0.05-0.04,0.11-0.09,0.16-0.13c0.35,0.27,0.76,0.5,1.05,0.83c0.58,0.67,1.05,1.44,1.66,2.09c0.8,0.85,1.1,1.82,1.1,2.97
		C93.14,33.77,93.19,33.77,91.95,34.2z M156.01,59.16c0.45-1.07,0.93-2.2,1.47-3.49c0.36,0.44,0.61,0.75,0.89,1.09
		c0.18-0.13,0.33-0.25,0.53-0.39c-0.84-1.18-1.64-2.32-2.59-3.66c-0.15,0.39-0.27,0.59-0.3,0.8c-0.05,0.37,0.02,0.77-0.09,1.11
		c-0.27,0.82-0.68,1.6-0.91,2.42c-0.33,1.16-1,1.97-2.03,2.6c-1.01,0.61-0.97,0.67-1.91-0.13c-0.14,0.12-0.28,0.24-0.44,0.38
		c0.8,1.14,1.58,2.23,2.38,3.36c0.2-0.16,0.35-0.27,0.49-0.39c-0.51-1.05-0.51-1.05,0.4-1.69c0.28-0.2,0.58-0.37,0.83-0.6
		c0.44-0.39,0.93-0.5,1.5-0.5c1.02,0.01,2.05,0.02,3.07-0.05c0.68-0.04,1.33-0.12,1.76,0.59c0.22-0.18,0.37-0.31,0.54-0.45
		c-0.59-0.83-1.16-1.63-1.75-2.46c-0.2,0.15-0.35,0.27-0.51,0.39c0.16,0.31,0.31,0.58,0.55,1.04h-3.88V59.16z M85.27,27.59
		c-0.08-0.22-0.14-0.41-0.21-0.6c-1.21,0.23-2.37,0.47-3.53,0.68c-0.52,0.1-0.55,0.35-0.3,0.78c0.77-0.19,1.06,0.18,1.19,0.89
		c0.3,1.7,0.62,3.4,1.01,5.08c0.17,0.73,0.01,1.14-0.7,1.32c-0.03,0.01-0.06,0.07-0.1,0.12c0.05,0.15,0.1,0.32,0.17,0.53
		c2.52-0.5,5-0.99,7.54-1.5c-0.13-1.16-0.26-2.23-0.38-3.35c-0.29,0.03-0.51,0.06-0.77,0.08c0,0.43,0.02,0.81,0,1.2
		c-0.05,0.75-0.39,1.33-1.14,1.53c-0.85,0.23-1.72,0.38-2.67,0.59c-0.43-2.2-0.85-4.34-1.24-6.48c-0.03-0.16,0.16-0.41,0.31-0.52
		C84.65,27.79,84.93,27.73,85.27,27.59z"/>
	<path class="st0" d="M149.51,101.22c-0.63,17.42-7.89,31.97-22.96,42.28c-6.44,4.41-13.64,7.01-21.4,7.84
		c-16.82,1.81-31.11-3.58-42.85-15.65c-7.68-7.9-12.28-17.46-13.8-28.34c-2.37-16.88,2.24-31.69,14.04-44.06
		c7.73-8.1,17.3-12.92,28.37-14.49c14.76-2.09,27.99,1.75,39.49,11.17c10.22,8.37,16.19,19.28,18.4,32.28
		c0.19,1.12,0.34,2.26,0.42,3.39C149.33,97.28,149.39,98.92,149.51,101.22 M49.01,99.7c0.29,2.71,0.44,5.72,0.96,8.67
		c1.94,10.91,6.74,20.42,14.87,27.99c13.59,12.66,29.53,17.03,47.55,12.13c21.12-5.75,35.45-25.3,35.75-47.41
		c0.09-6.89-1.21-13.54-3.79-19.94c-8.27-20.54-29.06-33.45-50.71-31.37c-6.36,0.61-12.43,2.27-18.01,5.37
		C58.3,64.78,49.98,79.86,49.01,99.7z"/>
	<path class="st0" d="M178.95,85.79c-1.05-0.3-2.07-0.59-3.09-0.88c0.26-1.06,0.52-2.11,0.78-3.18c1.02,0.29,2.05,0.57,3.09,0.87
		C179.47,83.66,179.21,84.72,178.95,85.79 M166.77,82.32c-1-0.28-1.97-0.56-2.97-0.85c0.28-1.03,0.53-2.07,0.79-3.13
		c0.97,0.27,1.94,0.55,2.97,0.83C167.3,80.23,167.02,81.27,166.77,82.32z M155.03,78.97c-0.97-0.28-1.94-0.55-2.89-0.82
		c0.25-1.02,0.51-2.05,0.76-3.08c0.95,0.27,1.92,0.54,2.89,0.81C155.54,76.92,155.28,77.94,155.03,78.97z M172.85,84.05
		c-1.05-0.3-2.04-0.58-3.04-0.86c0.26-1.05,0.51-2.1,0.77-3.16c1,0.28,2.02,0.57,3.04,0.85C173.36,81.94,173.1,82.99,172.85,84.05z
		 M160.86,80.63c-1-0.28-1.97-0.56-2.92-0.83c0.25-1.03,0.51-2.06,0.76-3.1c0.95,0.27,1.94,0.54,2.92,0.82
		C161.37,78.56,161.11,79.6,160.86,80.63z M150.62,77.71c0.35,0.76,0.69,1.51,1.04,2.26c0.15-0.61,0.31-1.22,0.48-1.83L150.62,77.71
		z M148.9,73.94l0.79,1.72l0.35-1.4C149.65,74.15,149.27,74.05,148.9,73.94z M153.35,73.25c-1-0.12-2-0.21-2.99-0.31
		c-0.11,0.44-0.22,0.88-0.33,1.32c0.95,0.27,1.9,0.53,2.87,0.8L153.35,73.25z M159.31,74.23c-0.98-0.2-1.97-0.39-2.97-0.55
		c-0.19,0.74-0.37,1.47-0.55,2.2c0.97,0.27,1.92,0.54,2.92,0.82C158.91,75.88,159.11,75.06,159.31,74.23z M165.24,75.69
		c-0.98-0.29-1.98-0.55-2.98-0.8c-0.22,0.88-0.43,1.75-0.64,2.62c0.97,0.27,1.94,0.55,2.97,0.83
		C164.81,77.47,165.03,76.59,165.24,75.69z M171.16,77.66c-0.98-0.37-1.97-0.72-2.97-1.05c-0.21,0.86-0.42,1.72-0.63,2.57
		c1,0.28,2,0.56,3.02,0.85C170.77,79.24,170.96,78.45,171.16,77.66z M177.04,80.11c-0.97-0.44-1.94-0.87-2.91-1.28
		c-0.17,0.69-0.34,1.37-0.5,2.05c1,0.28,1.99,0.56,3.02,0.85C176.77,81.18,176.9,80.65,177.04,80.11z M182.92,83.06
		c-0.97-0.53-1.95-1.04-2.93-1.53l-0.26,1.06c1.02,0.29,2.05,0.57,3.09,0.87L182.92,83.06z M185.87,84.72
		c-0.46-0.27-0.93-0.54-1.4-0.81l-1.65-0.46c-0.26,1.08-0.52,2.14-0.78,3.21c1.02,0.29,2.07,0.59,3.14,0.9L185.87,84.72z
		 M188.16,89.21c-0.03-0.28-0.06-0.56-0.09-0.83l-2.89-0.82c-0.26,1.08-0.52,2.15-0.78,3.21c1.05,0.3,2.09,0.6,3.13,0.91
		C187.76,90.87,187.96,90.04,188.16,89.21z M172.39,85.82c0.99,0.4,1.97,0.82,2.94,1.25c0.18-0.72,0.35-1.44,0.53-2.17
		c-1.02-0.29-2.02-0.58-3.02-0.86C172.69,84.64,172.54,85.23,172.39,85.82z M166.42,83.72c0.77,0.23,1.54,0.47,2.31,0.74
		c0.24,0.08,0.47,0.16,0.7,0.25c0.12-0.51,0.25-1.01,0.37-1.52c-1.02-0.29-2.02-0.58-3.04-0.87
		C166.65,82.79,166.54,83.26,166.42,83.72z M160.42,82.38c1.01,0.15,2.02,0.34,3.02,0.57l0.36-1.47c-1-0.29-1.97-0.56-2.94-0.84
		C160.72,81.22,160.57,81.8,160.42,82.38z M154.27,82.05c0.57-0.03,1.13-0.07,1.7-0.06c0.47,0.01,0.93,0.03,1.4,0.06
		c0.19-0.75,0.39-1.5,0.57-2.25c-1-0.28-1.94-0.55-2.91-0.83C154.78,80.01,154.52,81.04,154.27,82.05z M181.26,89.86l-0.41-0.12
		c-0.85-0.44-1.7-0.87-2.56-1.28c0.21-0.88,0.43-1.78,0.65-2.67c1.02,0.29,2.04,0.58,3.09,0.88
		C181.78,87.74,181.52,88.81,181.26,89.86z"/>
	<path class="st0" d="M183.92,123.07c-1.05-0.3-2.07-0.59-3.09-0.88c0.26-1.06,0.52-2.11,0.78-3.18c1.02,0.29,2.05,0.57,3.09,0.87
		C184.44,120.95,184.18,122.01,183.92,123.07 M171.74,119.6c-1-0.29-1.97-0.56-2.97-0.85c0.28-1.04,0.53-2.08,0.79-3.13
		c0.97,0.27,1.95,0.55,2.97,0.83C172.27,117.52,171.99,118.56,171.74,119.6z M160,116.26c-0.97-0.28-1.94-0.55-2.89-0.82
		c0.25-1.02,0.51-2.05,0.76-3.08c0.95,0.27,1.92,0.54,2.89,0.81C160.51,114.2,160.25,115.23,160,116.26z M181.61,119.01
		c-1.02-0.29-2.02-0.57-3.02-0.85c0.25-1.04,0.51-2.09,0.77-3.16c1,0.28,2.02,0.56,3.04,0.84
		C182.12,116.91,181.87,117.95,181.61,119.01z M169.56,115.63c-1.02-0.29-1.99-0.56-2.97-0.83c0.25-1.03,0.5-2.06,0.76-3.11
		c0.97,0.27,1.97,0.54,2.97,0.82C170.07,113.56,169.82,114.6,169.56,115.63z M156.33,118.5c-0.97-0.28-1.92-0.55-2.84-0.82
		c0.25-1.01,0.5-2.03,0.75-3.06c0.95,0.27,1.87,0.53,2.87,0.82C156.83,116.46,156.58,117.48,156.33,118.5z M177.82,121.33
		c-1.05-0.3-2.04-0.58-3.04-0.86c0.26-1.05,0.51-2.1,0.77-3.16c1,0.28,2.02,0.57,3.04,0.85
		C178.33,119.23,178.08,120.28,177.82,121.33z M165.83,117.92c-1-0.28-1.97-0.56-2.92-0.83c0.25-1.03,0.51-2.06,0.76-3.1
		c0.95,0.27,1.94,0.54,2.92,0.82C166.34,115.84,166.09,116.88,165.83,117.92z M175.55,117.31c-1.02-0.29-2.02-0.57-3.02-0.84
		c0.25-1.03,0.51-2.08,0.77-3.13c1,0.28,2,0.55,3.02,0.83C176.06,115.22,175.8,116.27,175.55,117.31z M158.4,110.18
		c-0.93-0.01-1.86-0.01-2.79-0.03l0,0c-0.08,0-0.19,0.03-0.28,0.09c-0.11,0.44-0.22,0.87-0.32,1.31c0.95,0.27,1.9,0.53,2.87,0.8
		L158.4,110.18z M162.5,110.35c-0.34-0.03-0.67-0.05-1.01-0.07c-0.26,0.97-0.5,1.93-0.73,2.89c0.97,0.27,1.92,0.54,2.92,0.82
		c0.25-1.02,0.5-2.05,0.76-3.1C163.79,110.71,163.14,110.53,162.5,110.35z M186.5,120.38l0.77-3.19c-0.6-0.17-1.19-0.33-1.79-0.49
		c-0.26,1.07-0.52,2.12-0.78,3.18L186.5,120.38z M177.78,121.47c1,0.32,1.99,0.65,2.98,1.01l0.07-0.29
		c-1.02-0.29-2.02-0.58-3.02-0.86L177.78,121.47z M171.68,119.84c1.03,0.22,2.05,0.47,3.07,0.75l0.03-0.12
		c-1.02-0.29-2.02-0.58-3.04-0.86L171.68,119.84z M165.6,118.85c1.02,0.11,2.03,0.24,3.05,0.41l0.12-0.5
		c-1-0.29-1.97-0.56-2.94-0.84C165.76,118.23,165.68,118.54,165.6,118.85z M159.42,118.64c1.04-0.04,2.07-0.04,3.11-0.01
		c0.13-0.51,0.27-1.03,0.39-1.55c-1-0.28-1.94-0.55-2.91-0.83C159.8,117.06,159.61,117.85,159.42,118.64z M154.78,111.49
		c-0.27,1.02-0.53,2.04-0.79,3.06l0.25,0.07c0.25-1.02,0.5-2.04,0.76-3.07L154.78,111.49z M183.79,123.63l0.14-0.56l1.8,0.51
		l-0.18,0.74c-0.32-0.12-0.56-0.21-0.79-0.3C184.43,123.89,184.11,123.76,183.79,123.63z"/>
	<path class="st0" d="M15.17,100.93c1.05-0.29,2.07-0.58,3.09-0.87c0.26,1.07,0.52,2.12,0.78,3.18c-1.02,0.29-2.04,0.58-3.09,0.88
		C15.69,103.06,15.43,102,15.17,100.93 M27.34,97.51c1.02-0.29,1.99-0.56,2.97-0.83c0.26,1.05,0.51,2.09,0.79,3.13
		c-1,0.28-1.97,0.56-2.97,0.84C27.88,99.61,27.6,98.57,27.34,97.51z M39.11,94.21c0.97-0.27,1.94-0.55,2.89-0.81
		c0.25,1.04,0.51,2.06,0.76,3.08c-0.95,0.27-1.92,0.55-2.89,0.82C39.62,96.28,39.37,95.25,39.11,94.21z M29.55,93.56
		c1-0.28,2-0.55,2.97-0.82c0.26,1.05,0.51,2.08,0.76,3.11c-0.97,0.27-1.94,0.55-2.97,0.83C30.06,95.65,29.8,94.61,29.55,93.56z
		 M21.28,99.21c1.02-0.29,2.04-0.57,3.04-0.85c0.26,1.06,0.51,2.11,0.77,3.16c-1,0.28-1.99,0.57-3.04,0.87
		C21.8,101.33,21.54,100.28,21.28,99.21z M33.28,95.85c0.97-0.27,1.97-0.55,2.92-0.82c0.26,1.04,0.51,2.07,0.76,3.1
		c-0.95,0.27-1.92,0.55-2.92,0.83C33.79,97.93,33.53,96.9,33.28,95.85z M23.56,95.22c1.02-0.28,2.02-0.56,3.02-0.83
		c0.26,1.05,0.51,2.1,0.77,3.13c-1,0.28-2,0.56-3.02,0.85C24.07,97.32,23.82,96.27,23.56,95.22z M43.81,92.9l0.17-2.12
		c-0.83,0.08-1.69,0.16-2.56,0.24l0.59,2.38L43.81,92.9z M43.35,98.77l0.2-2.51l-0.78,0.22C42.97,97.25,43.17,98.01,43.35,98.77z
		 M37.51,100.32c1.03-0.05,2.06-0.06,3.1,0c-0.25-0.99-0.49-2-0.74-3.01c-0.97,0.28-1.92,0.55-2.91,0.83
		C37.14,98.87,37.33,99.6,37.51,100.32z M31.43,101.13c1.01-0.2,2.02-0.38,3.03-0.52c-0.14-0.54-0.28-1.09-0.42-1.64
		c-0.97,0.28-1.94,0.55-2.94,0.84L31.43,101.13z M25.38,102.69c1-0.32,2.02-0.61,3.04-0.87c-0.09-0.39-0.19-0.77-0.29-1.16
		c-1.02,0.29-2.02,0.57-3.04,0.87L25.38,102.69z M19.43,104.85c0.98-0.4,1.97-0.79,2.97-1.15c-0.11-0.44-0.22-0.88-0.34-1.32
		c-1,0.28-1.99,0.57-3.02,0.86C19.17,103.78,19.3,104.32,19.43,104.85z M10.39,102.27c0.08,1.12,0.16,2.25,0.24,3.37
		c0.75-0.21,1.5-0.43,2.22-0.63c-0.26-1.07-0.52-2.13-0.78-3.21L10.39,102.27z M14.69,98.93c-0.99,0.48-1.97,0.98-2.94,1.49
		l0.34,1.37c1.05-0.29,2.07-0.58,3.09-0.87L14.69,98.93z M20.57,96.32c-0.98,0.4-1.96,0.81-2.93,1.24c0.22,0.84,0.42,1.67,0.62,2.5
		c1.02-0.29,2.02-0.57,3.02-0.85C21.05,98.26,20.81,97.29,20.57,96.32z M38.4,91.4c-0.89,0.13-1.77,0.28-2.64,0.44l-0.32,0.09
		c0.26,1.04,0.51,2.07,0.76,3.1c1-0.28,1.95-0.55,2.92-0.82C38.88,93.28,38.65,92.35,38.4,91.4z M12.86,105
		c1.05-0.3,2.07-0.59,3.09-0.88c0.16,0.68,0.33,1.35,0.49,2.02c-0.85,0.38-1.69,0.78-2.53,1.19c-0.14,0.07-0.29,0.14-0.43,0.21
		C13.28,106.7,13.07,105.86,12.86,105z"/>
	<path class="st0" d="M19.57,81.59c1.05-0.29,2.07-0.58,3.09-0.87c0.26,1.07,0.52,2.12,0.78,3.18c-1.02,0.29-2.04,0.58-3.09,0.88
		C20.09,83.73,19.84,82.67,19.57,81.59 M31.74,78.18c1.02-0.29,1.99-0.56,2.97-0.83c0.26,1.05,0.51,2.09,0.79,3.13
		c-1,0.28-1.97,0.56-2.97,0.85C32.28,80.27,32,79.24,31.74,78.18z M43.51,74.88c0.97-0.27,1.94-0.55,2.89-0.81
		c0.25,1.03,0.51,2.06,0.76,3.08c-0.95,0.27-1.92,0.55-2.89,0.82C44.02,76.95,43.77,75.92,43.51,74.88z M25.68,79.88
		c1.02-0.29,2.04-0.57,3.04-0.85c0.26,1.06,0.51,2.11,0.77,3.16c-1,0.28-1.99,0.57-3.04,0.86C26.2,82,25.94,80.94,25.68,79.88z
		 M37.68,76.52c0.97-0.27,1.97-0.55,2.92-0.82c0.26,1.04,0.51,2.07,0.76,3.1c-0.95,0.27-1.92,0.55-2.92,0.83
		C38.19,78.6,37.94,77.56,37.68,76.52z M48.95,71.94c-0.99,0.1-1.99,0.19-2.99,0.31l0.45,1.82c0.97-0.27,1.92-0.54,2.87-0.8
		C49.17,72.83,49.06,72.39,48.95,71.94z M49.62,74.67l0.79-1.72c-0.37,0.1-0.75,0.21-1.13,0.32L49.62,74.67z M47.64,78.98
		c0.35-0.75,0.69-1.51,1.04-2.26l-1.52,0.43C47.33,77.76,47.49,78.37,47.64,78.98z M41.93,81.06c0.46-0.03,0.93-0.05,1.4-0.06
		c0.57-0.01,1.13,0.02,1.7,0.06c-0.25-1.02-0.5-2.04-0.76-3.08c-0.97,0.28-1.92,0.55-2.92,0.83C41.54,79.56,41.74,80.31,41.93,81.06
		z M35.86,81.95c1-0.23,2.01-0.42,3.02-0.57c-0.15-0.58-0.3-1.16-0.44-1.74c-0.97,0.28-1.95,0.55-2.94,0.84L35.86,81.95z
		 M29.87,83.71c0.23-0.08,0.47-0.16,0.7-0.25c0.77-0.26,1.54-0.51,2.31-0.74c-0.11-0.47-0.23-0.94-0.35-1.41
		c-1.02,0.29-2.02,0.57-3.04,0.86L29.87,83.71z M23.97,86.08c0.97-0.43,1.95-0.85,2.95-1.25c-0.15-0.59-0.3-1.18-0.46-1.78
		c-1,0.28-1.99,0.57-3.02,0.86C23.62,84.64,23.8,85.36,23.97,86.08z M11.24,87.38c-0.03,0.28-0.06,0.56-0.09,0.83
		c0.2,0.83,0.41,1.65,0.63,2.46c1.04-0.3,2.09-0.61,3.14-0.91c-0.26-1.06-0.52-2.13-0.78-3.21L11.24,87.38z M14.83,82.92
		c-0.47,0.26-0.93,0.53-1.4,0.81c0.23,0.95,0.46,1.89,0.69,2.84c1.07-0.31,2.12-0.6,3.14-0.9c-0.26-1.07-0.52-2.13-0.78-3.21
		L14.83,82.92z M19.31,80.53c-0.98,0.49-1.96,1-2.93,1.53l0.1,0.4c1.05-0.29,2.07-0.58,3.09-0.87L19.31,80.53z M25.18,77.83
		c-0.98,0.41-1.95,0.83-2.91,1.28c0.13,0.54,0.27,1.08,0.4,1.62c1.02-0.29,2.02-0.57,3.02-0.85C25.52,79.2,25.35,78.52,25.18,77.83z
		 M31.11,75.61c-1,0.33-1.99,0.68-2.97,1.05c0.19,0.8,0.39,1.58,0.58,2.37c1.02-0.29,2.02-0.57,3.02-0.85
		C31.54,77.33,31.33,76.48,31.11,75.61z M37.04,73.9c-1,0.25-1.99,0.51-2.98,0.8c0.22,0.89,0.43,1.78,0.65,2.65
		c1.02-0.29,1.99-0.56,2.97-0.83C37.47,75.65,37.25,74.78,37.04,73.9z M42.96,72.68c-1,0.16-1.99,0.35-2.97,0.55
		c0.2,0.83,0.4,1.65,0.61,2.47c1-0.28,1.95-0.55,2.92-0.82C43.34,74.15,43.15,73.42,42.96,72.68z M17.26,85.67
		c1.05-0.3,2.07-0.59,3.09-0.88c0.22,0.9,0.44,1.79,0.65,2.67c-0.86,0.42-1.71,0.85-2.56,1.28l-0.41,0.12
		C17.79,87.81,17.52,86.75,17.26,85.67z"/>
	<path class="st0" d="M14.6,118.88c1.05-0.29,2.07-0.58,3.09-0.87c0.26,1.07,0.52,2.12,0.78,3.18c-1.02,0.29-2.04,0.58-3.09,0.88
		C15.12,121.01,14.86,119.95,14.6,118.88 M26.77,115.47c1.02-0.29,2-0.56,2.97-0.83c0.26,1.05,0.51,2.09,0.79,3.13
		c-1,0.28-1.97,0.56-2.97,0.85C27.31,117.56,27.03,116.52,26.77,115.47z M38.54,112.17c0.97-0.27,1.94-0.55,2.89-0.81
		c0.25,1.03,0.51,2.06,0.76,3.08c-0.95,0.27-1.92,0.55-2.89,0.82C39.05,114.23,38.8,113.2,38.54,112.17z M16.9,114.85
		c1.02-0.28,2.05-0.56,3.04-0.84c0.26,1.06,0.52,2.12,0.77,3.16c-1,0.28-2,0.56-3.02,0.85C17.44,116.95,17.18,115.91,16.9,114.85z
		 M28.98,111.51c1-0.28,2-0.55,2.97-0.82c0.26,1.05,0.51,2.08,0.76,3.11c-0.97,0.27-1.94,0.55-2.97,0.83
		C29.49,113.61,29.23,112.57,28.98,111.51z M42.19,114.44c1-0.28,1.92-0.55,2.86-0.82c0.25,1.03,0.51,2.05,0.75,3.06
		c-0.92,0.27-1.87,0.54-2.84,0.82C42.73,116.49,42.47,115.46,42.19,114.44z M20.71,117.17c1.02-0.29,2.04-0.57,3.04-0.85
		c0.26,1.06,0.51,2.11,0.77,3.16c-1,0.28-2,0.57-3.04,0.87C21.23,119.28,20.97,118.23,20.71,117.17z M32.71,113.8
		c0.97-0.27,1.97-0.55,2.92-0.82c0.26,1.04,0.51,2.07,0.76,3.1c-0.95,0.27-1.92,0.55-2.92,0.83
		C33.22,115.88,32.96,114.85,32.71,113.8z M22.99,113.17c1.02-0.28,2.02-0.56,3.02-0.83c0.26,1.05,0.51,2.1,0.77,3.13
		c-1,0.28-2,0.56-3.02,0.85C23.5,115.28,23.25,114.23,22.99,113.17z M45.31,113.55c-0.26-1.02-0.52-2.04-0.79-3.06l-0.22,0.06
		c0.25,1.03,0.5,2.05,0.76,3.07L45.31,113.55z M36.78,117.63c1.04-0.04,2.07-0.04,3.11,0.01c-0.19-0.79-0.39-1.58-0.59-2.38
		c-0.97,0.28-1.92,0.55-2.91,0.83C36.51,116.61,36.65,117.12,36.78,117.63z M30.65,118.26c1.02-0.17,2.03-0.3,3.05-0.41
		c-0.08-0.31-0.16-0.62-0.23-0.93c-0.97,0.28-1.94,0.55-2.94,0.84L30.65,118.26z M24.56,119.59c1.02-0.27,2.04-0.52,3.07-0.75
		l-0.06-0.23c-1.02,0.29-2.02,0.57-3.04,0.87L24.56,119.59z M18.54,121.49c0.99-0.36,1.98-0.69,2.98-1.01l-0.04-0.14
		c-1,0.28-1.99,0.57-3.02,0.86L18.54,121.49z M12.04,116.19l0.77,3.19l1.8-0.5c-0.26-1.06-0.51-2.11-0.77-3.18
		C13.23,115.86,12.64,116.02,12.04,116.19z M37.81,109.28c-0.34,0.02-0.67,0.04-1.01,0.07c-0.64,0.18-1.29,0.36-1.94,0.54
		c0.26,1.04,0.51,2.07,0.76,3.1c1-0.28,1.95-0.55,2.92-0.82C38.31,111.21,38.07,110.25,37.81,109.28z M43.69,109.16
		c-0.93,0.02-1.86,0.02-2.79,0.03l0.54,2.17c0.97-0.27,1.92-0.54,2.87-0.8c-0.11-0.43-0.22-0.87-0.32-1.31
		C43.88,109.19,43.78,109.16,43.69,109.16C43.7,109.16,43.7,109.16,43.69,109.16z M13.58,122.59l1.8-0.51l0.14,0.56
		c-0.32,0.13-0.65,0.26-0.97,0.39c-0.23,0.1-0.47,0.18-0.79,0.3L13.58,122.59z"/>
	<path class="st0" d="M182.16,128.29c0.38,0.15,0.69,0.28,0.99,0.41c-9.92,31.09-41.62,60.68-84.65,60.56
		c-43.83-0.12-74.81-30.59-84.29-60.59c0.3-0.14,0.6-0.28,0.94-0.44c8,22.22,22.26,39.05,43.17,50.06
		c13.23,6.96,27.41,10.17,42.34,9.81c18.46-0.45,35.2-6.13,50.08-17.08C165.62,160.08,176.01,145.78,182.16,128.29"/>
	<path class="st0" d="M46.88,145.49c-1.65-1-3.07-1.96-3.98-3.45c-0.39-0.64-0.61-1.48-0.65-2.24c-0.07-1.5,1.12-2.81,2.49-2.94
		c1.68-0.17,3.06,0.8,3.36,2.42c0.1,0.55,0.12,1.15,0,1.69C47.75,142.44,47.31,143.89,46.88,145.49"/>
	<path class="st0" d="M123.89,161.72c0.42-2.04,0.85-4.01,1.77-5.78c0.62-1.19,1.45-2.3,2.32-3.34c0.66-0.8,1.63-1.22,2.67-1.4
		c2.41-0.43,4.39,1.61,3.86,4.01c-0.44,2.01-1.66,3.45-3.55,4.2c-1.73,0.69-3.52,1.2-5.29,1.78
		C125.11,161.36,124.55,161.52,123.89,161.72"/>
	<path class="st0" d="M98.35,173.63v-1c0-1.87,1.31-3,3.17-2.71c1.79,0.28,3.29,1.13,4.77,2.33c-0.43,0.46-0.81,0.93-1.25,1.33
		c-2.43,2.17-5.27,3.02-8.47,2.37c-2.24-0.46-3.39-2.22-2.84-4.19c0.36-1.31,1.34-2.08,2.56-2.44c1.21-0.36,2.48-0.65,3.73-0.74
		c2.67-0.19,5.36-0.22,8.24-0.32c-0.39,1.01-0.71,1.86-1.06,2.77c-0.82-0.49-1.52-0.95-2.25-1.33c-2.69-1.43-5.11-0.98-6.72,1.28
		c-0.29,0.41-0.46,0.94-0.54,1.43C97.59,172.88,97.84,173.31,98.35,173.63"/>
	<path class="st0" d="M147.48,156.57c-1.18-2.76-1.89-5.52-1.62-8.45c0.04-0.42,0.2-0.85,0.39-1.22c0.42-0.81,1.12-0.9,1.58-0.14
		c0.5,0.83,0.9,1.74,1.17,2.67c0.47,1.57,0.58,3.18,0.09,4.78C148.81,155.13,148.3,155.89,147.48,156.57"/>
	<path class="st0" d="M148.48,50.97c0.58,0.64,1.16,1.21,1.68,1.84c0.6,0.73,0.52,1.4-0.18,2.04c-0.77,0.71-1.5,0.78-2.18,0.13
		c-0.59-0.56-1.12-1.18-1.7-1.81C146.9,52.42,147.67,51.72,148.48,50.97"/>
	<path class="st0" d="M149.06,50.43c0.68-0.63,1.31-1.22,2.02-1.89c0.54,0.61,1.1,1.16,1.56,1.79c0.4,0.55,0.21,1.17-0.4,1.67
		c-0.58,0.48-1.1,0.49-1.66,0.03c-0.07-0.06-0.14-0.12-0.2-0.18C149.96,51.4,149.54,50.95,149.06,50.43"/>
	<path class="st0" d="M48.89,50.83c-0.59-0.58-1.22-1.19-1.91-1.88c0.54-0.52,1.05-1.06,1.61-1.54c0.59-0.5,1.18-0.41,1.75,0.18
		c0.59,0.61,0.68,1.17,0.16,1.75C50.02,49.88,49.44,50.33,48.89,50.83"/>
	<path class="st0" d="M130.91,33.8c0.74,0.39,1.42,0.71,2.06,1.1c0.85,0.51,1.19,1.25,0.82,2.15c-0.45,1.1-0.99,2.2-1.66,3.18
		c-0.71,1.03-1.65,1.14-2.77,0.57c-0.52-0.27-1.04-0.54-1.63-0.85C128.79,37.9,129.83,35.89,130.91,33.8"/>
	<path class="st0" d="M76.02,37.7c-0.78-2.21-1.52-4.33-2.31-6.56c0.9-0.27,1.77-0.6,2.67-0.78c0.68-0.14,1.25,0.21,1.62,0.8
		c0.74,1.18,1.18,2.47,1.27,3.85C79.34,36,78.9,36.64,77.96,37C77.35,37.24,76.72,37.45,76.02,37.7"/>
	<path class="st0" d="M61.56,44.32c-0.07,1.24-0.75,1.88-1.61,2.38c-0.77,0.46-1.53,0.4-2.24-0.1c-1.12-0.8-1.98-1.82-2.48-3.11
		c-0.44-1.14-0.05-2.18,1.04-2.97c1.04-0.75,1.98-0.81,2.91,0.1c0.81,0.8,1.44,1.79,2.1,2.74C61.47,43.67,61.49,44.1,61.56,44.32"/>
	<path class="st0" d="M43.38,58.5c-0.89-0.66-1.74-1.29-2.66-1.98c0.46-0.59,0.87-1.18,1.36-1.7c0.58-0.61,1.24-0.6,1.95-0.07
		c0.79,0.59,0.99,1.23,0.61,2c-0.08,0.16-0.18,0.31-0.29,0.46C44.05,57.62,43.73,58.03,43.38,58.5"/>
	<path class="st0" d="M118.84,34.04c0.92-1.14,1.77-2.21,2.75-3.44v4.34C120.72,34.66,119.83,34.37,118.84,34.04"/>
	<path class="st0" d="M63.37,100.05c0.19-10.04,3.39-18.42,10.05-25.37c5.7-5.94,12.7-9.36,20.87-10.35
		c16.26-1.97,32.05,7.96,37.41,23.68c4.65,13.65,2.18,26.1-7.47,36.88c-5.57,6.22-12.72,9.75-21.03,10.72
		c-10.94,1.27-20.45-2.02-28.45-9.5c-6.3-5.9-9.9-13.26-11.02-21.81C63.53,102.74,63.46,101.17,63.37,100.05 M69.18,116.72
		l-0.02-0.02c0.17,0.34,0.32,0.7,0.52,1.03c2.17,3.64,4.92,6.78,8.23,9.43c10.98,8.79,25.99,9.87,38.1,2.75
		c11.54-6.79,18.15-20.55,16.33-33.93c-1.12-8.21-4.51-15.31-10.54-21.01c-7.77-7.34-17.01-10.55-27.67-9.28
		c-7.89,0.94-14.62,4.4-20.04,10.2c-9.73,10.41-12.12,25.44-6.21,38.39C68.25,115.12,68.74,115.91,69.18,116.72z"/>
	<path class="st0" d="M74.76,135.77c0.08-1.52,0.84-2.67,1.89-3.65c0.55-0.51,1.25-0.42,1.86-0.11c0.97,0.48,1.91,1.04,2.94,1.61
		c-1.57,2.72-3.1,5.39-4.69,8.16c-1.08-0.66-2.13-1.27-3.14-1.94c-0.56-0.37-0.76-0.98-0.59-1.63
		C73.3,137.17,73.72,136.22,74.76,135.77 M77.54,136.36c0.47-0.82,0.85-1.49,1.36-2.38c-0.49,0-0.96-0.13-1.07,0.02
		c-0.37,0.48-0.67,1.05-0.88,1.62C76.9,135.75,77.28,136.04,77.54,136.36z M76.84,137.56c-0.41-0.07-0.86-0.27-1-0.14
		c-0.3,0.29-0.54,0.72-0.62,1.13c-0.04,0.19,0.35,0.46,0.61,0.77C76.2,138.68,76.48,138.2,76.84,137.56z"/>
	<path class="st0" d="M95.32,62.46c-0.71,0.13-1.33,0.24-2,0.36c-0.37-1.99-0.64-3.99-2.04-5.59c0.33,1.9,0.67,3.8,1.01,5.76
		c-0.67,0.12-1.28,0.24-2.01,0.38c-0.55-3.05-1.09-6.08-1.65-9.19c0.6-0.12,1.17-0.25,1.74-0.31c0.14-0.02,0.34,0.19,0.46,0.33
		c0.39,0.49,0.75,1.01,1.22,1.65c-0.14-0.84-0.25-1.51-0.36-2.23c0.66-0.12,1.28-0.24,1.99-0.37
		C94.22,56.31,94.77,59.34,95.32,62.46"/>
	<path class="st0" d="M107.47,142.82c-0.34-1.91-0.67-3.82-1.02-5.79c0.67-0.12,1.31-0.23,2.02-0.35c0.55,3.08,1.09,6.1,1.64,9.18
		c-0.57,0.1-1.1,0.23-1.63,0.28c-0.18,0.02-0.42-0.14-0.55-0.29c-0.4-0.49-0.76-1.01-1.24-1.67c0.14,0.84,0.25,1.48,0.37,2.22
		c-0.63,0.12-1.26,0.25-2,0.39c-0.55-3.08-1.1-6.11-1.65-9.2c0.67-0.12,1.31-0.23,2.01-0.36c0.33,1.86,0.6,3.67,1.63,5.22
		c0.1,0.14,0.2,0.28,0.31,0.42C107.4,142.85,107.43,142.83,107.47,142.82"/>
	<path class="st0" d="M138.65,80c0.8-0.4,1.41-0.7,2.05-1.02c0.31,0.61,0.6,1.2,0.92,1.82c-2.78,1.42-5.51,2.82-8.31,4.26
		c-0.32-0.61-0.61-1.19-0.95-1.83c1.84-0.89,3.63-1.78,4.77-3.57c-1.71,0.87-3.42,1.74-5.23,2.66c-0.31-0.59-0.61-1.17-0.95-1.83
		c2.77-1.42,5.51-2.83,8.32-4.27c0.27,0.51,0.55,0.98,0.75,1.48c0.07,0.16-0.01,0.45-0.11,0.61C139.55,78.84,139.15,79.34,138.65,80
		"/>
	<path class="st0" d="M136.26,96.71c-0.12-0.71-0.23-1.31-0.34-2c2.01-0.37,4.02-0.64,5.61-2.05c-1.9,0.34-3.8,0.67-5.79,1.02
		c-0.11-0.58-0.23-1.13-0.29-1.68c-0.02-0.12,0.14-0.36,0.25-0.39c2.93-0.54,5.86-1.06,8.96-1.61c0.03,0.72,0.28,1.48,0.03,2
		c-0.26,0.54-1.01,0.85-1.5,1.37c0.62-0.1,1.23-0.19,1.92-0.3c0.12,0.65,0.24,1.29,0.37,2C142.38,95.62,139.36,96.16,136.26,96.71"
		/>
	<path class="st0" d="M103.87,62.65c0.71-3.07,1.4-6.06,2.11-9.12c1.14,0.28,2.23,0.5,3.28,0.83c1,0.32,1.46,0.99,1.27,2.05
		c-0.35,1.92-0.79,3.83-1.31,5.71c-0.28,1.01-0.99,1.33-2.15,1.23c-0.29-0.02-0.58-0.09-0.87-0.16
		C105.45,63.03,104.7,62.85,103.87,62.65 M106.3,61.31c0.8,0.31,0.98,0.23,1.16-0.52c0.33-1.37,0.64-2.74,0.94-4.12
		c0.15-0.66-0.04-0.84-0.85-0.83C107.14,57.67,106.72,59.5,106.3,61.31z"/>
	<path class="st0" d="M127.56,132.88c-0.24,0.21-0.46,0.4-0.71,0.61c0.72,0.84,1.42,1.65,2.17,2.53c-0.52,0.45-1.03,0.89-1.55,1.34
		c-0.14-0.15-0.23-0.24-0.32-0.35c-1.93-2.22-3.85-4.44-5.82-6.71c0.51-0.45,1-0.88,1.55-1.36c0.94,1.08,1.86,2.13,2.81,3.22
		c0.25-0.2,0.46-0.37,0.74-0.59c-0.94-1.09-1.85-2.15-2.81-3.26c0.51-0.45,1-0.88,1.55-1.36c2.05,2.36,4.07,4.69,6.13,7.07
		c-0.51,0.45-1,0.87-1.55,1.35C129.02,134.54,128.31,133.73,127.56,132.88"/>
	<path class="st0" d="M118.48,141.87c-0.29,0.46-0.49,1.06-0.9,1.34c-0.6,0.41-1.34,0.66-2.05,0.82c-0.69,0.16-1.33-0.15-1.69-0.77
		c-0.39-0.66-0.74-1.36-1.02-2.07c-0.49-1.27-0.98-2.54-1.35-3.85c-0.27-0.95,0.08-1.64,0.94-2.13c0.47-0.26,0.99-0.45,1.52-0.58
		c0.84-0.21,1.52,0.09,2.02,0.79c0.11,0.15,0.23,0.29,0.29,0.46c0.67,1.69,1.33,3.38,1.97,5.08c0.09,0.25,0.1,0.53,0.14,0.8
		C118.39,141.79,118.43,141.83,118.48,141.87 M116.3,141.8c-0.03-0.18-0.02-0.25-0.05-0.31c-0.63-1.58-1.25-3.17-1.9-4.74
		c-0.06-0.14-0.31-0.27-0.47-0.28c-0.14,0-0.36,0.16-0.41,0.29c-0.06,0.17,0,0.4,0.07,0.58c0.55,1.42,1.11,2.83,1.67,4.25
		c0.06,0.15,0.12,0.32,0.24,0.4c0.13,0.09,0.34,0.16,0.47,0.12C116.09,142.06,116.21,141.88,116.3,141.8z"/>
	<path class="st0" d="M54.74,95.06c1.54,0.16,3.08,0.24,4.61,0.49c1.46,0.23,2.01,1.12,1.87,2.67c-0.15,1.6-0.85,2.37-2.36,2.33
		c-1.75-0.05-3.5-0.18-5.23-0.4c-1.47-0.18-2.14-1.11-2.02-2.5c0.16-1.84,0.81-2.52,2.44-2.54c0.23,0,0.45,0,0.68,0
		C54.74,95.1,54.74,95.08,54.74,95.06 M54.41,97.16c-0.04-0.06-0.07-0.11-0.11-0.17c-0.29,0.2-0.79,0.35-0.84,0.59
		c-0.13,0.69,0.5,0.54,0.89,0.58c1.41,0.13,2.81,0.24,4.22,0.35c0.36,0.03,0.78,0.09,0.85-0.43c0.07-0.55-0.38-0.56-0.73-0.59
		C57.27,97.37,55.84,97.27,54.41,97.16z"/>
	<path class="st0" d="M87.27,62.64c0.04,1.34-0.91,2.25-2.45,2.5c-0.93,0.15-1.76-0.08-2.14-0.94c-0.81-1.82-1.62-3.66-2.2-5.56
		c-0.43-1.38,0.25-2.21,1.77-2.74c1.36-0.48,2.32-0.21,2.91,1.08c0.76,1.64,1.36,3.36,2.02,5.06
		C87.27,62.26,87.26,62.53,87.27,62.64 M83.02,57.58c-0.54,0.08-0.71,0.33-0.55,0.74c0.59,1.54,1.19,3.08,1.83,4.61
		c0.07,0.17,0.4,0.23,0.62,0.35c0.1-0.24,0.34-0.53,0.27-0.71c-0.56-1.53-1.17-3.04-1.78-4.55C83.32,57.82,83.12,57.69,83.02,57.58z
		"/>
	<path class="st0" d="M131.47,74.55c-0.09-0.17-0.16-0.31-0.26-0.49c0.36-0.29,0.73-0.58,1.16-0.93c0.51,0.64,1,1.26,1.53,1.94
		c-1.48,1.16-2.93,2.31-4.49,3.53c-0.15-0.36-0.26-0.66-0.41-0.94c-0.07-0.14-0.2-0.25-0.31-0.37c-0.44-0.44-0.97-0.83-1.32-1.33
		c-0.49-0.72-0.43-1.52,0.12-2.22c0.22-0.29,0.46-0.58,0.74-0.8c1.15-0.93,2.31-1.86,3.49-2.74c2.14-1.58,3.53-0.11,4.2,1.53
		c0.25,0.61,0.11,1.26-0.32,1.81c-0.35,0.44-0.71,0.88-1.13,1.4c-0.58-0.72-0.98-1.23-1.43-1.79c0.27-0.24,0.57-0.42,0.75-0.68
		c0.12-0.17,0.08-0.46,0.12-0.7c-0.24-0.02-0.56-0.15-0.7-0.04c-1.29,0.97-2.56,1.97-3.8,3.01c-0.17,0.14-0.26,0.59-0.16,0.8
		c0.18,0.41,0.56,0.29,0.86,0.07C130.56,75.25,131.01,74.9,131.47,74.55"/>
	<path class="st0" d="M142.44,104.44v-2.05c0.37,0,0.72,0.06,1.03-0.02c0.2-0.05,0.34-0.33,0.51-0.5c-0.17-0.15-0.32-0.43-0.5-0.44
		c-1.64-0.07-3.28-0.12-4.92-0.11c-0.21,0-0.42,0.36-0.63,0.55c0.19,0.19,0.35,0.49,0.57,0.54c0.48,0.11,1,0.13,1.49,0.09
		c0.19-0.01,0.36-0.27,0.63-0.49h1.2v2.34h-5.65c0.1-0.41,0.19-0.71,0.25-1.02c0.03-0.15-0.01-0.32-0.02-0.48
		c-0.04-0.71-0.19-1.44-0.1-2.14c0.13-0.88,0.91-1.44,1.99-1.45c1.8-0.01,3.6,0.01,5.39,0.14c1.46,0.1,2.13,0.99,2.08,2.52
		c-0.05,1.65-0.73,2.42-2.25,2.53C143.19,104.46,142.85,104.44,142.44,104.44"/>
	<path class="st0" d="M83.39,134.63c0.7,0.24,1.3,0.44,1.94,0.66c-0.15,0.49-0.29,0.94-0.45,1.46c0.32,0.1,0.6,0.2,0.92,0.3
		c0.19-0.5,0.36-0.94,0.54-1.42c0.64,0.22,1.23,0.42,1.92,0.65c-0.35,1.01-0.66,2-1.03,2.97c-0.69,1.79-1.57,3.47-2.91,4.89
		c-0.7,0.74-1.27,0.16-1.9,0.04c-0.54-0.1-0.54-0.52-0.6-0.93c-0.31-2.08,0.14-4.07,0.74-6.04
		C82.78,136.36,83.09,135.53,83.39,134.63 M84.22,138.4c-0.29,1.33-0.56,2.56-0.84,3.79c0.1,0.03,0.2,0.07,0.3,0.1
		c0.53-1.15,1.07-2.3,1.63-3.52C84.92,138.64,84.65,138.54,84.22,138.4z"/>
	<path class="st0" d="M131.08,119.5c0.36-0.69,0.64-1.25,0.96-1.88c0.47,0.22,0.89,0.42,1.38,0.66c0.15-0.29,0.28-0.55,0.44-0.87
		c-0.46-0.25-0.87-0.48-1.34-0.73c0.31-0.6,0.6-1.18,0.93-1.81c2.66,1.36,5.3,2.61,7.17,5.03c0.56,0.73,0.1,1.18-0.13,1.77
		c-0.21,0.56-0.63,0.71-1.14,0.61c-1.29-0.24-2.62-0.39-3.84-0.81C134.02,120.96,132.62,120.2,131.08,119.5 M138.54,120.55
		c0.05-0.1,0.09-0.21,0.14-0.31c-1.05-0.68-2.1-1.37-3.2-2.08c-0.19,0.38-0.32,0.64-0.5,1.02
		C136.21,119.65,137.37,120.1,138.54,120.55z"/>
	<path class="st0" d="M124.6,64.58c-0.49-0.31-0.98-0.63-1.5-0.96c0.16-0.3,0.35-0.54,0.4-0.82c0.04-0.2-0.07-0.48-0.19-0.65
		c-0.08-0.1-0.41-0.17-0.48-0.1c-0.16,0.15-0.34,0.42-0.31,0.6c0.13,0.69,0.27,1.39,0.52,2.04c0.66,1.71-0.1,3.1-1.16,4.04
		c-0.51,0.44-1.14,0.65-1.78,0.39c-0.6-0.24-1.2-0.56-1.7-0.96c-0.71-0.57-0.91-1.38-0.56-2.22c0.28-0.66,0.68-1.27,1.04-1.94
		c0.64,0.41,1.19,0.77,1.77,1.14c-0.26,0.45-0.56,0.83-0.72,1.27c-0.08,0.22,0.06,0.52,0.1,0.78c0.25-0.09,0.67-0.13,0.72-0.29
		c0.15-0.52,0.28-1.09,0.22-1.62c-0.09-0.78-0.39-1.54-0.51-2.33c-0.16-1.07,0.15-2,1.1-2.61c0.9-0.58,1.79-0.33,2.63,0.19
		C125.89,61.59,126.03,62.94,124.6,64.58"/>
	<path class="st0" d="M58.9,119.1c0.29,0.5,0.58,1.01,0.9,1.56c-0.24,0.17-0.5,0.29-0.67,0.48c-0.14,0.17-0.25,0.45-0.21,0.65
		c0.03,0.16,0.32,0.41,0.45,0.39c0.2-0.03,0.46-0.24,0.52-0.43c0.19-0.63,0.34-1.27,0.44-1.92c0.26-1.71,1.29-2.83,2.95-3.15
		c0.67-0.13,1.33-0.02,1.75,0.51c0.45,0.56,0.86,1.19,1.09,1.85c0.27,0.76,0.03,1.51-0.63,2.02c-0.55,0.43-1.16,0.78-1.78,1.19
		c-0.38-0.65-0.7-1.21-1.05-1.82c0.43-0.27,0.86-0.49,1.22-0.79c0.18-0.15,0.2-0.48,0.29-0.73c-0.28-0.03-0.67-0.2-0.81-0.08
		c-0.36,0.31-0.69,0.72-0.86,1.16c-0.23,0.56-0.25,1.2-0.44,1.79c-0.17,0.53-0.39,1.08-0.7,1.54c-0.86,1.23-2.6,1.31-3.52,0.14
		C56.23,121.43,56.65,120.12,58.9,119.1"/>
	<path class="st0" d="M132.92,127.64c0.25,0.18,0.4,0.36,0.59,0.4c0.26,0.06,0.56,0.09,0.8,0c0.12-0.04,0.24-0.47,0.16-0.56
		c-0.15-0.18-0.45-0.35-0.67-0.32c-0.65,0.06-1.31,0.16-1.94,0.34c-1.6,0.46-2.8-0.17-3.79-1.36c-0.6-0.73-0.64-1.55-0.2-2.36
		c0.23-0.43,0.56-0.83,0.91-1.18c0.75-0.73,1.59-0.84,2.5-0.32c0.55,0.31,1.04,0.72,1.64,1.15c-0.45,0.57-0.86,1.1-1.3,1.65
		c-0.4-0.29-0.75-0.57-1.13-0.82c-0.3-0.2-0.69-0.34-0.86,0.08c-0.08,0.19,0.13,0.65,0.33,0.75c0.38,0.2,0.85,0.33,1.28,0.31
		c1-0.04,1.99-0.29,2.98-0.28c1.38,0.02,2.35,1.09,2.3,2.36c-0.05,1.03-1.14,2.42-2.13,2.71c-0.74,0.22-1.68-0.19-2.59-1.14
		C132.16,128.6,132.52,128.14,132.92,127.64"/>
	<path class="st0" d="M68.55,68.92c-0.55,0.59-1,1.06-1.47,1.57c-0.37-0.34-0.72-0.66-1.07-0.98c-0.24-0.22-0.54-0.37-0.74-0.02
		c-0.1,0.17-0.08,0.56,0.05,0.69c1.18,1.17,2.38,2.32,3.61,3.44c0.13,0.12,0.47,0.01,0.71,0c-0.02-0.24,0.05-0.55-0.08-0.7
		c-0.38-0.48-0.83-0.9-1.33-1.41c0.42-0.45,0.88-0.94,1.41-1.51c0.57,0.62,1.16,1.16,1.64,1.78c0.74,0.97,0.69,1.77-0.06,2.74
		c-1.18,1.53-2.4,1.75-3.79,0.55c-1.22-1.05-2.42-2.16-3.51-3.35c-1.42-1.55-0.75-3.76,1.3-4.33c0.47-0.13,1.1-0.01,1.55,0.21
		C67.38,67.91,67.89,68.42,68.55,68.92"/>
	<path class="st0" d="M55.35,103.52c0.11,0.77,0.2,1.39,0.3,2.11c-0.47,0.08-0.93,0.16-1.38,0.24c-0.34,0.06-0.68,0.2-0.52,0.61
		c0.08,0.19,0.44,0.4,0.65,0.38c1.56-0.16,3.11-0.38,4.67-0.59c0.35-0.05,0.71-0.12,0.63-0.61c-0.08-0.48-0.46-0.43-0.8-0.4
		c-0.54,0.06-1.08,0.14-1.71,0.22c-0.1-0.67-0.19-1.34-0.31-2.17c1.07,0,2.06-0.1,3.03,0.04c0.45,0.07,1.02,0.54,1.19,0.96
		c0.27,0.69,0.37,1.5,0.33,2.25c-0.05,1.02-0.84,1.48-1.74,1.65c-1.25,0.24-2.51,0.39-3.78,0.56c-0.54,0.07-1.09,0.13-1.63,0.13
		c-0.38,0-0.78-0.06-1.13-0.22c-1.1-0.48-1.2-1.53-1.25-2.53c-0.05-0.86,0.2-1.67,1.11-2C53.74,103.89,54.52,103.74,55.35,103.52"/>
	<path class="st0" d="M61.43,74.35c-0.39,0.62-0.75,1.19-1.14,1.82c0.44,0.28,0.85,0.55,1.31,0.84c0.39-0.58,0.75-1.13,1.14-1.72
		c0.48,0.31,0.93,0.6,1.46,0.93c-0.36,0.58-0.7,1.14-1.08,1.76c0.68,0.43,1.34,0.86,2.03,1.3c0.42-0.64,0.8-1.22,1.23-1.88
		c0.5,0.32,0.97,0.62,1.49,0.95c-0.78,1.22-1.54,2.4-2.33,3.63c-2.63-1.68-5.21-3.34-7.88-5.05c0.75-1.18,1.49-2.33,2.27-3.55
		C60.45,73.73,60.92,74.03,61.43,74.35"/>
	<path class="st0" d="M68.93,136.63c-1.09-0.95-2.11-1.83-3.18-2.75c0.38-0.45,0.74-0.87,1.14-1.35c0.55,0.47,1.06,0.9,1.63,1.38
		c0.34-0.39,0.67-0.76,1.04-1.18c-0.52-0.46-1.01-0.89-1.54-1.36c0.38-0.45,0.73-0.86,1.13-1.33c0.52,0.44,1.03,0.87,1.59,1.34
		c0.54-0.62,1.04-1.2,1.58-1.83c-0.57-0.5-1.09-0.96-1.68-1.48c0.39-0.45,0.75-0.87,1.16-1.34c1.1,0.95,2.16,1.87,3.26,2.82
		C73.02,131.91,71,134.25,68.93,136.63"/>
	<path class="st0" d="M114.63,55.83c1.33,0.53,2.59,1.02,3.91,1.55c-0.21,0.55-0.4,1.05-0.63,1.64c-0.67-0.25-1.32-0.5-2.01-0.76
		c-0.19,0.48-0.37,0.92-0.58,1.44c0.64,0.27,1.23,0.52,1.91,0.8c-0.21,0.53-0.41,1.04-0.64,1.61c-0.64-0.24-1.25-0.48-1.93-0.73
		c-0.3,0.75-0.59,1.46-0.89,2.24c0.69,0.29,1.36,0.56,2.07,0.86c-0.22,0.55-0.42,1.07-0.65,1.64c-1.36-0.54-2.66-1.05-4.01-1.58
		C112.34,61.63,113.47,58.78,114.63,55.83"/>
	<path class="st0" d="M144.17,112.16c-0.38,1.33-0.74,2.6-1.12,3.95c-0.56-0.15-1.09-0.3-1.69-0.47c0.18-0.67,0.35-1.3,0.53-1.99
		c-0.51-0.14-0.98-0.27-1.5-0.42c-0.19,0.64-0.37,1.22-0.57,1.87c-0.56-0.16-1.09-0.31-1.67-0.47c0.17-0.65,0.33-1.23,0.5-1.89
		c-1.34-0.39-2.65-0.76-4.03-1.16c0.19-0.66,0.37-1.3,0.56-1.98C138.2,110.46,141.15,111.3,144.17,112.16"/>
	<path class="st0" d="M70.2,64.83c-0.35,0.25-0.64,0.47-0.97,0.71c-0.34-0.43-0.67-0.86-1.04-1.33c1.18-0.93,2.32-1.83,3.51-2.77
		c0.35,0.45,0.68,0.87,1.04,1.32c-0.29,0.26-0.57,0.51-0.89,0.8c1.56,1.99,3.1,3.96,4.69,5.99c-0.55,0.43-1.06,0.83-1.62,1.27
		C73.33,68.82,71.79,66.85,70.2,64.83"/>
	<path class="st0" d="M66.38,122.87c0.5-0.39,0.93-0.73,1.39-1.09c0.87,1.1,1.71,2.17,2.6,3.3c-2.46,1.94-4.89,3.84-7.36,5.78
		c-0.43-0.55-0.84-1.07-1.27-1.62c1.99-1.57,3.94-3.1,5.93-4.67C67.23,124,66.83,123.46,66.38,122.87"/>
	<path class="st0" d="M63.03,82.88c0.59,0.23,1.07,0.42,1.64,0.65c-0.51,1.3-1.01,2.58-1.53,3.91c-2.91-1.15-5.77-2.27-8.7-3.43
		c0.25-0.64,0.49-1.24,0.75-1.92c2.35,0.92,4.66,1.83,7.04,2.76C62.5,84.19,62.75,83.56,63.03,82.88"/>
	<path class="st0" d="M91.62,138.94c-0.73-0.14-1.35-0.26-2.06-0.4c0.09-0.57,0.17-1.11,0.27-1.73c1.42,0.25,2.75,0.49,4.14,0.74
		c-0.55,3.08-1.09,6.09-1.64,9.19c-0.69-0.12-1.33-0.23-2.02-0.35C90.74,143.9,91.18,141.45,91.62,138.94"/>
	<path class="st0" d="M61.56,93.29c-3.07-0.71-6.04-1.39-9.09-2.1c0.15-0.67,0.29-1.3,0.44-2.01c2.48,0.57,4.88,1.12,7.36,1.69
		c0.17-0.68,0.34-1.33,0.53-2.05c0.56,0.13,1.1,0.25,1.71,0.38C62.19,90.58,61.88,91.89,61.56,93.29"/>
	<path class="st0" d="M117.6,132.67c0.59-0.38,1.14-0.74,1.74-1.12c1.68,2.62,3.34,5.2,5.05,7.87c-0.58,0.38-1.13,0.74-1.73,1.13
		C120.96,137.91,119.3,135.31,117.6,132.67"/>
	<path class="st0" d="M81.1,66.79c-0.61,0.35-1.17,0.68-1.79,1.03c-1.56-2.71-3.09-5.37-4.66-8.1c0.57-0.34,1.13-0.67,1.78-1.05
		C77.98,61.37,79.52,64.03,81.1,66.79"/>
	<path class="st0" d="M124.51,72.79c-0.52-0.45-1.01-0.88-1.56-1.35c2.04-2.36,4.06-4.7,6.12-7.08c0.52,0.45,1.02,0.88,1.56,1.35
		C128.59,68.07,126.58,70.41,124.51,72.79"/>
	<path class="st0" d="M142.9,84.39c0.23,0.68,0.43,1.27,0.66,1.96c-2.96,1-5.88,1.99-8.84,2.99c-0.23-0.66-0.43-1.25-0.68-1.94
		C136.98,86.4,139.89,85.41,142.9,84.39"/>
	<path class="st0" d="M119.23,105.75c-0.13-0.3-0.23-0.51-0.32-0.72c-2.01-4.41-4.01-8.82-6.02-13.23
		c-1.49-3.27-2.98-6.54-4.46-9.82c-0.59-1.31-0.55-1.46,0.54-2.37c0.17-0.14,0.42-0.29,0.47-0.48c0.11-0.39,0.2-0.83,0.13-1.21
		c-0.09-0.47-0.53-0.69-1.01-0.62c-0.49,0.07-0.98,0.17-1.45,0.33c-0.54,0.19-1.04,0.46-1.56,0.69c-2.93,1.35-5.87,2.7-8.79,4.07
		c-0.82,0.38-1.09,0.89-0.94,1.47c0.19,0.72,0.66,1,1.58,0.94c1.25-0.08,1.33-0.03,1.89,1.19c2.95,6.48,5.88,12.97,8.86,19.44
		c0.54,1.17,0.91,2.16-0.38,3.08c-0.45,0.32-0.38,0.91-0.1,1.38c0.28,0.47,0.73,0.61,1.24,0.45c0.35-0.1,0.69-0.23,1.02-0.38
		c1.37-0.62,2.73-1.25,4.1-1.87C115.74,107.33,117.46,106.55,119.23,105.75 M79.54,90.22c-0.87,0.39-1.66,0.74-2.44,1.1
		c-2.5,1.16-5,2.3-7.49,3.49c-0.77,0.37-0.98,0.91-0.76,1.55c0.21,0.6,0.7,0.85,1.5,0.76c1.12-0.13,1.34-0.02,1.8,1
		c2.98,6.55,5.94,13.1,8.96,19.63c0.55,1.18,0.87,2.17-0.4,3.09c-0.43,0.31-0.38,0.86-0.12,1.32c0.27,0.48,0.7,0.64,1.22,0.52
		c0.29-0.07,0.57-0.17,0.84-0.29c1.29-0.58,2.57-1.16,3.86-1.75c1.88-0.86,3.77-1.72,5.69-2.59
		C87.97,108.76,83.77,99.52,79.54,90.22z M93.86,117.24c1.67-0.59,3.09-1.52,4.04-2.64c2.09-2.46,3.14-5.33,3.15-8.53
		c0.02-4.77-1.7-8.95-4.61-12.65c-2.29-2.92-5.27-4.7-9.03-5.07c-2.16-0.21-4.19,0.2-6.18,1.14c0.27,0.6,0.54,1.15,0.76,1.72
		c0.16,0.4,0.38,0.55,0.83,0.45c0.9-0.2,1.68,0.1,2.26,0.81c0.39,0.47,0.75,0.99,1,1.54c2.59,5.65,5.17,11.3,7.72,16.96
		c0.93,2.07,0.78,2.59-0.91,4.15C93.2,115.81,93.53,116.53,93.86,117.24z M75.66,123.26c0.09,0.13,0.16,0.23,0.23,0.31
		c0.15,0.17,0.29,0.35,0.46,0.51c2.89,2.81,6.25,4.89,9.94,6.49c3,1.3,6.12,2.01,9.35,2.37c4.23,0.47,8.37-0.01,12.43-1.16
		c5.59-1.59,10.37-4.58,14.33-8.8c3.29-3.51,5.74-7.58,7.26-12.17c0.07-0.2,0.01-0.45,0.01-0.68c0.04,0.01,0.08,0.03,0.12,0.04
		c0.27-1.05,0.53-2.11,0.8-3.16c0.03-0.24,0.28-0.47,0.29-0.72c0.17-2.47,0.41-4.95,0.42-7.42c0.02-4.9-1.33-9.49-3.52-13.84
		c-2.32-4.62-5.73-8.36-9.72-11.6c-0.56-0.46-1.16-0.89-1.77-1.28c-0.77-0.49-1.13-0.4-1.74,0.36c0.36,0.25,0.71,0.49,1.07,0.73
		c4.24,2.79,7.76,6.31,10.26,10.71c3.47,6.1,4.92,12.69,4.13,19.72c-0.07,0.59,0.08,1.19,0.1,1.79c0.01,0.18-0.07,0.37-0.15,0.53
		c-0.16,0.32-0.4,0.61-0.51,0.95c-0.17,0.56-0.28,1.15-0.38,1.73c-0.06,0.37-0.07,0.76-0.11,1.3c0,0-0.15,0.13-0.3,0.26
		c0.26,0.17,0.51,0.34,0.75,0.5c-0.02,0.07-0.04,0.15-0.06,0.22h-0.99c0,0-0.04,0.06-0.06,0.12c-2.09,5.47-5.25,10.15-9.83,13.88
		c-2.98,2.42-6.21,4.26-9.88,5.39c-7.14,2.19-14.21,2.18-21.21-0.57c-0.26-0.1-0.57-0.09-0.86-0.13c-0.2-0.03-0.41-0.04-0.75-0.07
		c0.01-0.01-0.15,0.08-0.31,0.17c-0.09-0.17-0.18-0.33-0.26-0.51c-0.06-0.14-0.06-0.35-0.16-0.42c-0.8-0.49-1.62-0.96-2.54-1.49
		c0.03,0.39,0.05,0.62,0.08,0.97c-0.18-0.24-0.37-0.37-0.36-0.48c0.06-0.64-0.46-0.8-0.82-1.1c-1.47-1.19-2.99-2.32-4.38-3.6
		C76.41,122.52,76.18,122.55,75.66,123.26z M105.74,68.16c0.1-0.4-0.13-0.54-0.59-0.58c-0.54-0.04-1.07-0.23-1.61-0.3
		c-0.67-0.09-1.35-0.16-2.03-0.2c-0.43-0.02-0.87,0.1-1.3,0.07c-0.85-0.05-1.71-0.25-2.56-0.23c-1.2,0.02-2.41,0.15-3.6,0.3
		c-3.93,0.47-7.64,1.71-11.11,3.57c-2.41,1.29-4.61,2.91-6.61,4.81c-4,3.79-6.93,8.25-8.68,13.47c-0.37,1.12-0.65,2.27-0.9,3.43
		c-0.25,1.13-0.34,2.3-0.61,3.42c-0.26,1.09,0.29,2.19-0.16,3.28c-0.12,0.27,0.13,0.7,0.21,1.05c0.01,0.06,0.01,0.14-0.02,0.19
		c-0.46,0.84-0.17,1.7-0.03,2.53c0.1,0.56,0.12,1.27,1.13,1.26C66.31,93.73,69,84.4,76.72,76.95c7.79-7.52,17.19-10.09,27.87-8.39
		c-0.1-0.21-0.17-0.35-0.27-0.56c0.53-0.07,0.82,0.1,1.01,0.51c0.07,0.16,0.2,0.35,0.35,0.4c1.61,0.54,3.24,1.04,4.85,1.59
		c0.65,0.22,1.18,0.23,1.6-0.45c-0.2-0.14-0.39-0.31-0.6-0.43c-1.56-0.83-3.23-1.35-4.97-1.62
		C106.31,67.98,106.05,68.1,105.74,68.16z M128.58,101.5c-0.32-0.7-0.6-1.33-0.88-1.95c-1-2.2-2-4.39-3.01-6.58
		c-0.24-0.51-0.59-0.88-1.23-0.7c-0.6,0.17-0.92,0.57-0.88,1.21c0.02,0.39,0.06,0.77,0.09,1.16c0.3,3.17,0.26,6.21-2.95,8.16
		c0.34,0.75,0.68,1.48,1.04,2.26C123.4,103.85,125.96,102.69,128.58,101.5z M112.24,69.05c-2.39-1.26-4.92-2.05-7.53-2.54
		c-2.6-0.48-5.24-0.71-7.9-0.57c-2.67,0.14-5.29,0.55-7.86,1.3c-2.59,0.76-5.06,1.83-7.37,3.21c-2.92,1.75-5.6,3.85-7.87,6.41
		c-2.26,2.55-4.12,5.39-5.59,8.46c-1.73,3.62-2.99,8.47-2.56,9.89c1.96-10.91,7.28-19.42,16.89-24.72
		C92.05,65.19,102.08,65.06,112.24,69.05z M85.12,130.74c-0.02,0.07-0.05,0.13-0.07,0.2c7.86,4.06,21.92,5.58,34.18-3.8
		c5.62-4.3,9.34-9.96,11.59-16.63c0.05-0.14-0.01-0.31-0.02-0.47c-0.07-0.01-0.14-0.03-0.21-0.04c-0.7,1.06-0.64,2.42-1.38,3.5
		c-0.76,1.11-1.18,2.45-1.86,3.63c-0.67,1.16-1.42,2.29-2.23,3.36c-0.83,1.09-1.73,2.13-2.68,3.1c-0.93,0.96-1.94,1.87-2.98,2.72
		c-1.06,0.86-2.15,1.69-3.31,2.42c-1.13,0.71-2.33,1.33-3.55,1.89s-2.47,1.06-3.75,1.46c-1.3,0.41-2.63,0.73-3.97,0.98
		c-1.32,0.24-2.66,0.41-3.99,0.49c-1.36,0.08-2.73,0.08-4.09,0c-1.34-0.08-2.68-0.25-4-0.49c-1.34-0.24-2.67-0.57-3.97-0.96
		C87.57,131.72,86.35,131.2,85.12,130.74z M116.09,70.84c-0.07,0.05-0.14,0.1-0.21,0.15c0.25,0.27,0.46,0.59,0.76,0.79
		c2.17,1.45,4.16,3.11,5.94,5.02c4.14,4.44,6.93,9.62,8.37,15.52c0.66,2.71,0.93,5.47,0.95,8.26c0.01,0.84,0.33,1.68-0.13,2.51
		c-0.09,0.16-0.01,0.42-0.01,0.68c0.61-0.41,0.8-3.46,0.32-7.48C130.79,85.26,125.16,76.95,116.09,70.84z M66.31,105.04
		c0.04,0.24,0.07,0.42,0.11,0.59c0.19,0.9,0.48,1.77,0.65,2.68c0.59,3.05,1.87,5.88,3.52,8.53c0.44,0.7,1,1.33,1.49,1.97
		c0.85-0.44,0.84-0.43,0.25-0.91c-0.1-0.08-0.17-0.21-0.23-0.33c-0.46-0.96-0.87-1.94-1.39-2.87c-1.42-2.5-2.06-5.29-3.02-7.96
		c-0.03-0.08-0.06-0.17-0.06-0.26C67.59,105.46,67.45,105.29,66.31,105.04z M73.03,118.71c-0.01,0.47-0.79,0.74-0.33,1.28
		c0.84,1.01,1.66,2.03,2.52,3.11c0.36-0.31,0.62-0.54,0.93-0.8C75.08,121.06,74.05,119.89,73.03,118.71z M84.26,130.72
		c0.06-0.07,0.12-0.14,0.17-0.22c-0.18-0.13-0.35-0.29-0.55-0.4c-2.3-1.31-4.55-2.68-6.57-4.4c-0.19-0.16-0.49-0.2-0.74-0.29
		c-0.03,0.06-0.06,0.13-0.09,0.19C78.89,127.6,81.4,129.43,84.26,130.72z M130.97,109.62c0.63-1.42,1.15-4.69,0.82-5.12
		C131.47,105.04,130.75,109.29,130.97,109.62z M65.69,95.13c-0.66,0.51-0.71,0.93-0.27,1.65C65.52,96.21,65.59,95.75,65.69,95.13z"
		/>
	<path class="st0" d="M119.23,105.75c-1.77,0.81-3.49,1.58-5.2,2.36c-1.37,0.62-2.73,1.25-4.1,1.87c-0.33,0.15-0.67,0.28-1.02,0.38
		c-0.52,0.15-0.96,0.01-1.24-0.45c-0.28-0.47-0.35-1.06,0.1-1.38c1.29-0.93,0.92-1.91,0.38-3.08c-2.98-6.47-5.91-12.96-8.86-19.44
		c-0.56-1.22-0.64-1.27-1.89-1.19c-0.92,0.06-1.39-0.22-1.58-0.94c-0.15-0.58,0.12-1.09,0.94-1.47c2.92-1.37,5.86-2.72,8.79-4.07
		c0.52-0.24,1.02-0.51,1.56-0.69c0.47-0.16,0.96-0.26,1.45-0.33c0.48-0.07,0.91,0.15,1.01,0.62c0.08,0.38-0.02,0.82-0.13,1.21
		c-0.05,0.19-0.3,0.34-0.47,0.48c-1.09,0.91-1.13,1.06-0.54,2.37c1.49,3.27,2.97,6.54,4.46,9.82c2.01,4.41,4.01,8.82,6.02,13.23
		C119.01,105.24,119.1,105.45,119.23,105.75"/>
	<path class="st0" d="M79.54,90.22c4.23,9.3,8.43,18.54,12.66,27.82c-1.93,0.88-3.81,1.74-5.69,2.59c-1.28,0.58-2.57,1.17-3.86,1.75
		c-0.27,0.12-0.55,0.22-0.84,0.29c-0.52,0.12-0.95-0.04-1.22-0.52c-0.26-0.46-0.3-1.01,0.12-1.32c1.27-0.92,0.95-1.9,0.4-3.09
		c-3.02-6.53-5.98-13.09-8.96-19.63c-0.46-1.01-0.68-1.13-1.81-1c-0.8,0.09-1.29-0.16-1.5-0.76c-0.22-0.64-0.01-1.18,0.76-1.55
		c2.48-1.19,4.99-2.33,7.49-3.49C77.89,90.96,78.68,90.61,79.54,90.22"/>
	<path class="st0" d="M93.86,117.24c-0.33-0.71-0.65-1.43-0.97-2.13c1.69-1.56,1.84-2.07,0.91-4.15
		c-2.55-5.67-5.13-11.32-7.72-16.96c-0.25-0.55-0.61-1.07-1-1.54c-0.58-0.7-1.35-1-2.26-0.81c-0.45,0.1-0.67-0.05-0.83-0.45
		c-0.23-0.57-0.49-1.12-0.76-1.72c1.99-0.94,4.02-1.35,6.18-1.14c3.76,0.36,6.74,2.15,9.03,5.07c2.91,3.7,4.63,7.88,4.61,12.65
		c-0.01,3.21-1.07,6.07-3.15,8.54C96.95,115.72,95.52,116.65,93.86,117.24"/>
	<path class="st0" d="M75.66,123.26c0.52-0.71,0.75-0.74,1.38-0.16c1.39,1.28,2.91,2.41,4.38,3.6c0.37,0.3,0.89,0.46,0.82,1.1
		c-0.01,0.11,0.18,0.25,0.36,0.48c-0.03-0.35-0.05-0.58-0.08-0.97c0.92,0.53,1.74,1,2.54,1.49c0.1,0.06,0.1,0.28,0.16,0.42
		c0.08,0.17,0.17,0.34,0.26,0.51c0.16-0.09,0.32-0.18,0.31-0.17c0.35,0.03,0.55,0.05,0.75,0.07c0.29,0.04,0.59,0.03,0.86,0.13
		c7,2.75,14.07,2.77,21.21,0.57c3.67-1.13,6.9-2.97,9.88-5.39c4.59-3.73,7.75-8.41,9.83-13.88c0.02-0.06,0.06-0.12,0.06-0.12h0.99
		c0.02-0.07,0.04-0.15,0.05-0.22c-0.24-0.16-0.49-0.33-0.75-0.5c0.15-0.13,0.3-0.26,0.3-0.26c0.04-0.54,0.05-0.92,0.11-1.3
		c0.1-0.58,0.2-1.17,0.38-1.73c0.1-0.34,0.35-0.63,0.51-0.95c0.08-0.16,0.15-0.35,0.15-0.53c-0.02-0.6-0.17-1.21-0.1-1.79
		c0.79-7.03-0.66-13.62-4.13-19.72c-2.5-4.4-6.02-7.93-10.26-10.71c-0.36-0.24-0.71-0.49-1.07-0.73c0.61-0.76,0.97-0.85,1.74-0.36
		c0.61,0.39,1.2,0.82,1.77,1.28c3.98,3.24,7.4,6.98,9.72,11.6c2.18,4.35,3.53,8.94,3.52,13.84c-0.01,2.48-0.25,4.95-0.42,7.42
		c-0.02,0.25-0.27,0.48-0.29,0.72c-0.27,1.05-0.53,2.11-0.8,3.16c-0.04-0.01-0.08-0.03-0.12-0.04c0,0.23,0.06,0.47-0.01,0.68
		c-1.51,4.59-3.97,8.66-7.26,12.17c-3.96,4.22-8.74,7.21-14.33,8.8c-4.06,1.16-8.2,1.63-12.43,1.16c-3.24-0.36-6.36-1.07-9.35-2.37
		c-3.69-1.6-7.05-3.67-9.94-6.49c-0.16-0.16-0.31-0.33-0.46-0.51C75.81,123.48,75.75,123.39,75.66,123.26"/>
	<path class="st0" d="M105.74,68.16c0.31-0.06,0.58-0.18,0.82-0.14c1.74,0.27,3.41,0.79,4.97,1.62c0.22,0.11,0.4,0.28,0.6,0.43
		c-0.43,0.68-0.95,0.67-1.6,0.45c-1.61-0.55-3.23-1.05-4.85-1.59c-0.15-0.05-0.28-0.24-0.35-0.4c-0.19-0.42-0.48-0.59-1.01-0.51
		c0.1,0.21,0.17,0.35,0.27,0.56c-10.68-1.69-20.08,0.87-27.87,8.39c-7.73,7.45-10.41,16.78-9.45,27.28
		c-1.01,0.01-1.04-0.7-1.13-1.26c-0.14-0.84-0.43-1.69,0.03-2.53c0.03-0.05,0.03-0.13,0.02-0.19c-0.07-0.36-0.32-0.78-0.21-1.05
		c0.46-1.09-0.1-2.19,0.16-3.28c0.27-1.13,0.37-2.29,0.61-3.42c0.25-1.15,0.52-2.31,0.9-3.43c1.75-5.22,4.68-9.69,8.68-13.47
		c2-1.89,4.2-3.51,6.61-4.81c3.47-1.86,7.18-3.1,11.11-3.57c1.2-0.14,2.4-0.27,3.6-0.3c0.85-0.02,1.7,0.18,2.56,0.23
		c0.43,0.03,0.87-0.09,1.3-0.07c0.68,0.03,1.36,0.1,2.03,0.2c0.54,0.08,1.07,0.26,1.61,0.3C105.61,67.62,105.83,67.76,105.74,68.16"
		/>
	<path class="st0" d="M128.58,101.5c-2.62,1.19-5.18,2.36-7.83,3.56c-0.36-0.78-0.69-1.51-1.04-2.26c3.21-1.94,3.25-4.99,2.95-8.16
		c-0.04-0.39-0.07-0.77-0.09-1.16c-0.03-0.64,0.28-1.04,0.88-1.21c0.64-0.19,1,0.19,1.23,0.7c1.01,2.19,2.01,4.39,3.01,6.58
		C127.99,100.17,128.26,100.79,128.58,101.5"/>
	<path class="st0" d="M112.24,69.05c-10.16-3.99-20.19-3.86-29.78,1.44C72.85,75.8,67.53,84.3,65.57,95.21
		c-0.44-1.42,0.82-6.27,2.56-9.89c1.47-3.07,3.33-5.91,5.59-8.46c2.27-2.56,4.95-4.66,7.87-6.41c2.31-1.38,4.77-2.45,7.37-3.21
		c2.57-0.75,5.2-1.16,7.86-1.3s5.3,0.08,7.9,0.57C107.32,67,109.85,67.79,112.24,69.05"/>
	<path class="st0" d="M85.12,130.74c1.23,0.46,2.45,0.98,3.71,1.36c1.3,0.4,2.63,0.72,3.97,0.96c1.32,0.24,2.66,0.41,4,0.49
		c1.36,0.08,2.73,0.08,4.09,0c1.34-0.08,2.68-0.25,3.99-0.49c1.34-0.25,2.67-0.57,3.97-0.98c1.28-0.4,2.53-0.91,3.75-1.46
		c1.22-0.56,2.42-1.17,3.55-1.88c1.15-0.73,2.25-1.56,3.31-2.42c1.04-0.85,2.04-1.75,2.98-2.72c0.95-0.98,1.85-2.02,2.68-3.11
		c0.81-1.07,1.56-2.19,2.23-3.36c0.68-1.18,1.1-2.52,1.86-3.63c0.74-1.08,0.68-2.44,1.38-3.5c0.07,0.01,0.14,0.03,0.21,0.04
		c0.01,0.16,0.07,0.33,0.02,0.47c-2.24,6.67-5.97,12.32-11.59,16.63c-12.25,9.38-26.32,7.86-34.18,3.8
		C85.07,130.88,85.1,130.81,85.12,130.74"/>
	<path class="st0" d="M116.09,70.84c9.07,6.11,14.7,14.42,16,25.44c0.48,4.02,0.29,7.07-0.32,7.48c0-0.26-0.08-0.52,0.01-0.68
		c0.46-0.82,0.13-1.67,0.13-2.51c-0.02-2.79-0.29-5.55-0.95-8.26c-1.45-5.9-4.23-11.07-8.37-15.52c-1.78-1.91-3.77-3.57-5.94-5.02
		c-0.3-0.2-0.51-0.52-0.76-0.79C115.96,70.94,116.03,70.89,116.09,70.84"/>
	<path class="st0" d="M66.31,105.04c1.13,0.25,1.28,0.42,1.32,1.45c0,0.09,0.03,0.18,0.06,0.26c0.96,2.67,1.61,5.46,3.02,7.96
		c0.52,0.92,0.93,1.91,1.39,2.87c0.06,0.12,0.13,0.25,0.23,0.33c0.59,0.48,0.6,0.47-0.25,0.91c-0.49-0.64-1.06-1.27-1.49-1.97
		c-1.65-2.65-2.94-5.48-3.52-8.53c-0.18-0.91-0.46-1.78-0.65-2.68C66.39,105.45,66.36,105.28,66.31,105.04"/>
	<path class="st0" d="M65.59,106.39c0.39,0.27,0.63,0.6,0.5,1.11c-0.03,0.12-0.02,0.27,0.02,0.39c0.61,1.72,1.16,3.48,1.88,5.16
		c0.6,1.41,1.37,2.77,2.14,4.1c1.33,2.29,2.92,4.39,4.79,6.27c0.27,0.27,0.47,0.61,0.69,0.93c0.05,0.06,0.05,0.16-0.02,0.32
		c-0.36-0.33-0.74-0.62-1.06-0.98c-1.62-1.78-3.17-3.62-4.39-5.72c-0.27-0.46-0.65-0.85-0.98-1.27l0.02,0.02
		c-0.25-1.27-1.11-2.28-1.51-3.47c-0.76-2.27-1.39-4.58-2.07-6.88L65.59,106.39z"/>
	<path class="st0" d="M73.03,118.71c1.02,1.17,2.05,2.35,3.12,3.59c-0.31,0.26-0.57,0.49-0.93,0.8c-0.87-1.07-1.68-2.1-2.52-3.11
		C72.24,119.45,73.02,119.19,73.03,118.71"/>
	<path class="st0" d="M84.26,130.72c-2.86-1.3-5.37-3.13-7.77-5.12c0.03-0.06,0.06-0.13,0.09-0.19c0.25,0.09,0.55,0.13,0.74,0.29
		c2.02,1.72,4.27,3.1,6.57,4.4c0.19,0.11,0.37,0.26,0.55,0.4C84.37,130.58,84.32,130.65,84.26,130.72"/>
	<path class="st0" d="M130.97,109.62c-0.22-0.33,0.5-4.58,0.82-5.12C132.11,104.93,131.6,108.2,130.97,109.62"/>
	<path class="st0" d="M65.6,106.38c-0.15-0.93-0.31-1.87-0.46-2.8c0.07-0.01,0.15-0.02,0.22-0.03
		C65.51,104.49,66.29,105.35,65.6,106.38C65.59,106.39,65.6,106.38,65.6,106.38"/>
	<path class="st0" d="M65.69,95.13c-0.1,0.62-0.17,1.08-0.27,1.65C64.98,96.06,65.03,95.64,65.69,95.13"/>
</g>
</svg>
