<?xml version="1.0" encoding="utf-8"?>
<!-- Generator: Adobe Illustrator 24.1.0, SVG Export Plug-In . SVG Version: 6.00 Build 0)  -->
<svg version="1.1" id="Layer_1" xmlns="http://www.w3.org/2000/svg" xmlns:xlink="http://www.w3.org/1999/xlink" x="0px" y="0px"
	 viewBox="0 0 792 612" style="enable-background:new 0 0 792 612;" xml:space="preserve">
<style type="text/css">
	.st0{fill-rule:evenodd;clip-rule:evenodd;fill:#ED1C24;}
	.st1{fill:none;stroke:#FFFFFF;stroke-width:0.5669;stroke-miterlimit:22.9256;}
	.st2{fill:#FFFFFF;}
	.st3{fill-rule:evenodd;clip-rule:evenodd;fill:#FFFFFF;}
	.st4{fill:#8D7049;}
	.st5{font-family:'MyriadPro-Semibold';}
	.st6{font-size:6.0251px;}
</style>
<g>
	<rect x="360.49" y="192.53" class="st0" width="70.87" height="226.77"/>
	<rect x="360.49" y="192.53" width="70.87" height="226.77"/>
	<line class="st1" x1="360.49" y1="305.91" x2="431.36" y2="305.91"/>
	<path class="st2" d="M395.46,367.17l0.53,0.13c-0.11,0.42-0.31,0.75-0.6,0.97c-0.29,0.22-0.64,0.33-1.06,0.33
		c-0.43,0-0.78-0.09-1.05-0.26c-0.27-0.17-0.48-0.42-0.62-0.74c-0.14-0.33-0.21-0.67-0.21-1.05c0-0.41,0.08-0.76,0.24-1.06
		c0.16-0.3,0.39-0.53,0.68-0.69c0.29-0.16,0.62-0.24,0.97-0.24c0.4,0,0.74,0.1,1.01,0.3c0.27,0.2,0.46,0.48,0.57,0.84l-0.52,0.12
		c-0.09-0.28-0.23-0.49-0.4-0.62c-0.18-0.13-0.4-0.19-0.67-0.19c-0.31,0-0.56,0.07-0.77,0.22c-0.21,0.14-0.35,0.34-0.44,0.58
		c-0.08,0.24-0.13,0.49-0.13,0.75c0,0.33,0.05,0.62,0.15,0.87c0.1,0.25,0.25,0.43,0.46,0.56c0.21,0.12,0.44,0.18,0.68,0.18
		c0.3,0,0.55-0.08,0.75-0.25C395.25,367.75,395.39,367.5,395.46,367.17 M387.19,366.36h1.14c0.24,0,0.43-0.02,0.57-0.07
		c0.14-0.05,0.24-0.13,0.31-0.23c0.07-0.11,0.11-0.22,0.11-0.35c0-0.18-0.07-0.34-0.21-0.46c-0.14-0.12-0.35-0.18-0.65-0.18h-1.27
		V366.36z M386.66,368.54v-3.91h1.78c0.36,0,0.63,0.04,0.82,0.11c0.19,0.07,0.33,0.19,0.45,0.37c0.11,0.18,0.17,0.37,0.17,0.59
		c0,0.28-0.09,0.51-0.28,0.7c-0.18,0.19-0.47,0.31-0.85,0.36c0.14,0.07,0.25,0.13,0.32,0.19c0.16,0.14,0.3,0.31,0.44,0.52l0.69,1.06
		h-0.66l-0.53-0.81c-0.15-0.24-0.28-0.41-0.38-0.54c-0.1-0.12-0.19-0.21-0.27-0.26c-0.08-0.05-0.16-0.08-0.24-0.1
		c-0.06-0.01-0.16-0.02-0.3-0.02h-0.61v1.73H386.66z M383.28,366.94h1.37l-0.42-1.08c-0.13-0.33-0.22-0.6-0.29-0.82
		c-0.05,0.25-0.13,0.5-0.22,0.75L383.28,366.94z M382.13,368.54l1.54-3.91h0.58l1.63,3.91h-0.6l-0.46-1.18h-1.69l-0.44,1.18H382.13z
		 M381.04,367.17l0.53,0.13c-0.11,0.42-0.31,0.75-0.6,0.97c-0.29,0.22-0.64,0.33-1.06,0.33c-0.43,0-0.78-0.09-1.05-0.26
		c-0.27-0.17-0.48-0.42-0.62-0.74c-0.14-0.33-0.21-0.67-0.21-1.05c0-0.41,0.08-0.76,0.24-1.06c0.16-0.3,0.39-0.53,0.68-0.69
		c0.29-0.16,0.62-0.24,0.97-0.24c0.4,0,0.74,0.1,1.01,0.3c0.27,0.2,0.46,0.48,0.57,0.84l-0.52,0.12c-0.09-0.28-0.23-0.49-0.4-0.62
		c-0.18-0.13-0.4-0.19-0.67-0.19c-0.31,0-0.56,0.07-0.77,0.22c-0.21,0.14-0.35,0.34-0.44,0.58c-0.08,0.24-0.13,0.49-0.13,0.75
		c0,0.33,0.05,0.62,0.15,0.87c0.1,0.25,0.25,0.43,0.46,0.56c0.21,0.12,0.44,0.18,0.68,0.18c0.3,0,0.55-0.08,0.75-0.25
		C380.82,367.75,380.96,367.5,381.04,367.17z M374.11,368.54v-3.91h2.9v0.46h-2.37v1.2h2.21v0.46h-2.21v1.33h2.46v0.46H374.11z
		 M369.84,367.29l0.5-0.04c0.02,0.2,0.08,0.36,0.17,0.48c0.09,0.13,0.22,0.23,0.4,0.31c0.18,0.08,0.39,0.12,0.62,0.12
		c0.2,0,0.38-0.03,0.54-0.09c0.16-0.06,0.27-0.14,0.35-0.24c0.08-0.1,0.11-0.21,0.11-0.33c0-0.12-0.04-0.23-0.11-0.32
		c-0.07-0.09-0.19-0.17-0.36-0.23c-0.11-0.04-0.35-0.1-0.71-0.19c-0.37-0.09-0.63-0.17-0.77-0.24c-0.19-0.1-0.33-0.22-0.43-0.36
		c-0.09-0.14-0.14-0.31-0.14-0.49c0-0.2,0.06-0.38,0.17-0.55c0.11-0.17,0.28-0.3,0.5-0.39c0.22-0.09,0.47-0.13,0.74-0.13
		c0.3,0,0.56,0.05,0.79,0.14c0.23,0.09,0.4,0.23,0.52,0.41c0.12,0.18,0.19,0.39,0.2,0.62l-0.51,0.04c-0.03-0.25-0.12-0.43-0.28-0.56
		c-0.16-0.13-0.39-0.19-0.7-0.19c-0.32,0-0.56,0.06-0.7,0.17c-0.15,0.11-0.22,0.25-0.22,0.41c0,0.14,0.05,0.26,0.16,0.35
		c0.1,0.09,0.37,0.18,0.8,0.28c0.43,0.1,0.73,0.18,0.89,0.25c0.23,0.1,0.41,0.24,0.52,0.4c0.11,0.16,0.17,0.34,0.17,0.55
		c0,0.21-0.06,0.4-0.18,0.59c-0.12,0.18-0.3,0.33-0.53,0.43c-0.23,0.1-0.49,0.15-0.77,0.15c-0.36,0-0.67-0.05-0.91-0.15
		c-0.25-0.1-0.44-0.26-0.58-0.46C369.92,367.78,369.85,367.55,369.84,367.29z M412.92,360.94h1.14c0.24,0,0.43-0.02,0.57-0.07
		c0.14-0.05,0.24-0.13,0.31-0.23c0.07-0.11,0.11-0.22,0.11-0.35c0-0.18-0.07-0.34-0.21-0.46c-0.14-0.12-0.35-0.18-0.65-0.18h-1.27
		V360.94z M412.39,363.12v-3.91h1.78c0.36,0,0.63,0.04,0.82,0.11c0.19,0.07,0.33,0.19,0.45,0.37c0.11,0.18,0.17,0.37,0.17,0.59
		c0,0.28-0.09,0.51-0.28,0.7c-0.18,0.19-0.47,0.31-0.85,0.36c0.14,0.07,0.25,0.13,0.32,0.19c0.15,0.14,0.3,0.31,0.44,0.52l0.69,1.06
		h-0.66l-0.53-0.81c-0.15-0.24-0.28-0.41-0.38-0.54c-0.1-0.12-0.19-0.21-0.27-0.26c-0.08-0.05-0.16-0.08-0.24-0.1
		c-0.06-0.01-0.16-0.02-0.3-0.02h-0.61v1.73H412.39z M410.57,363.12v-3.91h0.53v3.91H410.57z M405.46,363.12v-3.91h0.8l0.95,2.77
		c0.09,0.26,0.15,0.45,0.19,0.58c0.05-0.14,0.12-0.35,0.21-0.63l0.97-2.72h0.71v3.91h-0.51v-3.27l-1.17,3.27h-0.48l-1.16-3.33v3.33
		H405.46z M403.66,363.12v-3.91h0.53v3.91H403.66z M399.72,360.94h1.14c0.24,0,0.43-0.02,0.57-0.07c0.14-0.05,0.24-0.13,0.31-0.23
		c0.07-0.11,0.11-0.22,0.11-0.35c0-0.18-0.07-0.34-0.21-0.46c-0.14-0.12-0.35-0.18-0.65-0.18h-1.27V360.94z M399.19,363.12v-3.91
		h1.78c0.36,0,0.63,0.04,0.82,0.11c0.19,0.07,0.33,0.19,0.45,0.37c0.11,0.18,0.17,0.37,0.17,0.59c0,0.28-0.09,0.51-0.28,0.7
		c-0.18,0.19-0.47,0.31-0.85,0.36c0.14,0.07,0.25,0.13,0.32,0.19c0.16,0.14,0.3,0.31,0.44,0.52l0.69,1.06h-0.66l-0.53-0.81
		c-0.15-0.24-0.28-0.41-0.38-0.54c-0.1-0.12-0.19-0.21-0.27-0.26c-0.08-0.05-0.16-0.08-0.24-0.1c-0.06-0.01-0.16-0.02-0.3-0.02
		h-0.61v1.73H399.19z M395.63,361.07h1.04c0.34,0,0.59-0.06,0.73-0.19c0.14-0.12,0.22-0.3,0.22-0.53c0-0.16-0.04-0.3-0.13-0.42
		c-0.09-0.12-0.2-0.19-0.34-0.23c-0.09-0.02-0.26-0.03-0.5-0.03h-1.03V361.07z M395.09,363.12v-3.91h1.52
		c0.27,0,0.47,0.01,0.61,0.04c0.2,0.03,0.36,0.09,0.5,0.18c0.13,0.09,0.24,0.22,0.32,0.38c0.08,0.16,0.12,0.34,0.12,0.53
		c0,0.33-0.11,0.61-0.33,0.84c-0.22,0.23-0.61,0.34-1.18,0.34h-1.03v1.59H395.09z M390.6,363.12l1.55-2.03l-1.37-1.88h0.63l0.73,1
		c0.15,0.21,0.26,0.37,0.32,0.48c0.09-0.14,0.2-0.28,0.32-0.44l0.8-1.04h0.58l-1.39,1.86l1.5,2.05h-0.65l-1.01-1.39
		c-0.06-0.08-0.11-0.16-0.16-0.24c-0.09,0.13-0.15,0.22-0.19,0.27l-1.02,1.35H390.6z M386.94,363.12v-3.91h2.9v0.46h-2.37v1.2h2.21
		v0.46h-2.21v1.33h2.46v0.46H386.94z M381.06,361.23c0,0.47,0.13,0.84,0.39,1.11c0.26,0.27,0.59,0.41,0.98,0.41
		c0.4,0,0.73-0.14,0.99-0.41c0.26-0.27,0.39-0.66,0.39-1.16c0-0.32-0.05-0.59-0.17-0.83c-0.11-0.24-0.27-0.42-0.48-0.55
		c-0.21-0.13-0.45-0.2-0.72-0.2c-0.38,0-0.7,0.13-0.97,0.38C381.19,360.22,381.06,360.64,381.06,361.23z M380.51,361.22
		c0-0.65,0.18-1.15,0.54-1.52c0.36-0.37,0.82-0.55,1.39-0.55c0.37,0,0.7,0.09,1,0.26c0.3,0.17,0.52,0.41,0.68,0.72
		c0.16,0.31,0.23,0.66,0.23,1.05c0,0.4-0.08,0.75-0.25,1.06c-0.16,0.31-0.4,0.55-0.7,0.71c-0.3,0.16-0.63,0.24-0.98,0.24
		c-0.38,0-0.72-0.09-1.01-0.27c-0.3-0.18-0.52-0.42-0.68-0.73C380.58,361.89,380.51,361.56,380.51,361.22z M376.27,363.12v-3.91
		h0.55l2.11,3.07v-3.07h0.51v3.91h-0.55l-2.11-3.07v3.07H376.27z M417.61,355.8c0,0.47,0.13,0.84,0.39,1.11
		c0.26,0.27,0.59,0.41,0.98,0.41c0.4,0,0.73-0.14,0.99-0.41c0.26-0.27,0.39-0.66,0.39-1.16c0-0.32-0.06-0.59-0.17-0.83
		c-0.11-0.24-0.27-0.42-0.48-0.55c-0.21-0.13-0.45-0.2-0.72-0.2c-0.38,0-0.7,0.13-0.97,0.38
		C417.75,354.8,417.61,355.22,417.61,355.8z M417.06,355.79c0-0.65,0.18-1.15,0.54-1.52c0.36-0.37,0.82-0.55,1.39-0.55
		c0.37,0,0.7,0.09,1,0.26c0.3,0.17,0.52,0.41,0.68,0.72c0.16,0.31,0.23,0.66,0.23,1.05c0,0.4-0.08,0.75-0.25,1.06
		c-0.16,0.31-0.4,0.55-0.7,0.71c-0.3,0.16-0.63,0.24-0.98,0.24c-0.38,0-0.72-0.09-1.01-0.27c-0.3-0.18-0.52-0.42-0.68-0.73
		C417.14,356.46,417.06,356.14,417.06,355.79z M413.38,355.51h1.14c0.24,0,0.43-0.02,0.57-0.07c0.14-0.05,0.24-0.13,0.31-0.23
		c0.07-0.11,0.11-0.22,0.11-0.35c0-0.18-0.07-0.34-0.21-0.46c-0.14-0.12-0.35-0.18-0.65-0.18h-1.27V355.51z M412.84,357.7v-3.91
		h1.78c0.36,0,0.63,0.04,0.82,0.11c0.19,0.07,0.33,0.19,0.45,0.37c0.11,0.18,0.17,0.37,0.17,0.59c0,0.28-0.09,0.51-0.28,0.7
		c-0.18,0.19-0.47,0.31-0.85,0.36c0.14,0.07,0.25,0.13,0.32,0.19c0.16,0.14,0.3,0.31,0.44,0.52l0.69,1.06h-0.66l-0.53-0.81
		c-0.15-0.24-0.28-0.41-0.38-0.54c-0.1-0.12-0.19-0.21-0.27-0.26c-0.08-0.05-0.16-0.08-0.24-0.1c-0.06-0.01-0.16-0.02-0.3-0.02
		h-0.61v1.73H412.84z M408.52,355.8c0,0.47,0.13,0.84,0.39,1.11c0.26,0.27,0.59,0.41,0.98,0.41c0.4,0,0.73-0.14,0.99-0.41
		c0.26-0.27,0.39-0.66,0.39-1.16c0-0.32-0.06-0.59-0.17-0.83c-0.11-0.24-0.27-0.42-0.48-0.55c-0.21-0.13-0.45-0.2-0.72-0.2
		c-0.38,0-0.7,0.13-0.97,0.38C408.65,354.8,408.52,355.22,408.52,355.8z M407.97,355.79c0-0.65,0.18-1.15,0.54-1.52
		c0.36-0.37,0.82-0.55,1.39-0.55c0.37,0,0.7,0.09,1,0.26c0.3,0.17,0.52,0.41,0.68,0.72c0.16,0.31,0.23,0.66,0.23,1.05
		c0,0.4-0.08,0.75-0.25,1.06c-0.16,0.31-0.4,0.55-0.7,0.71c-0.3,0.16-0.63,0.24-0.98,0.24c-0.38,0-0.72-0.09-1.01-0.27
		c-0.3-0.18-0.52-0.42-0.68-0.73C408.04,356.46,407.97,356.14,407.97,355.79z M404.65,357.7v-3.91h0.53v3.45h1.97v0.46H404.65z
		 M403.14,356.33l0.53,0.13c-0.11,0.42-0.31,0.75-0.6,0.97c-0.29,0.22-0.64,0.33-1.06,0.33c-0.43,0-0.78-0.09-1.05-0.26
		c-0.27-0.17-0.48-0.42-0.62-0.74c-0.14-0.33-0.21-0.67-0.21-1.05c0-0.41,0.08-0.76,0.24-1.06c0.16-0.3,0.39-0.53,0.68-0.69
		c0.29-0.16,0.62-0.24,0.97-0.24c0.4,0,0.74,0.1,1.01,0.3c0.27,0.2,0.46,0.48,0.57,0.84l-0.52,0.12c-0.09-0.28-0.23-0.49-0.4-0.62
		c-0.18-0.13-0.4-0.19-0.67-0.19c-0.31,0-0.57,0.07-0.77,0.22c-0.21,0.14-0.35,0.34-0.44,0.58c-0.08,0.24-0.13,0.49-0.13,0.75
		c0,0.33,0.05,0.62,0.15,0.87c0.1,0.25,0.25,0.43,0.46,0.56c0.21,0.12,0.44,0.18,0.68,0.18c0.3,0,0.55-0.08,0.75-0.25
		C402.92,356.9,403.06,356.65,403.14,356.33z M394.87,355.51h1.14c0.24,0,0.43-0.02,0.57-0.07c0.14-0.05,0.24-0.13,0.31-0.23
		c0.07-0.11,0.11-0.22,0.11-0.35c0-0.18-0.07-0.34-0.21-0.46c-0.14-0.12-0.35-0.18-0.65-0.18h-1.27V355.51z M394.34,357.7v-3.91
		h1.78c0.36,0,0.63,0.04,0.82,0.11c0.19,0.07,0.33,0.19,0.45,0.37c0.11,0.18,0.17,0.37,0.17,0.59c0,0.28-0.09,0.51-0.28,0.7
		c-0.18,0.19-0.47,0.31-0.85,0.36c0.14,0.07,0.25,0.13,0.32,0.19c0.16,0.14,0.3,0.31,0.44,0.52l0.69,1.06h-0.66l-0.53-0.81
		c-0.15-0.24-0.28-0.41-0.38-0.54c-0.1-0.12-0.19-0.21-0.27-0.26c-0.08-0.05-0.16-0.08-0.24-0.1c-0.06-0.01-0.16-0.02-0.3-0.02
		h-0.61v1.73H394.34z M390.96,356.09h1.37l-0.42-1.08c-0.13-0.33-0.22-0.6-0.29-0.82c-0.05,0.25-0.13,0.5-0.22,0.75L390.96,356.09z
		 M389.81,357.7l1.54-3.91h0.58l1.63,3.91h-0.6l-0.46-1.18h-1.69l-0.44,1.18H389.81z M385.99,356.44l0.5-0.04
		c0.02,0.2,0.08,0.36,0.17,0.48c0.09,0.13,0.22,0.23,0.4,0.31c0.18,0.08,0.39,0.12,0.62,0.12c0.2,0,0.38-0.03,0.54-0.09
		c0.16-0.06,0.27-0.14,0.35-0.24c0.08-0.1,0.11-0.21,0.11-0.33c0-0.12-0.04-0.23-0.11-0.32c-0.07-0.09-0.19-0.17-0.36-0.23
		c-0.11-0.04-0.35-0.1-0.71-0.19c-0.37-0.09-0.63-0.17-0.77-0.24c-0.19-0.1-0.33-0.22-0.43-0.36c-0.09-0.14-0.14-0.31-0.14-0.49
		c0-0.2,0.06-0.38,0.17-0.55c0.11-0.17,0.28-0.3,0.5-0.39c0.22-0.09,0.47-0.13,0.74-0.13c0.3,0,0.56,0.05,0.79,0.14
		c0.23,0.09,0.4,0.23,0.52,0.41c0.12,0.18,0.19,0.39,0.2,0.62l-0.51,0.04c-0.03-0.25-0.12-0.43-0.28-0.56
		c-0.16-0.13-0.39-0.19-0.7-0.19c-0.32,0-0.56,0.06-0.7,0.17c-0.15,0.11-0.22,0.25-0.22,0.41c0,0.14,0.05,0.26,0.16,0.35
		c0.1,0.09,0.37,0.18,0.8,0.28c0.43,0.1,0.73,0.18,0.89,0.25c0.23,0.1,0.41,0.24,0.52,0.4c0.11,0.16,0.17,0.34,0.17,0.55
		c0,0.21-0.06,0.4-0.18,0.59c-0.12,0.18-0.3,0.33-0.53,0.43c-0.23,0.1-0.49,0.15-0.77,0.15c-0.36,0-0.67-0.05-0.91-0.15
		c-0.25-0.1-0.44-0.26-0.58-0.46C386.07,356.94,386,356.7,385.99,356.44z M384.4,353.79h0.53v2.26c0,0.39-0.05,0.7-0.14,0.94
		c-0.09,0.23-0.26,0.42-0.49,0.56c-0.24,0.14-0.55,0.22-0.94,0.22c-0.37,0-0.68-0.06-0.92-0.19c-0.24-0.13-0.41-0.31-0.51-0.55
		c-0.1-0.24-0.15-0.57-0.15-0.98v-2.26h0.53v2.26c0,0.34,0.03,0.59,0.1,0.75c0.06,0.16,0.17,0.29,0.33,0.37
		c0.16,0.09,0.35,0.13,0.58,0.13c0.39,0,0.67-0.09,0.83-0.26c0.17-0.17,0.25-0.5,0.25-0.99V353.79z M375.9,355.8
		c0,0.47,0.13,0.84,0.39,1.11c0.26,0.27,0.59,0.41,0.98,0.41c0.4,0,0.73-0.14,0.99-0.41c0.26-0.27,0.39-0.66,0.39-1.16
		c0-0.32-0.05-0.59-0.17-0.83c-0.11-0.24-0.27-0.42-0.48-0.55c-0.21-0.13-0.45-0.2-0.72-0.2c-0.38,0-0.7,0.13-0.97,0.38
		C376.04,354.8,375.9,355.22,375.9,355.8z M375.35,355.79c0-0.65,0.18-1.15,0.54-1.52c0.36-0.37,0.82-0.55,1.39-0.55
		c0.37,0,0.7,0.09,1,0.26c0.3,0.17,0.52,0.41,0.68,0.72c0.16,0.31,0.23,0.66,0.23,1.05c0,0.4-0.08,0.75-0.25,1.06
		c-0.16,0.31-0.4,0.55-0.7,0.71c-0.3,0.16-0.63,0.24-0.98,0.24c-0.38,0-0.72-0.09-1.01-0.27c-0.3-0.18-0.52-0.42-0.68-0.73
		C375.43,356.46,375.35,356.14,375.35,355.79z M371.12,357.7v-3.91h0.55l2.11,3.07v-3.07h0.51v3.91h-0.55l-2.11-3.07v3.07H371.12z
		 M417.59,350.67h1.37l-0.42-1.08c-0.13-0.33-0.22-0.6-0.29-0.82c-0.05,0.25-0.13,0.5-0.22,0.75L417.59,350.67z M416.44,352.27
		l1.54-3.91h0.58l1.63,3.91h-0.6l-0.46-1.18h-1.69l-0.44,1.18H416.44z M415.07,352.27v-3.91h0.53v3.91H415.07z M411.4,351.81h1
		c0.17,0,0.29-0.01,0.36-0.02c0.12-0.02,0.22-0.06,0.31-0.11c0.08-0.05,0.15-0.12,0.2-0.22c0.05-0.1,0.08-0.21,0.08-0.33
		c0-0.15-0.04-0.27-0.12-0.38c-0.08-0.11-0.18-0.18-0.32-0.23c-0.14-0.04-0.33-0.07-0.59-0.07h-0.93V351.81z M411.4,350.01h0.87
		c0.24,0,0.4-0.02,0.51-0.05c0.14-0.04,0.24-0.1,0.31-0.2c0.07-0.09,0.1-0.2,0.1-0.34c0-0.13-0.03-0.24-0.1-0.34
		c-0.06-0.1-0.16-0.17-0.27-0.2c-0.12-0.04-0.32-0.05-0.61-0.05h-0.8V350.01z M410.87,352.27v-3.91h1.51c0.31,0,0.55,0.04,0.74,0.12
		c0.19,0.08,0.33,0.2,0.43,0.37c0.11,0.16,0.16,0.34,0.16,0.52c0,0.17-0.05,0.32-0.14,0.47c-0.09,0.15-0.23,0.27-0.42,0.36
		c0.24,0.07,0.43,0.19,0.56,0.35c0.13,0.17,0.2,0.36,0.2,0.59c0,0.18-0.04,0.35-0.12,0.51c-0.08,0.16-0.18,0.28-0.29,0.36
		c-0.12,0.08-0.26,0.15-0.44,0.19c-0.18,0.04-0.39,0.07-0.65,0.07H410.87z M409.08,352.27v-3.91h0.53v3.91H409.08z M406.25,352.27
		v-3.45h-1.32v-0.46h3.18v0.46h-1.32v3.45H406.25z M400.71,350.67h1.37l-0.42-1.08c-0.13-0.33-0.22-0.6-0.29-0.82
		c-0.05,0.25-0.13,0.5-0.22,0.75L400.71,350.67z M399.56,352.27l1.54-3.91h0.58l1.63,3.91h-0.6l-0.46-1.18h-1.69l-0.44,1.18H399.56z
		 M398.24,348.37h0.53v2.26c0,0.39-0.05,0.7-0.14,0.94c-0.09,0.23-0.26,0.42-0.49,0.56c-0.24,0.14-0.55,0.22-0.94,0.22
		c-0.37,0-0.68-0.06-0.92-0.19c-0.24-0.13-0.41-0.31-0.51-0.55c-0.1-0.24-0.15-0.57-0.15-0.98v-2.26h0.53v2.26
		c0,0.34,0.03,0.59,0.1,0.75c0.06,0.16,0.17,0.29,0.33,0.37c0.16,0.09,0.35,0.13,0.58,0.13c0.39,0,0.67-0.09,0.83-0.26
		c0.17-0.17,0.25-0.5,0.25-0.99V348.37z M392.78,350.74v-0.46h1.7v1.45c-0.26,0.2-0.53,0.35-0.81,0.46
		c-0.28,0.1-0.56,0.15-0.85,0.15c-0.39,0-0.75-0.08-1.07-0.25c-0.32-0.16-0.57-0.4-0.73-0.71c-0.16-0.31-0.25-0.66-0.25-1.04
		c0-0.38,0.08-0.73,0.24-1.07c0.16-0.33,0.4-0.57,0.7-0.73c0.31-0.16,0.66-0.24,1.06-0.24c0.29,0,0.55,0.05,0.79,0.14
		c0.23,0.09,0.42,0.22,0.55,0.38c0.13,0.16,0.23,0.38,0.3,0.64l-0.48,0.13c-0.06-0.2-0.14-0.35-0.22-0.47
		c-0.09-0.11-0.22-0.2-0.38-0.27c-0.17-0.07-0.35-0.1-0.55-0.1c-0.24,0-0.45,0.04-0.63,0.11c-0.18,0.07-0.32,0.17-0.43,0.28
		c-0.11,0.12-0.19,0.25-0.25,0.39c-0.1,0.24-0.15,0.5-0.15,0.79c0,0.35,0.06,0.64,0.18,0.88c0.12,0.23,0.3,0.41,0.54,0.52
		c0.24,0.11,0.49,0.17,0.75,0.17c0.23,0,0.45-0.04,0.67-0.13c0.22-0.09,0.38-0.18,0.5-0.28v-0.73H392.78z M387.54,350.67h1.37
		l-0.42-1.08c-0.13-0.33-0.22-0.6-0.29-0.82c-0.05,0.25-0.13,0.5-0.22,0.75L387.54,350.67z M386.38,352.27l1.54-3.91h0.58l1.63,3.91
		h-0.6l-0.46-1.18h-1.69l-0.44,1.18H386.38z M381.18,352.27v-3.91h0.55l2.11,3.07v-3.07h0.51v3.91h-0.55l-2.11-3.07v3.07H381.18z
		 M376.87,350.38c0,0.47,0.13,0.84,0.39,1.11c0.26,0.27,0.59,0.41,0.98,0.41c0.4,0,0.73-0.14,0.99-0.41
		c0.26-0.27,0.39-0.66,0.39-1.16c0-0.32-0.06-0.59-0.17-0.83c-0.11-0.24-0.27-0.42-0.48-0.55c-0.21-0.13-0.45-0.2-0.72-0.2
		c-0.38,0-0.7,0.13-0.97,0.38C377,349.37,376.87,349.79,376.87,350.38z M376.32,350.37c0-0.65,0.18-1.15,0.54-1.52
		c0.36-0.37,0.82-0.55,1.39-0.55c0.37,0,0.7,0.09,1,0.26c0.3,0.17,0.52,0.41,0.68,0.72c0.16,0.31,0.23,0.66,0.23,1.05
		c0,0.4-0.08,0.75-0.25,1.06c-0.16,0.31-0.4,0.55-0.7,0.71c-0.3,0.16-0.63,0.24-0.98,0.24c-0.38,0-0.72-0.09-1.01-0.27
		c-0.3-0.18-0.52-0.42-0.68-0.73C376.39,351.04,376.32,350.71,376.32,350.37z M374.95,350.9l0.53,0.13
		c-0.11,0.42-0.31,0.75-0.6,0.97c-0.29,0.22-0.64,0.33-1.06,0.33c-0.43,0-0.78-0.09-1.05-0.26c-0.27-0.17-0.48-0.42-0.62-0.74
		c-0.14-0.33-0.21-0.67-0.21-1.05c0-0.41,0.08-0.76,0.24-1.06c0.16-0.3,0.39-0.53,0.68-0.69c0.29-0.16,0.62-0.24,0.97-0.24
		c0.4,0,0.74,0.1,1.01,0.3c0.27,0.2,0.46,0.48,0.57,0.84l-0.52,0.12c-0.09-0.28-0.23-0.49-0.4-0.62c-0.18-0.13-0.4-0.19-0.67-0.19
		c-0.31,0-0.57,0.07-0.77,0.22c-0.21,0.14-0.35,0.34-0.44,0.58c-0.08,0.24-0.13,0.49-0.13,0.75c0,0.33,0.05,0.62,0.15,0.87
		c0.1,0.25,0.25,0.43,0.46,0.56c0.21,0.12,0.44,0.18,0.68,0.18c0.3,0,0.55-0.08,0.75-0.25C374.73,351.48,374.87,351.23,374.95,350.9
		z M414.22,344.96c0,0.47,0.13,0.84,0.39,1.11c0.26,0.27,0.59,0.41,0.98,0.41c0.4,0,0.73-0.14,0.99-0.41
		c0.26-0.27,0.39-0.66,0.39-1.16c0-0.32-0.05-0.59-0.17-0.83c-0.11-0.24-0.27-0.42-0.48-0.55c-0.21-0.13-0.45-0.2-0.72-0.2
		c-0.38,0-0.7,0.13-0.97,0.38C414.36,343.95,414.22,344.37,414.22,344.96z M413.67,344.95c0-0.65,0.18-1.15,0.54-1.52
		c0.36-0.37,0.82-0.55,1.39-0.55c0.37,0,0.7,0.09,1,0.26c0.3,0.17,0.52,0.41,0.68,0.72c0.16,0.31,0.23,0.66,0.23,1.05
		c0,0.4-0.08,0.75-0.25,1.06c-0.16,0.31-0.4,0.55-0.7,0.71c-0.3,0.16-0.63,0.24-0.98,0.24c-0.38,0-0.72-0.09-1.01-0.27
		c-0.3-0.18-0.52-0.42-0.68-0.73C413.75,345.61,413.67,345.29,413.67,344.95z M409.44,346.85v-3.91h0.55l2.11,3.07v-3.07h0.51v3.91
		h-0.55l-2.11-3.07v3.07H409.44z M406.08,345.24h1.37l-0.42-1.08c-0.13-0.33-0.22-0.6-0.29-0.82c-0.05,0.25-0.13,0.5-0.22,0.75
		L406.08,345.24z M404.92,346.85l1.54-3.91h0.58l1.63,3.91h-0.6l-0.46-1.18h-1.69l-0.44,1.18H404.92z M400.34,346.85v-3.91h0.8
		l0.95,2.77c0.09,0.26,0.15,0.45,0.19,0.58c0.05-0.14,0.12-0.35,0.22-0.63l0.97-2.72h0.71v3.91h-0.51v-3.27l-1.17,3.27h-0.48
		l-1.16-3.33v3.33H400.34z M395.74,345.24h1.37l-0.42-1.08c-0.13-0.33-0.22-0.6-0.29-0.82c-0.05,0.25-0.13,0.5-0.22,0.75
		L395.74,345.24z M394.58,346.85l1.54-3.91h0.58l1.63,3.91h-0.6l-0.46-1.18h-1.69l-0.44,1.18H394.58z M389.93,344.67h1.14
		c0.24,0,0.43-0.02,0.57-0.07c0.14-0.05,0.24-0.13,0.31-0.23c0.07-0.11,0.11-0.22,0.11-0.35c0-0.18-0.07-0.34-0.21-0.46
		c-0.14-0.12-0.35-0.18-0.65-0.18h-1.27V344.67z M389.39,346.85v-3.91h1.78c0.36,0,0.63,0.04,0.82,0.11
		c0.19,0.07,0.33,0.19,0.45,0.37c0.11,0.18,0.17,0.37,0.17,0.59c0,0.28-0.09,0.51-0.28,0.7c-0.18,0.19-0.47,0.31-0.85,0.36
		c0.14,0.07,0.25,0.13,0.32,0.19c0.16,0.14,0.3,0.31,0.44,0.52l0.69,1.06h-0.66l-0.53-0.81c-0.15-0.24-0.28-0.41-0.38-0.54
		c-0.1-0.12-0.19-0.21-0.27-0.26c-0.08-0.05-0.16-0.08-0.24-0.1c-0.06-0.01-0.16-0.02-0.3-0.02h-0.61v1.73H389.39z M386.02,345.24
		h1.37l-0.42-1.08c-0.13-0.33-0.22-0.6-0.29-0.82c-0.05,0.25-0.13,0.5-0.22,0.75L386.02,345.24z M384.86,346.85l1.54-3.91h0.58
		l1.63,3.91h-0.6l-0.46-1.18h-1.69l-0.44,1.18H384.86z M382.78,346.85l-1.55-3.91h0.58l1.04,2.84c0.08,0.23,0.15,0.44,0.21,0.64
		c0.06-0.21,0.13-0.43,0.22-0.64l1.08-2.84h0.54l-1.57,3.91H382.78z M378.68,345.24h1.37l-0.42-1.08c-0.13-0.33-0.22-0.6-0.29-0.82
		c-0.05,0.25-0.13,0.5-0.22,0.75L378.68,345.24z M377.53,346.85l1.54-3.91h0.58l1.63,3.91h-0.6l-0.46-1.18h-1.69l-0.44,1.18H377.53z
		 M374.49,346.85v-3.91h0.53v3.45h1.97v0.46H374.49z"/>
	<path class="st2" d="M416.04,372.36h1.37l-0.42-1.08c-0.13-0.33-0.22-0.6-0.29-0.82c-0.05,0.25-0.13,0.5-0.22,0.75L416.04,372.36z
		 M414.88,373.97l1.54-3.91H417l1.63,3.91h-0.6l-0.46-1.18h-1.69l-0.44,1.18H414.88z M413.51,373.97v-3.91h0.53v3.91H413.51z
		 M409.85,373.51h1c0.17,0,0.29-0.01,0.36-0.02c0.12-0.02,0.22-0.06,0.31-0.11c0.08-0.05,0.15-0.12,0.2-0.22
		c0.05-0.1,0.08-0.21,0.08-0.33c0-0.15-0.04-0.27-0.12-0.38c-0.08-0.11-0.18-0.18-0.32-0.23c-0.14-0.04-0.33-0.07-0.59-0.07h-0.93
		V373.51z M409.85,371.7h0.87c0.24,0,0.4-0.02,0.51-0.05c0.14-0.04,0.24-0.1,0.31-0.2c0.07-0.09,0.1-0.2,0.1-0.34
		c0-0.13-0.03-0.24-0.1-0.34c-0.06-0.1-0.16-0.17-0.27-0.2c-0.12-0.04-0.32-0.05-0.61-0.05h-0.8V371.7z M409.32,373.97v-3.91h1.51
		c0.31,0,0.55,0.04,0.74,0.12c0.18,0.08,0.33,0.2,0.43,0.37c0.11,0.16,0.16,0.34,0.16,0.52c0,0.17-0.05,0.32-0.14,0.47
		c-0.09,0.15-0.23,0.27-0.42,0.36c0.24,0.07,0.43,0.19,0.56,0.35c0.13,0.17,0.2,0.36,0.2,0.59c0,0.18-0.04,0.35-0.12,0.51
		c-0.08,0.16-0.18,0.28-0.29,0.36c-0.12,0.08-0.26,0.15-0.44,0.19c-0.18,0.04-0.39,0.07-0.65,0.07H409.32z M407.53,373.97v-3.91
		h0.53v3.91H407.53z M404.69,373.97v-3.45h-1.32v-0.46h3.18v0.46h-1.32v3.45H404.69z M399.16,372.36h1.37l-0.42-1.08
		c-0.13-0.33-0.22-0.6-0.29-0.82c-0.06,0.25-0.13,0.5-0.22,0.75L399.16,372.36z M398,373.97l1.54-3.91h0.58l1.63,3.91h-0.6
		l-0.46-1.18H399l-0.44,1.18H398z M394.07,373.97v-3.91h0.53v1.61h2.07v-1.61h0.53v3.91h-0.53v-1.84h-2.07v1.84H394.07z
		 M392.52,372.6l0.53,0.13c-0.11,0.42-0.31,0.75-0.6,0.97c-0.29,0.22-0.64,0.33-1.06,0.33c-0.43,0-0.78-0.09-1.05-0.26
		c-0.27-0.17-0.48-0.42-0.62-0.74c-0.14-0.33-0.21-0.67-0.21-1.05c0-0.41,0.08-0.76,0.24-1.06c0.16-0.3,0.39-0.53,0.68-0.69
		c0.29-0.16,0.62-0.24,0.97-0.24c0.4,0,0.74,0.1,1.01,0.3c0.27,0.2,0.46,0.48,0.57,0.84l-0.52,0.12c-0.09-0.28-0.23-0.49-0.4-0.62
		c-0.18-0.13-0.4-0.19-0.67-0.19c-0.31,0-0.56,0.07-0.77,0.22c-0.21,0.14-0.35,0.34-0.44,0.58c-0.08,0.24-0.13,0.49-0.13,0.75
		c0,0.33,0.05,0.62,0.15,0.87c0.1,0.25,0.25,0.43,0.46,0.56c0.21,0.12,0.44,0.18,0.68,0.18c0.3,0,0.55-0.08,0.75-0.25
		C392.31,373.17,392.45,372.92,392.52,372.6z M385.26,373.97v-3.91h0.55l2.11,3.07v-3.07h0.51v3.91h-0.55l-2.11-3.07v3.07H385.26z
		 M381.9,372.36h1.37l-0.42-1.08c-0.13-0.33-0.22-0.6-0.29-0.82c-0.05,0.25-0.13,0.5-0.22,0.75L381.9,372.36z M380.75,373.97
		l1.54-3.91h0.58l1.63,3.91h-0.6l-0.46-1.18h-1.69l-0.44,1.18H380.75z M377.7,373.97v-3.91h0.53v3.45h1.97v0.46H377.7z
		 M374.18,371.91h1.04c0.34,0,0.59-0.06,0.73-0.19c0.14-0.12,0.22-0.3,0.22-0.53c0-0.16-0.04-0.3-0.13-0.42
		c-0.08-0.12-0.2-0.19-0.34-0.23c-0.09-0.02-0.26-0.03-0.5-0.03h-1.03V371.91z M373.64,373.97v-3.91h1.51
		c0.27,0,0.47,0.01,0.61,0.04c0.2,0.03,0.36,0.09,0.5,0.18c0.13,0.09,0.24,0.22,0.32,0.38c0.08,0.16,0.12,0.34,0.12,0.53
		c0,0.33-0.11,0.61-0.33,0.84c-0.22,0.23-0.61,0.34-1.18,0.34h-1.03v1.59H373.64z M418.72,366.65c0,0.47,0.13,0.84,0.39,1.11
		c0.26,0.27,0.59,0.41,0.98,0.41c0.4,0,0.73-0.14,0.99-0.41c0.26-0.27,0.39-0.66,0.39-1.16c0-0.32-0.06-0.59-0.17-0.83
		c-0.11-0.24-0.27-0.42-0.48-0.55c-0.21-0.13-0.45-0.2-0.72-0.2c-0.38,0-0.7,0.13-0.97,0.38
		C418.85,365.65,418.72,366.06,418.72,366.65z M418.17,366.64c0-0.65,0.18-1.15,0.54-1.52c0.36-0.37,0.82-0.55,1.39-0.55
		c0.37,0,0.7,0.09,1,0.26c0.3,0.17,0.52,0.41,0.68,0.72c0.16,0.31,0.23,0.66,0.23,1.05c0,0.4-0.08,0.75-0.25,1.06
		c-0.16,0.31-0.4,0.55-0.7,0.71c-0.3,0.16-0.63,0.24-0.98,0.24c-0.38,0-0.72-0.09-1.01-0.27c-0.3-0.18-0.52-0.42-0.68-0.73
		C418.24,367.31,418.17,366.98,418.17,366.64z M414.47,368.08h0.86c0.26,0,0.47-0.02,0.62-0.07c0.15-0.05,0.27-0.12,0.36-0.2
		c0.13-0.12,0.22-0.29,0.29-0.5c0.07-0.21,0.11-0.46,0.11-0.75c0-0.41-0.07-0.72-0.21-0.94c-0.14-0.22-0.3-0.37-0.5-0.44
		c-0.14-0.05-0.37-0.08-0.69-0.08h-0.84V368.08z M413.94,368.54v-3.91h1.38c0.31,0,0.55,0.02,0.71,0.06
		c0.23,0.05,0.43,0.15,0.59,0.28c0.21,0.17,0.37,0.4,0.47,0.67c0.11,0.27,0.16,0.58,0.16,0.93c0,0.3-0.04,0.56-0.11,0.79
		c-0.07,0.23-0.16,0.42-0.27,0.57c-0.11,0.15-0.23,0.27-0.37,0.35c-0.13,0.09-0.29,0.15-0.48,0.2c-0.19,0.04-0.4,0.07-0.65,0.07
		H413.94z M410.57,366.94h1.37l-0.42-1.08c-0.13-0.33-0.22-0.6-0.29-0.82c-0.05,0.25-0.13,0.5-0.22,0.75L410.57,366.94z
		 M409.42,368.54l1.54-3.91h0.58l1.63,3.91h-0.6l-0.46-1.18h-1.69l-0.44,1.18H409.42z M407.03,367.01v-0.46h1.7V368
		c-0.26,0.2-0.53,0.35-0.81,0.46c-0.28,0.1-0.56,0.15-0.85,0.15c-0.39,0-0.75-0.08-1.07-0.25c-0.32-0.16-0.57-0.4-0.73-0.71
		c-0.16-0.31-0.25-0.66-0.25-1.04c0-0.38,0.08-0.73,0.24-1.06c0.16-0.33,0.4-0.57,0.7-0.73c0.31-0.16,0.66-0.24,1.06-0.24
		c0.29,0,0.55,0.05,0.79,0.14c0.23,0.09,0.42,0.22,0.55,0.38c0.13,0.16,0.23,0.38,0.3,0.64l-0.48,0.13
		c-0.06-0.2-0.14-0.35-0.22-0.47c-0.09-0.11-0.22-0.2-0.38-0.27c-0.17-0.07-0.35-0.1-0.55-0.1c-0.24,0-0.45,0.04-0.63,0.11
		c-0.18,0.07-0.32,0.17-0.43,0.28c-0.11,0.12-0.19,0.25-0.25,0.39c-0.1,0.24-0.15,0.5-0.15,0.79c0,0.35,0.06,0.64,0.18,0.88
		c0.12,0.23,0.3,0.41,0.54,0.52c0.24,0.11,0.49,0.17,0.75,0.17c0.23,0,0.45-0.04,0.67-0.13c0.22-0.09,0.38-0.18,0.5-0.28v-0.73
		H407.03z M401.67,368.54v-3.91h0.53v3.45h1.97v0.46H401.67z M397.38,366.65c0,0.47,0.13,0.84,0.39,1.11
		c0.26,0.27,0.59,0.41,0.98,0.41c0.4,0,0.73-0.14,0.99-0.41c0.26-0.27,0.39-0.66,0.39-1.16c0-0.32-0.06-0.59-0.17-0.83
		c-0.11-0.24-0.27-0.42-0.48-0.55c-0.21-0.13-0.45-0.2-0.72-0.2c-0.38,0-0.7,0.13-0.97,0.38
		C397.51,365.65,397.38,366.06,397.38,366.65z M396.83,366.64c0-0.65,0.18-1.15,0.54-1.52c0.36-0.37,0.82-0.55,1.39-0.55
		c0.37,0,0.7,0.09,1,0.26c0.3,0.17,0.52,0.41,0.68,0.72c0.16,0.31,0.23,0.66,0.23,1.05c0,0.4-0.08,0.75-0.25,1.06
		c-0.16,0.31-0.4,0.55-0.7,0.71c-0.3,0.16-0.63,0.24-0.98,0.24c-0.38,0-0.72-0.09-1.01-0.27c-0.3-0.18-0.52-0.42-0.68-0.73
		C396.9,367.31,396.83,366.98,396.83,366.64z"/>
	<path class="st3" d="M372.26,380.32l0.8,3.41H378l0.8-3.41c-0.1-0.07-0.2-0.17-0.3-0.27c-0.12-0.12-0.24-0.25-0.3-0.25
		c-0.06,0-0.18,0.12-0.3,0.25c-0.18,0.19-0.36,0.37-0.6,0.37s-0.42-0.19-0.6-0.37c-0.12-0.12-0.24-0.25-0.3-0.25
		c-0.06,0-0.18,0.12-0.3,0.25c-0.18,0.19-0.36,0.37-0.6,0.37c-0.24,0-0.42-0.19-0.6-0.37c-0.12-0.12-0.24-0.25-0.3-0.25
		c-0.06,0-0.18,0.12-0.3,0.25c-0.18,0.19-0.36,0.37-0.6,0.37c-0.24,0-0.42-0.19-0.6-0.37c-0.12-0.12-0.24-0.25-0.3-0.25
		c-0.06,0-0.18,0.12-0.3,0.25C372.46,380.15,372.36,380.25,372.26,380.32 M379.13,378.88c0.02-0.1,0.13-0.17,0.24-0.14
		c0.11,0.02,0.18,0.12,0.15,0.22l-1.17,5c-0.02,0.09-0.1,0.15-0.2,0.15h-5.27c-0.1,0-0.18-0.07-0.2-0.16l-1.17-4.99
		c-0.02-0.1,0.05-0.2,0.15-0.22c0.11-0.02,0.22,0.04,0.24,0.14l0.24,1.02c0.03-0.03,0.06-0.06,0.09-0.1
		c0.18-0.19,0.36-0.37,0.6-0.37c0.24,0,0.42,0.19,0.6,0.37c0.12,0.12,0.24,0.25,0.3,0.25c0.06,0,0.18-0.12,0.3-0.25
		c0.18-0.19,0.36-0.37,0.6-0.37c0.24,0,0.42,0.19,0.6,0.37c0.12,0.12,0.24,0.25,0.3,0.25c0.06,0,0.18-0.12,0.3-0.25
		c0.18-0.19,0.36-0.37,0.6-0.37c0.24,0,0.42,0.19,0.6,0.37c0.12,0.12,0.24,0.25,0.3,0.25c0.06,0,0.18-0.12,0.3-0.25
		c0.18-0.19,0.36-0.37,0.6-0.37c0.24,0,0.42,0.19,0.6,0.37c0.03,0.03,0.06,0.07,0.09,0.1L379.13,378.88z"/>
	<path class="st3" d="M394.61,380.43l-0.94-0.98h-2.52v2.84h1.67l1.14-1.19L394.61,380.43z M399.01,381.23l-0.13,0.14l0.89,0.93
		h2.67v-2.84h-1.73L399.01,381.23z M396.99,380.87l0.87,0.99l0.6-0.62l0.62-0.65l-0.96-1L396.99,380.87z M395.91,379.65l0.82,0.93
		l0.99-1.13h-1.62L395.91,379.65z M396.47,380.87l-0.83-0.94l-0.48,0.5h0l-0.12,0.13l-0.38,0.39l-0.27,0.28l0.92,0.96L396.47,380.87
		z M397.59,382.14l-0.86-0.97l-0.99,1.13h1.7L397.59,382.14z M393.91,379.14l0.98,1.02l0.5-0.52l-1.8-2.05
		c-0.07-0.08-0.06-0.2,0.03-0.27c0.09-0.07,0.21-0.05,0.28,0.03l1.76,2l0.21-0.22l0.06-0.06h0.09h2.04l1.52-1.72
		c0.07-0.08,0.2-0.09,0.28-0.03c0.09,0.07,0.1,0.18,0.03,0.27l-1.51,1.71l0.97,1.01l1.13-1.18l0.06-0.06h0.09h2.02h0.2v0.19v3.22
		v0.19h-0.2h-2.97h-0.09l-0.06-0.06l-0.93-0.96l-0.49,0.51l1.76,2c0.07,0.08,0.06,0.2-0.03,0.27c-0.09,0.07-0.21,0.05-0.28-0.03
		l-1.72-1.96l-0.17,0.17l-0.06,0.06h-0.09h-2.12l-1.52,1.72c-0.07,0.08-0.2,0.09-0.28,0.03c-0.09-0.07-0.1-0.18-0.03-0.27l1.47-1.67
		l-0.93-0.97l-1.05,1.09l-0.06,0.06h-0.09h-1.96h-0.2v-0.19v-3.22v-0.19h0.2h2.81h0.09L393.91,379.14z"/>
	<path class="st3" d="M387.16,383.08l-2.35-1.02l-2.35,1.02l-0.45,0.85h5.6L387.16,383.08z M386.28,381.42l-0.98,0.43l1.58,0.69
		L386.28,381.42z M383.54,381.08l1.28,0.56l1.28-0.56l-1.28-2.4L383.54,381.08z M382.76,382.54l1.58-0.69l-0.98-0.43L382.76,382.54z
		 M380.72,383.84c-0.18,0.08-0.36,0.06-0.41-0.03c-0.05-0.09,0.06-0.23,0.24-0.31l1.63-0.71l0.82-1.53l-2.44-1.07
		c-0.18-0.08-0.28-0.22-0.24-0.31c0.05-0.09,0.23-0.11,0.41-0.03l2.45,1.07l1.46-2.74l0.18-0.34l0.18,0.34l1.46,2.74l2.45-1.07
		c0.18-0.08,0.36-0.06,0.41,0.03c0.05,0.1-0.06,0.23-0.24,0.31l-2.44,1.07l0.82,1.53l1.63,0.71c0.18,0.08,0.29,0.22,0.24,0.31
		c-0.05,0.09-0.23,0.11-0.41,0.03l-1.16-0.51l0.37,0.69l0.15,0.27h-0.33h-6.25h-0.33l0.15-0.27l0.37-0.69L380.72,383.84z"/>
	<path class="st3" d="M417.02,382.86c0.3,0,0.55-0.23,0.55-0.52c0-0.29-0.25-0.52-0.55-0.52c-0.3,0-0.55,0.23-0.55,0.52
		C416.47,382.62,416.72,382.86,417.02,382.86 M419.56,381.22h-5.01c-0.9,0-1.44,0.29-1.75,0.73c-0.29,0.41-0.39,0.95-0.41,1.5h7.47
		L419.56,381.22z M413.63,379.34c-0.11,0-0.2-0.09-0.2-0.19c0-0.1,0.09-0.19,0.2-0.19h5.88c0.11,0,0.19,0.08,0.2,0.17l0.59,4.49
		c0,0,0,0.01,0,0.01l0.03,0.2h-0.22h-0.01h0h-7.9h-0.2v-0.19c0-0.68,0.11-1.37,0.48-1.9c0.38-0.54,1.02-0.9,2.08-0.9h4.98l-0.2-1.5
		H413.63z M415.46,382.86c0.3,0,0.55-0.23,0.55-0.52c0-0.29-0.25-0.52-0.55-0.52c-0.3,0-0.55,0.23-0.55,0.52
		C414.9,382.62,415.15,382.86,415.46,382.86z"/>
	<path class="st3" d="M404.13,378.18L404.13,378.18l0-0.19h0h0.2h6.18h0.2v0.19v5.79v0.19h-0.2h-6.18h-0.2v-0.19V378.18z
		 M404.53,379.11v4.67h5.77v-4.67c-0.16,0.17-0.36,0.32-0.6,0.46c-0.59,0.33-1.4,0.53-2.29,0.53c-0.89,0-1.7-0.2-2.29-0.53
		C404.89,379.43,404.69,379.28,404.53,379.11z M409.5,379.24c0.42-0.24,0.7-0.54,0.78-0.87h-5.73c0.08,0.33,0.36,0.64,0.78,0.87
		c0.53,0.3,1.26,0.48,2.08,0.48C408.24,379.72,408.97,379.54,409.5,379.24z"/>
	<path class="st2" d="M405.67,272.11c-0.57,0-1.08,0.19-1.52,0.56c-0.45,0.37-0.79,1.03-1.04,1.98c-0.32,1.24-0.49,3.32-0.49,6.25
		c0,2.94,0.15,4.95,0.43,6.04c0.29,1.1,0.66,1.83,1.1,2.19c0.44,0.37,0.95,0.55,1.51,0.55c0.57,0,1.08-0.19,1.53-0.56
		c0.44-0.36,0.79-1.03,1.03-1.98c0.33-1.22,0.49-3.31,0.49-6.24c0-2.93-0.15-4.94-0.44-6.04c-0.29-1.1-0.66-1.83-1.1-2.2
		C406.75,272.29,406.24,272.11,405.67,272.11 M405.67,268.14c2.41,0,4.3,0.86,5.66,2.59c1.62,2.04,2.43,5.44,2.43,10.17
		c0,4.73-0.82,8.13-2.45,10.19c-1.35,1.71-3.23,2.56-5.64,2.56c-2.42,0-4.38-0.93-5.86-2.8c-1.48-1.87-2.23-5.2-2.23-9.99
		c0-4.7,0.82-8.09,2.45-10.16C401.38,268.99,403.26,268.14,405.67,268.14z M378.08,286.59l4.63-0.56c0.14,1.18,0.54,2.09,1.18,2.71
		c0.64,0.63,1.42,0.94,2.33,0.94c0.98,0,1.8-0.38,2.48-1.13c0.67-0.75,1-1.76,1-3.03c0-1.2-0.32-2.16-0.96-2.86
		c-0.64-0.7-1.43-1.06-2.36-1.06c-0.61,0-1.33,0.12-2.18,0.36l0.53-3.87c1.29,0.04,2.27-0.25,2.95-0.85
		c0.68-0.59,1.01-1.39,1.01-2.38c0-0.84-0.25-1.51-0.75-2.01c-0.5-0.5-1.16-0.75-1.99-0.75c-0.82,0-1.51,0.28-2.09,0.85
		c-0.58,0.57-0.93,1.4-1.06,2.49l-4.39-0.75c0.31-1.52,0.77-2.73,1.39-3.64c0.62-0.9,1.48-1.62,2.58-2.14
		c1.1-0.52,2.34-0.78,3.71-0.78c2.34,0,4.22,0.75,5.64,2.25c1.17,1.23,1.75,2.62,1.75,4.17c0,2.19-1.2,3.95-3.59,5.26
		c1.43,0.31,2.56,0.99,3.42,2.06c0.85,1.07,1.28,2.36,1.28,3.86c0,2.19-0.8,4.05-2.4,5.6c-1.6,1.54-3.58,2.31-5.96,2.31
		c-2.25,0-4.12-0.65-5.6-1.95C379.18,290.4,378.32,288.7,378.08,286.59z"/>
	<g>
		<g>
			<path class="st4" d="M372.51,255.17c0,1.11-0.25,2.07-0.75,2.9c-0.5,0.83-1.1,1.28-1.8,1.34c-0.15,0.01-0.29,0.03-0.44,0.04
				c-0.7,0.06-1.3-0.29-1.8-1.07c-0.5-0.78-0.75-1.77-0.75-2.93c0-3.5,0-7.01,0-10.51c0-1.17,0.25-2.15,0.75-2.93
				c0.5-0.78,1.1-1.13,1.8-1.07c0.15,0.01,0.29,0.03,0.44,0.04c0.7,0.06,1.3,0.51,1.8,1.34c0.5,0.83,0.75,1.79,0.75,2.9
				C372.51,248.51,372.51,251.84,372.51,255.17z M370.81,254.51c0-2.92,0-5.83,0-8.75c0-0.71-0.05-1.22-0.14-1.56
				c-0.15-0.5-0.41-0.76-0.8-0.78c-0.8-0.05-1.21,0.7-1.21,2.25c0,2.97,0,5.95,0,8.92c0,1.55,0.37,2.31,1.1,2.26
				C370.47,256.81,370.81,256.03,370.81,254.51z"/>
			<path class="st4" d="M379.65,258.5c-0.65,0.03-1.3,0.07-1.95,0.11c-0.73-1.59-1.45-3.21-2.18-4.85c0,1.66,0,3.32,0,4.99
				c-0.59,0.04-1.18,0.08-1.77,0.12c0-5.76,0-11.51,0-17.27c0.59,0.04,1.18,0.08,1.77,0.12c0,1.64,0,3.29,0,4.93
				c0.72-1.63,1.44-3.22,2.16-4.8c0.64,0.04,1.29,0.07,1.93,0.1c-1.29,2.68-2.58,5.41-3.87,8.23
				C377.04,253.03,378.34,255.79,379.65,258.5z"/>
			<path class="st4" d="M393.07,258.1c-0.59,0.01-1.18,0.01-1.77,0.02c0-2.68,0-5.37,0-8.05c-0.51,2.68-1.02,5.37-1.53,8.08
				c-0.59,0.01-1.18,0.02-1.77,0.04c-0.47-2.75-0.93-5.51-1.4-8.29c0,2.78,0,5.55,0,8.33c-0.59,0.02-1.18,0.04-1.77,0.06
				c0-5.37,0-10.74,0-16.11c0.63,0.02,1.26,0.04,1.89,0.06c0.75,3.8,1.51,7.57,2.26,11.32c0.72-3.76,1.43-7.5,2.15-11.22
				c0.65,0.01,1.29,0.02,1.94,0.02C393.07,247.6,393.07,252.85,393.07,258.1z"/>
			<path class="st4" d="M400.28,258.11c-0.59-0.01-1.18-0.01-1.76-0.02c-0.14-1.2-0.28-2.39-0.41-3.59c-0.43,0-0.87,0-1.3,0
				c-0.14,1.19-0.29,2.39-0.43,3.58c-0.59,0-1.18,0-1.76,0c0.65-5.25,1.31-10.5,1.96-15.75c0.61,0.01,1.22,0.01,1.82,0.02
				C399.02,247.6,399.65,252.85,400.28,258.11z M397.82,251.98c-0.12-1.28-0.24-2.55-0.36-3.83c-0.12,1.28-0.24,2.55-0.36,3.83
				C397.35,251.98,397.58,251.98,397.82,251.98z"/>
			<path class="st4" d="M407.33,258.29c-0.57-0.02-1.13-0.04-1.7-0.06c0-1.31,0-2.62,0-3.92c0-0.95-0.23-1.57-0.68-1.86
				c-0.26-0.15-0.77-0.23-1.54-0.23c0,1.98,0,3.97,0,5.95c-0.59-0.01-1.18-0.03-1.77-0.04c0-5.3,0-10.6,0-15.89
				c1-0.03,2.01-0.06,3.01-0.09c0.7-0.02,1.31,0.32,1.8,1.04c0.5,0.71,0.75,1.59,0.75,2.61c0,0.93,0,1.86,0,2.79
				c0,0.5-0.11,1.03-0.32,1.59c-0.21,0.56-0.46,0.93-0.76,1.11c0.32,0.22,0.59,0.55,0.82,1c0.25,0.5,0.37,0.99,0.37,1.47
				C407.33,255.27,407.33,256.78,407.33,258.29z M405.5,247.93c0-0.51,0-1.02,0-1.54c0-0.81-0.08-1.36-0.25-1.65
				c-0.17-0.29-0.53-0.43-1.08-0.42c-0.25,0-0.51,0.01-0.76,0.01c0,1.89,0,3.77,0,5.66c0.35,0.01,0.71,0.02,1.06,0.02
				C405.16,250.02,405.5,249.32,405.5,247.93z"/>
			<path class="st4" d="M410.76,258.43c-0.59-0.03-1.18-0.05-1.77-0.08c0-5.43,0-10.85,0-16.28c0.59-0.02,1.18-0.03,1.77-0.05
				C410.76,247.49,410.76,252.96,410.76,258.43z"/>
			<path class="st4" d="M417.7,258.83c-0.6-0.04-1.2-0.08-1.8-0.12c-0.6-3.12-1.19-6.21-1.79-9.25c0,3.05,0,6.09,0,9.14
				c-0.54-0.03-1.09-0.06-1.63-0.09c-0.02-5.53-0.03-11.05-0.05-16.58c0.6-0.03,1.21-0.06,1.81-0.1c0.61,3.09,1.22,6.22,1.83,9.39
				c0-3.17,0-6.33,0-9.5c0.54-0.03,1.09-0.07,1.63-0.11C417.7,247.36,417.7,253.1,417.7,258.83z"/>
			<path class="st4" d="M424.87,255.43c0,1.17-0.25,2.15-0.75,2.93c-0.5,0.78-1.1,1.13-1.8,1.07c-0.15-0.01-0.29-0.03-0.44-0.04
				c-0.7-0.06-1.3-0.51-1.8-1.34c-0.5-0.83-0.75-1.79-0.75-2.9c0-3.33,0-6.66,0-9.98c0-1.11,0.25-2.07,0.75-2.9
				c0.5-0.83,1.1-1.28,1.8-1.34c0.15-0.01,0.29-0.03,0.44-0.04c0.7-0.06,1.3,0.29,1.8,1.07c0.5,0.78,0.75,1.77,0.75,2.93
				C424.87,248.42,424.87,251.93,424.87,255.43z M423.18,254.6c0-2.97,0-5.95,0-8.92c0-0.72-0.05-1.24-0.14-1.57
				c-0.15-0.49-0.41-0.72-0.8-0.7c-0.8,0.05-1.21,0.84-1.21,2.36c0,2.92,0,5.83,0,8.75c0,1.52,0.37,2.3,1.1,2.35
				C422.83,256.9,423.18,256.15,423.18,254.6z"/>
		</g>
		<path class="st4" d="M390.55,237.66c-4.54-0.23-15.69-0.34-20.25-0.35l-0.77,0c-0.04,0-0.07,0-0.1,0c-0.5,0-1,0-1.49,0.01
			c-0.31,0-0.53,0.23-0.52,0.51c0.01,0.29,0.22,0.49,0.54,0.5c0.09,0,0.19,0,0.28-0.01c0.2,0,0.41-0.01,0.61-0.01v0l1.14-0.03
			c0.01,0,0.02,0,0.03,0c1.65-0.03,3.3-0.07,4.94-0.13c2.59-0.09,11.79-0.2,14.38-0.3c0.41-0.02,0.81-0.06,1.22-0.09
			C390.55,237.72,390.55,237.69,390.55,237.66z M371.8,237.96c-0.41,0.01-0.83,0.02-1.25,0.02v0l-0.05,0c-0.22,0-0.44,0-0.66,0.01
			c0,0,0,0,0,0l-0.28,0c0,0,0,0,0,0.01c-0.55,0.01-1.09,0.02-1.63,0.01c-0.07,0-0.13-0.12-0.2-0.19c0.06-0.06,0.13-0.18,0.2-0.19
			c0.47-0.02,0.94-0.02,1.43-0.03l0,0l1.19-0.01v0c0.28,0,0.56-0.01,0.83-0.01c0.13,0,0.27-0.02,0.39,0.01
			c0.07,0.02,0.18,0.11,0.18,0.18C371.96,237.83,371.86,237.95,371.8,237.96z"/>
		<path class="st4" d="M401.73,237.75c0.41,0.03,0.81,0.08,1.22,0.09c2.59,0.1,11.79,0.21,14.38,0.3c1.65,0.06,3.3,0.09,4.94,0.13
			c0.01,0,0.02,0,0.03,0l1.14,0.03l0,0c0.2,0,0.41,0.01,0.61,0.01c0.09,0,0.19,0.01,0.28,0.01c0.32-0.01,0.53-0.2,0.54-0.5
			c0.01-0.28-0.21-0.5-0.52-0.51c-0.5-0.01-1,0-1.49-0.01c-0.03,0-0.06,0-0.1,0l-0.77,0c-4.56,0.01-15.71,0.13-20.25,0.35
			C401.73,237.69,401.73,237.72,401.73,237.75z M420.33,237.76c0-0.06,0.1-0.16,0.18-0.18c0.13-0.03,0.26-0.01,0.39-0.01
			c0.27,0,0.55,0.01,0.83,0.01v0l1.19,0.01l0,0c0.49,0.01,0.96,0.01,1.43,0.03c0.07,0,0.13,0.12,0.2,0.19
			c-0.07,0.06-0.13,0.18-0.2,0.19c-0.54,0.01-1.08-0.01-1.63-0.01c0,0,0,0,0-0.01l-0.28,0c0,0,0,0,0,0c-0.22,0-0.44-0.01-0.66-0.01
			l-0.05,0v0c-0.42,0-0.83-0.01-1.25-0.02C420.42,237.95,420.32,237.83,420.33,237.76z"/>
		<g>
			<path class="st4" d="M380.32,232.35c-0.18,0.03-0.27,0.1-0.25,0.22c-0.03,0.01-0.06,0.01-0.09,0.02
				c-0.05-0.3-0.11-0.61-0.16-0.91c0.03-0.01,0.06-0.01,0.1-0.02c0.03,0.15,0.13,0.21,0.32,0.18c0.57-0.1,1.14-0.19,1.71-0.28
				c0,0.03,0.01,0.06,0.01,0.09c-0.06,0.01-0.1,0.03-0.11,0.05c-0.02,0.03-0.02,0.08,0,0.17c0.03,0.22,0.07,0.45,0.1,0.67
				c0.01,0.09,0.03,0.14,0.06,0.17c0.02,0.02,0.06,0.04,0.12,0.04c0,0.03,0.01,0.06,0.01,0.09c-0.33,0.35-0.68,0.62-1.06,0.8
				c-0.37,0.18-0.72,0.3-1.05,0.36c-0.34,0.06-0.67,0.07-0.97,0.04c-0.31-0.04-0.59-0.12-0.83-0.26c-0.25-0.13-0.46-0.31-0.63-0.53
				c-0.17-0.22-0.29-0.48-0.35-0.78c-0.06-0.3-0.06-0.59,0.01-0.87c0.07-0.28,0.19-0.54,0.36-0.77c0.17-0.23,0.4-0.43,0.67-0.6
				c0.27-0.16,0.58-0.28,0.93-0.34c0.35-0.06,0.64-0.09,0.89-0.07c0.25,0.01,0.45,0.04,0.61,0.08c0.16,0.04,0.29,0.08,0.38,0.12
				c0.09,0.04,0.16,0.06,0.21,0.05c0.04-0.01,0.07-0.02,0.09-0.04c0.02-0.02,0.03-0.05,0.04-0.07c0.04,0.02,0.07,0.03,0.11,0.05
				c-0.15,0.3-0.29,0.59-0.44,0.89c-0.04-0.02-0.07-0.03-0.11-0.05c0.02-0.02,0.02-0.06,0.02-0.1c-0.01-0.05-0.06-0.1-0.15-0.15
				c-0.09-0.05-0.21-0.1-0.37-0.15c-0.15-0.04-0.33-0.07-0.53-0.08c-0.2-0.01-0.42,0-0.64,0.04c-0.3,0.05-0.56,0.15-0.76,0.27
				c-0.2,0.13-0.36,0.27-0.48,0.44c-0.11,0.17-0.19,0.35-0.22,0.55c-0.03,0.2-0.02,0.4,0.02,0.6c0.05,0.25,0.14,0.46,0.27,0.63
				c0.13,0.17,0.28,0.31,0.46,0.41c0.17,0.1,0.36,0.17,0.57,0.2c0.21,0.03,0.41,0.03,0.62-0.01c0.34-0.06,0.64-0.16,0.9-0.29
				c0.26-0.13,0.46-0.28,0.62-0.44c-0.03-0.19-0.06-0.39-0.09-0.58C380.92,232.24,380.62,232.3,380.32,232.35z"/>
			<path class="st4" d="M383.97,232.88c-0.01,0.05-0.03,0.1-0.05,0.16c-0.02,0.06-0.03,0.11-0.02,0.14
				c0.01,0.06,0.06,0.08,0.14,0.07c0,0.03,0.01,0.06,0.01,0.09c-0.32,0.04-0.64,0.09-0.96,0.13c0-0.03-0.01-0.06-0.01-0.09
				c0.03,0,0.06-0.01,0.08-0.02c0.02-0.01,0.04-0.03,0.06-0.06c0.02-0.03,0.04-0.07,0.05-0.12c0.02-0.05,0.04-0.12,0.07-0.21
				c0.33-1.11,0.67-2.22,1.03-3.33c0.03-0.09,0.06-0.16,0.07-0.21c0.02-0.05,0.02-0.08,0.02-0.11c-0.01-0.06-0.06-0.09-0.16-0.08
				c0-0.03-0.01-0.06-0.01-0.09c0.4-0.05,0.8-0.1,1.19-0.14c0,0.03,0.01,0.06,0.01,0.09c-0.09,0.01-0.13,0.05-0.12,0.11
				c0,0.03,0.02,0.07,0.05,0.12c0.03,0.05,0.08,0.11,0.13,0.19c0.64,0.97,1.26,1.95,1.86,2.94c0.06,0.09,0.1,0.16,0.13,0.21
				c0.03,0.05,0.06,0.09,0.09,0.11c0.03,0.02,0.05,0.04,0.08,0.04c0.03,0,0.06,0,0.11,0c0,0.03,0.01,0.06,0.01,0.09
				c-0.36,0.03-0.73,0.07-1.09,0.11c0-0.03-0.01-0.06-0.01-0.09c0.06-0.01,0.1-0.02,0.12-0.04c0.02-0.02,0.03-0.05,0.02-0.09
				c0-0.03-0.01-0.05-0.03-0.08c-0.02-0.03-0.05-0.09-0.1-0.17c-0.12-0.2-0.24-0.39-0.37-0.59c-0.75,0.08-1.5,0.17-2.24,0.27
				C384.1,232.44,384.03,232.66,383.97,232.88z M386.08,231.47c-0.37-0.58-0.74-1.16-1.12-1.73c-0.21,0.64-0.41,1.29-0.61,1.94
				C384.92,231.6,385.5,231.54,386.08,231.47z"/>
			<path class="st4" d="M389.07,231.57c-0.01,0.04-0.02,0.07-0.02,0.1c0.01,0.07,0.06,0.14,0.16,0.22c0.1,0.07,0.23,0.13,0.38,0.19
				c0.15,0.05,0.33,0.1,0.52,0.13c0.19,0.03,0.39,0.04,0.58,0.03c0.5-0.03,0.86-0.12,1.08-0.28c0.22-0.16,0.32-0.35,0.31-0.58
				c0-0.11-0.04-0.2-0.1-0.27c-0.06-0.07-0.14-0.12-0.24-0.16c-0.1-0.03-0.22-0.06-0.35-0.07c-0.13-0.01-0.27-0.01-0.42,0
				c-0.25,0.01-0.51,0.03-0.78,0.04c-0.28,0.02-0.53,0-0.76-0.05c-0.23-0.05-0.43-0.14-0.59-0.28c-0.16-0.14-0.26-0.36-0.28-0.65
				c-0.02-0.19,0.02-0.36,0.12-0.52c0.1-0.16,0.23-0.31,0.41-0.43c0.18-0.12,0.4-0.23,0.65-0.3c0.25-0.08,0.53-0.13,0.83-0.15
				c0.24-0.01,0.44-0.01,0.62,0.01c0.17,0.02,0.32,0.05,0.45,0.08c0.13,0.03,0.23,0.06,0.32,0.09c0.08,0.03,0.15,0.04,0.21,0.04
				c0.06,0,0.1-0.01,0.13-0.04c0.03-0.02,0.05-0.05,0.08-0.07c0.03,0.01,0.07,0.02,0.1,0.04c-0.14,0.31-0.28,0.61-0.41,0.92
				c-0.03-0.02-0.06-0.03-0.09-0.05c0-0.02,0.01-0.05,0-0.1c0-0.04-0.04-0.08-0.1-0.13c-0.07-0.05-0.16-0.1-0.28-0.14
				c-0.12-0.04-0.27-0.08-0.44-0.1c-0.17-0.03-0.35-0.03-0.55-0.02c-0.44,0.03-0.79,0.12-1.04,0.27c-0.25,0.15-0.36,0.34-0.35,0.56
				c0.01,0.1,0.04,0.18,0.1,0.23c0.06,0.06,0.14,0.1,0.24,0.12c0.1,0.03,0.22,0.04,0.35,0.04c0.13,0,0.27,0,0.42-0.01
				c0.25-0.02,0.52-0.03,0.79-0.03c0.27-0.01,0.53,0.02,0.76,0.08c0.23,0.06,0.43,0.17,0.59,0.33c0.16,0.16,0.24,0.39,0.25,0.7
				c0.01,0.17-0.03,0.33-0.11,0.49c-0.08,0.16-0.21,0.3-0.38,0.43c-0.17,0.13-0.38,0.23-0.63,0.31c-0.25,0.08-0.54,0.13-0.88,0.15
				c-0.28,0.02-0.53,0.01-0.74-0.02c-0.21-0.03-0.39-0.07-0.54-0.12c-0.15-0.05-0.28-0.09-0.37-0.14c-0.1-0.04-0.18-0.06-0.23-0.06
				c-0.05,0-0.11,0.04-0.16,0.11c-0.03-0.01-0.06-0.03-0.08-0.04c0.12-0.31,0.24-0.62,0.36-0.93
				C388.99,231.54,389.03,231.56,389.07,231.57z"/>
			<path class="st4" d="M397.7,232.46c0.07,0,0.12-0.01,0.15-0.05c0.03-0.03,0.04-0.08,0.04-0.14c0.02-0.98,0.04-1.96,0.06-2.94
				c-0.04,0-0.08,0-0.13,0.01c-0.05,0-0.09,0.01-0.13,0.03c-0.04,0.01-0.08,0.04-0.1,0.07c-0.03,0.03-0.04,0.07-0.04,0.12
				c-0.03,0-0.06,0-0.1,0c0-0.27,0.01-0.53,0.01-0.8c0.03,0,0.07,0,0.1,0c0,0.1,0.03,0.15,0.1,0.15c0.07,0,0.14-0.02,0.24-0.06
				c0.09-0.04,0.14-0.09,0.14-0.16c0-0.1-0.06-0.15-0.19-0.15c0-0.03,0-0.06,0-0.09c0.32,0.01,0.65,0.01,0.97,0.02
				c0,0.03,0,0.06,0,0.09c-0.07,0-0.11,0.01-0.13,0.04c-0.02,0.03-0.03,0.08-0.04,0.15c-0.03,1.18-0.06,2.36-0.09,3.54
				c0,0.06,0.01,0.1,0.04,0.14c0.03,0.03,0.07,0.05,0.15,0.05c0,0.03,0,0.06,0,0.09c-0.35-0.01-0.69-0.02-1.04-0.02
				C397.7,232.52,397.7,232.49,397.7,232.46z"/>
			<path class="st4" d="M401.62,231.65c-0.01,0.03-0.01,0.05-0.02,0.06c0,0.02-0.01,0.03-0.01,0.05c0,0.05,0.03,0.11,0.09,0.17
				c0.06,0.06,0.14,0.12,0.24,0.18c0.1,0.06,0.22,0.1,0.37,0.15c0.14,0.04,0.29,0.07,0.45,0.08c0.45,0.03,0.81-0.04,1.06-0.22
				c0.26-0.18,0.41-0.52,0.45-1.01c0-0.02,0-0.04,0-0.07c0-0.03,0-0.05,0-0.08c-0.01,0-0.01,0-0.02,0c-0.17,0.18-0.38,0.3-0.62,0.35
				c-0.24,0.05-0.5,0.07-0.78,0.05c-0.21-0.02-0.41-0.06-0.61-0.12c-0.2-0.07-0.37-0.16-0.52-0.28c-0.15-0.12-0.27-0.26-0.35-0.43
				c-0.09-0.17-0.13-0.36-0.11-0.58c0.03-0.47,0.21-0.81,0.55-1.04c0.34-0.22,0.79-0.31,1.35-0.27c0.33,0.02,0.61,0.1,0.85,0.23
				c0.24,0.13,0.44,0.29,0.59,0.5c0.15,0.21,0.26,0.44,0.32,0.71c0.06,0.27,0.08,0.56,0.05,0.87c-0.03,0.33-0.11,0.62-0.22,0.87
				c-0.12,0.25-0.27,0.45-0.46,0.61c-0.19,0.16-0.41,0.27-0.66,0.33c-0.25,0.06-0.52,0.08-0.82,0.06c-0.2-0.02-0.38-0.04-0.52-0.07
				c-0.14-0.03-0.29-0.08-0.44-0.13c-0.09-0.03-0.17-0.06-0.26-0.11c-0.08-0.05-0.17-0.07-0.27-0.08c-0.03,0-0.06,0-0.09,0.01
				c-0.03,0.01-0.06,0.03-0.08,0.05c-0.03-0.01-0.07-0.03-0.1-0.04c0.16-0.28,0.32-0.56,0.48-0.84
				C401.56,231.62,401.59,231.63,401.62,231.65z M404.26,230.14c0.02-0.19-0.01-0.34-0.07-0.47c-0.07-0.13-0.16-0.24-0.27-0.32
				c-0.12-0.09-0.25-0.15-0.4-0.19c-0.15-0.04-0.3-0.07-0.45-0.08c-0.33-0.02-0.6,0.04-0.83,0.19c-0.23,0.15-0.35,0.36-0.36,0.64
				c-0.01,0.16,0.02,0.3,0.08,0.42c0.06,0.12,0.14,0.22,0.25,0.3c0.11,0.08,0.23,0.14,0.37,0.18c0.14,0.04,0.29,0.07,0.45,0.08
				c0.15,0.01,0.3,0,0.44-0.03c0.14-0.03,0.28-0.08,0.39-0.15c0.12-0.07,0.21-0.15,0.29-0.24
				C404.21,230.37,404.25,230.26,404.26,230.14z"/>
			<path class="st4" d="M406.25,228.77c-0.01,0.07,0,0.12,0.03,0.15c0.02,0.03,0.08,0.05,0.16,0.06c1.1,0.12,2.2,0.26,3.3,0.42
				c0.08,0.01,0.14,0.01,0.17-0.02c0.03-0.02,0.05-0.07,0.06-0.14c0.03,0,0.07,0.01,0.1,0.01c-0.03,0.21-0.06,0.42-0.09,0.63
				c-0.8,1.01-1.58,2.04-2.33,3.07c-0.01,0.02-0.03,0.05-0.04,0.06c-0.02,0.02-0.02,0.04-0.03,0.07c-0.01,0.05,0.04,0.08,0.13,0.09
				c0,0.03-0.01,0.06-0.01,0.09c-0.36-0.05-0.73-0.09-1.09-0.13c0-0.03,0.01-0.06,0.01-0.09c0.1,0.01,0.17,0,0.22-0.04
				c0.04-0.04,0.1-0.11,0.17-0.2c0.7-0.98,1.42-1.95,2.16-2.92c-0.92-0.13-1.85-0.24-2.77-0.34c-0.08-0.01-0.14,0-0.17,0.03
				c-0.03,0.03-0.05,0.08-0.06,0.14c-0.03,0-0.07-0.01-0.1-0.01c0.03-0.31,0.07-0.63,0.1-0.94
				C406.19,228.77,406.22,228.77,406.25,228.77z"/>
			<path class="st4" d="M415.02,232.42c-0.06,0.29-0.17,0.55-0.31,0.78c-0.15,0.23-0.33,0.42-0.55,0.57
				c-0.22,0.15-0.46,0.25-0.74,0.3c-0.28,0.05-0.58,0.04-0.91-0.02c-0.33-0.06-0.62-0.16-0.86-0.31c-0.24-0.15-0.44-0.32-0.59-0.54
				c-0.15-0.22-0.25-0.46-0.31-0.72c-0.06-0.27-0.06-0.55-0.02-0.84c0.05-0.29,0.14-0.56,0.28-0.8c0.14-0.24,0.32-0.43,0.53-0.59
				c0.22-0.15,0.47-0.26,0.76-0.32c0.29-0.06,0.61-0.06,0.96,0c0.35,0.06,0.65,0.18,0.89,0.34c0.25,0.16,0.45,0.35,0.6,0.57
				c0.15,0.22,0.25,0.47,0.29,0.74C415.08,231.84,415.08,232.12,415.02,232.42z M414.37,232.28c0.1-0.49,0.05-0.9-0.14-1.23
				c-0.19-0.33-0.55-0.55-1.06-0.65c-0.52-0.09-0.93-0.02-1.22,0.23c-0.3,0.25-0.48,0.61-0.56,1.1c-0.08,0.49-0.02,0.9,0.17,1.23
				c0.19,0.33,0.54,0.54,1.04,0.63c0.5,0.09,0.9,0.02,1.19-0.22C414.07,233.13,414.27,232.77,414.37,232.28z"/>
		</g>
		<g>
			<polygon class="st4" points="392.42,236.55 392.75,237.22 393.49,237.33 392.96,237.85 393.08,238.59 392.42,238.24 
				391.76,238.59 391.89,237.85 391.35,237.33 392.09,237.22 			"/>
			<polygon class="st4" points="399.95,236.55 400.28,237.22 401.01,237.33 400.48,237.85 400.61,238.59 399.95,238.24 
				399.28,238.59 399.41,237.85 398.88,237.33 399.61,237.22 			"/>
			<polygon class="st4" points="396.16,234.73 396.64,235.69 397.71,235.85 396.93,236.6 397.12,237.66 396.16,237.16 
				395.21,237.66 395.39,236.6 394.62,235.85 395.69,235.69 			"/>
		</g>
	</g>
	<g>
		<text transform="matrix(1 0 0 1 388.7724 321.0129)"><tspan x="0" y="0" class="st2 st5 st6">R.F.C.</tspan><tspan x="-16.13" y="6.5" class="st2 st5 st6">AESG 700106 TVA</tspan></text>
	</g>
	<g>
		<text transform="matrix(1 0 0 1 371.077 336.5957)" class="st2 st5 st6">HECHO EN MÉXICO</text>
	</g>
</g>
</svg>
