<?xml version="1.0" encoding="utf-8"?>
<!-- Generator: Adobe Illustrator 24.1.0, SVG Export Plug-In . SVG Version: 6.00 Build 0)  -->
<svg version="1.1" id="Layer_1" xmlns="http://www.w3.org/2000/svg" xmlns:xlink="http://www.w3.org/1999/xlink" x="0px" y="0px"
	 viewBox="0 0 792 612" style="enable-background:new 0 0 792 612;" xml:space="preserve">
<style type="text/css">
	.st0{fill-rule:evenodd;clip-rule:evenodd;fill:#A68A6B;stroke:#231F20;stroke-width:0.5;stroke-miterlimit:22.9256;}
	.st1{fill:#432C16;}
	.st2{fill-rule:evenodd;clip-rule:evenodd;fill:#432C16;}
</style>
<g>
	<rect x="282.11" y="227.05" class="st0" width="226.77" height="155.91"/>
	<g>
		<g>
			<g>
				<path class="st1" d="M339.65,307.05c0,2.62-0.59,4.89-1.77,6.84c-1.18,1.95-2.6,3.01-4.25,3.15c-0.35,0.03-0.7,0.06-1.04,0.09
					c-1.66,0.14-3.08-0.69-4.25-2.53c-1.18-1.85-1.76-4.17-1.76-6.93c0-8.27,0-16.54,0-24.82c0-2.76,0.59-5.08,1.76-6.93
					c1.18-1.85,2.59-2.68,4.25-2.54c0.35,0.03,0.7,0.06,1.04,0.09c1.66,0.14,3.08,1.2,4.25,3.16c1.18,1.95,1.77,4.22,1.77,6.84
					C339.65,291.33,339.65,299.19,339.65,307.05z M335.64,305.5c0-6.89,0-13.77,0-20.66c0-1.67-0.11-2.89-0.32-3.67
					c-0.35-1.17-0.98-1.79-1.89-1.85c-1.9-0.12-2.85,1.65-2.85,5.32c0,7.02,0,14.05,0,21.07c0,3.67,0.87,5.44,2.61,5.33
					C334.82,310.93,335.64,309.09,335.64,305.5z"/>
				<path class="st1" d="M356.5,314.93c-1.53,0.08-3.07,0.16-4.6,0.25c-1.71-3.76-3.43-7.58-5.14-11.46c0,3.92,0,7.85,0,11.77
					c-1.39,0.09-2.78,0.18-4.18,0.28c0-13.59,0-27.18,0-40.78c1.39,0.1,2.78,0.19,4.18,0.28c0,3.88,0,7.77,0,11.65
					c1.7-3.84,3.4-7.61,5.1-11.34c1.52,0.09,3.04,0.17,4.56,0.25c-3.05,6.32-6.09,12.78-9.14,19.43
					C350.35,302,353.42,308.53,356.5,314.93z"/>
				<path class="st1" d="M388.2,313.97c-1.39,0.01-2.79,0.03-4.18,0.05c0-6.34,0-12.68,0-19.01c-1.21,6.34-2.41,12.69-3.62,19.08
					c-1.39,0.03-2.79,0.06-4.18,0.09c-1.1-6.5-2.2-13.02-3.3-19.58c0,6.56,0,13.11,0,19.67c-1.39,0.04-2.79,0.09-4.18,0.14
					c0-12.68,0-25.36,0-38.04c1.49,0.05,2.97,0.1,4.46,0.14c1.78,8.98,3.56,17.88,5.35,26.73c1.69-8.88,3.38-17.7,5.08-26.5
					c1.53,0.02,3.05,0.04,4.58,0.05C388.2,289.18,388.2,301.57,388.2,313.97z"/>
				<path class="st1" d="M405.21,314.01c-1.39-0.02-2.78-0.03-4.16-0.05c-0.33-2.83-0.65-5.65-0.98-8.48
					c-1.02,0-2.05-0.01-3.07-0.01c-0.34,2.82-0.68,5.64-1.01,8.46c-1.39,0-2.78,0-4.17,0.01c1.54-12.4,3.08-24.79,4.63-37.19
					c1.43,0.02,2.87,0.03,4.3,0.04C402.24,289.17,403.73,301.57,405.21,314.01z M399.42,299.53c-0.28-3.02-0.56-6.03-0.84-9.04
					c-0.28,3.01-0.56,6.03-0.84,9.04C398.3,299.53,398.86,299.53,399.42,299.53z"/>
				<path class="st1" d="M421.86,314.42c-1.34-0.05-2.68-0.09-4.02-0.13c0-3.09,0-6.18,0-9.27c0-2.25-0.53-3.72-1.6-4.38
					c-0.61-0.35-1.82-0.54-3.63-0.55c0,4.69,0,9.37,0,14.06c-1.39-0.03-2.79-0.06-4.18-0.09c0-12.51,0-25.02,0-37.54
					c2.37-0.06,4.75-0.14,7.12-0.22c1.66-0.05,3.08,0.76,4.26,2.45c1.18,1.68,1.77,3.75,1.77,6.17c0,2.19,0,4.39,0,6.58
					c0,1.17-0.25,2.43-0.74,3.76c-0.5,1.33-1.09,2.21-1.79,2.63c0.75,0.51,1.39,1.3,1.93,2.36c0.59,1.18,0.88,2.34,0.88,3.48
					C421.86,307.29,421.86,310.86,421.86,314.42z M417.56,289.97c0-1.21,0-2.42,0-3.63c0-1.91-0.2-3.21-0.6-3.91
					c-0.4-0.69-1.25-1.03-2.55-1c-0.6,0.01-1.2,0.02-1.8,0.03c0,4.45,0,8.91,0,13.36c0.84,0.02,1.68,0.04,2.51,0.06
					C416.75,294.89,417.56,293.25,417.56,289.97z"/>
				<path class="st1" d="M429.98,314.76c-1.39-0.07-2.79-0.13-4.18-0.18c0-12.82,0-25.63,0-38.45c1.39-0.04,2.79-0.08,4.18-0.12
					C429.98,288.92,429.98,301.84,429.98,314.76z"/>
				<path class="st1" d="M446.37,315.71c-1.42-0.1-2.84-0.19-4.26-0.28c-1.41-7.38-2.81-14.66-4.22-21.84c0,7.2,0,14.39,0,21.59
					c-1.29-0.07-2.57-0.14-3.86-0.21c-0.04-13.06-0.08-26.11-0.12-39.15c1.43-0.07,2.85-0.15,4.28-0.23
					c1.44,7.3,2.88,14.68,4.32,22.17c0-7.48,0-14.96,0-22.43c1.29-0.08,2.57-0.17,3.85-0.25
					C446.37,288.61,446.37,302.16,446.37,315.71z"/>
				<path class="st1" d="M463.3,307.67c0,2.76-0.59,5.08-1.76,6.93c-1.18,1.85-2.59,2.68-4.25,2.53c-0.35-0.03-0.7-0.06-1.04-0.09
					c-1.66-0.14-3.08-1.2-4.25-3.15c-1.18-1.95-1.77-4.22-1.77-6.84c0-7.86,0-15.72,0-23.58c0-2.62,0.59-4.89,1.77-6.84
					c1.18-1.95,2.59-3.01,4.25-3.16c0.35-0.03,0.7-0.06,1.04-0.09c1.66-0.14,3.07,0.69,4.25,2.54c1.18,1.85,1.76,4.17,1.76,6.93
					C463.3,291.13,463.3,299.4,463.3,307.67z M459.29,305.7c0-7.02,0-14.05,0-21.07c0-1.7-0.11-2.94-0.32-3.71
					c-0.35-1.16-0.98-1.7-1.88-1.64c-1.9,0.12-2.85,1.98-2.85,5.56c0,6.89,0,13.77,0,20.66c0,3.59,0.87,5.44,2.61,5.55
					C458.48,311.15,459.29,309.37,459.29,305.7z"/>
			</g>
			<g>
				<polygon class="st2" points="399.26,340.38 399.32,340.38 399.32,340.44 412.65,340.44 412.65,340.38 412.76,340.38 
					412.76,340.32 412.88,340.32 412.88,340.27 412.93,340.27 412.93,340.21 412.99,340.21 412.99,340.15 413.05,340.15 
					413.05,340.1 413.1,340.1 413.1,339.99 413.16,339.99 413.16,339.82 413.22,339.82 413.22,339.53 413.16,339.53 413.16,339.36 
					413.1,339.36 413.1,339.25 413.05,339.25 413.05,339.19 412.99,339.19 412.99,339.14 412.93,339.14 412.93,339.08 
					412.82,339.08 412.82,339.03 412.71,339.03 412.71,338.97 399.26,338.97 				"/>
				<polygon class="st2" points="382.76,339.03 382.64,339.03 382.64,339.08 382.53,339.08 382.53,339.14 382.48,339.14 
					382.48,339.19 382.42,339.19 382.42,339.25 382.36,339.25 382.36,339.36 382.3,339.36 382.3,339.53 382.25,339.53 
					382.25,339.82 382.3,339.82 382.3,339.99 382.36,339.99 382.36,340.1 382.42,340.1 382.42,340.15 382.48,340.15 382.48,340.21 
					382.53,340.21 382.53,340.27 382.59,340.27 382.59,340.32 382.7,340.32 382.7,340.38 382.81,340.38 382.81,340.44 396.6,340.44 
					396.6,338.97 382.76,338.97 				"/>
				<polygon class="st2" points="384.34,341.34 384.17,341.34 384.17,341.4 384.06,341.4 384.06,341.45 384,341.45 384,341.51 
					383.94,341.51 383.94,341.57 383.89,341.57 383.89,341.62 383.83,341.62 383.83,341.74 383.77,341.74 383.77,341.91 
					383.72,341.91 383.72,342.19 383.77,342.19 383.77,342.36 383.83,342.36 383.83,342.47 383.89,342.47 383.89,342.53 
					383.94,342.53 383.94,342.58 384,342.58 384,342.64 384.06,342.64 384.06,342.7 384.17,342.7 384.17,342.76 384.4,342.76 
					384.4,342.81 411.07,342.81 411.07,342.76 411.3,342.76 411.3,342.7 411.41,342.7 411.41,342.64 411.47,342.64 411.47,342.58 
					411.52,342.58 411.52,342.53 411.58,342.53 411.58,342.47 411.64,342.47 411.64,342.36 411.69,342.36 411.69,342.19 
					411.75,342.19 411.75,341.91 411.69,341.91 411.69,341.74 411.64,341.74 411.64,341.62 411.58,341.62 411.58,341.57 
					411.52,341.57 411.52,341.51 411.47,341.51 411.47,341.45 411.41,341.45 411.41,341.4 411.3,341.4 411.3,341.34 411.13,341.34 
					411.13,341.29 384.34,341.29 				"/>
				<g>
					<polygon class="st2" points="381.57,336.59 381.4,336.59 381.4,336.65 381.35,336.65 381.35,336.71 381.23,336.71 
						381.23,336.76 381.17,336.76 381.17,336.88 381.12,336.88 381.12,336.93 381.06,336.93 381.06,337.1 381,337.1 381,337.44 
						381.06,337.44 381.06,337.61 381.12,337.61 381.12,337.72 381.17,337.72 381.17,337.78 381.23,337.78 381.23,337.84 
						381.29,337.84 381.29,337.89 381.4,337.89 381.4,337.95 381.51,337.95 381.51,338.01 413.95,338.01 413.95,337.95 
						414.06,337.95 414.06,337.89 414.18,337.89 414.18,337.84 414.23,337.84 414.23,337.78 414.29,337.78 414.29,337.72 
						414.35,337.72 414.35,337.61 414.4,337.61 414.4,337.44 414.46,337.44 414.46,337.1 414.4,337.1 414.4,336.93 414.35,336.93 
						414.35,336.88 414.29,336.88 414.29,336.76 414.23,336.76 414.23,336.71 414.12,336.71 414.12,336.65 414.06,336.65 
						414.06,336.59 413.9,336.59 413.9,336.54 381.57,336.54 					"/>
				</g>
				<g>
					<polygon class="st2" points="380.55,334.28 380.38,334.28 380.38,334.33 380.33,334.33 380.33,334.39 380.27,334.39 
						380.27,334.45 380.22,334.45 380.22,334.5 380.16,334.5 380.16,334.56 380.1,334.56 380.1,334.67 380.04,334.67 380.04,334.9 
						379.99,334.9 379.99,335.01 380.04,335.01 380.04,335.24 380.1,335.24 380.1,335.35 380.16,335.35 380.16,335.41 
						380.22,335.41 380.22,335.52 380.33,335.52 380.33,335.58 380.38,335.58 380.38,335.63 380.5,335.63 380.5,335.69 
						414.97,335.69 414.97,335.63 415.08,335.63 415.08,335.58 415.14,335.58 415.14,335.52 415.25,335.52 415.25,335.41 
						415.31,335.41 415.31,335.35 415.36,335.35 415.36,335.24 415.42,335.24 415.42,335.01 415.48,335.01 415.48,334.9 
						415.42,334.9 415.42,334.67 415.36,334.67 415.36,334.56 415.31,334.56 415.31,334.5 415.25,334.5 415.25,334.45 
						415.19,334.45 415.19,334.39 415.14,334.39 415.14,334.33 415.08,334.33 415.08,334.28 414.91,334.28 414.91,334.22 
						380.55,334.22 					"/>
				</g>
				<g>
					<g>
						<path class="st2" d="M416.61,332.3v-0.17h-0.06v-0.11h-0.06v-0.05h-0.06v-0.06h-0.06v-0.06h-0.11v-0.06h-0.11v-0.06h-10.91
							v-7.46h-0.06v-0.06h-0.06v-0.06h-0.06v-0.06h-0.11v-0.06h-0.06v-0.06h-0.06v-0.06h-0.11v-0.05h-0.06v-0.06h-0.06v-0.06h-0.11
							v-0.06h-0.06v-0.06h-0.06v-0.06h-0.11v-0.06h-0.06v-0.06h-0.06v-0.06h-0.06v-0.06h-0.11v-0.06h-0.06v-0.06h-0.06v-0.06h-0.12
							v-0.06h-0.05v-0.06h-0.06v-0.06h-0.11v-0.06h-0.06v-0.06h-0.06v-0.06h-0.11v-0.06h-0.06v-0.06h-0.06v-0.06h-0.11v-0.06h-0.06
							v-0.06h-0.06v-0.06h-0.11v-0.06h-0.06v-0.06h-0.06v-0.06h-0.11v-0.06h-0.06v-0.06h-0.06v-0.06h-0.11v-0.06h-0.06v-0.06h-0.05
							v-0.06h-0.11v-0.06h-0.06v-0.06h-0.06v-0.06h-0.06v-0.06h-0.11v-0.06h-0.06v-0.06h-0.06v-0.06h-0.11v-0.05h-0.06v-0.06h-0.06
							v-0.06h-0.11v-0.06h-0.06v-0.06h-0.06v-0.06h-0.11v-0.06h-0.06v-0.06h-6.67v0.06h-0.06v0.06h-0.06v0.06h-0.06v0.06h-0.11v0.06
							h-0.06v0.06h-0.06v0.06H394v0.05h-0.06v0.06h-0.06v0.06h-0.11v0.06h-0.06v0.06h-0.06v0.06h-0.06v0.06h-0.11v0.06h-0.06v0.06
							h-0.06v0.06h-0.11v0.06h-0.06v0.06h-0.06v0.06h-0.11v0.06h-0.06v0.06h-0.06v0.06h-0.06v0.06h-0.11v0.06h-0.06v0.06h-0.06v0.06
							h-0.11v0.06h-0.06v0.06h-0.06v0.06h-0.11v0.06h-0.06v0.06h-0.06v0.06h-0.06v0.06h-0.11v0.06h-0.06v0.06h-0.06v0.06h-0.11v0.06
							h-0.06v0.06h-0.06v0.06h-0.11v0.06h-0.06v0.06h-0.06v0.06h-0.06v0.06h-0.11v0.06h-0.06v0.06h-0.06v0.06h-0.11v0.06h-0.06v0.05
							h-0.06v0.06h-0.06v0.06h-0.11v0.06h-0.06v0.06h-0.06v0.06h-0.11v7.52h-11.25v0.06h-0.11v0.06h-0.11v0.06h-0.06v0.06h-0.06
							v0.05h-0.06v0.11h-0.06v0.11h-0.06v0.45h0.06v0.11h0.06v0.11h0.06v0.06h0.06v0.06h0.06v0.06h0.11v0.06h0.17v0.06h36.73v-0.06
							h0.17v-0.06h0.11v-0.06h0.06v-0.06h0.06v-0.06h0.06v-0.11h0.06v-0.17h0.06v-0.34H416.61z M399.14,331.73h-2.43v-6.55h2.43
							V331.73z"/>
					</g>
				</g>
				<polygon class="st2" points="385.58,343.83 385.47,343.83 385.47,343.88 385.41,343.88 385.41,343.94 385.3,343.94 
					385.3,344.05 385.24,344.05 385.24,344.11 385.19,344.11 385.19,344.22 385.13,344.22 385.13,344.79 385.19,344.79 
					385.19,344.9 385.24,344.9 385.24,344.96 385.3,344.96 385.3,345.01 385.36,345.01 385.36,345.07 385.41,345.07 385.41,345.13 
					385.53,345.13 385.53,345.18 385.7,345.18 385.7,345.24 386.77,345.24 386.77,345.3 386.71,345.3 386.71,345.75 386.66,345.75 
					386.66,346.2 386.6,346.2 386.6,346.65 386.54,346.65 386.54,347.16 386.49,347.16 386.49,347.61 386.43,347.61 386.43,348.07 
					386.37,348.07 386.37,348.52 386.32,348.52 386.32,348.97 386.26,348.97 386.26,349.48 386.2,349.48 386.2,349.93 
					386.15,349.93 386.15,350.38 386.09,350.38 386.09,350.84 386.04,350.84 386.04,351.29 385.98,351.29 385.98,351.74 
					385.92,351.74 385.92,352.25 385.86,352.25 385.86,352.7 385.81,352.7 385.81,353.15 385.75,353.15 385.75,353.6 385.7,353.6 
					385.7,354.06 385.64,354.06 385.64,354.51 385.58,354.51 385.58,355.02 385.53,355.02 385.53,355.24 391.12,355.24 
					391.12,355.19 391.18,355.19 391.18,354.9 391.23,354.9 391.23,354.57 391.29,354.57 391.29,354.28 391.35,354.28 391.35,354 
					391.4,354 391.4,353.72 391.46,353.72 391.46,353.43 391.52,353.43 391.52,353.15 391.57,353.15 391.57,352.81 391.63,352.81 
					391.63,352.53 391.69,352.53 391.69,352.25 391.74,352.25 391.74,351.97 391.8,351.97 391.8,351.68 391.86,351.68 
					391.86,351.34 391.91,351.34 391.91,351.06 391.97,351.06 391.97,350.78 392.02,350.78 392.02,350.49 392.08,350.49 
					392.08,350.21 392.14,350.21 392.14,349.87 392.2,349.87 392.2,349.59 392.25,349.59 392.25,349.31 392.31,349.31 
					392.31,349.03 392.36,349.03 392.36,348.75 392.42,348.75 392.42,348.4 392.48,348.4 392.48,348.12 392.53,348.12 
					392.53,347.84 392.59,347.84 392.59,347.56 392.65,347.56 392.65,347.27 392.7,347.27 392.7,346.99 392.76,346.99 
					392.76,346.65 392.82,346.65 392.82,346.37 392.87,346.37 392.87,346.09 392.93,346.09 392.93,345.81 392.99,345.81 
					392.99,345.52 393.04,345.52 393.04,345.24 394.68,345.24 394.68,345.35 394.74,345.35 394.74,345.69 394.79,345.69 
					394.79,345.97 394.85,345.97 394.85,346.26 394.91,346.26 394.91,346.6 394.96,346.6 394.96,346.88 395.02,346.88 
					395.02,347.16 395.08,347.16 395.08,347.44 395.13,347.44 395.13,347.78 395.19,347.78 395.19,348.07 395.25,348.07 
					395.25,348.35 395.3,348.35 395.3,348.63 395.36,348.63 395.36,348.97 395.42,348.97 395.42,349.25 395.47,349.25 
					395.47,349.54 395.53,349.54 395.53,349.87 395.59,349.87 395.59,350.16 395.64,350.16 395.64,350.44 395.7,350.44 
					395.7,350.72 395.76,350.72 395.76,351.06 395.81,351.06 395.81,351.34 395.87,351.34 395.87,351.63 395.92,351.63 
					395.92,351.97 395.98,351.97 395.98,352.25 396.04,352.25 396.04,352.53 396.09,352.53 396.09,352.81 396.15,352.81 
					396.15,353.15 396.21,353.15 396.21,353.43 396.26,353.43 396.26,353.72 396.32,353.72 396.32,354 396.38,354 396.38,354.34 
					396.43,354.34 396.43,354.62 396.49,354.62 396.49,354.9 396.55,354.9 396.55,355.19 396.6,355.19 396.6,355.24 398.92,355.24 
					398.92,355.07 398.98,355.07 398.98,354.74 399.03,354.74 399.03,354.45 399.09,354.45 399.09,354.17 399.14,354.17 
					399.14,353.83 399.2,353.83 399.2,353.55 399.26,353.55 399.26,353.26 399.32,353.26 399.32,352.93 399.37,352.93 
					399.37,352.64 399.43,352.64 399.43,352.36 399.49,352.36 399.49,352.02 399.54,352.02 399.54,351.74 399.6,351.74 
					399.6,351.46 399.65,351.46 399.65,351.12 399.71,351.12 399.71,350.84 399.77,350.84 399.77,350.55 399.82,350.55 
					399.82,350.21 399.88,350.21 399.88,349.93 399.94,349.93 399.94,349.59 399.99,349.59 399.99,349.31 400.05,349.31 
					400.05,349.03 400.11,349.03 400.11,348.69 400.16,348.69 400.16,348.4 400.22,348.4 400.22,348.12 400.28,348.12 
					400.28,347.78 400.33,347.78 400.33,347.5 400.39,347.5 400.39,347.22 400.45,347.22 400.45,346.88 400.5,346.88 400.5,346.6 
					400.56,346.6 400.56,346.32 400.62,346.32 400.62,345.97 400.67,345.97 400.67,345.69 400.73,345.69 400.73,345.41 
					400.78,345.41 400.78,345.24 402.37,345.24 402.37,345.47 402.42,345.47 402.42,345.75 402.48,345.75 402.48,346.09 
					402.54,346.09 402.54,346.37 402.59,346.37 402.59,346.71 402.65,346.71 402.65,346.99 402.71,346.99 402.71,347.27 
					402.76,347.27 402.76,347.61 402.82,347.61 402.82,347.9 402.87,347.9 402.87,348.24 402.93,348.24 402.93,348.52 
					402.99,348.52 402.99,348.86 403.05,348.86 403.05,349.14 403.1,349.14 403.1,349.48 403.16,349.48 403.16,349.76 
					403.21,349.76 403.21,350.1 403.27,350.1 403.27,350.38 403.33,350.38 403.33,350.72 403.38,350.72 403.38,351.01 
					403.44,351.01 403.44,351.34 403.5,351.34 403.5,351.63 403.55,351.63 403.55,351.91 403.61,351.91 403.61,352.25 
					403.67,352.25 403.67,352.53 403.72,352.53 403.72,352.87 403.78,352.87 403.78,353.15 403.84,353.15 403.84,353.49 
					403.89,353.49 403.89,353.77 403.95,353.77 403.95,354.11 404.01,354.11 404.01,354.4 404.06,354.4 404.06,354.74 
					404.12,354.74 404.12,355.02 404.18,355.02 404.18,355.24 409.83,355.24 409.83,354.9 409.77,354.9 409.77,354.4 409.71,354.4 
					409.71,353.94 409.66,353.94 409.66,353.43 409.6,353.43 409.6,352.98 409.54,352.98 409.54,352.47 409.49,352.47 
					409.49,351.97 409.43,351.97 409.43,351.51 409.37,351.51 409.37,351.01 409.32,351.01 409.32,350.55 409.26,350.55 
					409.26,350.04 409.2,350.04 409.2,349.54 409.15,349.54 409.15,349.08 409.09,349.08 409.09,348.57 409.03,348.57 
					409.03,348.07 408.98,348.07 408.98,347.61 408.92,347.61 408.92,347.11 408.87,347.11 408.87,346.65 408.81,346.65 
					408.81,346.14 408.75,346.14 408.75,345.63 408.7,345.63 408.7,345.24 409.6,345.24 409.6,345.18 409.77,345.18 409.77,345.13 
					409.88,345.13 409.88,345.07 409.94,345.07 409.94,345.01 410,345.01 410,344.96 410.05,344.96 410.05,344.85 410.11,344.85 
					410.11,344.73 410.17,344.73 410.17,344.22 410.11,344.22 410.11,344.11 410.05,344.11 410.05,344.05 410,344.05 410,344 
					409.94,344 409.94,343.94 409.88,343.94 409.88,343.88 409.83,343.88 409.83,343.83 409.71,343.83 409.71,343.77 385.58,343.77 
									"/>
			</g>
			<g>
				<g>
					<path class="st1" d="M336.64,336.3c11.08,0.02,22.12,0.3,33.15,0.85c0,0.07,0,0.14,0,0.21c-0.96,0.07-1.91,0.18-2.87,0.22
						c-6.11,0.25-12.23,0.5-18.34,0.71c-3.89,0.14-7.78,0.22-11.68,0.31c-0.42,0.01-0.55,0.14-0.64,0.53
						c-0.51,2.24-1.57,4.19-3.15,5.86c-0.1,0.11-0.19,0.25-0.32,0.3c-0.11,0.04-0.29,0.01-0.39-0.06c-0.06-0.05-0.07-0.24-0.03-0.34
						c0.05-0.13,0.18-0.23,0.28-0.33c1.4-1.49,2.37-3.23,2.91-5.2c0.04-0.14,0.07-0.29,0.1-0.43c0.01-0.07,0.02-0.14,0.04-0.28
						c-1.03,0.02-2.03,0.04-3.03,0.06c-0.22,0-0.44,0.02-0.66,0.01c-0.75-0.01-1.25-0.48-1.27-1.17c-0.02-0.66,0.51-1.19,1.24-1.2
						c1.18-0.02,2.35-0.01,3.53-0.02c0.13,0,0.25-0.01,0.51-0.01c-0.09-0.82-0.11-1.62-0.26-2.4c-1.28-6.54-7.3-10.76-13.91-9.79
						c-6.64,0.98-11.33,7.61-10.07,14.18c0.87,4.53,3.68,7.54,7.55,9.72c1.99,1.12,4.21,1.63,6.39,2.23
						c1.85,0.51,3.66,1.14,5.16,2.41c1.76,1.5,2.97,3.3,3.01,5.72c0.05,3.26-2.33,6.2-5.43,6.72c-3.48,0.59-6.67-1.25-7.67-4.53
						c-0.27-0.89-0.25-1.88-0.31-2.82c-0.01-0.19,0.24-0.55,0.35-0.55c0.42,0.01,0.28,0.38,0.26,0.63c-0.34,3.79,2.6,6.95,6.36,6.74
						c2.45-0.14,4.26-1.36,5.26-3.61c1.03-2.31,0.64-4.48-0.91-6.47c-1.44-1.84-3.41-2.79-5.59-3.44c-1.95-0.59-3.95-1.08-5.83-1.85
						c-3.48-1.41-6.21-3.78-7.98-7.13c-3.1-5.89-1.13-13.17,4.48-16.74c6.5-4.13,15.18-1.63,18.48,5.32
						c0.78,1.64,1.18,3.36,1.23,5.17C336.62,335.97,336.63,336.12,336.64,336.3z M336.51,337.92c1.57-0.02,3.09-0.03,4.61-0.08
						c0.14,0,0.38-0.3,0.37-0.46c-0.01-0.15-0.25-0.38-0.42-0.42c-0.3-0.07-0.62-0.02-0.93-0.01c-1.17,0.02-2.34,0.04-3.54,0.06
						C336.58,337.31,336.55,337.56,336.51,337.92z M335.97,337.01c-1.37,0.02-2.67,0.02-3.97,0.07c-0.16,0.01-0.31,0.28-0.46,0.44
						c0.15,0.15,0.31,0.44,0.46,0.44c1.28,0.02,2.56-0.02,3.85-0.03C335.9,337.61,335.93,337.36,335.97,337.01z"/>
				</g>
				<g>
					<path class="st1" d="M454.39,335.83c0.06-1.81,0.45-3.53,1.23-5.17c3.3-6.95,11.98-9.46,18.48-5.32
						c5.61,3.56,7.58,10.85,4.48,16.74c-1.77,3.35-4.5,5.72-7.98,7.13c-1.88,0.76-3.88,1.26-5.83,1.85
						c-2.17,0.65-4.15,1.6-5.59,3.44c-1.55,1.99-1.94,4.16-0.91,6.47c1,2.25,2.81,3.47,5.26,3.61c3.76,0.21,6.7-2.95,6.36-6.74
						c-0.02-0.25-0.16-0.62,0.26-0.63c0.12,0,0.37,0.37,0.35,0.55c-0.06,0.95-0.04,1.93-0.31,2.82c-1,3.28-4.19,5.12-7.67,4.53
						c-3.11-0.52-5.49-3.46-5.43-6.72c0.04-2.41,1.25-4.22,3.01-5.72c1.49-1.27,3.31-1.9,5.16-2.41c2.18-0.6,4.4-1.11,6.39-2.23
						c3.87-2.18,6.68-5.19,7.55-9.72c1.27-6.57-3.43-13.2-10.07-14.18c-6.6-0.98-12.62,3.25-13.91,9.79
						c-0.15,0.78-0.18,1.58-0.26,2.4c0.25,0.01,0.38,0.01,0.51,0.01c1.18,0,2.35,0,3.53,0.02c0.73,0.01,1.26,0.54,1.24,1.2
						c-0.02,0.69-0.52,1.16-1.27,1.17c-0.22,0-0.44-0.01-0.66-0.01c-1-0.02-2-0.04-3.03-0.06c0.02,0.14,0.02,0.21,0.04,0.28
						c0.03,0.14,0.06,0.29,0.1,0.43c0.54,1.97,1.51,3.71,2.91,5.2c0.1,0.11,0.23,0.21,0.28,0.33c0.04,0.1,0.03,0.29-0.03,0.34
						c-0.1,0.07-0.28,0.1-0.39,0.06c-0.13-0.05-0.22-0.19-0.32-0.3c-1.58-1.67-2.64-3.62-3.15-5.86c-0.09-0.39-0.22-0.52-0.64-0.53
						c-3.89-0.08-7.78-0.17-11.68-0.31c-6.11-0.21-12.23-0.46-18.34-0.71c-0.96-0.04-1.91-0.14-2.87-0.22c0-0.07,0-0.14,0-0.21
						c11.03-0.55,22.08-0.83,33.15-0.85C454.37,336.12,454.38,335.97,454.39,335.83z M454.39,337c-1.2-0.02-2.37-0.04-3.54-0.06
						c-0.31,0-0.64-0.05-0.93,0.01c-0.17,0.04-0.41,0.27-0.42,0.42c-0.01,0.15,0.23,0.45,0.37,0.46c1.52,0.05,3.04,0.06,4.61,0.08
						C454.45,337.56,454.42,337.31,454.39,337z M455.14,337.92c1.3,0.02,2.58,0.05,3.85,0.03c0.16,0,0.31-0.29,0.46-0.44
						c-0.15-0.15-0.3-0.43-0.46-0.44c-1.3-0.05-2.6-0.05-3.97-0.07C455.07,337.36,455.1,337.61,455.14,337.92z"/>
				</g>
			</g>
			<path class="st1" d="M382.24,265.71c-10.72-0.53-37.06-0.8-47.82-0.84l-1.83,0.01c-0.09,0-0.17,0-0.24,0
				c-1.18,0-2.35,0-3.53,0.02c-0.73,0.01-1.26,0.54-1.24,1.2c0.02,0.69,0.52,1.16,1.27,1.17c0.22,0,0.44-0.01,0.66-0.01
				c0.48-0.01,0.97-0.02,1.45-0.03l0,0l2.7-0.07c0.03,0,0.05-0.01,0.08-0.01c3.89-0.08,7.78-0.17,11.68-0.31
				c6.11-0.21,27.84-0.46,33.96-0.71c0.96-0.04,1.91-0.14,2.87-0.22C382.25,265.85,382.24,265.78,382.24,265.71z M337.96,266.41
				c-0.97,0.03-1.95,0.05-2.94,0.06v0l-0.12,0c-0.52,0.01-1.03,0.01-1.55,0.02c0,0,0-0.01,0-0.01l-0.65,0c0,0,0,0.01,0,0.01
				c-1.3,0.02-2.58,0.05-3.85,0.03c-0.16,0-0.31-0.29-0.46-0.44c0.15-0.15,0.3-0.43,0.46-0.44c1.1-0.04,2.22-0.05,3.37-0.07l0-0.01
				l2.81-0.03v0c0.65-0.01,1.31-0.02,1.96-0.03c0.31,0,0.64-0.05,0.93,0.01c0.17,0.04,0.41,0.27,0.42,0.42
				C338.34,266.1,338.1,266.4,337.96,266.41z"/>
			<path class="st1" d="M408.65,265.92c0.96,0.07,1.91,0.18,2.87,0.22c6.11,0.25,27.84,0.5,33.96,0.71
				c3.89,0.14,7.78,0.22,11.68,0.31c0.03,0,0.05,0.01,0.08,0.01l2.7,0.07l0,0c0.48,0.01,0.97,0.02,1.45,0.03
				c0.22,0,0.44,0.02,0.66,0.01c0.75-0.01,1.25-0.48,1.27-1.17c0.02-0.66-0.51-1.19-1.24-1.2c-1.18-0.02-2.35-0.01-3.53-0.02
				c-0.07,0-0.15,0-0.24,0l-1.83-0.01c-10.76,0.03-37.1,0.31-47.82,0.84C408.65,265.78,408.65,265.85,408.65,265.92z M452.56,265.95
				c0.01-0.15,0.25-0.38,0.42-0.42c0.3-0.07,0.62-0.02,0.93-0.01c0.65,0.01,1.31,0.02,1.96,0.03v0l2.81,0.03l0,0.01
				c1.15,0.01,2.26,0.02,3.37,0.07c0.16,0.01,0.31,0.28,0.46,0.44c-0.15,0.15-0.31,0.44-0.46,0.44c-1.28,0.02-2.56-0.02-3.85-0.03
				c0,0,0-0.01,0-0.01l-0.65,0c0,0,0,0.01,0,0.01c-0.52-0.01-1.04-0.01-1.55-0.02l-0.12,0v0c-0.99-0.01-1.97-0.03-2.94-0.06
				C452.8,266.4,452.56,266.1,452.56,265.95z"/>
			<g>
				<path class="st1" d="M362.94,252.83c-0.38,0.07-0.55,0.22-0.51,0.45c-0.06,0.01-0.13,0.02-0.19,0.03
					c-0.11-0.62-0.22-1.25-0.33-1.87c0.07-0.01,0.13-0.02,0.2-0.03c0.06,0.32,0.27,0.44,0.66,0.37c1.17-0.2,2.35-0.39,3.52-0.58
					c0.01,0.06,0.02,0.13,0.03,0.19c-0.12,0.02-0.2,0.05-0.23,0.11c-0.03,0.05-0.03,0.17,0,0.35c0.07,0.46,0.14,0.92,0.22,1.38
					c0.03,0.18,0.07,0.29,0.12,0.34c0.05,0.05,0.13,0.07,0.24,0.08c0.01,0.06,0.02,0.13,0.03,0.19c-0.68,0.72-1.4,1.27-2.17,1.64
					c-0.77,0.37-1.48,0.61-2.16,0.73c-0.7,0.13-1.37,0.15-2,0.08c-0.63-0.08-1.2-0.25-1.71-0.53c-0.51-0.28-0.94-0.64-1.29-1.09
					c-0.35-0.45-0.59-0.98-0.72-1.59c-0.13-0.62-0.12-1.22,0.01-1.79c0.14-0.58,0.39-1.1,0.74-1.59c0.36-0.48,0.81-0.89,1.37-1.23
					c0.56-0.34,1.19-0.57,1.91-0.7c0.71-0.13,1.32-0.18,1.83-0.15c0.5,0.03,0.92,0.09,1.26,0.17c0.33,0.09,0.6,0.17,0.79,0.26
					c0.19,0.08,0.33,0.12,0.43,0.1c0.09-0.01,0.15-0.04,0.18-0.09c0.03-0.04,0.06-0.09,0.09-0.15c0.07,0.03,0.15,0.06,0.22,0.1
					c-0.3,0.61-0.6,1.21-0.9,1.82c-0.07-0.03-0.15-0.06-0.22-0.09c0.04-0.05,0.05-0.12,0.03-0.2c-0.02-0.1-0.12-0.2-0.31-0.31
					c-0.19-0.11-0.44-0.21-0.76-0.3c-0.32-0.09-0.68-0.15-1.1-0.17c-0.42-0.03-0.86,0-1.32,0.09c-0.62,0.11-1.14,0.3-1.56,0.56
					c-0.42,0.26-0.75,0.56-0.98,0.91c-0.24,0.35-0.38,0.72-0.44,1.13c-0.06,0.4-0.05,0.82,0.03,1.24c0.1,0.51,0.29,0.95,0.55,1.3
					c0.27,0.36,0.58,0.64,0.94,0.85c0.36,0.21,0.75,0.35,1.17,0.41c0.42,0.07,0.85,0.06,1.28-0.02c0.71-0.13,1.32-0.33,1.85-0.6
					c0.53-0.27,0.95-0.58,1.28-0.91c-0.07-0.4-0.13-0.8-0.2-1.2C364.18,252.62,363.56,252.72,362.94,252.83z"/>
				<path class="st1" d="M370.45,253.92c-0.03,0.1-0.06,0.21-0.1,0.34c-0.04,0.12-0.05,0.22-0.04,0.28c0.02,0.12,0.11,0.16,0.3,0.14
					c0.01,0.06,0.02,0.13,0.03,0.19c-0.66,0.09-1.32,0.18-1.97,0.27c-0.01-0.06-0.02-0.13-0.03-0.19c0.06-0.01,0.12-0.02,0.17-0.04
					c0.05-0.02,0.09-0.06,0.12-0.12c0.04-0.06,0.07-0.14,0.11-0.25c0.04-0.11,0.09-0.25,0.15-0.44c0.67-2.28,1.38-4.56,2.12-6.84
					c0.07-0.19,0.12-0.34,0.15-0.43c0.03-0.1,0.05-0.17,0.04-0.22c-0.02-0.13-0.12-0.18-0.33-0.15c-0.01-0.06-0.02-0.13-0.02-0.19
					c0.82-0.1,1.64-0.2,2.45-0.29c0.01,0.06,0.01,0.13,0.02,0.19c-0.18,0.02-0.26,0.09-0.25,0.22c0.01,0.06,0.04,0.14,0.11,0.24
					c0.07,0.1,0.16,0.23,0.27,0.4c1.31,2,2.58,4.01,3.82,6.04c0.12,0.18,0.2,0.33,0.27,0.43c0.06,0.1,0.12,0.18,0.18,0.23
					c0.05,0.05,0.11,0.08,0.16,0.08c0.05,0.01,0.13,0,0.23-0.01c0.01,0.06,0.01,0.13,0.02,0.19c-0.75,0.07-1.49,0.14-2.24,0.22
					c-0.01-0.06-0.01-0.13-0.02-0.19c0.13-0.01,0.21-0.04,0.25-0.08c0.04-0.04,0.06-0.1,0.05-0.17c-0.01-0.05-0.02-0.11-0.06-0.16
					c-0.03-0.06-0.1-0.18-0.21-0.36c-0.25-0.41-0.5-0.81-0.75-1.22c-1.54,0.16-3.07,0.34-4.61,0.55
					C370.7,253.02,370.58,253.47,370.45,253.92z M374.77,251.03c-0.75-1.19-1.52-2.38-2.3-3.56c-0.43,1.33-0.85,2.65-1.25,3.98
					C372.4,251.3,373.59,251.16,374.77,251.03z"/>
				<path class="st1" d="M380.91,251.24c-0.03,0.08-0.04,0.15-0.03,0.21c0.01,0.15,0.12,0.3,0.32,0.44c0.2,0.15,0.46,0.27,0.78,0.39
					c0.32,0.11,0.68,0.2,1.07,0.26c0.4,0.06,0.79,0.08,1.19,0.05c1.03-0.06,1.76-0.25,2.21-0.57c0.45-0.32,0.66-0.72,0.64-1.19
					c-0.01-0.22-0.08-0.41-0.2-0.55c-0.12-0.15-0.29-0.25-0.49-0.32c-0.21-0.07-0.45-0.12-0.72-0.13c-0.27-0.02-0.56-0.02-0.87,0
					c-0.51,0.03-1.04,0.06-1.61,0.09c-0.57,0.03-1.09,0-1.57-0.1c-0.48-0.1-0.89-0.29-1.22-0.58c-0.33-0.29-0.52-0.73-0.57-1.34
					c-0.03-0.38,0.05-0.74,0.25-1.08c0.2-0.33,0.48-0.63,0.85-0.88c0.37-0.25,0.81-0.46,1.33-0.63c0.52-0.16,1.09-0.26,1.71-0.3
					c0.48-0.03,0.91-0.02,1.26,0.03c0.36,0.05,0.67,0.1,0.93,0.16c0.26,0.06,0.48,0.12,0.65,0.18c0.17,0.06,0.31,0.08,0.43,0.08
					c0.12-0.01,0.21-0.03,0.27-0.08c0.05-0.04,0.11-0.1,0.16-0.15c0.07,0.02,0.14,0.05,0.21,0.07c-0.29,0.63-0.57,1.26-0.85,1.89
					c-0.06-0.03-0.13-0.07-0.19-0.1c0.01-0.03,0.01-0.1,0.01-0.21c0-0.07-0.07-0.16-0.21-0.26c-0.14-0.1-0.33-0.2-0.58-0.29
					c-0.25-0.09-0.55-0.16-0.89-0.21c-0.34-0.05-0.72-0.07-1.12-0.04c-0.91,0.05-1.62,0.24-2.13,0.55c-0.51,0.32-0.75,0.7-0.72,1.15
					c0.02,0.2,0.09,0.36,0.21,0.48c0.13,0.11,0.29,0.2,0.5,0.25c0.21,0.06,0.45,0.08,0.72,0.09c0.27,0,0.56,0,0.87-0.02
					c0.52-0.03,1.06-0.06,1.63-0.07c0.56-0.01,1.09,0.04,1.57,0.17c0.48,0.13,0.88,0.35,1.2,0.67c0.32,0.32,0.49,0.8,0.52,1.44
					c0.01,0.34-0.07,0.68-0.23,1c-0.17,0.32-0.42,0.61-0.77,0.88c-0.35,0.26-0.78,0.47-1.29,0.64c-0.52,0.16-1.12,0.27-1.81,0.31
					c-0.58,0.03-1.09,0.02-1.52-0.04c-0.43-0.06-0.8-0.14-1.11-0.24c-0.31-0.1-0.57-0.19-0.77-0.28c-0.2-0.09-0.36-0.13-0.48-0.12
					c-0.11,0.01-0.22,0.08-0.32,0.22c-0.06-0.03-0.11-0.06-0.17-0.08c0.24-0.64,0.48-1.28,0.73-1.91
					C380.77,251.17,380.84,251.2,380.91,251.24z"/>
				<path class="st1" d="M398.65,253.06c0.15,0,0.25-0.03,0.31-0.1c0.05-0.07,0.08-0.16,0.09-0.28c0.04-2.02,0.08-4.03,0.12-6.05
					c-0.08,0-0.17,0-0.27,0.01c-0.1,0.01-0.19,0.03-0.28,0.06c-0.08,0.03-0.15,0.08-0.21,0.14c-0.06,0.06-0.09,0.14-0.09,0.24
					c-0.07,0-0.13,0-0.2,0c0.01-0.55,0.02-1.09,0.02-1.64c0.07,0,0.13,0,0.2,0c0,0.2,0.07,0.31,0.21,0.31c0.13,0,0.3-0.04,0.49-0.12
					c0.19-0.08,0.29-0.19,0.29-0.33c0-0.2-0.12-0.31-0.38-0.31c0-0.06,0-0.13,0-0.19c0.66,0.01,1.33,0.03,1.99,0.05
					c0,0.06,0,0.13-0.01,0.19c-0.14,0-0.23,0.02-0.27,0.08c-0.05,0.06-0.07,0.16-0.08,0.31c-0.06,2.43-0.13,4.85-0.19,7.28
					c0,0.12,0.02,0.21,0.07,0.28c0.05,0.07,0.15,0.11,0.3,0.11c0,0.06,0,0.13-0.01,0.19c-0.71-0.02-1.42-0.04-2.13-0.05
					C398.64,253.18,398.64,253.12,398.65,253.06z"/>
				<path class="st1" d="M406.71,251.39c-0.01,0.05-0.02,0.1-0.03,0.13c-0.01,0.03-0.01,0.07-0.01,0.11
					c-0.01,0.11,0.05,0.23,0.17,0.36c0.12,0.13,0.29,0.25,0.5,0.37c0.21,0.12,0.46,0.22,0.76,0.3c0.29,0.08,0.6,0.14,0.93,0.16
					c0.93,0.07,1.66-0.08,2.18-0.46c0.53-0.37,0.84-1.06,0.93-2.07c0-0.04,0.01-0.09,0-0.14c0-0.05,0-0.11,0.01-0.16
					c-0.01,0-0.02,0-0.03,0c-0.35,0.38-0.78,0.62-1.28,0.72c-0.5,0.1-1.03,0.14-1.6,0.09c-0.43-0.03-0.84-0.12-1.25-0.26
					c-0.41-0.14-0.76-0.33-1.07-0.58c-0.3-0.24-0.55-0.54-0.73-0.89c-0.18-0.35-0.26-0.75-0.23-1.2c0.05-0.96,0.42-1.67,1.12-2.13
					c0.7-0.45,1.62-0.64,2.77-0.56c0.68,0.05,1.26,0.21,1.75,0.47c0.49,0.26,0.89,0.6,1.21,1.02c0.31,0.42,0.53,0.91,0.66,1.47
					c0.13,0.56,0.16,1.15,0.1,1.78c-0.07,0.68-0.22,1.28-0.46,1.78c-0.24,0.51-0.55,0.92-0.94,1.25c-0.39,0.33-0.84,0.55-1.35,0.68
					c-0.51,0.13-1.07,0.17-1.68,0.13c-0.42-0.03-0.78-0.08-1.07-0.15c-0.29-0.07-0.59-0.15-0.9-0.26c-0.18-0.05-0.36-0.13-0.53-0.23
					c-0.17-0.1-0.36-0.15-0.55-0.16c-0.05,0-0.11,0.01-0.18,0.03c-0.07,0.02-0.12,0.06-0.17,0.11c-0.07-0.03-0.14-0.06-0.21-0.09
					c0.33-0.58,0.66-1.16,0.99-1.73C406.58,251.33,406.64,251.36,406.71,251.39z M412.13,248.29c0.03-0.38-0.02-0.71-0.15-0.97
					c-0.13-0.26-0.32-0.48-0.56-0.66c-0.24-0.18-0.51-0.31-0.82-0.4c-0.31-0.09-0.62-0.14-0.93-0.17c-0.67-0.05-1.24,0.08-1.7,0.38
					c-0.46,0.3-0.71,0.74-0.75,1.32c-0.02,0.33,0.03,0.62,0.15,0.87c0.12,0.25,0.29,0.45,0.51,0.61c0.22,0.16,0.47,0.28,0.76,0.37
					c0.29,0.09,0.6,0.15,0.92,0.17c0.31,0.02,0.61,0,0.91-0.06c0.3-0.06,0.57-0.16,0.8-0.3c0.24-0.14,0.44-0.3,0.59-0.5
					C412.02,248.77,412.11,248.54,412.13,248.29z"/>
				<path class="st1" d="M416.22,245.48c-0.01,0.14,0,0.24,0.05,0.3c0.05,0.06,0.16,0.11,0.33,0.12c2.26,0.25,4.52,0.53,6.77,0.86
					c0.17,0.02,0.28,0.01,0.35-0.04c0.06-0.05,0.11-0.14,0.13-0.28c0.07,0.01,0.13,0.02,0.2,0.03c-0.06,0.43-0.13,0.87-0.19,1.3
					c-1.64,2.08-3.24,4.18-4.79,6.31c-0.03,0.05-0.06,0.09-0.09,0.13c-0.03,0.03-0.05,0.08-0.06,0.15c-0.01,0.1,0.08,0.16,0.27,0.18
					c-0.01,0.06-0.02,0.13-0.02,0.19c-0.74-0.1-1.49-0.19-2.24-0.27c0.01-0.06,0.01-0.13,0.02-0.19c0.2,0.02,0.35,0,0.44-0.09
					c0.09-0.08,0.21-0.22,0.35-0.42c1.44-2.01,2.91-4.01,4.43-5.99c-1.9-0.26-3.79-0.5-5.7-0.71c-0.17-0.02-0.28,0-0.34,0.06
					c-0.06,0.06-0.1,0.16-0.12,0.29c-0.07-0.01-0.13-0.01-0.2-0.02c0.07-0.64,0.14-1.29,0.2-1.93
					C416.09,245.47,416.16,245.48,416.22,245.48z"/>
				<path class="st1" d="M434.23,252.97c-0.12,0.6-0.34,1.13-0.64,1.61c-0.3,0.47-0.68,0.86-1.12,1.17
					c-0.44,0.3-0.95,0.51-1.52,0.61c-0.57,0.1-1.2,0.09-1.88-0.03c-0.68-0.12-1.27-0.33-1.77-0.63c-0.5-0.3-0.9-0.67-1.21-1.11
					c-0.31-0.44-0.52-0.94-0.64-1.49c-0.12-0.55-0.13-1.13-0.03-1.73c0.1-0.6,0.29-1.15,0.57-1.63c0.29-0.49,0.65-0.89,1.1-1.21
					c0.45-0.32,0.97-0.54,1.56-0.67c0.59-0.13,1.25-0.12,1.96,0.01c0.71,0.13,1.33,0.36,1.84,0.69c0.51,0.33,0.92,0.72,1.23,1.18
					c0.3,0.46,0.5,0.96,0.6,1.52C434.36,251.79,434.35,252.37,434.23,252.97z M432.89,252.7c0.2-1,0.11-1.84-0.28-2.53
					c-0.39-0.69-1.12-1.14-2.18-1.33c-1.06-0.19-1.9-0.03-2.51,0.47c-0.61,0.51-0.99,1.26-1.16,2.27c-0.17,1.01-0.05,1.84,0.35,2.52
					c0.39,0.68,1.1,1.1,2.13,1.29c1.03,0.19,1.84,0.04,2.45-0.45C432.28,254.44,432.69,253.7,432.89,252.7z"/>
			</g>
			<g>
				<polygon class="st1" points="386.67,263.09 387.45,264.67 389.19,264.93 387.93,266.16 388.23,267.9 386.67,267.08 
					385.11,267.9 385.41,266.16 384.15,264.93 385.89,264.67 				"/>
				<polygon class="st1" points="404.43,263.09 405.21,264.67 406.96,264.93 405.7,266.16 405.99,267.9 404.43,267.08 402.87,267.9 
					403.17,266.16 401.91,264.93 403.65,264.67 				"/>
				<polygon class="st1" points="395.5,258.78 396.63,261.06 399.14,261.43 397.32,263.2 397.75,265.71 395.5,264.53 393.25,265.71 
					393.68,263.2 391.86,261.43 394.37,261.06 				"/>
			</g>
			<g>
				<g>
					<path class="st1" d="M344.78,352.65c-0.4,0-0.77-0.08-1.09-0.25c-0.32-0.17-0.6-0.42-0.83-0.74s-0.4-0.71-0.53-1.18
						c-0.12-0.46-0.18-0.98-0.18-1.57c0-0.57,0.06-1.09,0.19-1.56c0.12-0.47,0.3-0.87,0.54-1.21c0.23-0.33,0.51-0.59,0.84-0.78
						c0.33-0.18,0.7-0.28,1.1-0.28c0.4,0,0.77,0.09,1.09,0.28s0.6,0.44,0.83,0.77c0.23,0.33,0.41,0.73,0.53,1.19
						s0.19,0.97,0.19,1.52c0,0.29-0.03,0.58-0.08,0.86c-0.05,0.28-0.12,0.55-0.22,0.79s-0.2,0.45-0.32,0.63
						c-0.12,0.18-0.25,0.32-0.38,0.41v0.04l1.31-0.02v1.08H344.78z M346.19,348.91c0-0.37-0.03-0.71-0.09-1.03s-0.15-0.59-0.27-0.83
						c-0.12-0.23-0.26-0.42-0.43-0.55c-0.17-0.13-0.36-0.2-0.58-0.2c-0.22,0-0.42,0.07-0.59,0.2c-0.17,0.14-0.31,0.32-0.43,0.55
						c-0.12,0.23-0.21,0.51-0.27,0.83c-0.06,0.32-0.09,0.66-0.09,1.03s0.03,0.71,0.09,1.03c0.06,0.32,0.15,0.59,0.27,0.83
						c0.12,0.23,0.26,0.42,0.43,0.55c0.17,0.13,0.37,0.2,0.59,0.2s0.42-0.07,0.59-0.21c0.17-0.14,0.31-0.33,0.43-0.57
						c0.11-0.24,0.2-0.52,0.25-0.83C346.16,349.58,346.19,349.25,346.19,348.91z"/>
					<path class="st1" d="M353.1,351.13c-0.08,0.34-0.22,0.64-0.41,0.89c-0.19,0.25-0.43,0.45-0.72,0.6s-0.65,0.22-1.08,0.22
						s-0.78-0.07-1.07-0.22s-0.53-0.34-0.71-0.6c-0.18-0.25-0.32-0.55-0.4-0.89c-0.08-0.34-0.12-0.7-0.12-1.09v-4.76h1.25v4.64
						c0,0.23,0.02,0.45,0.05,0.66s0.09,0.4,0.17,0.56c0.08,0.16,0.19,0.29,0.33,0.38c0.14,0.09,0.32,0.14,0.53,0.14
						c0.21,0,0.39-0.05,0.53-0.14c0.14-0.09,0.25-0.22,0.33-0.38c0.08-0.16,0.14-0.34,0.17-0.56s0.05-0.43,0.05-0.66v-4.64h1.24
						v4.76C353.22,350.43,353.18,350.79,353.1,351.13z"/>
					<path class="st1" d="M357.68,352.65l-0.36-1.56h-1.94l-0.37,1.56h-1.25l1.83-7.37h1.59l1.8,7.37H357.68z M356.38,346.46h-0.04
						l-0.8,3.65h1.62L356.38,346.46z"/>
					<path class="st1" d="M359.75,352.65v-7.37h1.26v6.21h2.03v1.16H359.75z"/>
					<path class="st1" d="M363.85,352.65v-7.37h1.25v7.37H363.85z"/>
					<path class="st1" d="M368.44,346.34v6.31h-1.23v-6.31h-1.38v-1.06h4v1.06H368.44z"/>
					<path class="st1" d="M372.81,349.83v2.82h-1.23v-2.82l-1.84-4.55h1.35l1.1,3.29l0.03-0.02l1.12-3.27h1.32L372.81,349.83z"/>
				</g>
			</g>
			<g>
				<g>
					<path class="st1" d="M419.41,352.65l-0.36-1.56h-1.94l-0.37,1.56h-1.25l1.83-7.37h1.59l1.8,7.37H419.41z M418.11,346.46h-0.04
						l-0.8,3.65h1.62L418.11,346.46z"/>
					<path class="st1" d="M425.59,347.46c0,0.38-0.06,0.7-0.17,0.98c-0.11,0.28-0.26,0.52-0.45,0.7c-0.19,0.19-0.4,0.33-0.64,0.42
						c-0.24,0.09-0.49,0.14-0.75,0.14h-0.87v2.96h-1.23v-7.37h2.04c0.24,0,0.48,0.04,0.73,0.1c0.25,0.07,0.47,0.19,0.67,0.36
						c0.2,0.17,0.36,0.39,0.49,0.67S425.59,347.04,425.59,347.46z M424.42,347.47c0-0.39-0.09-0.68-0.28-0.86
						c-0.19-0.18-0.43-0.27-0.72-0.27h-0.71v2.33h0.71c0.29,0,0.53-0.1,0.72-0.31S424.42,347.87,424.42,347.47z"/>
					<path class="st1" d="M430.75,347.46c0,0.38-0.06,0.7-0.17,0.98s-0.26,0.52-0.45,0.7s-0.4,0.33-0.64,0.42
						c-0.24,0.09-0.49,0.14-0.75,0.14h-0.87v2.96h-1.23v-7.37h2.04c0.24,0,0.48,0.04,0.73,0.1s0.47,0.19,0.67,0.36
						c0.2,0.17,0.36,0.39,0.49,0.67C430.68,346.69,430.75,347.04,430.75,347.46z M429.57,347.47c0-0.39-0.09-0.68-0.28-0.86
						c-0.19-0.18-0.43-0.27-0.72-0.27h-0.71v2.33h0.71c0.29,0,0.53-0.1,0.72-0.31S429.57,347.87,429.57,347.47z"/>
					<path class="st1" d="M434.55,352.65l-0.36-1.56h-1.94l-0.38,1.56h-1.25l1.83-7.37h1.59l1.8,7.37H434.55z M433.24,346.46h-0.04
						l-0.8,3.65h1.62L433.24,346.46z"/>
					<path class="st1" d="M439.67,352.65l-1.15-3.14h-0.7v3.14h-1.21v-7.37h2.1c0.31,0,0.59,0.04,0.84,0.12s0.48,0.21,0.66,0.38
						s0.33,0.39,0.43,0.66c0.1,0.26,0.16,0.58,0.16,0.95c0,0.29-0.04,0.54-0.11,0.75c-0.07,0.22-0.17,0.4-0.28,0.56
						c-0.11,0.15-0.23,0.28-0.37,0.37c-0.14,0.09-0.27,0.16-0.4,0.19l1.32,3.39H439.67z M439.58,347.44c0-0.22-0.03-0.41-0.09-0.55
						c-0.06-0.15-0.14-0.26-0.25-0.34c-0.1-0.08-0.21-0.14-0.34-0.18c-0.12-0.03-0.25-0.05-0.38-0.05h-0.71v2.27h0.71
						c0.31,0,0.56-0.1,0.75-0.29C439.48,348.11,439.58,347.83,439.58,347.44z"/>
					<path class="st1" d="M441.96,352.65v-7.37h3.3v1.1h-2.1v1.96h1.95v1.02h-1.95v2.17h2.21v1.11H441.96z"/>
					<path class="st1" d="M446.5,352.65v-7.37h1.26v6.21h2.03v1.16H446.5z"/>
				</g>
			</g>
		</g>
	</g>
</g>
</svg>
