<?xml version="1.0" encoding="utf-8"?>
<!-- Generator: Adobe Illustrator 24.1.0, SVG Export Plug-In . SVG Version: 6.00 Build 0)  -->
<svg version="1.1" id="Layer_1" xmlns="http://www.w3.org/2000/svg" xmlns:xlink="http://www.w3.org/1999/xlink" x="0px" y="0px"
	 viewBox="0 0 792 612" style="enable-background:new 0 0 792 612;" xml:space="preserve">
<style type="text/css">
	.st0{clip-path:url(#SVGID_2_);}
	.st1{fill-rule:evenodd;clip-rule:evenodd;fill:#8D7049;}
	.st2{fill:#8D7049;}
	.st3{fill:none;stroke:#FFFFFF;stroke-width:0.5669;stroke-miterlimit:22.9256;}
	.st4{fill:#FFFFFF;}
</style>
<g>
	<g>
		<defs>
			
				<rect id="SVGID_1_" x="257.1" y="249.31" transform="matrix(4.489304e-11 -1 1 4.489304e-11 90 702)" width="277.8" height="113.39"/>
		</defs>
		<use xlink:href="#SVGID_1_"  style="overflow:visible;"/>
		<clipPath id="SVGID_2_">
			<use xlink:href="#SVGID_1_"  style="overflow:visible;"/>
		</clipPath>
		<g class="st0">
			<g>
				<polygon class="st1" points="398.93,366.89 398.97,366.89 398.97,366.93 409.35,366.93 409.35,366.89 409.44,366.89 
					409.44,366.84 409.53,366.84 409.53,366.8 409.57,366.8 409.57,366.76 409.62,366.76 409.62,366.71 409.66,366.71 
					409.66,366.67 409.7,366.67 409.7,366.58 409.75,366.58 409.75,366.45 409.79,366.45 409.79,366.23 409.75,366.23 
					409.75,366.09 409.7,366.09 409.7,366.01 409.66,366.01 409.66,365.96 409.62,365.96 409.62,365.92 409.57,365.92 
					409.57,365.88 409.49,365.88 409.49,365.83 409.4,365.83 409.4,365.79 398.93,365.79 				"/>
				<polygon class="st1" points="386.08,365.83 385.99,365.83 385.99,365.88 385.9,365.88 385.9,365.92 385.86,365.92 
					385.86,365.96 385.81,365.96 385.81,366.01 385.77,366.01 385.77,366.09 385.73,366.09 385.73,366.23 385.68,366.23 
					385.68,366.45 385.73,366.45 385.73,366.58 385.77,366.58 385.77,366.67 385.81,366.67 385.81,366.71 385.86,366.71 
					385.86,366.76 385.9,366.76 385.9,366.8 385.95,366.8 385.95,366.84 386.04,366.84 386.04,366.89 386.12,366.89 386.12,366.93 
					396.86,366.93 396.86,365.79 386.08,365.79 				"/>
				<polygon class="st1" points="387.31,367.63 387.18,367.63 387.18,367.68 387.09,367.68 387.09,367.72 387.05,367.72 
					387.05,367.77 387,367.77 387,367.81 386.96,367.81 386.96,367.85 386.91,367.85 386.91,367.94 386.87,367.94 386.87,368.08 
					386.83,368.08 386.83,368.29 386.87,368.29 386.87,368.43 386.91,368.43 386.91,368.51 386.96,368.51 386.96,368.56 387,368.56 
					387,368.6 387.05,368.6 387.05,368.65 387.09,368.65 387.09,368.69 387.18,368.69 387.18,368.74 387.35,368.74 387.35,368.78 
					408.12,368.78 408.12,368.74 408.3,368.74 408.3,368.69 408.38,368.69 408.38,368.65 408.43,368.65 408.43,368.6 408.47,368.6 
					408.47,368.56 408.52,368.56 408.52,368.51 408.56,368.51 408.56,368.43 408.61,368.43 408.61,368.29 408.65,368.29 
					408.65,368.08 408.61,368.08 408.61,367.94 408.56,367.94 408.56,367.85 408.52,367.85 408.52,367.81 408.47,367.81 
					408.47,367.77 408.43,367.77 408.43,367.72 408.38,367.72 408.38,367.68 408.3,367.68 408.3,367.63 408.17,367.63 
					408.17,367.59 387.31,367.59 				"/>
				<polygon class="st1" points="385.15,363.94 385.02,363.94 385.02,363.98 384.98,363.98 384.98,364.03 384.89,364.03 
					384.89,364.07 384.85,364.07 384.85,364.16 384.8,364.16 384.8,364.2 384.76,364.2 384.76,364.34 384.71,364.34 384.71,364.6 
					384.76,364.6 384.76,364.73 384.8,364.73 384.8,364.82 384.85,364.82 384.85,364.86 384.89,364.86 384.89,364.91 384.93,364.91 
					384.93,364.95 385.02,364.95 385.02,365 385.11,365 385.11,365.04 410.37,365.04 410.37,365 410.45,365 410.45,364.95 
					410.54,364.95 410.54,364.91 410.58,364.91 410.58,364.86 410.63,364.86 410.63,364.82 410.67,364.82 410.67,364.73 
					410.72,364.73 410.72,364.6 410.76,364.6 410.76,364.34 410.72,364.34 410.72,364.2 410.67,364.2 410.67,364.16 410.63,364.16 
					410.63,364.07 410.58,364.07 410.58,364.03 410.5,364.03 410.5,363.98 410.45,363.98 410.45,363.94 410.32,363.94 
					410.32,363.89 385.15,363.89 				"/>
				<polygon class="st1" points="384.36,362.14 384.23,362.14 384.23,362.18 384.19,362.18 384.19,362.22 384.14,362.22 
					384.14,362.27 384.1,362.27 384.1,362.31 384.05,362.31 384.05,362.36 384.01,362.36 384.01,362.44 383.97,362.44 
					383.97,362.62 383.92,362.62 383.92,362.71 383.97,362.71 383.97,362.88 384.01,362.88 384.01,362.97 384.05,362.97 
					384.05,363.02 384.1,363.02 384.1,363.1 384.19,363.1 384.19,363.15 384.23,363.15 384.23,363.19 384.32,363.19 384.32,363.23 
					411.16,363.23 411.16,363.19 411.24,363.19 411.24,363.15 411.29,363.15 411.29,363.1 411.38,363.1 411.38,363.02 
					411.42,363.02 411.42,362.97 411.47,362.97 411.47,362.88 411.51,362.88 411.51,362.71 411.55,362.71 411.55,362.62 
					411.51,362.62 411.51,362.44 411.47,362.44 411.47,362.36 411.42,362.36 411.42,362.31 411.38,362.31 411.38,362.27 
					411.33,362.27 411.33,362.22 411.29,362.22 411.29,362.18 411.24,362.18 411.24,362.14 411.11,362.14 411.11,362.09 
					384.36,362.09 				"/>
				<path class="st1" d="M412.43,360.6v-0.13h-0.04v-0.09h-0.04v-0.04h-0.04v-0.05h-0.04v-0.04h-0.09v-0.04h-0.09v-0.04h-8.49v-5.81
					h-0.04v-0.04h-0.05v-0.04h-0.04v-0.04h-0.09v-0.04h-0.04v-0.04h-0.04v-0.04h-0.09v-0.04h-0.04V354h-0.05v-0.04h-0.09v-0.04
					h-0.04v-0.04h-0.04v-0.04h-0.09v-0.04h-0.04v-0.04h-0.04v-0.04h-0.05v-0.04h-0.09v-0.04h-0.04v-0.04h-0.04v-0.04h-0.09v-0.04
					h-0.04v-0.04h-0.05v-0.04h-0.09v-0.04h-0.04v-0.04h-0.04v-0.04h-0.09v-0.04h-0.04v-0.04h-0.05v-0.04h-0.09v-0.04h-0.04v-0.04
					h-0.04v-0.04h-0.09v-0.04h-0.04v-0.04h-0.04v-0.04h-0.09v-0.04h-0.04v-0.04h-0.04v-0.05h-0.09v-0.04h-0.05v-0.04h-0.04v-0.04
					h-0.09v-0.04h-0.04v-0.04h-0.04v-0.04h-0.04v-0.04h-0.09v-0.04h-0.04v-0.04h-0.04v-0.05h-0.09v-0.04h-0.04v-0.05h-0.04v-0.04
					h-0.09v-0.04h-0.04v-0.04h-0.04v-0.04h-0.09v-0.04h-0.04v-0.04h-5.19v0.04h-0.04v0.04h-0.04v0.04h-0.04v0.04h-0.09v0.04h-0.04
					v0.04h-0.04v0.05h-0.09v0.04h-0.04v0.05h-0.04v0.04h-0.09v0.04h-0.05v0.04h-0.04v0.04h-0.04v0.04h-0.09v0.04h-0.04v0.04h-0.05
					v0.04h-0.09v0.04h-0.04v0.05h-0.05v0.04h-0.09v0.04h-0.04v0.04H394v0.04h-0.04v0.04h-0.09v0.04h-0.04v0.04h-0.05v0.04h-0.09
					v0.04h-0.04v0.04h-0.04v0.04h-0.09v0.04h-0.04v0.04h-0.04v0.04h-0.04v0.04h-0.09v0.04h-0.04v0.04h-0.04v0.04h-0.09v0.04h-0.04
					v0.04h-0.04v0.04h-0.09v0.04h-0.04v0.04h-0.04v0.04h-0.05v0.04h-0.09v0.04h-0.04v0.04h-0.04V354h-0.09v0.05h-0.04v0.04h-0.04
					v0.04h-0.04v0.04h-0.09v0.04h-0.04v0.04h-0.04v0.04h-0.09v5.85h-8.76v0.04h-0.09v0.04h-0.09v0.04h-0.04v0.05h-0.04v0.04h-0.05
					v0.09h-0.04v0.09H383v0.35h0.04v0.09h0.04v0.09h0.05v0.04h0.04v0.04h0.04v0.04h0.09v0.04h0.13v0.04h28.6v-0.04h0.13v-0.04h0.09
					v-0.04h0.04v-0.04h0.04v-0.04h0.04v-0.09h0.04v-0.13h0.04v-0.26H412.43z M398.84,360.16h-1.89v-5.1h1.89V360.16z"/>
				<polygon class="st1" points="388.28,369.57 388.19,369.57 388.19,369.61 388.15,369.61 388.15,369.66 388.06,369.66 
					388.06,369.75 388.02,369.75 388.02,369.79 387.97,369.79 387.97,369.88 387.93,369.88 387.93,370.32 387.97,370.32 
					387.97,370.41 388.02,370.41 388.02,370.45 388.06,370.45 388.06,370.49 388.1,370.49 388.1,370.54 388.15,370.54 
					388.15,370.58 388.24,370.58 388.24,370.63 388.37,370.63 388.37,370.67 389.2,370.67 389.2,370.71 389.16,370.71 
					389.16,371.07 389.11,371.07 389.11,371.42 389.07,371.42 389.07,371.77 389.03,371.77 389.03,372.17 388.98,372.17 
					388.98,372.52 388.94,372.52 388.94,372.87 388.9,372.87 388.9,373.22 388.85,373.22 388.85,373.57 388.81,373.57 
					388.81,373.97 388.76,373.97 388.76,374.32 388.72,374.32 388.72,374.68 388.68,374.68 388.68,375.03 388.63,375.03 
					388.63,375.38 388.59,375.38 388.59,375.73 388.54,375.73 388.54,376.13 388.5,376.13 388.5,376.48 388.45,376.48 
					388.45,376.83 388.41,376.83 388.41,377.18 388.37,377.18 388.37,377.53 388.32,377.53 388.32,377.89 388.28,377.89 
					388.28,378.28 388.24,378.28 388.24,378.46 392.59,378.46 392.59,378.42 392.64,378.42 392.64,378.19 392.68,378.19 
					392.68,377.93 392.72,377.93 392.72,377.71 392.77,377.71 392.77,377.49 392.81,377.49 392.81,377.27 392.86,377.27 
					392.86,377.05 392.9,377.05 392.9,376.83 392.94,376.83 392.94,376.57 392.99,376.57 392.99,376.35 393.03,376.35 
					393.03,376.13 393.07,376.13 393.07,375.91 393.12,375.91 393.12,375.69 393.16,375.69 393.16,375.42 393.21,375.42 
					393.21,375.2 393.25,375.2 393.25,374.98 393.29,374.98 393.29,374.76 393.34,374.76 393.34,374.54 393.38,374.54 
					393.38,374.28 393.43,374.28 393.43,374.06 393.47,374.06 393.47,373.84 393.51,373.84 393.51,373.62 393.56,373.62 
					393.56,373.4 393.6,373.4 393.6,373.13 393.65,373.13 393.65,372.91 393.69,372.91 393.69,372.7 393.73,372.7 393.73,372.48 
					393.78,372.48 393.78,372.25 393.82,372.25 393.82,372.03 393.87,372.03 393.87,371.77 393.91,371.77 393.91,371.55 
					393.95,371.55 393.95,371.33 394,371.33 394,371.11 394.04,371.11 394.04,370.89 394.09,370.89 394.09,370.67 395.36,370.67 
					395.36,370.76 395.41,370.76 395.41,371.02 395.45,371.02 395.45,371.24 395.49,371.24 395.49,371.46 395.54,371.46 
					395.54,371.73 395.58,371.73 395.58,371.95 395.63,371.95 395.63,372.17 395.67,372.17 395.67,372.39 395.71,372.39 
					395.71,372.65 395.76,372.65 395.76,372.87 395.8,372.87 395.8,373.09 395.85,373.09 395.85,373.31 395.89,373.31 
					395.89,373.57 395.93,373.57 395.93,373.79 395.98,373.79 395.98,374.02 396.02,374.02 396.02,374.28 396.07,374.28 
					396.07,374.5 396.11,374.5 396.11,374.72 396.15,374.72 396.15,374.94 396.2,374.94 396.2,375.2 396.24,375.2 396.24,375.42 
					396.29,375.42 396.29,375.64 396.33,375.64 396.33,375.91 396.37,375.91 396.37,376.13 396.42,376.13 396.42,376.35 
					396.46,376.35 396.46,376.57 396.51,376.57 396.51,376.83 396.55,376.83 396.55,377.05 396.6,377.05 396.6,377.27 
					396.64,377.27 396.64,377.49 396.68,377.49 396.68,377.76 396.73,377.76 396.73,377.97 396.77,377.97 396.77,378.19 
					396.81,378.19 396.81,378.42 396.86,378.42 396.86,378.46 398.66,378.46 398.66,378.33 398.71,378.33 398.71,378.06 
					398.75,378.06 398.75,377.84 398.79,377.84 398.79,377.62 398.84,377.62 398.84,377.36 398.88,377.36 398.88,377.14 
					398.93,377.14 398.93,376.92 398.97,376.92 398.97,376.65 399.01,376.65 399.01,376.43 399.06,376.43 399.06,376.22 
					399.1,376.22 399.1,375.95 399.15,375.95 399.15,375.73 399.19,375.73 399.19,375.51 399.23,375.51 399.23,375.25 
					399.28,375.25 399.28,375.03 399.32,375.03 399.32,374.81 399.37,374.81 399.37,374.54 399.41,374.54 399.41,374.32 
					399.45,374.32 399.45,374.06 399.5,374.06 399.5,373.84 399.54,373.84 399.54,373.62 399.59,373.62 399.59,373.36 
					399.63,373.36 399.63,373.13 399.67,373.13 399.67,372.91 399.72,372.91 399.72,372.65 399.76,372.65 399.76,372.43 
					399.81,372.43 399.81,372.21 399.85,372.21 399.85,371.95 399.89,371.95 399.89,371.73 399.94,371.73 399.94,371.51 
					399.98,371.51 399.98,371.24 400.03,371.24 400.03,371.02 400.07,371.02 400.07,370.8 400.11,370.8 400.11,370.67 
					401.35,370.67 401.35,370.85 401.39,370.85 401.39,371.07 401.43,371.07 401.43,371.33 401.48,371.33 401.48,371.55 
					401.52,371.55 401.52,371.82 401.57,371.82 401.57,372.03 401.61,372.03 401.61,372.25 401.65,372.25 401.65,372.52 
					401.7,372.52 401.7,372.74 401.74,372.74 401.74,373 401.79,373 401.79,373.22 401.83,373.22 401.83,373.49 401.87,373.49 
					401.87,373.71 401.92,373.71 401.92,373.97 401.96,373.97 401.96,374.19 402.01,374.19 402.01,374.45 402.05,374.45 
					402.05,374.68 402.09,374.68 402.09,374.94 402.14,374.94 402.14,375.16 402.18,375.16 402.18,375.42 402.23,375.42 
					402.23,375.64 402.27,375.64 402.27,375.86 402.31,375.86 402.31,376.13 402.36,376.13 402.36,376.35 402.4,376.35 
					402.4,376.61 402.44,376.61 402.44,376.83 402.49,376.83 402.49,377.09 402.53,377.09 402.53,377.31 402.58,377.31 
					402.58,377.58 402.62,377.58 402.62,377.8 402.67,377.8 402.67,378.06 402.71,378.06 402.71,378.28 402.75,378.28 
					402.75,378.46 407.15,378.46 407.15,378.19 407.11,378.19 407.11,377.8 407.07,377.8 407.07,377.45 407.02,377.45 
					407.02,377.05 406.98,377.05 406.98,376.7 406.93,376.7 406.93,376.3 406.89,376.3 406.89,375.91 406.85,375.91 406.85,375.56 
					406.8,375.56 406.8,375.16 406.76,375.16 406.76,374.81 406.71,374.81 406.71,374.41 406.67,374.41 406.67,374.02 
					406.63,374.02 406.63,373.66 406.58,373.66 406.58,373.27 406.54,373.27 406.54,372.87 406.49,372.87 406.49,372.52 
					406.45,372.52 406.45,372.12 406.41,372.12 406.41,371.77 406.36,371.77 406.36,371.37 406.32,371.37 406.32,370.98 
					406.27,370.98 406.27,370.67 406.98,370.67 406.98,370.63 407.11,370.63 407.11,370.58 407.2,370.58 407.2,370.54 
					407.24,370.54 407.24,370.49 407.29,370.49 407.29,370.45 407.33,370.45 407.33,370.36 407.37,370.36 407.37,370.28 
					407.42,370.28 407.42,369.88 407.37,369.88 407.37,369.79 407.33,369.79 407.33,369.75 407.29,369.75 407.29,369.7 
					407.24,369.7 407.24,369.66 407.2,369.66 407.2,369.61 407.15,369.61 407.15,369.57 407.07,369.57 407.07,369.53 388.28,369.53 
									"/>
			</g>
			<g>
				<g>
					<path class="st2" d="M350.18,363.71c8.62,0.02,17.22,0.23,25.81,0.66c0,0.05,0,0.11,0,0.16c-0.75,0.06-1.49,0.14-2.24,0.17
						c-4.76,0.19-9.52,0.39-14.28,0.55c-3.03,0.11-6.06,0.17-9.09,0.24c-0.33,0.01-0.43,0.11-0.5,0.41
						c-0.4,1.74-1.22,3.26-2.45,4.56c-0.08,0.08-0.15,0.19-0.25,0.23c-0.09,0.03-0.23,0.01-0.3-0.04c-0.05-0.04-0.06-0.19-0.03-0.26
						c0.04-0.1,0.14-0.18,0.22-0.26c1.09-1.16,1.84-2.51,2.27-4.05c0.03-0.11,0.05-0.22,0.08-0.33c0.01-0.05,0.02-0.11,0.03-0.22
						c-0.8,0.02-1.58,0.03-2.36,0.05c-0.17,0-0.34,0.01-0.51,0.01c-0.58-0.01-0.97-0.37-0.99-0.91c-0.01-0.52,0.39-0.92,0.96-0.93
						c0.92-0.01,1.83-0.01,2.75-0.01c0.1,0,0.2,0,0.4-0.01c-0.07-0.64-0.09-1.26-0.21-1.87c-1-5.09-5.69-8.38-10.83-7.62
						c-5.17,0.77-8.82,5.93-7.84,11.04c0.68,3.53,2.86,5.87,5.88,7.57c1.55,0.87,3.28,1.27,4.98,1.74c1.44,0.4,2.85,0.89,4.02,1.88
						c1.37,1.17,2.31,2.57,2.34,4.45c0.04,2.54-1.81,4.82-4.23,5.23c-2.71,0.46-5.19-0.98-5.97-3.53c-0.21-0.69-0.2-1.46-0.24-2.2
						c-0.01-0.14,0.18-0.43,0.28-0.43c0.33,0.01,0.22,0.3,0.2,0.49c-0.27,2.95,2.02,5.41,4.95,5.25c1.91-0.11,3.32-1.06,4.1-2.81
						c0.8-1.8,0.5-3.49-0.71-5.04c-1.12-1.44-2.66-2.17-4.35-2.68c-1.52-0.46-3.07-0.84-4.54-1.44c-2.71-1.1-4.84-2.94-6.21-5.55
						c-2.42-4.58-0.88-10.25,3.49-13.03c5.06-3.22,11.82-1.27,14.39,4.14c0.61,1.28,0.92,2.61,0.96,4.02
						C350.16,363.46,350.17,363.57,350.18,363.71z M350.07,364.97c1.22-0.02,2.41-0.02,3.59-0.06c0.11,0,0.29-0.24,0.29-0.36
						c0-0.12-0.19-0.29-0.33-0.32c-0.23-0.05-0.48-0.01-0.73-0.01c-0.91,0.01-1.82,0.03-2.75,0.04
						C350.12,364.5,350.1,364.69,350.07,364.97z M349.65,364.26c-1.06,0.01-2.08,0.02-3.09,0.06c-0.12,0.01-0.24,0.22-0.36,0.34
						c0.12,0.12,0.24,0.34,0.36,0.34c0.99,0.01,1.99-0.01,3-0.03C349.6,364.73,349.62,364.53,349.65,364.26z"/>
				</g>
				<g>
					<path class="st2" d="M441.85,363.34c0.04-1.41,0.35-2.75,0.96-4.02c2.57-5.41,9.32-7.36,14.39-4.14
						c4.37,2.78,5.9,8.45,3.49,13.03c-1.37,2.61-3.5,4.45-6.21,5.55c-1.47,0.6-3.02,0.98-4.54,1.44c-1.69,0.51-3.23,1.24-4.35,2.68
						c-1.2,1.55-1.51,3.24-0.71,5.04c0.78,1.75,2.19,2.7,4.1,2.81c2.93,0.16,5.22-2.3,4.95-5.25c-0.02-0.2-0.13-0.48,0.2-0.49
						c0.09,0,0.28,0.28,0.28,0.43c-0.05,0.74-0.03,1.5-0.24,2.2c-0.78,2.55-3.26,3.98-5.97,3.53c-2.42-0.41-4.27-2.7-4.23-5.23
						c0.03-1.88,0.97-3.28,2.34-4.45c1.16-0.99,2.57-1.48,4.02-1.88c1.7-0.47,3.43-0.86,4.98-1.74c3.01-1.69,5.2-4.04,5.88-7.57
						c0.99-5.12-2.67-10.28-7.84-11.04c-5.14-0.76-9.83,2.53-10.83,7.62c-0.12,0.61-0.14,1.23-0.21,1.87c0.2,0,0.3,0.01,0.4,0.01
						c0.92,0,1.83,0,2.75,0.01c0.57,0.01,0.98,0.42,0.96,0.93c-0.01,0.54-0.4,0.9-0.99,0.91c-0.17,0-0.34-0.01-0.51-0.01
						c-0.78-0.02-1.56-0.03-2.36-0.05c0.01,0.11,0.02,0.17,0.03,0.22c0.02,0.11,0.05,0.22,0.08,0.33c0.42,1.53,1.17,2.88,2.27,4.05
						c0.08,0.08,0.18,0.16,0.22,0.26c0.03,0.08,0.02,0.23-0.03,0.26c-0.07,0.06-0.22,0.08-0.3,0.04c-0.1-0.04-0.17-0.15-0.25-0.23
						c-1.23-1.3-2.05-2.82-2.45-4.56c-0.07-0.3-0.17-0.41-0.5-0.41c-3.03-0.06-6.06-0.13-9.09-0.24c-4.76-0.17-9.52-0.36-14.28-0.55
						c-0.75-0.03-1.49-0.11-2.24-0.17c0-0.05,0-0.11,0-0.16c8.59-0.43,17.19-0.64,25.81-0.66
						C441.83,363.57,441.84,363.46,441.85,363.34z M441.85,364.26c-0.93-0.02-1.84-0.03-2.75-0.04c-0.24,0-0.49-0.04-0.73,0.01
						c-0.13,0.03-0.32,0.21-0.33,0.32c0,0.12,0.18,0.35,0.29,0.36c1.18,0.04,2.37,0.05,3.59,0.06
						C441.9,364.69,441.88,364.5,441.85,364.26z M442.43,364.97c1.01,0.01,2.01,0.04,3,0.03c0.12,0,0.24-0.22,0.36-0.34
						c-0.12-0.12-0.23-0.34-0.36-0.34c-1.01-0.04-2.03-0.04-3.09-0.06C442.38,364.53,442.4,364.73,442.43,364.97z"/>
				</g>
			</g>
			<g>
				<g>
					<path class="st2" d="M356.51,376.44c-0.31,0-0.6-0.07-0.85-0.2c-0.25-0.13-0.47-0.32-0.64-0.58c-0.18-0.25-0.32-0.56-0.41-0.92
						c-0.09-0.36-0.14-0.77-0.14-1.22c0-0.44,0.05-0.85,0.15-1.21c0.1-0.37,0.24-0.68,0.42-0.94s0.4-0.46,0.66-0.6
						c0.26-0.14,0.54-0.21,0.86-0.21s0.6,0.07,0.85,0.21c0.25,0.14,0.47,0.34,0.65,0.6s0.32,0.57,0.41,0.93
						c0.1,0.36,0.15,0.75,0.15,1.19c0,0.23-0.02,0.45-0.06,0.67c-0.04,0.22-0.1,0.43-0.17,0.62c-0.07,0.19-0.16,0.35-0.25,0.49
						s-0.19,0.25-0.3,0.32v0.03l1.02-0.02v0.84H356.51z M357.61,373.52c0-0.29-0.02-0.55-0.07-0.8s-0.11-0.46-0.21-0.64
						s-0.2-0.32-0.34-0.43c-0.13-0.11-0.28-0.16-0.45-0.16c-0.17,0-0.33,0.05-0.46,0.16c-0.13,0.11-0.25,0.25-0.34,0.43
						s-0.16,0.39-0.21,0.64s-0.07,0.52-0.07,0.8c0,0.29,0.02,0.55,0.07,0.8s0.12,0.46,0.21,0.64s0.2,0.32,0.34,0.43
						c0.13,0.1,0.29,0.16,0.46,0.16s0.33-0.05,0.46-0.17c0.13-0.11,0.24-0.26,0.33-0.44c0.09-0.19,0.16-0.4,0.2-0.65
						C357.58,374.05,357.61,373.79,357.61,373.52z"/>
					<path class="st2" d="M362.99,375.25c-0.07,0.26-0.17,0.5-0.32,0.69s-0.33,0.35-0.56,0.47s-0.51,0.17-0.84,0.17
						c-0.33,0-0.61-0.06-0.83-0.17c-0.23-0.11-0.41-0.27-0.55-0.47s-0.25-0.43-0.31-0.69c-0.06-0.26-0.09-0.55-0.09-0.85v-3.7h0.97
						v3.61c0,0.18,0.01,0.35,0.04,0.51c0.02,0.17,0.07,0.31,0.13,0.43c0.06,0.12,0.15,0.22,0.26,0.3c0.11,0.07,0.25,0.11,0.41,0.11
						c0.17,0,0.3-0.04,0.41-0.11c0.11-0.07,0.19-0.17,0.25-0.3c0.06-0.12,0.11-0.27,0.13-0.43c0.02-0.16,0.04-0.34,0.04-0.51v-3.61
						h0.96v3.7C363.08,374.71,363.05,374.99,362.99,375.25z"/>
					<path class="st2" d="M366.55,376.44l-0.28-1.22h-1.51l-0.29,1.22h-0.97l1.43-5.74h1.24l1.4,5.74H366.55z M365.54,371.62h-0.03
						l-0.62,2.84h1.26L365.54,371.62z"/>
					<path class="st2" d="M368.17,376.44v-5.74h0.98v4.84h1.58v0.9H368.17z"/>
					<path class="st2" d="M371.36,376.44v-5.74h0.97v5.74H371.36z"/>
					<path class="st2" d="M374.93,371.53v4.91h-0.96v-4.91h-1.08v-0.83h3.11v0.83H374.93z"/>
					<path class="st2" d="M378.34,374.24v2.2h-0.96v-2.2l-1.43-3.54H377l0.86,2.56l0.02-0.02l0.88-2.54h1.03L378.34,374.24z"/>
				</g>
			</g>
			<g>
				<g>
					<path class="st2" d="M414.61,376.44l-0.28-1.22h-1.51l-0.29,1.22h-0.97l1.43-5.74h1.24l1.4,5.74H414.61z M413.6,371.62h-0.03
						l-0.62,2.84h1.26L413.6,371.62z"/>
					<path class="st2" d="M419.43,372.39c0,0.29-0.04,0.55-0.13,0.77s-0.21,0.4-0.35,0.55c-0.14,0.15-0.31,0.25-0.5,0.32
						s-0.38,0.11-0.58,0.11h-0.68v2.3h-0.96v-5.74h1.58c0.18,0,0.37,0.03,0.57,0.08c0.19,0.05,0.37,0.15,0.52,0.28
						c0.15,0.13,0.28,0.31,0.38,0.52S419.43,372.07,419.43,372.39z M418.51,372.41c0-0.31-0.07-0.53-0.22-0.67
						c-0.15-0.14-0.33-0.21-0.56-0.21h-0.55v1.82h0.55c0.23,0,0.41-0.08,0.56-0.24C418.44,372.95,418.51,372.71,418.51,372.41z"/>
					<path class="st2" d="M423.44,372.39c0,0.29-0.04,0.55-0.13,0.77s-0.21,0.4-0.35,0.55c-0.14,0.15-0.31,0.25-0.5,0.32
						s-0.38,0.11-0.58,0.11h-0.68v2.3h-0.96v-5.74h1.58c0.18,0,0.37,0.03,0.57,0.08c0.19,0.05,0.37,0.15,0.52,0.28
						c0.15,0.13,0.28,0.31,0.38,0.52S423.44,372.07,423.44,372.39z M422.52,372.41c0-0.31-0.07-0.53-0.22-0.67
						c-0.15-0.14-0.33-0.21-0.56-0.21h-0.55v1.82h0.55c0.23,0,0.41-0.08,0.56-0.24C422.45,372.95,422.52,372.71,422.52,372.41z"/>
					<path class="st2" d="M426.4,376.44l-0.28-1.22h-1.51l-0.29,1.22h-0.97l1.43-5.74h1.24l1.4,5.74H426.4z M425.39,371.62h-0.03
						l-0.62,2.84h1.26L425.39,371.62z"/>
					<path class="st2" d="M430.39,376.44l-0.89-2.45h-0.54v2.45h-0.94v-5.74h1.64c0.24,0,0.46,0.03,0.66,0.09
						c0.2,0.06,0.37,0.16,0.51,0.3c0.14,0.13,0.25,0.3,0.34,0.51c0.08,0.21,0.12,0.45,0.12,0.74c0,0.22-0.03,0.42-0.08,0.59
						c-0.06,0.17-0.13,0.32-0.21,0.43c-0.09,0.12-0.18,0.21-0.29,0.29s-0.21,0.12-0.31,0.15l1.03,2.64H430.39z M430.32,372.39
						c0-0.17-0.02-0.32-0.07-0.43c-0.05-0.11-0.11-0.2-0.19-0.27c-0.08-0.07-0.17-0.11-0.26-0.14c-0.1-0.03-0.19-0.04-0.29-0.04
						h-0.55v1.77h0.55c0.24,0,0.43-0.07,0.59-0.22S430.32,372.68,430.32,372.39z"/>
					<path class="st2" d="M432.17,376.44v-5.74h2.57v0.86h-1.64v1.52h1.52v0.79h-1.52v1.69h1.72v0.87H432.17z"/>
					<path class="st2" d="M435.7,376.44v-5.74h0.98v4.84h1.58v0.9H435.7z"/>
				</g>
			</g>
		</g>
		<use xlink:href="#SVGID_1_"  style="overflow:visible;fill:none;stroke:#000000;stroke-width:0.5;stroke-miterlimit:10;"/>
	</g>
	<g>
		<g>
			<path class="st2" d="M428.23,221.94v0.69h-0.39c-0.26,0-0.43,0.03-0.5,0.09c-0.06,0.06-0.1,0.22-0.1,0.47v3.55
				c0,0.25,0.03,0.4,0.1,0.46c0.06,0.06,0.23,0.09,0.5,0.09h0.39v0.68h-3.26v-0.68h0.39c0.27,0,0.44-0.03,0.5-0.1s0.1-0.22,0.1-0.46
				v-3.55c0-0.25-0.03-0.4-0.09-0.46c-0.06-0.06-0.23-0.09-0.5-0.09h-0.39v-0.69H428.23z"/>
			<path class="st2" d="M420.09,221.94l1.02,3.12c0.07,0.22,0.14,0.36,0.22,0.43c0.07,0.07,0.18,0.1,0.31,0.1h0.19v0.6h-2.23v-0.6
				h0.22c0.1,0,0.18-0.02,0.22-0.05s0.07-0.09,0.07-0.17l-0.02-0.14l-0.06-0.22l-0.61-2.09l-0.76,2.12l-0.05,0.15l-0.02,0.14
				c0,0.1,0.03,0.17,0.09,0.21c0.06,0.04,0.17,0.06,0.31,0.06h0.17v0.6H417v-0.6h0.27c0.1,0,0.17-0.02,0.21-0.05
				c0.04-0.03,0.07-0.09,0.07-0.16l-0.01-0.13c0-0.02-0.01-0.04-0.01-0.06c0-0.01-0.02-0.04-0.03-0.09l-0.72-2.22l-0.66,2.04
				l-0.07,0.24c-0.02,0.08-0.03,0.15-0.03,0.2c0,0.07,0.03,0.12,0.08,0.16c0.06,0.04,0.12,0.07,0.21,0.07h0.22v0.6h-1.87v-0.6h0.2
				c0.11,0,0.21-0.04,0.28-0.12c0.07-0.08,0.15-0.24,0.23-0.47l1.02-3.06h1.06l0.76,2.38l0.81-2.38H420.09z"/>
			<path class="st2" d="M414.24,224.06c0,0.69-0.22,1.25-0.66,1.67s-1.02,0.63-1.74,0.63c-0.73,0-1.31-0.21-1.75-0.63
				c-0.44-0.42-0.66-0.97-0.66-1.66c0-0.68,0.22-1.23,0.66-1.65s1.02-0.63,1.75-0.63s1.3,0.21,1.74,0.62
				S414.24,223.37,414.24,224.06z M413.02,224.06c0-0.54-0.1-0.95-0.29-1.23s-0.49-0.41-0.88-0.41c-0.39,0-0.68,0.14-0.88,0.41
				c-0.2,0.27-0.3,0.68-0.3,1.23c0,0.55,0.1,0.96,0.29,1.24c0.2,0.28,0.49,0.41,0.88,0.41c0.38,0,0.67-0.14,0.87-0.41
				C412.92,225.03,413.02,224.61,413.02,224.06z"/>
			<path class="st2" d="M408.26,223.38v1.68c0,0.23,0.04,0.37,0.11,0.44s0.21,0.1,0.42,0.1h0.21v0.6h-1.81v-2.82
				c0-0.32-0.05-0.54-0.16-0.68c-0.11-0.13-0.27-0.2-0.51-0.2c-0.34,0-0.61,0.13-0.81,0.39c-0.2,0.26-0.3,0.61-0.3,1.07v1.1
				c0,0.23,0.04,0.37,0.11,0.44s0.21,0.1,0.42,0.1h0.41v0.6h-2.02v-3.11c0-0.23-0.04-0.37-0.11-0.44c-0.07-0.06-0.21-0.1-0.42-0.1
				h-0.23v-0.6h1.84v0.75c0.23-0.29,0.47-0.51,0.72-0.66c0.25-0.15,0.51-0.22,0.77-0.22c0.48,0,0.83,0.12,1.04,0.36
				C408.15,222.4,408.26,222.81,408.26,223.38z"/>
			<path class="st2" d="M402.38,226.84c0,0.23,0.03,0.37,0.1,0.44c0.07,0.07,0.21,0.1,0.42,0.1h0.27v0.6h-1.89v-4.9
				c0-0.23-0.04-0.37-0.11-0.44c-0.07-0.07-0.21-0.1-0.42-0.1h-0.27v-0.6h2.68v0.6h-0.27c-0.21,0-0.35,0.03-0.42,0.1
				c-0.07,0.07-0.1,0.21-0.1,0.44V226.84z"/>
			<path class="st2" d="M396.72,226.84c0,0.23,0.04,0.37,0.11,0.44c0.07,0.06,0.21,0.1,0.41,0.1h0.38v0.6h-1.98v-4.9
				c0-0.23-0.03-0.38-0.1-0.44c-0.07-0.07-0.21-0.1-0.41-0.1h-0.26v-0.6h1.86v0.74c0.14-0.29,0.33-0.51,0.57-0.65
				c0.24-0.14,0.53-0.21,0.88-0.21c0.57,0,1.02,0.2,1.34,0.59c0.32,0.4,0.48,0.95,0.48,1.67c0,0.72-0.16,1.28-0.48,1.67
				c-0.32,0.4-0.77,0.6-1.34,0.6c-0.35,0-0.64-0.07-0.87-0.21c-0.24-0.14-0.43-0.36-0.58-0.66V226.84z M398.77,224.06
				c0-0.51-0.08-0.89-0.25-1.14c-0.17-0.25-0.43-0.38-0.78-0.38c-0.32,0-0.57,0.13-0.75,0.4c-0.18,0.27-0.27,0.64-0.27,1.11
				c0,0.47,0.09,0.84,0.27,1.11s0.43,0.4,0.75,0.4c0.35,0,0.61-0.12,0.78-0.37C398.69,224.95,398.77,224.57,398.77,224.06z"/>
			<path class="st2" d="M389.78,223.08c0-0.23-0.03-0.38-0.1-0.44c-0.07-0.07-0.21-0.1-0.41-0.1h-0.45v-0.6h2.86v0.6h-0.3
				c-0.21,0-0.34,0.03-0.41,0.1c-0.07,0.06-0.1,0.21-0.1,0.45v1.97c0,0.23,0.03,0.38,0.1,0.44c0.07,0.06,0.2,0.1,0.41,0.1h0.3v0.6
				h-1.9v-0.65c-0.14,0.25-0.31,0.44-0.49,0.57c-0.19,0.13-0.4,0.19-0.63,0.19c-0.32,0-0.58-0.09-0.79-0.27s-0.3-0.41-0.3-0.7
				c0-0.23,0.07-0.41,0.2-0.55c0.13-0.14,0.31-0.21,0.53-0.21c0.19,0,0.34,0.05,0.45,0.16s0.17,0.24,0.17,0.4
				c0,0.15-0.05,0.28-0.14,0.38c-0.09,0.1-0.22,0.18-0.41,0.23l0.2,0.06c0.06,0.02,0.12,0.02,0.17,0.02c0.3,0,0.54-0.15,0.75-0.45
				c0.1-0.15,0.17-0.32,0.22-0.51c0.05-0.19,0.07-0.4,0.07-0.64V223.08z"/>
			<path class="st2" d="M384.42,222.46c0.18-0.23,0.39-0.4,0.63-0.51c0.24-0.11,0.52-0.17,0.84-0.17c0.19,0,0.36,0.03,0.52,0.08
				s0.29,0.13,0.41,0.25c0.24,0.22,0.36,0.49,0.36,0.83c0,0.32-0.1,0.59-0.3,0.79c-0.2,0.2-0.56,0.38-1.06,0.53l-0.57,0.15
				c-0.27,0.06-0.44,0.12-0.52,0.18c-0.1,0.07-0.18,0.15-0.23,0.24c-0.05,0.09-0.07,0.2-0.07,0.34c0,0.22,0.08,0.39,0.24,0.51
				c0.16,0.12,0.39,0.18,0.69,0.18c0.19,0,0.35-0.02,0.49-0.06s0.26-0.11,0.37-0.2h-0.03c-0.17,0-0.31-0.04-0.41-0.13
				c-0.1-0.09-0.15-0.21-0.15-0.36c0-0.17,0.06-0.31,0.17-0.42c0.12-0.11,0.27-0.16,0.46-0.16c0.21,0,0.39,0.07,0.52,0.2
				c0.13,0.13,0.2,0.3,0.2,0.51c0,0.33-0.16,0.6-0.47,0.81c-0.16,0.1-0.34,0.18-0.55,0.23s-0.45,0.08-0.72,0.08
				c-0.3,0-0.56-0.03-0.8-0.08s-0.43-0.13-0.58-0.23c-0.17-0.11-0.29-0.25-0.36-0.43c-0.07-0.18-0.11-0.47-0.11-0.88v-1.89
				c0-0.11-0.02-0.18-0.05-0.23c-0.03-0.05-0.09-0.07-0.16-0.07c-0.1,0-0.18,0.06-0.22,0.17c-0.04,0.12-0.06,0.39-0.06,0.81h-0.55
				v-0.19c0-0.55,0.09-0.94,0.26-1.19c0.17-0.24,0.46-0.37,0.85-0.37c0.26,0,0.47,0.05,0.63,0.16
				C384.23,222.05,384.35,222.22,384.42,222.46z M384.44,224.17l0.51-0.22c0.67-0.29,1-0.59,1-0.89c0-0.16-0.05-0.29-0.15-0.38
				c-0.1-0.09-0.23-0.13-0.41-0.13c-0.29,0-0.52,0.1-0.69,0.3s-0.26,0.47-0.26,0.82V224.17z"/>
			<path class="st2" d="M381.44,223.27v2.3h0.7v0.58c-0.4,0.06-0.69,0.23-0.89,0.49c-0.1,0.14-0.19,0.31-0.25,0.52
				c-0.06,0.21-0.09,0.44-0.09,0.7h-0.58v-1.67h-1.17v-0.62h1.19v-2.43c0-0.21-0.02-0.35-0.07-0.42c-0.04-0.07-0.13-0.11-0.26-0.11
				c-0.15,0-0.25,0.07-0.31,0.22c-0.06,0.14-0.09,0.44-0.09,0.88v0.24h-0.58l0-0.15l0-0.23c0-0.63,0.1-1.08,0.31-1.36
				c0.2-0.28,0.53-0.42,0.99-0.42c0.38,0,0.67,0.12,0.85,0.36C381.35,222.38,381.44,222.76,381.44,223.27z"/>
			<path class="st2" d="M377.69,226.84c0,0.23,0.04,0.37,0.11,0.44s0.21,0.1,0.42,0.1h0.23v0.6h-1.84v-2.54
				c-0.23,0.29-0.46,0.51-0.72,0.66s-0.51,0.22-0.77,0.22c-0.48,0-0.83-0.12-1.05-0.36c-0.21-0.24-0.32-0.64-0.32-1.21v-1.67
				c0-0.23-0.04-0.37-0.11-0.44c-0.07-0.07-0.21-0.1-0.42-0.1h-0.25v-0.6h2.55v0.6h-0.18c-0.21,0-0.35,0.03-0.42,0.1
				c-0.07,0.07-0.1,0.21-0.1,0.44v1.67c0,0.31,0.05,0.53,0.16,0.67c0.1,0.14,0.27,0.2,0.51,0.2c0.34,0,0.61-0.13,0.81-0.4
				s0.3-0.63,0.3-1.09v-1.06c0-0.23-0.04-0.37-0.11-0.44c-0.07-0.07-0.21-0.1-0.42-0.1h-0.18v-0.6h2.54v0.6h-0.23
				c-0.21,0-0.34,0.03-0.42,0.1c-0.07,0.07-0.11,0.21-0.11,0.44V226.84z"/>
			<path class="st2" d="M369.09,223.46h-0.76c0.06-0.52,0.27-0.93,0.62-1.23s0.81-0.45,1.36-0.45c0.68,0,1.23,0.21,1.64,0.62
				c0.41,0.41,0.61,0.97,0.61,1.66c0,0.68-0.21,1.24-0.62,1.66c-0.41,0.42-0.96,0.63-1.63,0.63c-0.65,0-1.15-0.2-1.49-0.61
				c-0.34-0.41-0.52-1-0.52-1.77h3.03c0-0.24-0.03-0.44-0.08-0.62c-0.05-0.18-0.13-0.34-0.23-0.47c-0.18-0.25-0.45-0.38-0.79-0.38
				c-0.35,0-0.61,0.07-0.78,0.22C369.3,222.87,369.17,223.12,369.09,223.46z M369.5,224.61c0,0.18,0.02,0.35,0.07,0.5
				s0.1,0.27,0.18,0.37c0.13,0.18,0.33,0.27,0.58,0.27c0.26,0,0.48-0.1,0.64-0.29c0.16-0.19,0.27-0.47,0.33-0.85H369.5z"/>
			<path class="st2" d="M365.92,223.08c0-0.23-0.03-0.38-0.1-0.44c-0.07-0.07-0.21-0.1-0.41-0.1h-0.45v-0.6h2.86v0.6h-0.3
				c-0.21,0-0.34,0.03-0.41,0.1c-0.07,0.06-0.1,0.21-0.1,0.45v1.97c0,0.23,0.03,0.38,0.1,0.44c0.07,0.06,0.2,0.1,0.41,0.1h0.3v0.6
				h-1.9v-0.65c-0.14,0.25-0.31,0.44-0.49,0.57c-0.19,0.13-0.4,0.19-0.63,0.19c-0.32,0-0.58-0.09-0.79-0.27s-0.3-0.41-0.3-0.7
				c0-0.23,0.07-0.41,0.2-0.55c0.13-0.14,0.31-0.21,0.53-0.21c0.19,0,0.34,0.05,0.45,0.16s0.17,0.24,0.17,0.4
				c0,0.15-0.05,0.28-0.14,0.38c-0.09,0.1-0.22,0.18-0.41,0.23l0.2,0.06c0.06,0.02,0.12,0.02,0.17,0.02c0.3,0,0.54-0.15,0.75-0.45
				c0.1-0.15,0.17-0.32,0.22-0.51c0.05-0.19,0.07-0.4,0.07-0.64V223.08z"/>
			<path class="st2" d="M430.88,216.04c0,0.23,0.04,0.37,0.11,0.44c0.07,0.07,0.21,0.1,0.42,0.1h0.23v0.6h-1.84v-2.54
				c-0.23,0.29-0.46,0.51-0.72,0.66c-0.25,0.15-0.51,0.22-0.77,0.22c-0.48,0-0.83-0.12-1.05-0.36c-0.21-0.24-0.32-0.64-0.32-1.21
				v-1.67c0-0.23-0.04-0.37-0.11-0.44c-0.07-0.07-0.21-0.1-0.42-0.1h-0.25v-0.6h2.55v0.6h-0.18c-0.21,0-0.35,0.03-0.41,0.1
				c-0.07,0.07-0.1,0.21-0.1,0.44v1.67c0,0.31,0.05,0.53,0.16,0.67c0.1,0.14,0.27,0.2,0.51,0.2c0.34,0,0.61-0.13,0.81-0.4
				s0.3-0.63,0.3-1.09v-1.06c0-0.23-0.04-0.37-0.11-0.44c-0.07-0.07-0.21-0.1-0.42-0.1h-0.18v-0.6h2.54v0.6h-0.23
				c-0.21,0-0.34,0.03-0.42,0.1c-0.07,0.07-0.11,0.21-0.11,0.44V216.04z"/>
			<path class="st2" d="M423.01,211.66c0.18-0.23,0.39-0.4,0.63-0.51s0.52-0.17,0.84-0.17c0.19,0,0.36,0.03,0.52,0.08
				s0.29,0.13,0.41,0.25c0.24,0.22,0.36,0.49,0.36,0.83c0,0.32-0.1,0.59-0.3,0.79c-0.2,0.2-0.55,0.38-1.06,0.53l-0.57,0.15
				c-0.27,0.06-0.44,0.12-0.52,0.18c-0.1,0.07-0.18,0.15-0.23,0.24c-0.05,0.09-0.07,0.2-0.07,0.34c0,0.22,0.08,0.39,0.24,0.51
				c0.16,0.12,0.39,0.18,0.69,0.18c0.19,0,0.35-0.02,0.49-0.06s0.26-0.11,0.37-0.2h-0.03c-0.17,0-0.31-0.04-0.41-0.13
				c-0.1-0.09-0.15-0.21-0.15-0.36c0-0.17,0.06-0.31,0.17-0.42c0.12-0.11,0.27-0.16,0.46-0.16c0.21,0,0.39,0.07,0.52,0.2
				c0.13,0.13,0.2,0.3,0.2,0.51c0,0.33-0.16,0.6-0.47,0.81c-0.16,0.1-0.34,0.18-0.55,0.23s-0.45,0.08-0.72,0.08
				c-0.3,0-0.56-0.03-0.8-0.08s-0.43-0.13-0.58-0.23c-0.17-0.11-0.29-0.25-0.36-0.43c-0.07-0.18-0.11-0.47-0.11-0.88v-1.89
				c0-0.11-0.02-0.18-0.05-0.23c-0.03-0.05-0.08-0.07-0.16-0.07c-0.1,0-0.18,0.06-0.22,0.17c-0.04,0.12-0.06,0.39-0.06,0.81h-0.55
				v-0.19c0-0.55,0.09-0.94,0.26-1.19s0.46-0.37,0.85-0.37c0.26,0,0.47,0.05,0.63,0.16C422.82,211.25,422.94,211.42,423.01,211.66z
				 M423.04,213.37l0.51-0.22c0.67-0.29,1-0.59,1-0.89c0-0.16-0.05-0.29-0.14-0.38c-0.1-0.09-0.23-0.13-0.41-0.13
				c-0.29,0-0.52,0.1-0.69,0.3s-0.26,0.47-0.26,0.82V213.37z"/>
			<path class="st2" d="M418.98,211.14l1.1,3.19c0.05,0.17,0.12,0.28,0.2,0.36c0.08,0.07,0.17,0.11,0.28,0.11h0.26v0.6h-2.34v-0.6
				h0.14c0.12,0,0.21-0.02,0.26-0.06s0.09-0.09,0.09-0.17c0-0.03,0-0.06,0-0.09c-0.01-0.03-0.01-0.06-0.02-0.07l-0.07-0.23
				l-0.67-1.96l-0.72,2.04l-0.04,0.15l-0.02,0.14c0,0.09,0.03,0.15,0.1,0.19c0.07,0.04,0.17,0.06,0.3,0.06h0.22v0.6h-2.1v-0.6h0.22
				c0.12,0,0.22-0.04,0.31-0.13c0.09-0.09,0.17-0.23,0.23-0.42l1.09-3.1H418.98z"/>
			<path class="st2" d="M412.18,212.66h-0.76c0.06-0.52,0.27-0.93,0.62-1.23s0.81-0.45,1.36-0.45c0.68,0,1.23,0.21,1.64,0.62
				c0.41,0.41,0.61,0.97,0.61,1.66c0,0.68-0.21,1.24-0.62,1.66c-0.41,0.42-0.96,0.63-1.63,0.63c-0.65,0-1.15-0.2-1.49-0.61
				c-0.34-0.41-0.52-1-0.52-1.77h3.03c0-0.24-0.03-0.44-0.08-0.62c-0.05-0.18-0.13-0.34-0.23-0.47c-0.18-0.25-0.45-0.38-0.79-0.38
				c-0.35,0-0.61,0.07-0.78,0.22C412.39,212.07,412.26,212.32,412.18,212.66z M412.59,213.81c0,0.18,0.02,0.35,0.07,0.5
				s0.1,0.27,0.18,0.37c0.13,0.18,0.33,0.27,0.58,0.27c0.26,0,0.48-0.1,0.64-0.29c0.16-0.19,0.27-0.47,0.33-0.85H412.59z"/>
			<path class="st2" d="M407.07,212.72c0.21,0.18,0.37,0.37,0.47,0.57c0.1,0.2,0.15,0.42,0.15,0.64c0,0.49-0.18,0.88-0.56,1.17
				c-0.37,0.29-0.87,0.44-1.49,0.44c-0.27,0-0.53-0.04-0.78-0.11c-0.13-0.04-0.24-0.08-0.35-0.13c-0.11-0.05-0.21-0.11-0.32-0.19
				c-0.13,0.13-0.26,0.24-0.4,0.31c-0.14,0.07-0.3,0.11-0.47,0.11c-0.31,0-0.55-0.08-0.73-0.24s-0.27-0.38-0.27-0.66
				c0-0.19,0.06-0.34,0.17-0.46s0.25-0.18,0.43-0.18c0.17,0,0.31,0.05,0.42,0.15c0.11,0.1,0.17,0.23,0.17,0.39
				c0,0.12-0.04,0.23-0.11,0.31c-0.07,0.08-0.18,0.15-0.32,0.18c0.06,0.04,0.1,0.07,0.14,0.09c0.04,0.02,0.07,0.03,0.09,0.03
				c0.02,0.01,0.05,0.01,0.08,0.01c0.1,0,0.2-0.03,0.3-0.09c0.1-0.06,0.19-0.16,0.28-0.29c-0.07-0.14-0.13-0.28-0.18-0.43
				c-0.04-0.15-0.07-0.31-0.07-0.46c0-0.47,0.18-0.85,0.53-1.14c0.35-0.28,0.84-0.42,1.45-0.42c0.16,0,0.32,0.01,0.49,0.04
				c0.09,0.01,0.17,0.03,0.24,0.05c0.07,0.02,0.16,0.04,0.26,0.07c0.02-0.01,0.04-0.03,0.08-0.06c0.03-0.03,0.06-0.06,0.09-0.09
				c0.03-0.05,0.05-0.1,0.06-0.15c0-0.11-0.04-0.19-0.13-0.25c-0.05-0.02-0.11-0.04-0.18-0.05s-0.16-0.02-0.28-0.02h-1.23
				c-0.35,0-0.65-0.02-0.89-0.07s-0.44-0.12-0.61-0.23c-0.32-0.19-0.47-0.5-0.47-0.93c0-0.47,0.22-0.82,0.66-1.07
				c0.44-0.25,1.07-0.37,1.89-0.37c0.38,0,0.71,0.02,0.99,0.07c0.28,0.04,0.53,0.11,0.73,0.21c0.4,0.18,0.59,0.44,0.59,0.78
				c0,0.18-0.07,0.34-0.2,0.46c-0.13,0.12-0.35,0.22-0.63,0.3c0.24,0.06,0.42,0.16,0.54,0.3c0.12,0.14,0.19,0.31,0.19,0.51
				c0,0.2-0.07,0.38-0.2,0.52S407.34,212.63,407.07,212.72z M405.73,210.92c0.55,0,0.94-0.04,1.14-0.13s0.31-0.24,0.31-0.45
				c0-0.2-0.12-0.36-0.35-0.46c-0.23-0.1-0.58-0.15-1.05-0.15c-0.25,0-0.47,0.01-0.66,0.04s-0.34,0.07-0.47,0.13
				c-0.25,0.11-0.37,0.28-0.37,0.5c0,0.2,0.1,0.33,0.29,0.41C404.79,210.88,405.17,210.92,405.73,210.92z M406.49,213.98
				c0-0.37-0.06-0.63-0.19-0.81c-0.12-0.17-0.32-0.26-0.61-0.26c-0.28,0-0.48,0.08-0.61,0.25s-0.19,0.43-0.19,0.78
				c0,0.37,0.06,0.65,0.19,0.82c0.13,0.17,0.33,0.26,0.61,0.26c0.27,0,0.47-0.09,0.6-0.26S406.49,214.33,406.49,213.98z"/>
			<path class="st2" d="M402.08,213.26c0,0.69-0.22,1.25-0.65,1.67s-1.02,0.63-1.74,0.63c-0.73,0-1.31-0.21-1.75-0.63
				c-0.44-0.42-0.66-0.97-0.66-1.66c0-0.68,0.22-1.23,0.66-1.65s1.02-0.63,1.74-0.63s1.3,0.21,1.74,0.62
				S402.08,212.57,402.08,213.26z M400.86,213.26c0-0.54-0.1-0.95-0.29-1.23s-0.49-0.41-0.88-0.41c-0.39,0-0.68,0.14-0.88,0.41
				c-0.2,0.27-0.3,0.68-0.3,1.23c0,0.55,0.1,0.96,0.29,1.24c0.2,0.28,0.49,0.41,0.88,0.41c0.38,0,0.67-0.14,0.87-0.41
				C400.76,214.23,400.86,213.81,400.86,213.26z"/>
			<path class="st2" d="M396.78,213.26c0,0.69-0.22,1.25-0.65,1.67s-1.02,0.63-1.74,0.63c-0.73,0-1.31-0.21-1.75-0.63
				c-0.44-0.42-0.66-0.97-0.66-1.66c0-0.68,0.22-1.23,0.66-1.65s1.02-0.63,1.74-0.63s1.3,0.21,1.74,0.62
				S396.78,212.57,396.78,213.26z M395.56,213.26c0-0.54-0.1-0.95-0.29-1.23s-0.49-0.41-0.88-0.41c-0.39,0-0.68,0.14-0.88,0.41
				c-0.2,0.27-0.3,0.68-0.3,1.23c0,0.55,0.1,0.96,0.29,1.24c0.2,0.28,0.49,0.41,0.88,0.41c0.38,0,0.67-0.14,0.87-0.41
				C395.46,214.23,395.56,213.81,395.56,213.26z"/>
			<path class="st2" d="M388.15,216.04c0,0.23,0.04,0.37,0.11,0.44c0.07,0.06,0.21,0.1,0.41,0.1h0.38v0.6h-1.98v-4.9
				c0-0.23-0.03-0.38-0.1-0.44c-0.07-0.07-0.21-0.1-0.41-0.1h-0.26v-0.6h1.86v0.74c0.14-0.29,0.33-0.51,0.57-0.65
				c0.24-0.14,0.53-0.21,0.88-0.21c0.57,0,1.02,0.2,1.34,0.59c0.32,0.4,0.48,0.95,0.48,1.67c0,0.72-0.16,1.28-0.48,1.67
				c-0.32,0.4-0.77,0.6-1.34,0.6c-0.35,0-0.64-0.07-0.87-0.21c-0.24-0.14-0.43-0.36-0.58-0.66V216.04z M390.2,213.26
				c0-0.51-0.08-0.89-0.25-1.14c-0.17-0.25-0.43-0.38-0.78-0.38c-0.32,0-0.57,0.13-0.75,0.4c-0.18,0.27-0.27,0.64-0.27,1.11
				c0,0.47,0.09,0.84,0.27,1.11s0.43,0.4,0.75,0.4c0.35,0,0.61-0.12,0.78-0.37C390.12,214.15,390.2,213.77,390.2,213.26z"/>
			<path class="st2" d="M382.5,216.59c0,0.19-0.06,0.34-0.19,0.47c-0.13,0.13-0.29,0.19-0.47,0.19c-0.19,0-0.35-0.07-0.48-0.19
				c-0.13-0.13-0.2-0.29-0.2-0.47c0-0.18,0.07-0.34,0.2-0.47c0.13-0.14,0.29-0.2,0.48-0.2c0.18,0,0.34,0.07,0.47,0.2
				C382.44,216.24,382.5,216.4,382.5,216.59z M382.3,214.26c0,0.23,0.03,0.38,0.1,0.44c0.07,0.06,0.2,0.1,0.41,0.1h0.36v0.6h-1.97
				v-4.48c0-0.6,0.12-1.03,0.35-1.3s0.61-0.4,1.12-0.4c0.36,0,0.66,0.09,0.89,0.26c0.23,0.17,0.34,0.39,0.34,0.67
				c0,0.18-0.06,0.32-0.18,0.44c-0.06,0.06-0.13,0.1-0.2,0.13s-0.16,0.04-0.25,0.04c-0.16,0-0.29-0.05-0.39-0.14
				c-0.1-0.1-0.15-0.22-0.15-0.37c0-0.07,0.01-0.14,0.03-0.19s0.05-0.1,0.09-0.14c0.07-0.08,0.19-0.13,0.36-0.15
				c-0.04-0.02-0.07-0.03-0.1-0.04s-0.07-0.02-0.12-0.04c-0.06-0.02-0.11-0.02-0.16-0.02c-0.19,0-0.32,0.07-0.4,0.21
				c-0.04,0.07-0.07,0.17-0.09,0.29c-0.02,0.12-0.03,0.27-0.03,0.46V214.26z"/>
			<path class="st2" d="M376.72,212.66h-0.76c0.06-0.52,0.27-0.93,0.62-1.23s0.81-0.45,1.36-0.45c0.68,0,1.23,0.21,1.64,0.62
				c0.41,0.41,0.61,0.97,0.61,1.66c0,0.68-0.21,1.24-0.62,1.66c-0.41,0.42-0.96,0.63-1.63,0.63c-0.65,0-1.15-0.2-1.49-0.61
				c-0.34-0.41-0.52-1-0.52-1.77h3.03c0-0.24-0.03-0.44-0.08-0.62c-0.05-0.18-0.13-0.34-0.23-0.47c-0.18-0.25-0.45-0.38-0.79-0.38
				c-0.35,0-0.61,0.07-0.78,0.22C376.93,212.07,376.8,212.32,376.72,212.66z M377.13,213.81c0,0.18,0.02,0.35,0.07,0.5
				s0.1,0.27,0.18,0.37c0.13,0.18,0.33,0.27,0.58,0.27c0.26,0,0.48-0.1,0.64-0.29c0.16-0.19,0.27-0.47,0.33-0.85H377.13z"/>
			<path class="st2" d="M372.65,211.66c0.18-0.23,0.39-0.4,0.63-0.51c0.24-0.11,0.52-0.17,0.84-0.17c0.19,0,0.36,0.03,0.52,0.08
				s0.29,0.13,0.41,0.25c0.24,0.22,0.36,0.49,0.36,0.83c0,0.32-0.1,0.59-0.3,0.79c-0.2,0.2-0.56,0.38-1.06,0.53l-0.57,0.15
				c-0.27,0.06-0.44,0.12-0.52,0.18c-0.1,0.07-0.18,0.15-0.23,0.24c-0.05,0.09-0.07,0.2-0.07,0.34c0,0.22,0.08,0.39,0.24,0.51
				c0.16,0.12,0.39,0.18,0.69,0.18c0.19,0,0.35-0.02,0.49-0.06s0.26-0.11,0.37-0.2h-0.03c-0.17,0-0.31-0.04-0.41-0.13
				c-0.1-0.09-0.15-0.21-0.15-0.36c0-0.17,0.06-0.31,0.17-0.42c0.12-0.11,0.27-0.16,0.46-0.16c0.21,0,0.39,0.07,0.52,0.2
				c0.13,0.13,0.2,0.3,0.2,0.51c0,0.33-0.16,0.6-0.47,0.81c-0.16,0.1-0.34,0.18-0.55,0.23s-0.45,0.08-0.72,0.08
				c-0.3,0-0.56-0.03-0.8-0.08s-0.43-0.13-0.58-0.23c-0.17-0.11-0.29-0.25-0.36-0.43c-0.07-0.18-0.11-0.47-0.11-0.88v-1.89
				c0-0.11-0.02-0.18-0.05-0.23c-0.03-0.05-0.09-0.07-0.16-0.07c-0.1,0-0.18,0.06-0.22,0.17c-0.04,0.12-0.06,0.39-0.06,0.81h-0.55
				v-0.19c0-0.55,0.09-0.94,0.26-1.19c0.17-0.24,0.46-0.37,0.85-0.37c0.26,0,0.47,0.05,0.63,0.16
				C372.47,211.25,372.58,211.42,372.65,211.66z M372.68,213.37l0.51-0.22c0.67-0.29,1-0.59,1-0.89c0-0.16-0.05-0.29-0.15-0.38
				c-0.1-0.09-0.23-0.13-0.41-0.13c-0.29,0-0.52,0.1-0.69,0.3s-0.26,0.47-0.26,0.82V213.37z"/>
			<path class="st2" d="M370.32,211.14v0.6h-0.3c-0.21,0-0.34,0.03-0.41,0.1c-0.07,0.06-0.1,0.21-0.1,0.45v1.97
				c0,0.23,0.03,0.38,0.1,0.44c0.07,0.06,0.2,0.1,0.41,0.1h0.3v0.6h-1.9v-0.75c-0.23,0.29-0.48,0.51-0.72,0.66
				c-0.25,0.15-0.5,0.22-0.75,0.22c-0.49,0-0.84-0.12-1.05-0.36c-0.21-0.24-0.32-0.64-0.32-1.21v-1.67c0-0.23-0.03-0.38-0.1-0.44
				c-0.07-0.07-0.21-0.1-0.41-0.1h-0.26v-0.6h2.56v0.6h-0.18c-0.21,0-0.34,0.03-0.41,0.09c-0.07,0.06-0.1,0.21-0.1,0.45v1.67
				c0,0.31,0.05,0.53,0.16,0.67c0.1,0.14,0.27,0.2,0.51,0.2c0.34,0,0.61-0.13,0.8-0.39s0.29-0.61,0.29-1.06v-1.1
				c0-0.23-0.03-0.38-0.1-0.44c-0.07-0.07-0.21-0.1-0.41-0.1h-0.18v-0.6H370.32z"/>
			<path class="st2" d="M364.36,211.09v1.74h-0.66c-0.08-0.39-0.25-0.69-0.5-0.89s-0.56-0.31-0.93-0.31c-0.23,0-0.41,0.05-0.55,0.15
				c-0.14,0.1-0.21,0.24-0.21,0.41c0,0.13,0.05,0.24,0.16,0.32s0.31,0.16,0.59,0.24l0.67,0.16c0.46,0.12,0.81,0.28,1.03,0.5
				c0.23,0.22,0.34,0.49,0.34,0.82c0,0.4-0.15,0.72-0.45,0.97c-0.3,0.25-0.7,0.37-1.2,0.37c-0.23,0-0.46-0.04-0.67-0.11
				c-0.21-0.07-0.42-0.18-0.61-0.33l-0.2,0.33h-0.51v-1.57h0.61c0.09,0.32,0.25,0.58,0.48,0.76c0.23,0.18,0.51,0.27,0.83,0.27
				c0.21,0,0.38-0.04,0.5-0.13c0.12-0.09,0.18-0.21,0.18-0.37c0-0.11-0.04-0.21-0.12-0.29c-0.08-0.07-0.21-0.13-0.38-0.17
				l-0.82-0.19c-0.53-0.12-0.91-0.3-1.15-0.52s-0.36-0.52-0.36-0.87c0-0.43,0.15-0.76,0.46-1.01c0.3-0.25,0.73-0.37,1.26-0.37
				c0.27,0,0.52,0.04,0.75,0.11s0.46,0.2,0.69,0.37l0.16-0.38H364.36z"/>
			<path class="st2" d="M422.88,200.34v0.6h-0.33c-0.21,0-0.34,0.03-0.41,0.1c-0.07,0.06-0.1,0.21-0.1,0.45v1.97
				c0,0.23,0.04,0.37,0.11,0.44s0.21,0.1,0.41,0.1h0.33v0.6h-1.95v-3.11c0-0.23-0.03-0.38-0.1-0.44c-0.07-0.06-0.21-0.1-0.42-0.1
				h-0.27v-0.6H422.88z M422.23,205.79c0,0.19-0.06,0.34-0.19,0.47c-0.13,0.13-0.29,0.19-0.47,0.19c-0.19,0-0.35-0.07-0.48-0.19
				c-0.13-0.13-0.2-0.29-0.2-0.47c0-0.18,0.07-0.34,0.2-0.47c0.13-0.14,0.29-0.2,0.48-0.2c0.18,0,0.34,0.07,0.47,0.2
				C422.17,205.44,422.23,205.6,422.23,205.79z"/>
			<path class="st2" d="M419.73,200.34v0.6h-0.3c-0.21,0-0.34,0.03-0.41,0.1c-0.07,0.06-0.1,0.21-0.1,0.45v1.97
				c0,0.23,0.04,0.38,0.1,0.44s0.2,0.1,0.41,0.1h0.3v0.6h-1.9v-0.75c-0.23,0.29-0.47,0.51-0.72,0.66c-0.25,0.15-0.5,0.22-0.75,0.22
				c-0.49,0-0.84-0.12-1.05-0.36c-0.21-0.24-0.32-0.64-0.32-1.21v-1.67c0-0.23-0.03-0.38-0.1-0.44c-0.07-0.07-0.21-0.1-0.41-0.1
				h-0.26v-0.6h2.56v0.6h-0.18c-0.21,0-0.34,0.03-0.41,0.09c-0.07,0.06-0.1,0.21-0.1,0.45v1.67c0,0.31,0.05,0.53,0.16,0.67
				c0.11,0.14,0.28,0.2,0.51,0.2c0.34,0,0.61-0.13,0.8-0.39c0.2-0.26,0.29-0.61,0.29-1.06v-1.1c0-0.23-0.03-0.38-0.1-0.44
				c-0.07-0.07-0.21-0.1-0.41-0.1h-0.18v-0.6H419.73z"/>
			<path class="st2" d="M406.51,203.86c-0.27,0.3-0.52,0.52-0.76,0.66c-0.24,0.13-0.48,0.2-0.74,0.2c-0.19,0-0.37-0.03-0.53-0.09
				c-0.17-0.06-0.3-0.14-0.4-0.25c-0.1-0.11-0.18-0.25-0.23-0.41c-0.02-0.08-0.04-0.19-0.05-0.32s-0.02-0.29-0.02-0.49v-1.67
				c0-0.23-0.03-0.38-0.1-0.44c-0.07-0.07-0.2-0.1-0.41-0.1h-0.25v-0.6h2.46v0.6h-0.1c-0.21,0-0.34,0.03-0.42,0.1
				c-0.07,0.07-0.11,0.21-0.11,0.44v1.67c0,0.34,0.04,0.57,0.13,0.7c0.09,0.12,0.25,0.18,0.48,0.18c0.27,0,0.51-0.11,0.71-0.34
				c0.2-0.23,0.3-0.51,0.3-0.84v-1.37c0-0.23-0.03-0.38-0.1-0.44c-0.07-0.07-0.21-0.1-0.41-0.1h-0.11v-0.6h2.32v0.6h-0.1
				c-0.21,0-0.34,0.03-0.42,0.1c-0.07,0.07-0.11,0.21-0.11,0.44v1.67c0,0.34,0.04,0.57,0.13,0.7c0.09,0.12,0.25,0.18,0.48,0.18
				c0.27,0,0.51-0.11,0.7-0.34c0.2-0.23,0.29-0.51,0.29-0.84v-1.37c0-0.23-0.03-0.38-0.1-0.44c-0.07-0.07-0.21-0.1-0.41-0.1h-0.11
				v-0.6h2.5v0.6h-0.3c-0.21,0-0.34,0.03-0.41,0.1c-0.07,0.06-0.1,0.21-0.1,0.45v1.97c0,0.23,0.04,0.38,0.1,0.44s0.2,0.1,0.41,0.1
				h0.3v0.6h-1.88v-0.72c-0.23,0.3-0.46,0.51-0.7,0.65c-0.23,0.13-0.49,0.2-0.77,0.2c-0.29,0-0.53-0.07-0.73-0.21
				C406.77,204.37,406.62,204.16,406.51,203.86z"/>
			<path class="st2" d="M400.56,200.34l1.38,3.1c0.09,0.2,0.18,0.35,0.29,0.43c0.05,0.04,0.11,0.07,0.17,0.09
				c0.06,0.02,0.13,0.03,0.22,0.03h0.27v0.6h-2.61V204h0.32c0.1,0,0.17-0.02,0.23-0.05c0.05-0.04,0.07-0.09,0.07-0.17l-0.01-0.1
				l-0.04-0.1l-0.83-1.96l-0.74,1.88l-0.05,0.15l-0.01,0.11c0,0.09,0.03,0.15,0.09,0.18c0.05,0.04,0.16,0.05,0.31,0.05h0.24v0.6
				h-2.17V204h0.2c0.14,0,0.27-0.05,0.38-0.16c0.11-0.1,0.21-0.27,0.29-0.49l1-2.5c0.2-0.5,0.39-0.92,0.56-1.24
				c0.17-0.32,0.33-0.56,0.48-0.72c0.29-0.32,0.64-0.47,1.06-0.47c0.36,0,0.66,0.11,0.9,0.32c0.24,0.21,0.36,0.48,0.36,0.81
				c0,0.23-0.07,0.42-0.2,0.57c-0.14,0.15-0.31,0.23-0.53,0.23c-0.18,0-0.33-0.06-0.45-0.17c-0.12-0.11-0.17-0.25-0.17-0.43
				c0-0.17,0.05-0.3,0.16-0.39c0.11-0.1,0.25-0.15,0.44-0.15h0.05c-0.06-0.07-0.12-0.12-0.19-0.16c-0.07-0.04-0.16-0.06-0.25-0.06
				c-0.24,0-0.45,0.1-0.63,0.31S400.74,199.86,400.56,200.34z"/>
			<path class="st2" d="M391.16,202.1h-0.69c0-0.31,0.05-0.59,0.14-0.83s0.22-0.44,0.39-0.61c0.32-0.32,0.78-0.48,1.38-0.48
				c0.67,0,1.2,0.21,1.59,0.62c0.39,0.41,0.59,0.97,0.59,1.66c0,0.68-0.22,1.23-0.65,1.65c-0.44,0.42-1,0.64-1.7,0.64
				c-0.52,0-0.94-0.12-1.27-0.37c-0.33-0.25-0.5-0.56-0.5-0.94c0-0.23,0.07-0.41,0.2-0.56c0.13-0.14,0.31-0.21,0.52-0.21
				c0.19,0,0.35,0.06,0.47,0.17c0.06,0.06,0.1,0.12,0.13,0.2c0.03,0.07,0.04,0.16,0.04,0.26c0,0.14-0.05,0.26-0.14,0.36
				s-0.22,0.16-0.38,0.18c0.13,0.11,0.27,0.19,0.41,0.24s0.3,0.08,0.47,0.08c0.37,0,0.65-0.15,0.86-0.45
				c0.21-0.3,0.31-0.71,0.31-1.24c0-0.5-0.09-0.86-0.28-1.11c-0.19-0.24-0.47-0.37-0.85-0.37c-0.3,0-0.54,0.09-0.71,0.27
				S391.21,201.73,391.16,202.1z"/>
			<path class="st2" d="M389.19,205.24c0,0.23,0.03,0.37,0.1,0.44c0.07,0.07,0.21,0.1,0.42,0.1h0.27v0.6h-1.89v-4.9
				c0-0.23-0.04-0.37-0.11-0.44c-0.07-0.07-0.21-0.1-0.42-0.1h-0.27v-0.6h2.68v0.6h-0.27c-0.21,0-0.35,0.03-0.42,0.1
				c-0.07,0.07-0.1,0.21-0.1,0.44V205.24z"/>
			<path class="st2" d="M386.86,202.46c0,0.69-0.22,1.25-0.65,1.67s-1.02,0.63-1.74,0.63c-0.73,0-1.31-0.21-1.75-0.63
				c-0.44-0.42-0.66-0.97-0.66-1.66c0-0.68,0.22-1.23,0.66-1.65s1.02-0.63,1.74-0.63s1.3,0.21,1.74,0.62
				S386.86,201.77,386.86,202.46z M385.63,202.46c0-0.54-0.1-0.95-0.29-1.23s-0.49-0.41-0.88-0.41c-0.39,0-0.68,0.14-0.88,0.41
				c-0.2,0.27-0.3,0.68-0.3,1.23c0,0.55,0.1,0.96,0.29,1.24c0.2,0.28,0.49,0.41,0.88,0.41c0.38,0,0.67-0.14,0.87-0.41
				C385.53,203.43,385.63,203.01,385.63,202.46z"/>
			<path class="st2" d="M381.53,200.29v1.74h-0.66c-0.08-0.39-0.25-0.69-0.5-0.89s-0.56-0.31-0.93-0.31c-0.23,0-0.41,0.05-0.55,0.15
				c-0.14,0.1-0.21,0.24-0.21,0.41c0,0.13,0.05,0.24,0.16,0.32s0.31,0.16,0.59,0.24l0.67,0.16c0.46,0.12,0.81,0.28,1.03,0.5
				c0.23,0.22,0.34,0.49,0.34,0.82c0,0.4-0.15,0.72-0.45,0.97c-0.3,0.25-0.7,0.37-1.2,0.37c-0.23,0-0.46-0.04-0.67-0.11
				c-0.21-0.07-0.42-0.18-0.61-0.33l-0.2,0.33h-0.51v-1.57h0.61c0.09,0.32,0.25,0.58,0.48,0.76c0.23,0.18,0.51,0.27,0.83,0.27
				c0.21,0,0.38-0.04,0.5-0.13c0.12-0.09,0.18-0.21,0.18-0.37c0-0.11-0.04-0.21-0.12-0.29c-0.08-0.07-0.21-0.13-0.38-0.17
				l-0.82-0.19c-0.53-0.12-0.91-0.3-1.15-0.52s-0.36-0.52-0.36-0.87c0-0.43,0.15-0.76,0.46-1.01c0.3-0.25,0.73-0.37,1.26-0.37
				c0.27,0,0.52,0.04,0.75,0.11s0.46,0.2,0.69,0.37l0.16-0.38H381.53z"/>
			<path class="st2" d="M373.61,201.86h-0.76c0.06-0.52,0.27-0.93,0.62-1.23s0.81-0.45,1.36-0.45c0.68,0,1.23,0.21,1.64,0.62
				c0.41,0.41,0.61,0.97,0.61,1.66c0,0.68-0.21,1.24-0.62,1.66c-0.41,0.42-0.96,0.63-1.63,0.63c-0.65,0-1.15-0.2-1.49-0.61
				c-0.34-0.41-0.52-1-0.52-1.77h3.03c0-0.24-0.03-0.44-0.08-0.62c-0.05-0.18-0.13-0.34-0.23-0.47c-0.18-0.25-0.45-0.38-0.79-0.38
				c-0.35,0-0.61,0.07-0.78,0.22C373.81,201.27,373.69,201.52,373.61,201.86z M374.02,203.01c0,0.18,0.02,0.35,0.07,0.5
				s0.1,0.27,0.18,0.37c0.13,0.18,0.33,0.27,0.58,0.27c0.26,0,0.48-0.1,0.64-0.29c0.16-0.19,0.27-0.47,0.33-0.85H374.02z"/>
			<path class="st2" d="M371.68,201.67v2.3h0.7v0.58c-0.4,0.06-0.69,0.23-0.89,0.49c-0.1,0.14-0.19,0.31-0.25,0.52
				c-0.06,0.21-0.09,0.44-0.09,0.7h-0.58v-1.67h-1.17v-0.62h1.19v-2.43c0-0.21-0.02-0.35-0.07-0.42c-0.04-0.07-0.13-0.11-0.26-0.11
				c-0.15,0-0.25,0.07-0.31,0.22c-0.06,0.14-0.09,0.44-0.09,0.88v0.24h-0.58l0-0.15l0-0.23c0-0.63,0.1-1.08,0.31-1.36
				c0.2-0.28,0.53-0.42,0.99-0.42c0.38,0,0.67,0.12,0.85,0.36C371.59,200.78,371.68,201.16,371.68,201.67z"/>
		</g>
	</g>
	
		<rect x="388.91" y="211.97" transform="matrix(4.491880e-11 -1 1 4.491880e-11 127.3323 664.6677)" class="st3" width="14.17" height="113.39"/>
	<g>
		<g>
			<path class="st2" d="M361.04,331.61c0,1.66-0.37,3.09-1.12,4.32c-0.74,1.23-1.64,1.91-2.69,1.99c-0.22,0.02-0.44,0.04-0.66,0.06
				c-1.05,0.09-1.94-0.43-2.69-1.6c-0.74-1.17-1.12-2.64-1.12-4.38c0-5.23,0-10.46,0-15.69c0-1.74,0.37-3.21,1.12-4.38
				c0.74-1.17,1.64-1.69,2.69-1.6c0.22,0.02,0.44,0.04,0.66,0.06c1.05,0.09,1.94,0.76,2.69,1.99c0.74,1.23,1.12,2.67,1.12,4.32
				C361.04,321.67,361.04,326.64,361.04,331.61z M358.51,330.62c0-4.35,0-8.71,0-13.06c0-1.05-0.07-1.83-0.2-2.32
				c-0.22-0.74-0.62-1.13-1.19-1.17c-1.2-0.08-1.8,1.04-1.8,3.36c0,4.44,0,8.88,0,13.32c0,2.32,0.55,3.44,1.65,3.37
				C357.99,334.06,358.51,332.89,358.51,330.62z"/>
			<path class="st2" d="M371.7,336.59c-0.97,0.05-1.94,0.1-2.91,0.16c-1.08-2.38-2.17-4.79-3.25-7.24c0,2.48,0,4.96,0,7.44
				c-0.88,0.06-1.76,0.12-2.64,0.18c0-8.59,0-17.19,0-25.78c0.88,0.06,1.76,0.12,2.64,0.18c0,2.46,0,4.91,0,7.37
				c1.07-2.43,2.15-4.81,3.23-7.17c0.96,0.05,1.92,0.11,2.88,0.16c-1.93,4-3.85,8.08-5.78,12.28
				C367.81,328.41,369.75,332.54,371.7,336.59z"/>
			<path class="st2" d="M391.74,335.98c-0.88,0.01-1.76,0.02-2.64,0.03c0-4.01,0-8.01,0-12.02c-0.76,4.01-1.53,8.03-2.29,12.06
				c-0.88,0.02-1.76,0.04-2.64,0.06c-0.69-4.11-1.39-8.23-2.08-12.38c0,4.15,0,8.29,0,12.44c-0.88,0.03-1.76,0.05-2.64,0.09
				c0-8.02,0-16.03,0-24.05c0.94,0.03,1.88,0.06,2.82,0.09c1.13,5.68,2.25,11.3,3.38,16.9c1.07-5.61,2.14-11.19,3.21-16.75
				c0.97,0.01,1.93,0.03,2.9,0.03C391.74,320.31,391.74,328.14,391.74,335.98z"/>
			<path class="st2" d="M402.5,336.01c-0.88-0.01-1.75-0.02-2.63-0.03c-0.21-1.79-0.41-3.58-0.62-5.36c-0.65,0-1.3,0-1.94-0.01
				c-0.21,1.78-0.43,3.57-0.64,5.35c-0.88,0-1.76,0-2.63,0c0.97-7.84,1.95-15.67,2.92-23.51c0.91,0.01,1.81,0.02,2.72,0.02
				C400.62,320.3,401.56,328.14,402.5,336.01z M398.84,326.85c-0.18-1.91-0.36-3.81-0.53-5.72c-0.18,1.91-0.36,3.81-0.53,5.72
				C398.12,326.85,398.48,326.85,398.84,326.85z"/>
			<path class="st2" d="M413.02,336.27c-0.85-0.03-1.69-0.06-2.54-0.08c0-1.95,0-3.91,0-5.86c0-1.42-0.34-2.35-1.01-2.77
				c-0.39-0.22-1.15-0.34-2.3-0.35c0,2.96,0,5.92,0,8.89c-0.88-0.02-1.76-0.04-2.64-0.06c0-7.91,0-15.82,0-23.73
				c1.5-0.04,3-0.09,4.5-0.14c1.05-0.03,1.95,0.48,2.69,1.55c0.75,1.06,1.12,2.37,1.12,3.9c0,1.39,0,2.77,0,4.16
				c0,0.74-0.16,1.54-0.47,2.38c-0.31,0.84-0.69,1.39-1.13,1.66c0.47,0.32,0.88,0.82,1.22,1.49c0.37,0.75,0.56,1.48,0.56,2.2
				C413.02,331.76,413.02,334.01,413.02,336.27z M410.3,320.81c0-0.76,0-1.53,0-2.29c0-1.21-0.13-2.03-0.38-2.47
				c-0.25-0.44-0.79-0.65-1.61-0.63c-0.38,0.01-0.76,0.01-1.14,0.02c0,2.82,0,5.63,0,8.45c0.53,0.01,1.06,0.02,1.59,0.04
				C409.79,323.92,410.3,322.88,410.3,320.81z"/>
			<path class="st2" d="M418.16,336.48c-0.88-0.04-1.76-0.08-2.64-0.12c0-8.1,0-16.21,0-24.31c0.88-0.02,1.76-0.05,2.64-0.08
				C418.16,320.15,418.16,328.31,418.16,336.48z"/>
			<path class="st2" d="M428.52,337.08c-0.9-0.06-1.79-0.12-2.69-0.18c-0.89-4.66-1.78-9.27-2.67-13.81c0,4.55,0,9.1,0,13.65
				c-0.81-0.05-1.63-0.09-2.44-0.13c-0.03-8.25-0.05-16.51-0.08-24.75c0.9-0.05,1.8-0.1,2.7-0.15c0.91,4.61,1.82,9.28,2.73,14.02
				c0-4.73,0-9.46,0-14.18c0.81-0.05,1.62-0.1,2.44-0.16C428.52,319.95,428.52,328.52,428.52,337.08z"/>
			<path class="st2" d="M439.22,332c0,1.74-0.37,3.21-1.12,4.38c-0.74,1.17-1.64,1.69-2.69,1.6c-0.22-0.02-0.44-0.04-0.66-0.06
				c-1.05-0.09-1.95-0.76-2.69-1.99c-0.74-1.23-1.12-2.67-1.12-4.32c0-4.97,0-9.94,0-14.91c0-1.66,0.37-3.09,1.12-4.32
				c0.74-1.23,1.64-1.91,2.69-1.99c0.22-0.02,0.44-0.04,0.66-0.06c1.05-0.09,1.94,0.43,2.69,1.6c0.74,1.17,1.12,2.64,1.12,4.38
				C439.22,321.54,439.22,326.77,439.22,332z M436.69,330.75c0-4.44,0-8.88,0-13.32c0-1.08-0.07-1.86-0.2-2.35
				c-0.22-0.73-0.62-1.08-1.19-1.04c-1.2,0.08-1.8,1.25-1.8,3.52c0,4.35,0,8.71,0,13.06c0,2.27,0.55,3.44,1.65,3.51
				C436.17,334.2,436.69,333.07,436.69,330.75z"/>
		</g>
		<path class="st2" d="M387.97,305.47c-6.78-0.34-23.43-0.51-30.23-0.53l-1.16,0.01c-0.06,0-0.11,0-0.15,0c-0.74,0-1.49,0-2.23,0.01
			c-0.46,0.01-0.79,0.34-0.78,0.76c0.01,0.44,0.33,0.73,0.8,0.74c0.14,0,0.28-0.01,0.42-0.01c0.3-0.01,0.61-0.01,0.92-0.02l0,0
			l1.71-0.04c0.02,0,0.03-0.01,0.05-0.01c2.46-0.05,4.92-0.11,7.38-0.19c3.87-0.14,17.6-0.29,21.47-0.45
			c0.61-0.02,1.21-0.09,1.82-0.14C387.98,305.56,387.98,305.51,387.97,305.47z M359.98,305.91c-0.62,0.02-1.24,0.03-1.86,0.04v0
			l-0.07,0c-0.33,0-0.65,0.01-0.98,0.01c0,0,0,0,0-0.01l-0.41,0c0,0,0,0,0,0.01c-0.82,0.01-1.63,0.03-2.44,0.02
			c-0.1,0-0.2-0.18-0.29-0.28c0.1-0.1,0.19-0.27,0.29-0.28c0.7-0.03,1.4-0.03,2.13-0.04l0,0l1.78-0.02v0
			c0.41-0.01,0.83-0.01,1.24-0.02c0.2,0,0.4-0.03,0.59,0.01c0.11,0.03,0.26,0.17,0.27,0.26
			C360.21,305.72,360.06,305.91,359.98,305.91z"/>
		<path class="st2" d="M404.67,305.6c0.61,0.05,1.21,0.11,1.82,0.14c3.86,0.16,17.6,0.31,21.47,0.45c2.46,0.09,4.92,0.14,7.38,0.19
			c0.02,0,0.03,0,0.05,0.01l1.71,0.04l0,0c0.31,0.01,0.61,0.01,0.92,0.02c0.14,0,0.28,0.01,0.42,0.01c0.47-0.01,0.79-0.3,0.8-0.74
			c0.01-0.42-0.32-0.75-0.78-0.76c-0.74-0.01-1.49-0.01-2.23-0.01c-0.04,0-0.09,0-0.15,0l-1.16-0.01
			c-6.8,0.02-23.46,0.19-30.23,0.53C404.67,305.51,404.67,305.56,404.67,305.6z M432.43,305.62c0-0.1,0.16-0.24,0.27-0.26
			c0.19-0.04,0.39-0.01,0.59-0.01c0.41,0.01,0.83,0.01,1.24,0.02v0l1.78,0.02l0,0c0.72,0.01,1.43,0.01,2.13,0.04
			c0.1,0,0.19,0.18,0.29,0.28c-0.1,0.1-0.19,0.28-0.29,0.28c-0.81,0.01-1.62-0.01-2.44-0.02c0,0,0,0,0-0.01l-0.41,0c0,0,0,0,0,0.01
			c-0.33,0-0.66-0.01-0.98-0.01l-0.07,0v0c-0.62-0.01-1.24-0.02-1.86-0.04C432.58,305.91,432.43,305.72,432.43,305.62z"/>
		<g>
			<path class="st2" d="M372.69,297.54c-0.28,0.05-0.4,0.16-0.37,0.33c-0.05,0.01-0.09,0.02-0.14,0.02
				c-0.08-0.45-0.16-0.91-0.24-1.36c0.05-0.01,0.1-0.02,0.14-0.03c0.04,0.23,0.2,0.32,0.48,0.27c0.85-0.15,1.7-0.29,2.56-0.42
				c0.01,0.05,0.01,0.09,0.02,0.14c-0.09,0.01-0.14,0.04-0.16,0.08c-0.02,0.04-0.02,0.12,0,0.25c0.05,0.33,0.1,0.67,0.16,1
				c0.02,0.13,0.05,0.21,0.09,0.25c0.04,0.03,0.1,0.05,0.18,0.06c0.01,0.05,0.01,0.09,0.02,0.14c-0.5,0.53-1.02,0.92-1.58,1.19
				c-0.56,0.27-1.08,0.44-1.57,0.53c-0.51,0.09-1,0.11-1.45,0.06c-0.46-0.05-0.87-0.18-1.25-0.38c-0.37-0.2-0.68-0.46-0.94-0.79
				c-0.26-0.33-0.43-0.71-0.52-1.16c-0.09-0.45-0.09-0.88,0.01-1.3c0.1-0.42,0.28-0.8,0.54-1.15c0.26-0.35,0.59-0.65,1-0.89
				c0.4-0.24,0.87-0.41,1.39-0.51c0.52-0.09,0.96-0.13,1.33-0.11c0.37,0.02,0.67,0.06,0.91,0.13c0.24,0.06,0.43,0.12,0.57,0.19
				c0.14,0.06,0.24,0.09,0.32,0.07c0.06-0.01,0.11-0.03,0.13-0.06c0.02-0.03,0.05-0.07,0.06-0.11c0.05,0.02,0.11,0.05,0.16,0.07
				c-0.22,0.44-0.44,0.88-0.66,1.32c-0.05-0.02-0.11-0.05-0.16-0.07c0.03-0.04,0.04-0.08,0.03-0.15c-0.01-0.07-0.08-0.14-0.22-0.22
				c-0.14-0.08-0.32-0.15-0.55-0.22c-0.23-0.06-0.5-0.11-0.8-0.12c-0.3-0.02-0.62,0-0.96,0.06c-0.45,0.08-0.83,0.22-1.13,0.41
				c-0.31,0.19-0.54,0.41-0.71,0.66c-0.17,0.25-0.28,0.52-0.32,0.82c-0.05,0.29-0.04,0.59,0.02,0.9c0.07,0.37,0.21,0.69,0.4,0.95
				c0.19,0.26,0.42,0.46,0.68,0.62c0.26,0.15,0.54,0.25,0.85,0.3c0.31,0.05,0.62,0.05,0.93-0.01c0.51-0.09,0.96-0.24,1.35-0.44
				c0.38-0.2,0.69-0.42,0.93-0.66c-0.05-0.29-0.09-0.58-0.14-0.87C373.6,297.38,373.15,297.46,372.69,297.54z"/>
			<path class="st2" d="M378.16,298.33c-0.02,0.07-0.05,0.16-0.07,0.25c-0.03,0.09-0.04,0.16-0.03,0.2c0.01,0.09,0.08,0.12,0.22,0.1
				c0.01,0.05,0.01,0.09,0.02,0.14c-0.48,0.06-0.96,0.13-1.44,0.2c-0.01-0.05-0.01-0.09-0.02-0.14c0.05-0.01,0.09-0.02,0.12-0.03
				c0.03-0.01,0.06-0.04,0.09-0.08c0.03-0.04,0.05-0.1,0.08-0.18c0.03-0.08,0.07-0.18,0.11-0.32c0.49-1.66,1-3.31,1.54-4.97
				c0.05-0.14,0.08-0.24,0.11-0.31c0.02-0.07,0.03-0.12,0.03-0.16c-0.01-0.09-0.09-0.13-0.24-0.11c-0.01-0.05-0.01-0.09-0.02-0.14
				c0.59-0.07,1.19-0.14,1.78-0.21c0.01,0.05,0.01,0.09,0.02,0.14c-0.13,0.01-0.19,0.07-0.18,0.16c0.01,0.05,0.03,0.1,0.08,0.17
				c0.05,0.07,0.11,0.17,0.19,0.29c0.95,1.45,1.88,2.92,2.78,4.39c0.08,0.13,0.15,0.24,0.2,0.31c0.05,0.07,0.09,0.13,0.13,0.16
				c0.04,0.04,0.08,0.06,0.12,0.06c0.04,0,0.09,0,0.17,0c0,0.05,0.01,0.09,0.01,0.14c-0.54,0.05-1.09,0.1-1.63,0.16
				c0-0.05-0.01-0.09-0.01-0.14c0.09-0.01,0.15-0.03,0.18-0.06c0.03-0.03,0.04-0.07,0.03-0.13c0-0.04-0.02-0.08-0.04-0.12
				c-0.02-0.04-0.07-0.13-0.15-0.26c-0.18-0.29-0.36-0.59-0.55-0.88c-1.12,0.12-2.23,0.25-3.35,0.4
				C378.34,297.68,378.25,298,378.16,298.33z M381.3,296.23c-0.55-0.87-1.11-1.73-1.67-2.59c-0.31,0.96-0.62,1.93-0.91,2.89
				C379.57,296.42,380.43,296.32,381.3,296.23z"/>
			<path class="st2" d="M385.76,296.38c-0.02,0.06-0.03,0.11-0.02,0.15c0.01,0.11,0.09,0.22,0.23,0.32c0.15,0.11,0.34,0.2,0.57,0.28
				c0.23,0.08,0.49,0.14,0.78,0.19c0.29,0.04,0.58,0.06,0.87,0.04c0.75-0.04,1.28-0.18,1.61-0.41c0.32-0.23,0.48-0.52,0.47-0.86
				c-0.01-0.16-0.05-0.3-0.14-0.4c-0.09-0.11-0.21-0.18-0.36-0.24c-0.15-0.05-0.32-0.08-0.52-0.1c-0.2-0.01-0.41-0.01-0.63,0
				c-0.37,0.02-0.76,0.04-1.17,0.06c-0.41,0.02-0.79,0-1.14-0.07c-0.35-0.07-0.65-0.21-0.89-0.42c-0.24-0.21-0.38-0.53-0.42-0.98
				c-0.02-0.28,0.04-0.54,0.18-0.78c0.14-0.24,0.35-0.46,0.62-0.64c0.27-0.18,0.59-0.34,0.97-0.46c0.38-0.12,0.79-0.19,1.24-0.22
				c0.35-0.02,0.66-0.01,0.92,0.02c0.26,0.03,0.48,0.07,0.68,0.12c0.19,0.05,0.35,0.09,0.47,0.13c0.12,0.04,0.23,0.06,0.31,0.06
				c0.09,0,0.15-0.02,0.19-0.05c0.04-0.03,0.08-0.07,0.12-0.11c0.05,0.02,0.1,0.04,0.15,0.05c-0.21,0.46-0.41,0.91-0.62,1.37
				c-0.05-0.03-0.09-0.05-0.14-0.08c0.01-0.02,0.01-0.07,0.01-0.15c0-0.05-0.05-0.12-0.15-0.19c-0.1-0.07-0.24-0.14-0.42-0.21
				c-0.18-0.07-0.4-0.12-0.65-0.15c-0.25-0.04-0.52-0.05-0.82-0.03c-0.66,0.04-1.18,0.17-1.55,0.4c-0.37,0.23-0.54,0.51-0.52,0.83
				c0.01,0.15,0.06,0.26,0.15,0.35c0.09,0.08,0.21,0.14,0.37,0.18c0.15,0.04,0.33,0.06,0.52,0.06c0.2,0,0.41,0,0.63-0.02
				c0.38-0.02,0.77-0.04,1.18-0.05c0.41-0.01,0.79,0.03,1.14,0.12c0.35,0.09,0.64,0.26,0.88,0.49c0.23,0.23,0.36,0.58,0.38,1.05
				c0.01,0.25-0.05,0.49-0.17,0.73c-0.12,0.23-0.31,0.45-0.56,0.64c-0.25,0.19-0.57,0.34-0.94,0.46c-0.37,0.12-0.81,0.19-1.31,0.22
				c-0.42,0.03-0.79,0.02-1.1-0.03c-0.31-0.05-0.58-0.1-0.81-0.18c-0.23-0.07-0.41-0.14-0.56-0.2c-0.15-0.06-0.26-0.09-0.35-0.08
				c-0.08,0.01-0.16,0.06-0.24,0.16c-0.04-0.02-0.08-0.04-0.12-0.06c0.18-0.46,0.35-0.93,0.53-1.39
				C385.65,296.33,385.71,296.35,385.76,296.38z"/>
			<path class="st2" d="M398.65,297.7c0.11,0,0.18-0.02,0.22-0.07c0.04-0.05,0.06-0.12,0.06-0.2c0.03-1.46,0.06-2.93,0.08-4.39
				c-0.06,0-0.12,0-0.19,0.01c-0.07,0.01-0.14,0.02-0.2,0.04c-0.06,0.02-0.11,0.06-0.15,0.1c-0.04,0.05-0.06,0.1-0.06,0.17
				c-0.05,0-0.1,0-0.15,0c0.01-0.4,0.01-0.79,0.02-1.19c0.05,0,0.1,0,0.15,0c0,0.15,0.05,0.22,0.16,0.22c0.1,0,0.22-0.03,0.36-0.09
				c0.14-0.06,0.21-0.14,0.21-0.24c0-0.15-0.09-0.22-0.28-0.23c0-0.05,0-0.09,0-0.14c0.48,0.01,0.97,0.02,1.45,0.03
				c0,0.05,0,0.09,0,0.14c-0.1,0-0.16,0.02-0.2,0.06c-0.03,0.04-0.05,0.12-0.05,0.23c-0.05,1.76-0.09,3.53-0.14,5.29
				c0,0.09,0.02,0.15,0.05,0.21c0.04,0.05,0.11,0.08,0.22,0.08c0,0.05,0,0.09,0,0.14c-0.52-0.01-1.03-0.03-1.55-0.04
				C398.65,297.79,398.65,297.75,398.65,297.7z"/>
			<path class="st2" d="M404.51,296.49c-0.01,0.04-0.02,0.07-0.02,0.09c-0.01,0.02-0.01,0.05-0.01,0.08c0,0.08,0.04,0.16,0.13,0.26
				c0.09,0.09,0.21,0.18,0.36,0.27c0.15,0.08,0.34,0.16,0.55,0.22c0.21,0.06,0.44,0.1,0.67,0.12c0.68,0.05,1.2-0.06,1.59-0.33
				c0.38-0.27,0.61-0.77,0.67-1.5c0-0.03,0-0.07,0-0.11c0-0.04,0-0.08,0-0.12c-0.01,0-0.02,0-0.02,0c-0.26,0.27-0.57,0.45-0.93,0.53
				c-0.36,0.08-0.75,0.1-1.16,0.07c-0.31-0.02-0.61-0.08-0.91-0.19c-0.3-0.1-0.56-0.24-0.78-0.42c-0.22-0.18-0.4-0.39-0.53-0.65
				c-0.13-0.25-0.19-0.54-0.17-0.87c0.04-0.7,0.31-1.22,0.81-1.55c0.51-0.33,1.18-0.47,2.01-0.4c0.49,0.04,0.92,0.15,1.27,0.34
				c0.36,0.19,0.65,0.44,0.88,0.74c0.23,0.31,0.38,0.66,0.48,1.07c0.09,0.4,0.12,0.83,0.07,1.29c-0.05,0.5-0.16,0.93-0.33,1.3
				c-0.17,0.37-0.4,0.67-0.68,0.91c-0.28,0.24-0.61,0.4-0.98,0.5c-0.37,0.09-0.78,0.12-1.22,0.09c-0.3-0.02-0.56-0.06-0.78-0.11
				c-0.21-0.05-0.43-0.11-0.65-0.19c-0.13-0.04-0.26-0.09-0.39-0.16c-0.13-0.07-0.26-0.11-0.4-0.12c-0.04,0-0.08,0.01-0.13,0.02
				c-0.05,0.02-0.09,0.04-0.12,0.08c-0.05-0.02-0.1-0.04-0.15-0.07c0.24-0.42,0.48-0.84,0.72-1.26
				C404.41,296.44,404.46,296.47,404.51,296.49z M408.45,294.23c0.02-0.28-0.01-0.52-0.11-0.71c-0.1-0.19-0.23-0.35-0.41-0.48
				s-0.37-0.22-0.6-0.29c-0.22-0.06-0.45-0.11-0.68-0.12c-0.49-0.04-0.9,0.06-1.24,0.28c-0.34,0.22-0.52,0.54-0.54,0.96
				c-0.01,0.24,0.02,0.45,0.11,0.63c0.09,0.18,0.21,0.33,0.37,0.45c0.16,0.12,0.34,0.21,0.55,0.27c0.21,0.07,0.43,0.11,0.67,0.12
				c0.22,0.02,0.44,0,0.66-0.04c0.22-0.05,0.41-0.12,0.58-0.22c0.17-0.1,0.32-0.22,0.43-0.36
				C408.37,294.58,408.43,294.42,408.45,294.23z"/>
			<path class="st2" d="M411.42,292.2c-0.01,0.1,0,0.17,0.04,0.22c0.04,0.05,0.12,0.08,0.24,0.09c1.64,0.18,3.28,0.39,4.92,0.62
				c0.12,0.02,0.21,0.01,0.25-0.03c0.05-0.04,0.08-0.1,0.09-0.2c0.05,0.01,0.1,0.01,0.15,0.02c-0.05,0.32-0.09,0.63-0.14,0.95
				c-1.19,1.51-2.36,3.04-3.48,4.58c-0.02,0.04-0.04,0.07-0.07,0.09c-0.02,0.02-0.04,0.06-0.04,0.11c-0.01,0.07,0.06,0.11,0.2,0.13
				c-0.01,0.05-0.01,0.09-0.02,0.14c-0.54-0.07-1.08-0.14-1.62-0.2c0.01-0.05,0.01-0.09,0.02-0.14c0.15,0.02,0.26,0,0.32-0.06
				c0.07-0.06,0.15-0.16,0.26-0.3c1.04-1.46,2.12-2.92,3.22-4.36c-1.38-0.19-2.76-0.36-4.14-0.51c-0.12-0.01-0.21,0-0.25,0.04
				c-0.05,0.04-0.07,0.11-0.08,0.21c-0.05-0.01-0.1-0.01-0.15-0.02c0.05-0.47,0.1-0.94,0.15-1.41
				C411.32,292.19,411.37,292.19,411.42,292.2z"/>
			<path class="st2" d="M424.51,297.64c-0.09,0.43-0.25,0.82-0.47,1.17c-0.22,0.34-0.49,0.63-0.82,0.85
				c-0.32,0.22-0.69,0.37-1.11,0.44c-0.42,0.07-0.87,0.07-1.37-0.02c-0.5-0.09-0.92-0.24-1.28-0.46c-0.36-0.22-0.65-0.49-0.88-0.81
				c-0.22-0.32-0.38-0.68-0.46-1.08c-0.09-0.4-0.09-0.82-0.02-1.26c0.07-0.44,0.21-0.83,0.42-1.19c0.21-0.35,0.47-0.65,0.8-0.88
				c0.32-0.23,0.7-0.39,1.13-0.48c0.43-0.09,0.91-0.09,1.43,0c0.52,0.09,0.96,0.26,1.34,0.5c0.37,0.24,0.67,0.52,0.89,0.85
				c0.22,0.33,0.37,0.7,0.44,1.1C424.61,296.78,424.6,297.2,424.51,297.64z M423.54,297.44c0.15-0.73,0.08-1.34-0.21-1.84
				c-0.28-0.5-0.81-0.83-1.59-0.97c-0.77-0.14-1.38-0.02-1.83,0.34c-0.44,0.37-0.72,0.92-0.84,1.65c-0.12,0.73-0.04,1.34,0.25,1.83
				c0.29,0.49,0.8,0.8,1.55,0.94c0.75,0.14,1.34,0.03,1.78-0.33C423.1,298.71,423.39,298.17,423.54,297.44z"/>
		</g>
		<g>
			<polygon class="st2" points="390.77,303.82 391.27,304.81 392.37,304.98 391.57,305.75 391.76,306.85 390.77,306.33 
				389.79,306.85 389.97,305.75 389.18,304.98 390.28,304.81 			"/>
			<polygon class="st2" points="402,303.82 402.5,304.81 403.6,304.98 402.8,305.75 402.99,306.85 402,306.33 401.02,306.85 
				401.21,305.75 400.41,304.98 401.51,304.81 			"/>
			<polygon class="st2" points="396.36,301.09 397.07,302.53 398.66,302.76 397.51,303.89 397.78,305.47 396.36,304.72 
				394.93,305.47 395.2,303.89 394.05,302.76 395.64,302.53 			"/>
		</g>
	</g>
	<g>
		<path class="st4" d="M371.67,399.82c0,0.41-0.05,0.79-0.15,1.14c-0.1,0.35-0.24,0.7-0.42,1.03c-0.18,0.33-0.39,0.65-0.62,0.97
			c-0.23,0.32-0.48,0.65-0.73,0.98l-2.63,3.37h4.39v1.89h-6.88v-1.96l3.69-4.66c0.36-0.48,0.65-0.94,0.86-1.38
			c0.22-0.44,0.32-0.87,0.32-1.3c0-0.5-0.11-0.93-0.34-1.28c-0.23-0.35-0.58-0.52-1.04-0.52c-0.42,0-0.77,0.16-1.04,0.47
			c-0.28,0.31-0.46,0.76-0.54,1.35l-2.03-0.2c0.16-1.16,0.56-2.04,1.22-2.63c0.66-0.59,1.49-0.88,2.48-0.88
			c0.55,0,1.04,0.09,1.47,0.27c0.43,0.18,0.79,0.43,1.08,0.76c0.29,0.32,0.52,0.71,0.67,1.15
			C371.59,398.82,371.67,399.3,371.67,399.82z"/>
		<path class="st4" d="M381.1,405.67c0,0.55-0.09,1.06-0.27,1.52s-0.44,0.86-0.76,1.2c-0.33,0.34-0.73,0.6-1.21,0.78
			c-0.47,0.19-1.01,0.28-1.59,0.28s-1.12-0.09-1.58-0.28c-0.47-0.19-0.86-0.45-1.19-0.78s-0.57-0.74-0.75-1.2s-0.26-0.97-0.26-1.52
			c0-0.86,0.19-1.56,0.58-2.1c0.39-0.53,0.87-0.9,1.45-1.09v-0.04c-0.58-0.24-1.01-0.61-1.31-1.1s-0.44-1.08-0.44-1.76
			c0-0.44,0.07-0.87,0.22-1.28c0.14-0.41,0.36-0.77,0.65-1.08c0.29-0.31,0.65-0.56,1.09-0.75c0.44-0.19,0.95-0.28,1.54-0.28
			s1.1,0.09,1.55,0.28c0.44,0.19,0.82,0.43,1.12,0.75c0.3,0.31,0.53,0.67,0.68,1.08c0.15,0.41,0.22,0.83,0.22,1.28
			c0,0.68-0.15,1.27-0.44,1.76s-0.72,0.86-1.29,1.1v0.04c0.58,0.2,1.05,0.57,1.43,1.1C380.91,404.11,381.1,404.8,381.1,405.67z
			 M378.9,405.56c0-0.66-0.15-1.2-0.45-1.61s-0.7-0.62-1.19-0.62c-0.48,0-0.87,0.21-1.17,0.62s-0.45,0.95-0.45,1.61
			c0,0.64,0.14,1.16,0.42,1.58c0.28,0.42,0.68,0.63,1.2,0.63c0.53,0,0.93-0.21,1.22-0.63C378.76,406.72,378.9,406.2,378.9,405.56z
			 M378.72,399.73c0-0.56-0.13-1.03-0.39-1.39c-0.26-0.36-0.62-0.54-1.08-0.54c-0.47,0-0.83,0.18-1.08,0.54
			c-0.25,0.36-0.37,0.82-0.37,1.39c0,0.26,0.03,0.52,0.1,0.76s0.16,0.45,0.29,0.63s0.28,0.32,0.46,0.43
			c0.18,0.11,0.38,0.16,0.6,0.16c0.23,0,0.43-0.05,0.62-0.16c0.18-0.11,0.33-0.25,0.46-0.43c0.13-0.18,0.22-0.39,0.29-0.63
			C378.69,400.24,378.72,399.99,378.72,399.73z"/>
		<path class="st4" d="M396.83,405.6c0,0.56-0.09,1.08-0.27,1.56c-0.18,0.47-0.43,0.88-0.76,1.22c-0.32,0.34-0.72,0.61-1.18,0.79
			c-0.46,0.19-0.97,0.28-1.52,0.28c-0.96,0-1.77-0.24-2.43-0.73c-0.66-0.49-1.11-1.21-1.35-2.17l1.91-0.5
			c0.13,0.46,0.34,0.83,0.64,1.11c0.29,0.28,0.67,0.42,1.14,0.42c0.3,0,0.56-0.06,0.77-0.18c0.22-0.12,0.4-0.28,0.54-0.48
			c0.14-0.2,0.25-0.42,0.32-0.67c0.07-0.25,0.1-0.5,0.1-0.75c0-0.68-0.19-1.2-0.58-1.55c-0.38-0.35-0.88-0.52-1.49-0.52h-0.54v-1.67
			h0.59c0.54,0,0.97-0.17,1.29-0.52c0.32-0.34,0.48-0.82,0.48-1.44c0-0.21-0.03-0.41-0.08-0.62c-0.05-0.21-0.14-0.4-0.26-0.57
			s-0.28-0.31-0.47-0.42c-0.19-0.11-0.42-0.16-0.68-0.16c-0.35,0-0.64,0.11-0.88,0.34c-0.24,0.23-0.43,0.52-0.56,0.86l-1.87-0.52
			c0.14-0.44,0.34-0.83,0.59-1.15c0.25-0.32,0.53-0.58,0.85-0.78c0.31-0.2,0.64-0.35,0.99-0.45c0.35-0.09,0.7-0.14,1.04-0.14
			c0.47,0,0.91,0.08,1.31,0.22c0.41,0.15,0.77,0.37,1.08,0.66c0.31,0.29,0.56,0.64,0.74,1.05c0.18,0.41,0.27,0.88,0.27,1.41
			c0,0.72-0.16,1.35-0.49,1.89c-0.32,0.54-0.78,0.89-1.37,1.04v0.05c0.65,0.17,1.16,0.53,1.55,1.09
			C396.64,404.18,396.83,404.84,396.83,405.6z"/>
		<path class="st4" d="M406.12,402.82c0,0.73-0.05,1.49-0.15,2.27c-0.1,0.78-0.29,1.49-0.58,2.14c-0.28,0.65-0.68,1.18-1.18,1.59
			c-0.5,0.41-1.15,0.62-1.94,0.62s-1.44-0.21-1.93-0.62c-0.5-0.41-0.89-0.95-1.18-1.59c-0.29-0.65-0.48-1.36-0.58-2.14
			c-0.1-0.78-0.15-1.54-0.15-2.27c0-0.73,0.05-1.49,0.15-2.27s0.3-1.49,0.58-2.14c0.29-0.65,0.68-1.18,1.18-1.59
			c0.5-0.41,1.14-0.62,1.93-0.62s1.44,0.21,1.94,0.62c0.5,0.41,0.9,0.95,1.18,1.59c0.28,0.65,0.47,1.36,0.58,2.14
			C406.07,401.34,406.12,402.09,406.12,402.82z M403.94,402.82c0-0.43-0.02-0.92-0.05-1.47c-0.04-0.55-0.11-1.06-0.23-1.53
			c-0.11-0.47-0.28-0.88-0.5-1.21c-0.22-0.33-0.52-0.5-0.89-0.5s-0.67,0.17-0.89,0.5c-0.22,0.33-0.39,0.73-0.5,1.21
			c-0.11,0.47-0.19,0.98-0.23,1.53s-0.05,1.04-0.05,1.47s0.02,0.92,0.05,1.47c0.04,0.55,0.11,1.06,0.23,1.54
			c0.11,0.48,0.28,0.88,0.5,1.21c0.22,0.32,0.52,0.49,0.89,0.49s0.67-0.16,0.89-0.49c0.22-0.32,0.39-0.73,0.5-1.21
			c0.11-0.48,0.19-0.99,0.23-1.54C403.92,403.74,403.94,403.25,403.94,402.82z"/>
		<path class="st4" d="M421.85,405.6c0,0.56-0.09,1.08-0.27,1.56c-0.18,0.47-0.43,0.88-0.76,1.22c-0.32,0.34-0.72,0.61-1.18,0.79
			c-0.46,0.19-0.97,0.28-1.52,0.28c-0.96,0-1.77-0.24-2.43-0.73c-0.66-0.49-1.11-1.21-1.35-2.17l1.91-0.5
			c0.13,0.46,0.35,0.83,0.64,1.11c0.29,0.28,0.67,0.42,1.14,0.42c0.3,0,0.56-0.06,0.77-0.18s0.4-0.28,0.54-0.48
			c0.14-0.2,0.25-0.42,0.32-0.67c0.06-0.25,0.1-0.5,0.1-0.75c0-0.68-0.19-1.2-0.57-1.55c-0.38-0.35-0.88-0.52-1.49-0.52h-0.54v-1.67
			h0.59c0.54,0,0.97-0.17,1.29-0.52s0.48-0.82,0.48-1.44c0-0.21-0.03-0.41-0.08-0.62s-0.14-0.4-0.26-0.57
			c-0.12-0.17-0.28-0.31-0.47-0.42c-0.19-0.11-0.42-0.16-0.68-0.16c-0.35,0-0.64,0.11-0.88,0.34c-0.24,0.23-0.43,0.52-0.56,0.86
			l-1.87-0.52c0.14-0.44,0.34-0.83,0.59-1.15c0.25-0.32,0.53-0.58,0.85-0.78c0.31-0.2,0.64-0.35,0.99-0.45s0.7-0.14,1.04-0.14
			c0.47,0,0.91,0.08,1.31,0.22c0.41,0.15,0.77,0.37,1.08,0.66s0.56,0.64,0.74,1.05c0.18,0.41,0.27,0.88,0.27,1.41
			c0,0.72-0.16,1.35-0.49,1.89c-0.32,0.54-0.78,0.89-1.37,1.04v0.05c0.65,0.17,1.16,0.53,1.55,1.09
			C421.66,404.18,421.85,404.84,421.85,405.6z"/>
		<path class="st4" d="M430.71,399.82c0,0.41-0.05,0.79-0.15,1.14c-0.1,0.35-0.24,0.7-0.42,1.03s-0.39,0.65-0.62,0.97
			c-0.23,0.32-0.48,0.65-0.73,0.98l-2.63,3.37h4.39v1.89h-6.88v-1.96l3.69-4.66c0.36-0.48,0.65-0.94,0.86-1.38
			c0.22-0.44,0.32-0.87,0.32-1.3c0-0.5-0.12-0.93-0.34-1.28c-0.23-0.35-0.58-0.52-1.04-0.52c-0.42,0-0.77,0.16-1.04,0.47
			c-0.28,0.31-0.46,0.76-0.54,1.35l-2.03-0.2c0.16-1.16,0.56-2.04,1.22-2.63c0.66-0.59,1.49-0.88,2.48-0.88
			c0.55,0,1.04,0.09,1.47,0.27c0.43,0.18,0.79,0.43,1.08,0.76c0.29,0.32,0.52,0.71,0.68,1.15
			C430.63,398.82,430.71,399.3,430.71,399.82z"/>
		<path class="st4" d="M384.32,427.2c0,0.56-0.09,1.08-0.27,1.56c-0.18,0.47-0.43,0.88-0.76,1.22c-0.32,0.34-0.72,0.61-1.18,0.79
			c-0.46,0.19-0.97,0.28-1.52,0.28c-0.96,0-1.77-0.24-2.43-0.73c-0.66-0.49-1.11-1.21-1.35-2.17l1.91-0.5
			c0.13,0.46,0.34,0.83,0.64,1.11c0.29,0.28,0.67,0.42,1.14,0.42c0.3,0,0.56-0.06,0.77-0.18c0.22-0.12,0.4-0.28,0.54-0.48
			c0.14-0.2,0.25-0.42,0.32-0.67c0.07-0.25,0.1-0.5,0.1-0.75c0-0.68-0.19-1.2-0.58-1.55c-0.38-0.35-0.88-0.52-1.49-0.52h-0.54v-1.67
			h0.59c0.54,0,0.97-0.17,1.29-0.52c0.32-0.34,0.48-0.82,0.48-1.44c0-0.21-0.03-0.41-0.08-0.62c-0.05-0.21-0.14-0.4-0.26-0.57
			s-0.28-0.31-0.47-0.42c-0.19-0.11-0.42-0.16-0.68-0.16c-0.35,0-0.64,0.11-0.88,0.34c-0.24,0.23-0.43,0.52-0.56,0.86l-1.87-0.52
			c0.14-0.44,0.34-0.83,0.59-1.15c0.25-0.32,0.53-0.58,0.85-0.78c0.31-0.2,0.64-0.35,0.99-0.45c0.35-0.09,0.7-0.14,1.04-0.14
			c0.47,0,0.91,0.08,1.31,0.22c0.41,0.15,0.77,0.37,1.08,0.66c0.31,0.29,0.56,0.64,0.74,1.05c0.18,0.41,0.27,0.88,0.27,1.41
			c0,0.72-0.16,1.35-0.49,1.89c-0.32,0.54-0.78,0.89-1.37,1.04v0.05c0.65,0.17,1.16,0.53,1.55,1.09
			C384.13,425.78,384.32,426.44,384.32,427.2z"/>
		<path class="st4" d="M392.3,428.02v2.77h-1.94v-2.77h-4.61v-1.89l3.85-8.08h2.7v8.17h1.4v1.8H392.3z M390.41,420.16h-0.04
			l-2.72,6.07h2.75V420.16z"/>
		<path class="st4" d="M409.34,427.2c0,0.56-0.09,1.08-0.27,1.56c-0.18,0.47-0.43,0.88-0.76,1.22c-0.32,0.34-0.72,0.61-1.18,0.79
			c-0.46,0.19-0.97,0.28-1.52,0.28c-0.96,0-1.77-0.24-2.43-0.73c-0.66-0.49-1.11-1.21-1.35-2.17l1.91-0.5
			c0.13,0.46,0.35,0.83,0.64,1.11c0.29,0.28,0.67,0.42,1.14,0.42c0.3,0,0.56-0.06,0.77-0.18s0.4-0.28,0.54-0.48
			c0.14-0.2,0.25-0.42,0.32-0.67c0.06-0.25,0.1-0.5,0.1-0.75c0-0.68-0.19-1.2-0.57-1.55c-0.38-0.35-0.88-0.52-1.49-0.52h-0.54v-1.67
			h0.59c0.54,0,0.97-0.17,1.29-0.52s0.48-0.82,0.48-1.44c0-0.21-0.03-0.41-0.08-0.62s-0.14-0.4-0.26-0.57
			c-0.12-0.17-0.28-0.31-0.47-0.42c-0.19-0.11-0.42-0.16-0.68-0.16c-0.35,0-0.64,0.11-0.88,0.34c-0.24,0.23-0.43,0.52-0.56,0.86
			l-1.87-0.52c0.14-0.44,0.34-0.83,0.59-1.15c0.25-0.32,0.53-0.58,0.85-0.78c0.31-0.2,0.64-0.35,0.99-0.45s0.7-0.14,1.04-0.14
			c0.47,0,0.91,0.08,1.31,0.22c0.41,0.15,0.77,0.37,1.08,0.66s0.56,0.64,0.74,1.05c0.18,0.41,0.27,0.88,0.27,1.41
			c0,0.72-0.16,1.35-0.49,1.89c-0.32,0.54-0.78,0.89-1.37,1.04v0.05c0.65,0.17,1.16,0.53,1.55,1.09
			C409.15,425.78,409.34,426.44,409.34,427.2z"/>
		<path class="st4" d="M418.57,426.66c0,0.68-0.1,1.3-0.29,1.84s-0.46,1.01-0.79,1.39c-0.34,0.38-0.74,0.67-1.2,0.86
			s-0.98,0.3-1.53,0.3c-0.56,0-1.08-0.1-1.54-0.3s-0.87-0.48-1.2-0.86c-0.33-0.37-0.6-0.83-0.78-1.37s-0.28-1.15-0.28-1.82
			c0-0.7,0.09-1.35,0.28-1.95c0.19-0.61,0.43-1.2,0.73-1.77l2.52-4.93h2.36l-2.6,4.86l0.02,0.02c0.13-0.12,0.3-0.21,0.51-0.27
			c0.21-0.06,0.41-0.09,0.6-0.09c0.42,0,0.82,0.08,1.21,0.24c0.39,0.16,0.73,0.41,1.02,0.74s0.53,0.75,0.7,1.27
			C418.49,425.33,418.57,425.95,418.57,426.66z M416.54,426.64c0-0.74-0.14-1.36-0.43-1.84c-0.29-0.48-0.72-0.72-1.3-0.72
			c-0.28,0-0.52,0.07-0.74,0.2c-0.21,0.13-0.4,0.31-0.56,0.55c-0.16,0.23-0.28,0.51-0.36,0.82c-0.08,0.31-0.12,0.65-0.12,1.03
			c0,0.78,0.16,1.41,0.47,1.88c0.31,0.47,0.74,0.71,1.3,0.71c0.55,0,0.98-0.24,1.29-0.73C416.39,428.05,416.54,427.42,416.54,426.64
			z"/>
	</g>
</g>
</svg>
